G04*
G04 #@! TF.GenerationSoftware,Altium Limited,Altium Designer,25.8.1 (18)*
G04*
G04 Layer_Physical_Order=2*
G04 Layer_Color=16711680*
%FSLAX44Y44*%
%MOMM*%
G71*
G04*
G04 #@! TF.SameCoordinates,57F80322-994B-4A8F-A2F4-5028E090627E*
G04*
G04*
G04 #@! TF.FilePolarity,Positive*
G04*
G01*
G75*
%ADD13C,0.2540*%
%ADD51C,0.4064*%
%ADD52R,1.6500X1.6500*%
%ADD53O,1.6500X1.6500*%
%ADD54C,1.2800*%
%ADD55R,1.2800X1.2800*%
%ADD56C,1.6002*%
%ADD57C,1.2180*%
%ADD58R,1.2180X1.2180*%
%ADD59C,1.6500*%
%ADD60R,1.6500X1.6500*%
%ADD61R,1.3700X1.3700*%
%ADD62C,1.3700*%
%ADD63C,1.8796*%
%ADD64C,1.5240*%
%ADD65C,0.6000*%
%ADD66C,0.9000*%
G36*
X2547831Y2039D02*
X2039D01*
Y328831D01*
X2547831D01*
Y2039D01*
D02*
G37*
%LPC*%
G36*
X1537794Y325540D02*
X1535606D01*
X1533584Y324703D01*
X1532037Y323156D01*
X1532027Y323131D01*
X1510030D01*
X1508847Y322896D01*
X1507844Y322226D01*
X1471938Y286319D01*
X1471594Y286518D01*
X1469305Y287131D01*
X1466935D01*
X1464646Y286518D01*
X1462593Y285333D01*
X1460917Y283657D01*
X1459732Y281604D01*
X1459119Y279315D01*
Y276945D01*
X1459732Y274656D01*
X1460917Y272603D01*
X1462593Y270927D01*
X1464646Y269742D01*
X1466935Y269129D01*
X1469305D01*
X1471594Y269742D01*
X1473647Y270927D01*
X1475323Y272603D01*
X1476508Y274656D01*
X1477121Y276945D01*
Y279315D01*
X1476508Y281604D01*
X1476309Y281947D01*
X1511310Y316949D01*
X1532027D01*
X1532037Y316924D01*
X1533584Y315377D01*
X1535606Y314540D01*
X1537794D01*
X1539816Y315377D01*
X1541363Y316924D01*
X1542200Y318946D01*
Y321134D01*
X1541363Y323156D01*
X1539816Y324703D01*
X1537794Y325540D01*
D02*
G37*
G36*
X710190Y306521D02*
Y298414D01*
X718297D01*
X718207Y299098D01*
X717171Y301599D01*
X715523Y303747D01*
X713375Y305395D01*
X710874Y306431D01*
X710190Y306521D01*
D02*
G37*
G36*
X706190D02*
X705506Y306431D01*
X703005Y305395D01*
X700857Y303747D01*
X699209Y301599D01*
X698173Y299098D01*
X698082Y298414D01*
X706190D01*
Y306521D01*
D02*
G37*
G36*
X684790D02*
Y298414D01*
X692897D01*
X692807Y299098D01*
X691771Y301599D01*
X690123Y303747D01*
X687975Y305395D01*
X685474Y306431D01*
X684790Y306521D01*
D02*
G37*
G36*
X680790D02*
X680106Y306431D01*
X677605Y305395D01*
X675457Y303747D01*
X673809Y301599D01*
X672773Y299098D01*
X672682Y298414D01*
X680790D01*
Y306521D01*
D02*
G37*
G36*
X733590Y305744D02*
X733590D01*
X731175Y305426D01*
X728925Y304494D01*
X726993Y303011D01*
X725510Y301079D01*
X724578Y298829D01*
X724260Y296414D01*
X724578Y293999D01*
X725510Y291749D01*
X726993Y289817D01*
X728925Y288334D01*
X731175Y287402D01*
X733590Y287084D01*
X733590D01*
X736005Y287402D01*
X738255Y288334D01*
X740187Y289817D01*
X741670Y291749D01*
X742602Y293999D01*
X742920Y296414D01*
X742602Y298829D01*
X741670Y301079D01*
X740187Y303011D01*
X738255Y304494D01*
X736005Y305426D01*
X733590Y305744D01*
D02*
G37*
G36*
X657390D02*
X657390D01*
X654975Y305426D01*
X652725Y304494D01*
X650793Y303011D01*
X649310Y301079D01*
X648378Y298829D01*
X648060Y296414D01*
X648378Y293999D01*
X649310Y291749D01*
X650793Y289817D01*
X652725Y288334D01*
X654975Y287402D01*
X657390Y287084D01*
X657390D01*
X659805Y287402D01*
X662055Y288334D01*
X663987Y289817D01*
X665470Y291749D01*
X666402Y293999D01*
X666720Y296414D01*
X666402Y298829D01*
X665470Y301079D01*
X663987Y303011D01*
X662055Y304494D01*
X659805Y305426D01*
X657390Y305744D01*
D02*
G37*
G36*
X631990D02*
X631990D01*
X629575Y305426D01*
X627325Y304494D01*
X625393Y303011D01*
X623910Y301079D01*
X622978Y298829D01*
X622660Y296414D01*
X622978Y293999D01*
X623910Y291749D01*
X625393Y289817D01*
X627325Y288334D01*
X629575Y287402D01*
X631990Y287084D01*
X631990D01*
X634405Y287402D01*
X636655Y288334D01*
X638587Y289817D01*
X640070Y291749D01*
X641002Y293999D01*
X641320Y296414D01*
X641002Y298829D01*
X640070Y301079D01*
X638587Y303011D01*
X636655Y304494D01*
X634405Y305426D01*
X631990Y305744D01*
D02*
G37*
G36*
X606590D02*
X606590D01*
X604175Y305426D01*
X601925Y304494D01*
X599993Y303011D01*
X598510Y301079D01*
X597578Y298829D01*
X597260Y296414D01*
X597578Y293999D01*
X598510Y291749D01*
X599993Y289817D01*
X601925Y288334D01*
X604175Y287402D01*
X606590Y287084D01*
X606590D01*
X609005Y287402D01*
X611255Y288334D01*
X613187Y289817D01*
X614670Y291749D01*
X615602Y293999D01*
X615920Y296414D01*
X615602Y298829D01*
X614670Y301079D01*
X613187Y303011D01*
X611255Y304494D01*
X609005Y305426D01*
X606590Y305744D01*
D02*
G37*
G36*
X567750Y323091D02*
X40000D01*
X38817Y322856D01*
X37814Y322186D01*
X15314Y299686D01*
X14644Y298683D01*
X14409Y297500D01*
Y212310D01*
X14644Y211127D01*
X15314Y210124D01*
X33427Y192012D01*
X32910Y190084D01*
Y188017D01*
X33445Y186020D01*
X34478Y184230D01*
X35940Y182768D01*
X37730Y181735D01*
X39727Y181200D01*
X41793D01*
X43790Y181735D01*
X45580Y182768D01*
X47042Y184230D01*
X48075Y186020D01*
X48610Y188017D01*
Y190084D01*
X48075Y192080D01*
X47042Y193870D01*
X45580Y195332D01*
X43790Y196365D01*
X41793Y196900D01*
X39727D01*
X37799Y196383D01*
X20591Y213591D01*
Y296220D01*
X41280Y316909D01*
X566469D01*
X576638Y306740D01*
X576561Y305206D01*
X576234Y304270D01*
X574593Y303011D01*
X573110Y301079D01*
X572178Y298829D01*
X571860Y296414D01*
X572178Y293999D01*
X573110Y291749D01*
X574593Y289817D01*
X576525Y288334D01*
X578775Y287402D01*
X581190Y287084D01*
X581190D01*
X583605Y287402D01*
X585855Y288334D01*
X587787Y289817D01*
X589270Y291749D01*
X590202Y293999D01*
X590520Y296414D01*
X590202Y298829D01*
X589270Y301079D01*
X587787Y303011D01*
X585855Y304494D01*
X584281Y305146D01*
Y306560D01*
X584046Y307743D01*
X583376Y308746D01*
X569936Y322186D01*
X568933Y322856D01*
X567750Y323091D01*
D02*
G37*
G36*
X530390Y305744D02*
X530390D01*
X527975Y305426D01*
X525725Y304494D01*
X523793Y303011D01*
X522310Y301079D01*
X521378Y298829D01*
X521060Y296414D01*
X521378Y293999D01*
X522310Y291749D01*
X523793Y289817D01*
X525725Y288334D01*
X527975Y287402D01*
X530390Y287084D01*
X530390D01*
X532805Y287402D01*
X535055Y288334D01*
X536987Y289817D01*
X538470Y291749D01*
X539402Y293999D01*
X539720Y296414D01*
X539402Y298829D01*
X538470Y301079D01*
X536987Y303011D01*
X535055Y304494D01*
X532805Y305426D01*
X530390Y305744D01*
D02*
G37*
G36*
X504990D02*
X504990D01*
X502575Y305426D01*
X500325Y304494D01*
X498393Y303011D01*
X496910Y301079D01*
X495978Y298829D01*
X495660Y296414D01*
X495978Y293999D01*
X496910Y291749D01*
X498393Y289817D01*
X500325Y288334D01*
X502575Y287402D01*
X504990Y287084D01*
X504990D01*
X507405Y287402D01*
X509655Y288334D01*
X511587Y289817D01*
X513070Y291749D01*
X514002Y293999D01*
X514320Y296414D01*
X514002Y298829D01*
X513070Y301079D01*
X511587Y303011D01*
X509655Y304494D01*
X507405Y305426D01*
X504990Y305744D01*
D02*
G37*
G36*
X480835D02*
X480835D01*
X478420Y305426D01*
X476170Y304494D01*
X474238Y303011D01*
X472755Y301079D01*
X471823Y298829D01*
X471505Y296414D01*
X471823Y293999D01*
X472755Y291749D01*
X474238Y289817D01*
X476170Y288334D01*
X478420Y287402D01*
X480835Y287084D01*
X480835D01*
X483250Y287402D01*
X485500Y288334D01*
X487432Y289817D01*
X488915Y291749D01*
X489847Y293999D01*
X490165Y296414D01*
X489847Y298829D01*
X488915Y301079D01*
X487432Y303011D01*
X485500Y304494D01*
X483250Y305426D01*
X480835Y305744D01*
D02*
G37*
G36*
X454190D02*
X454190D01*
X451775Y305426D01*
X449525Y304494D01*
X447593Y303011D01*
X446110Y301079D01*
X445178Y298829D01*
X444860Y296414D01*
X445178Y293999D01*
X446110Y291749D01*
X447593Y289817D01*
X449525Y288334D01*
X451775Y287402D01*
X454190Y287084D01*
X454190D01*
X456605Y287402D01*
X458855Y288334D01*
X460787Y289817D01*
X462270Y291749D01*
X463202Y293999D01*
X463520Y296414D01*
X463202Y298829D01*
X462270Y301079D01*
X460787Y303011D01*
X458855Y304494D01*
X456605Y305426D01*
X454190Y305744D01*
D02*
G37*
G36*
X428790D02*
X428790D01*
X426375Y305426D01*
X424125Y304494D01*
X422193Y303011D01*
X420710Y301079D01*
X419778Y298829D01*
X419460Y296414D01*
X419778Y293999D01*
X420710Y291749D01*
X422193Y289817D01*
X424125Y288334D01*
X426375Y287402D01*
X428790Y287084D01*
X428790D01*
X431205Y287402D01*
X433455Y288334D01*
X435387Y289817D01*
X436870Y291749D01*
X437802Y293999D01*
X438120Y296414D01*
X437802Y298829D01*
X436870Y301079D01*
X435387Y303011D01*
X433455Y304494D01*
X431205Y305426D01*
X428790Y305744D01*
D02*
G37*
G36*
X403390D02*
X403390D01*
X400975Y305426D01*
X398725Y304494D01*
X396793Y303011D01*
X395310Y301079D01*
X394378Y298829D01*
X394060Y296414D01*
X394378Y293999D01*
X395310Y291749D01*
X396793Y289817D01*
X398725Y288334D01*
X400975Y287402D01*
X403390Y287084D01*
X403390D01*
X405805Y287402D01*
X408055Y288334D01*
X409987Y289817D01*
X411470Y291749D01*
X412402Y293999D01*
X412720Y296414D01*
X412402Y298829D01*
X411470Y301079D01*
X409987Y303011D01*
X408055Y304494D01*
X405805Y305426D01*
X403390Y305744D01*
D02*
G37*
G36*
X377990D02*
X377990D01*
X375575Y305426D01*
X373325Y304494D01*
X371393Y303011D01*
X369910Y301079D01*
X368978Y298829D01*
X368660Y296414D01*
X368978Y293999D01*
X369630Y292426D01*
X363521Y286317D01*
X361840Y287510D01*
X361840Y289053D01*
Y305664D01*
X343340D01*
Y287164D01*
X359840D01*
X361494Y287164D01*
X362687Y285483D01*
X345149Y267945D01*
X160000D01*
X158817Y267710D01*
X157814Y267040D01*
X123834Y233060D01*
X73345D01*
X72442Y235030D01*
X73475Y236820D01*
X74010Y238817D01*
Y240884D01*
X73475Y242880D01*
X72442Y244670D01*
X70980Y246132D01*
X69190Y247165D01*
X67193Y247700D01*
X65127D01*
X63130Y247165D01*
X61340Y246132D01*
X59878Y244670D01*
X58845Y242880D01*
X58310Y240884D01*
Y238817D01*
X58845Y236820D01*
X59878Y235030D01*
X61340Y233568D01*
X63063Y232574D01*
X63130Y232533D01*
X63654Y230291D01*
X52425Y219063D01*
X47161D01*
X47042Y219270D01*
X45580Y220732D01*
X43790Y221765D01*
X41793Y222300D01*
X39727D01*
X37730Y221765D01*
X35940Y220732D01*
X34478Y219270D01*
X33445Y217480D01*
X32910Y215483D01*
Y213417D01*
X33445Y211420D01*
X34478Y209630D01*
X35940Y208169D01*
X37730Y207135D01*
X39727Y206600D01*
X41793D01*
X43790Y207135D01*
X45580Y208169D01*
X47042Y209630D01*
X48075Y211420D01*
X48466Y212880D01*
X53706D01*
X54889Y213115D01*
X55246Y213354D01*
X55749Y213336D01*
X57059Y212848D01*
X57486Y212505D01*
X57883Y211022D01*
X59053Y208996D01*
X60706Y207343D01*
X62732Y206173D01*
X64160Y205791D01*
Y214450D01*
X66160D01*
Y216450D01*
X74819D01*
X74437Y217878D01*
X73267Y219904D01*
X71614Y221557D01*
X69588Y222727D01*
X68105Y223124D01*
X67333Y225226D01*
X68983Y226877D01*
X125114D01*
X126297Y227112D01*
X127300Y227782D01*
X161280Y261763D01*
X346430D01*
X347613Y261998D01*
X348616Y262668D01*
X374002Y288054D01*
X375575Y287402D01*
X377990Y287084D01*
X377990D01*
X380405Y287402D01*
X382655Y288334D01*
X384587Y289817D01*
X386070Y291749D01*
X387002Y293999D01*
X387320Y296414D01*
X387002Y298829D01*
X386070Y301079D01*
X384587Y303011D01*
X382655Y304494D01*
X380405Y305426D01*
X377990Y305744D01*
D02*
G37*
G36*
X718297Y294414D02*
X710190D01*
Y286307D01*
X710874Y286397D01*
X713375Y287433D01*
X715523Y289081D01*
X717171Y291229D01*
X718207Y293730D01*
X718297Y294414D01*
D02*
G37*
G36*
X706190D02*
X698082D01*
X698173Y293730D01*
X699209Y291229D01*
X700857Y289081D01*
X703005Y287433D01*
X705506Y286397D01*
X706190Y286307D01*
Y294414D01*
D02*
G37*
G36*
X692897D02*
X684790D01*
Y286307D01*
X685474Y286397D01*
X687975Y287433D01*
X690123Y289081D01*
X691771Y291229D01*
X692807Y293730D01*
X692897Y294414D01*
D02*
G37*
G36*
X680790D02*
X672682D01*
X672773Y293730D01*
X673809Y291229D01*
X675457Y289081D01*
X677605Y287433D01*
X680106Y286397D01*
X680790Y286307D01*
Y294414D01*
D02*
G37*
G36*
X1546320Y287981D02*
Y280130D01*
X1554171D01*
X1553669Y282003D01*
X1552348Y284290D01*
X1550480Y286158D01*
X1548193Y287479D01*
X1546320Y287981D01*
D02*
G37*
G36*
X1542320Y287981D02*
X1540447Y287479D01*
X1538160Y286158D01*
X1536292Y284290D01*
X1534971Y282003D01*
X1534469Y280130D01*
X1542320D01*
Y287981D01*
D02*
G37*
G36*
Y276130D02*
X1534469D01*
X1534971Y274257D01*
X1536292Y271970D01*
X1538160Y270102D01*
X1540447Y268781D01*
X1542320Y268279D01*
Y276130D01*
D02*
G37*
G36*
X1554171D02*
X1546320D01*
Y268279D01*
X1548193Y268781D01*
X1550480Y270102D01*
X1552348Y271970D01*
X1553669Y274257D01*
X1554171Y276130D01*
D02*
G37*
G36*
X67193Y273100D02*
X65127D01*
X63130Y272565D01*
X61340Y271532D01*
X59878Y270070D01*
X58845Y268280D01*
X58310Y266283D01*
Y264217D01*
X58845Y262220D01*
X59878Y260430D01*
X61340Y258969D01*
X63130Y257935D01*
X65127Y257400D01*
X67193D01*
X69190Y257935D01*
X70980Y258969D01*
X72442Y260430D01*
X73475Y262220D01*
X74010Y264217D01*
Y266283D01*
X73475Y268280D01*
X72442Y270070D01*
X70980Y271532D01*
X69190Y272565D01*
X67193Y273100D01*
D02*
G37*
G36*
X48610D02*
X32910D01*
Y257400D01*
X48610D01*
Y273100D01*
D02*
G37*
G36*
X2489554Y272700D02*
X2487487D01*
X2485490Y272165D01*
X2483700Y271132D01*
X2482238Y269670D01*
X2481205Y267880D01*
X2480670Y265884D01*
Y263817D01*
X2481205Y261820D01*
X2482238Y260030D01*
X2483700Y258568D01*
X2485490Y257535D01*
X2487487Y257000D01*
X2489554D01*
X2491550Y257535D01*
X2493340Y258568D01*
X2494802Y260030D01*
X2495835Y261820D01*
X2496370Y263817D01*
Y265884D01*
X2495835Y267880D01*
X2494802Y269670D01*
X2493340Y271132D01*
X2491550Y272165D01*
X2489554Y272700D01*
D02*
G37*
G36*
X2470970D02*
X2455270D01*
Y257000D01*
X2470970D01*
Y272700D01*
D02*
G37*
G36*
X1545505Y261731D02*
X1543135D01*
X1540846Y261118D01*
X1538793Y259933D01*
X1537117Y258257D01*
X1535932Y256204D01*
X1535319Y253915D01*
Y251545D01*
X1535932Y249256D01*
X1537117Y247203D01*
X1538793Y245527D01*
X1540846Y244342D01*
X1543135Y243729D01*
X1545505D01*
X1547794Y244342D01*
X1549847Y245527D01*
X1551523Y247203D01*
X1552708Y249256D01*
X1553321Y251545D01*
Y253915D01*
X1552708Y256204D01*
X1551523Y258257D01*
X1549847Y259933D01*
X1547794Y261118D01*
X1545505Y261731D01*
D02*
G37*
G36*
X1469305D02*
X1466935D01*
X1464646Y261118D01*
X1462593Y259933D01*
X1460917Y258257D01*
X1459732Y256204D01*
X1459119Y253915D01*
Y251545D01*
X1459732Y249256D01*
X1460917Y247203D01*
X1462593Y245527D01*
X1464646Y244342D01*
X1466935Y243729D01*
X1469305D01*
X1471594Y244342D01*
X1473647Y245527D01*
X1475323Y247203D01*
X1476508Y249256D01*
X1477121Y251545D01*
Y253915D01*
X1476508Y256204D01*
X1475323Y258257D01*
X1473647Y259933D01*
X1471594Y261118D01*
X1469305Y261731D01*
D02*
G37*
G36*
X2011150Y256360D02*
X1996970D01*
Y242180D01*
X2011150D01*
Y256360D01*
D02*
G37*
G36*
X1917632Y240395D02*
Y232286D01*
X1925741D01*
X1925213Y234255D01*
X1923860Y236599D01*
X1921945Y238514D01*
X1919601Y239867D01*
X1917632Y240395D01*
D02*
G37*
G36*
X1913632Y240395D02*
X1911663Y239867D01*
X1909319Y238514D01*
X1907404Y236599D01*
X1906051Y234255D01*
X1905523Y232286D01*
X1913632D01*
Y240395D01*
D02*
G37*
G36*
X41793Y247700D02*
X39727D01*
X37730Y247165D01*
X35940Y246132D01*
X34478Y244670D01*
X33445Y242880D01*
X32910Y240884D01*
Y238817D01*
X33445Y236820D01*
X34478Y235030D01*
X35940Y233568D01*
X37730Y232535D01*
X39727Y232000D01*
X41793D01*
X43790Y232535D01*
X45580Y233568D01*
X47042Y235030D01*
X48075Y236820D01*
X48610Y238817D01*
Y240884D01*
X48075Y242880D01*
X47042Y244670D01*
X45580Y246132D01*
X43790Y247165D01*
X41793Y247700D01*
D02*
G37*
G36*
X2489554Y247300D02*
X2487487D01*
X2485490Y246765D01*
X2483700Y245732D01*
X2482238Y244270D01*
X2481205Y242480D01*
X2480670Y240483D01*
Y238417D01*
X2481205Y236420D01*
X2482238Y234630D01*
X2483700Y233169D01*
X2485490Y232135D01*
X2487487Y231600D01*
X2489554D01*
X2491550Y232135D01*
X2493340Y233169D01*
X2494802Y234630D01*
X2495835Y236420D01*
X2496370Y238417D01*
Y240483D01*
X2495835Y242480D01*
X2494802Y244270D01*
X2493340Y245732D01*
X2491550Y246765D01*
X2489554Y247300D01*
D02*
G37*
G36*
X2464153D02*
X2462086D01*
X2460090Y246765D01*
X2458300Y245732D01*
X2456838Y244270D01*
X2455805Y242480D01*
X2455270Y240483D01*
Y238417D01*
X2455805Y236420D01*
X2456838Y234630D01*
X2458300Y233169D01*
X2460090Y232135D01*
X2462086Y231600D01*
X2464153D01*
X2466150Y232135D01*
X2467940Y233169D01*
X2469402Y234630D01*
X2470435Y236420D01*
X2470970Y238417D01*
Y240483D01*
X2470435Y242480D01*
X2469402Y244270D01*
X2467940Y245732D01*
X2466150Y246765D01*
X2464153Y247300D01*
D02*
G37*
G36*
X1470120Y237181D02*
Y229330D01*
X1477971D01*
X1477469Y231203D01*
X1476148Y233490D01*
X1474280Y235358D01*
X1471993Y236679D01*
X1470120Y237181D01*
D02*
G37*
G36*
X1466120Y237181D02*
X1464247Y236679D01*
X1461960Y235358D01*
X1460092Y233490D01*
X1458771Y231203D01*
X1458269Y229330D01*
X1466120D01*
Y237181D01*
D02*
G37*
G36*
X1950282Y239536D02*
X1931782D01*
Y221036D01*
X1950282D01*
Y239536D01*
D02*
G37*
G36*
X1867696Y288480D02*
X1866104D01*
X1864634Y287871D01*
X1863509Y286746D01*
X1862900Y285276D01*
Y283684D01*
X1863509Y282214D01*
X1864634Y281089D01*
X1866104Y280480D01*
X1867627D01*
X1887917Y260189D01*
Y239242D01*
X1886662Y238906D01*
X1884552Y237688D01*
X1882830Y235966D01*
X1881612Y233856D01*
X1880982Y231504D01*
Y229068D01*
X1881612Y226716D01*
X1882830Y224606D01*
X1884552Y222884D01*
X1886662Y221666D01*
X1889014Y221036D01*
X1891450D01*
X1893802Y221666D01*
X1895912Y222884D01*
X1897634Y224606D01*
X1898852Y226716D01*
X1899482Y229068D01*
Y231504D01*
X1898852Y233856D01*
X1897634Y235966D01*
X1895912Y237688D01*
X1893802Y238906D01*
X1892547Y239242D01*
Y261148D01*
X1892370Y262034D01*
X1891869Y262785D01*
X1870900Y283753D01*
Y285276D01*
X1870291Y286746D01*
X1869166Y287871D01*
X1867696Y288480D01*
D02*
G37*
G36*
X1866050Y239536D02*
X1863614D01*
X1861262Y238906D01*
X1859152Y237688D01*
X1857430Y235966D01*
X1856212Y233856D01*
X1855582Y231504D01*
Y229068D01*
X1856212Y226716D01*
X1857430Y224606D01*
X1859152Y222884D01*
X1861262Y221666D01*
X1863614Y221036D01*
X1866050D01*
X1868402Y221666D01*
X1870512Y222884D01*
X1872234Y224606D01*
X1873452Y226716D01*
X1874082Y229068D01*
Y231504D01*
X1873452Y233856D01*
X1872234Y235966D01*
X1870512Y237688D01*
X1868402Y238906D01*
X1866050Y239536D01*
D02*
G37*
G36*
X1840650D02*
X1838214D01*
X1835862Y238906D01*
X1833752Y237688D01*
X1832030Y235966D01*
X1830812Y233856D01*
X1830182Y231504D01*
Y229068D01*
X1830812Y226716D01*
X1832030Y224606D01*
X1833752Y222884D01*
X1835862Y221666D01*
X1838214Y221036D01*
X1840650D01*
X1843002Y221666D01*
X1845112Y222884D01*
X1846834Y224606D01*
X1848052Y226716D01*
X1848682Y229068D01*
Y231504D01*
X1848052Y233856D01*
X1846834Y235966D01*
X1845112Y237688D01*
X1843002Y238906D01*
X1840650Y239536D01*
D02*
G37*
G36*
X1815250D02*
X1812814D01*
X1810462Y238906D01*
X1808352Y237688D01*
X1806630Y235966D01*
X1805412Y233856D01*
X1804782Y231504D01*
Y229068D01*
X1805412Y226716D01*
X1806630Y224606D01*
X1808352Y222884D01*
X1810462Y221666D01*
X1812814Y221036D01*
X1815250D01*
X1817602Y221666D01*
X1819712Y222884D01*
X1821434Y224606D01*
X1822652Y226716D01*
X1823282Y229068D01*
Y231504D01*
X1822652Y233856D01*
X1821434Y235966D01*
X1819712Y237688D01*
X1817602Y238906D01*
X1815250Y239536D01*
D02*
G37*
G36*
X1789850D02*
X1787414D01*
X1785062Y238906D01*
X1782952Y237688D01*
X1781230Y235966D01*
X1780012Y233856D01*
X1779382Y231504D01*
Y229068D01*
X1780012Y226716D01*
X1781230Y224606D01*
X1782952Y222884D01*
X1785062Y221666D01*
X1787414Y221036D01*
X1789850D01*
X1792202Y221666D01*
X1794312Y222884D01*
X1796034Y224606D01*
X1797252Y226716D01*
X1797882Y229068D01*
Y231504D01*
X1797252Y233856D01*
X1796034Y235966D01*
X1794312Y237688D01*
X1792202Y238906D01*
X1789850Y239536D01*
D02*
G37*
G36*
X1913632Y228286D02*
X1905523D01*
X1906051Y226317D01*
X1907404Y223973D01*
X1909319Y222058D01*
X1911663Y220705D01*
X1913632Y220177D01*
Y228286D01*
D02*
G37*
G36*
X1925741D02*
X1917632D01*
Y220177D01*
X1919601Y220705D01*
X1921945Y222058D01*
X1923860Y223973D01*
X1925213Y226317D01*
X1925741Y228286D01*
D02*
G37*
G36*
X1545505Y236331D02*
X1543135D01*
X1540846Y235718D01*
X1538793Y234533D01*
X1537117Y232857D01*
X1535932Y230804D01*
X1535319Y228515D01*
Y226145D01*
X1535932Y223856D01*
X1537117Y221803D01*
X1538793Y220127D01*
X1540846Y218942D01*
X1543135Y218329D01*
X1545505D01*
X1547794Y218942D01*
X1549847Y220127D01*
X1551523Y221803D01*
X1552708Y223856D01*
X1553321Y226145D01*
Y228515D01*
X1552708Y230804D01*
X1551523Y232857D01*
X1549847Y234533D01*
X1547794Y235718D01*
X1545505Y236331D01*
D02*
G37*
G36*
X1477971Y225330D02*
X1470120D01*
Y217479D01*
X1471993Y217981D01*
X1474280Y219302D01*
X1476148Y221170D01*
X1477469Y223457D01*
X1477971Y225330D01*
D02*
G37*
G36*
X1466120D02*
X1458269D01*
X1458771Y223457D01*
X1460092Y221170D01*
X1461960Y219302D01*
X1464247Y217981D01*
X1466120Y217479D01*
Y225330D01*
D02*
G37*
G36*
X2004993Y230960D02*
X2003127D01*
X2001323Y230477D01*
X1999707Y229543D01*
X1998387Y228223D01*
X1997453Y226607D01*
X1996970Y224804D01*
Y222937D01*
X1997453Y221133D01*
X1998387Y219517D01*
X1999707Y218197D01*
X2001323Y217263D01*
X2003127Y216780D01*
X2004993D01*
X2006797Y217263D01*
X2008413Y218197D01*
X2009733Y219517D01*
X2010667Y221133D01*
X2011150Y222937D01*
Y224804D01*
X2010667Y226607D01*
X2009733Y228223D01*
X2008413Y229543D01*
X2006797Y230477D01*
X2004993Y230960D01*
D02*
G37*
G36*
X2490520Y222710D02*
Y216050D01*
X2497179D01*
X2496797Y217478D01*
X2495627Y219504D01*
X2493974Y221157D01*
X2491948Y222327D01*
X2490520Y222710D01*
D02*
G37*
G36*
X2486520D02*
X2485092Y222327D01*
X2483066Y221157D01*
X2481413Y219504D01*
X2480243Y217478D01*
X2479861Y216050D01*
X2486520D01*
Y222710D01*
D02*
G37*
G36*
X2464153Y221900D02*
X2462086D01*
X2460090Y221365D01*
X2458300Y220332D01*
X2456838Y218870D01*
X2455805Y217080D01*
X2455270Y215084D01*
Y213017D01*
X2455805Y211020D01*
X2456838Y209230D01*
X2458300Y207768D01*
X2460090Y206735D01*
X2462086Y206200D01*
X2464153D01*
X2466150Y206735D01*
X2467940Y207768D01*
X2469402Y209230D01*
X2470435Y211020D01*
X2470970Y213017D01*
Y215084D01*
X2470435Y217080D01*
X2469402Y218870D01*
X2467940Y220332D01*
X2466150Y221365D01*
X2464153Y221900D01*
D02*
G37*
G36*
X74819Y212450D02*
X68160D01*
Y205791D01*
X69588Y206173D01*
X71614Y207343D01*
X73267Y208996D01*
X74437Y211022D01*
X74819Y212450D01*
D02*
G37*
G36*
X2497179Y212050D02*
X2490520D01*
Y205391D01*
X2491948Y205773D01*
X2493974Y206943D01*
X2495627Y208596D01*
X2496797Y210622D01*
X2497179Y212050D01*
D02*
G37*
G36*
X2486520D02*
X2479861D01*
X2480243Y210622D01*
X2481413Y208596D01*
X2483066Y206943D01*
X2485092Y205773D01*
X2486520Y205391D01*
Y212050D01*
D02*
G37*
G36*
X664180Y217820D02*
X649380D01*
Y203020D01*
X664180D01*
Y217820D01*
D02*
G37*
G36*
X2067294Y217182D02*
X2065025D01*
X2062832Y216595D01*
X2060867Y215460D01*
X2059262Y213855D01*
X2058127Y211889D01*
X2057540Y209697D01*
Y207427D01*
X2058127Y205235D01*
X2059262Y203270D01*
X2060867Y201665D01*
X2062832Y200530D01*
X2065025Y199942D01*
X2067294D01*
X2069487Y200530D01*
X2071452Y201665D01*
X2073057Y203270D01*
X2074192Y205235D01*
X2074780Y207427D01*
Y209697D01*
X2074192Y211889D01*
X2073057Y213855D01*
X2071452Y215460D01*
X2069487Y216595D01*
X2067294Y217182D01*
D02*
G37*
G36*
X1545505Y210931D02*
X1543135D01*
X1540846Y210318D01*
X1538793Y209133D01*
X1537117Y207457D01*
X1535932Y205404D01*
X1535319Y203115D01*
Y200745D01*
X1535932Y198456D01*
X1537117Y196403D01*
X1538793Y194727D01*
X1540846Y193542D01*
X1543135Y192929D01*
X1545505D01*
X1547794Y193542D01*
X1549847Y194727D01*
X1551523Y196403D01*
X1552708Y198456D01*
X1553321Y200745D01*
Y203115D01*
X1552708Y205404D01*
X1551523Y207457D01*
X1549847Y209133D01*
X1547794Y210318D01*
X1545505Y210931D01*
D02*
G37*
G36*
X1469305D02*
X1466935D01*
X1464646Y210318D01*
X1462593Y209133D01*
X1460917Y207457D01*
X1459732Y205404D01*
X1459119Y203115D01*
Y200745D01*
X1459732Y198456D01*
X1460917Y196403D01*
X1462593Y194727D01*
X1464646Y193542D01*
X1466935Y192929D01*
X1469305D01*
X1471594Y193542D01*
X1473647Y194727D01*
X1475323Y196403D01*
X1476508Y198456D01*
X1477121Y200745D01*
Y203115D01*
X1476508Y205404D01*
X1475323Y207457D01*
X1473647Y209133D01*
X1471594Y210318D01*
X1469305Y210931D01*
D02*
G37*
G36*
X2004993Y205560D02*
X2003127D01*
X2001323Y205077D01*
X1999707Y204144D01*
X1998387Y202823D01*
X1997453Y201207D01*
X1996970Y199403D01*
Y197537D01*
X1997453Y195733D01*
X1998387Y194117D01*
X1999707Y192797D01*
X2001323Y191863D01*
X2003127Y191380D01*
X2004993D01*
X2006797Y191863D01*
X2008413Y192797D01*
X2009733Y194117D01*
X2010667Y195733D01*
X2011150Y197537D01*
Y199403D01*
X2010667Y201207D01*
X2009733Y202823D01*
X2008413Y204144D01*
X2006797Y205077D01*
X2004993Y205560D01*
D02*
G37*
G36*
X68160Y197710D02*
Y191050D01*
X74819D01*
X74437Y192478D01*
X73267Y194504D01*
X71614Y196157D01*
X69588Y197327D01*
X68160Y197710D01*
D02*
G37*
G36*
X64160D02*
X62732Y197327D01*
X60706Y196157D01*
X59053Y194504D01*
X57883Y192478D01*
X57501Y191050D01*
X64160D01*
Y197710D01*
D02*
G37*
G36*
X2490520Y197309D02*
Y190650D01*
X2497179D01*
X2496797Y192078D01*
X2495627Y194104D01*
X2493974Y195757D01*
X2491948Y196927D01*
X2490520Y197309D01*
D02*
G37*
G36*
X2486520D02*
X2485092Y196927D01*
X2483066Y195757D01*
X2481413Y194104D01*
X2480243Y192078D01*
X2479861Y190650D01*
X2486520D01*
Y197309D01*
D02*
G37*
G36*
X2464153Y196500D02*
X2462086D01*
X2460090Y195965D01*
X2458300Y194932D01*
X2456838Y193470D01*
X2455805Y191680D01*
X2455270Y189683D01*
Y187617D01*
X2455805Y185620D01*
X2456838Y183830D01*
X2458300Y182369D01*
X2460090Y181335D01*
X2462086Y180800D01*
X2464153D01*
X2466150Y181335D01*
X2467940Y182369D01*
X2469402Y183830D01*
X2470435Y185620D01*
X2470970Y187617D01*
Y189683D01*
X2470435Y191680D01*
X2469402Y193470D01*
X2467940Y194932D01*
X2466150Y195965D01*
X2464153Y196500D01*
D02*
G37*
G36*
X74819Y187050D02*
X68160D01*
Y180391D01*
X69588Y180773D01*
X71614Y181943D01*
X73267Y183596D01*
X74437Y185622D01*
X74819Y187050D01*
D02*
G37*
G36*
X64160D02*
X57501D01*
X57883Y185622D01*
X59053Y183596D01*
X60706Y181943D01*
X62732Y180773D01*
X64160Y180391D01*
Y187050D01*
D02*
G37*
G36*
X2497179Y186650D02*
X2490520D01*
Y179991D01*
X2491948Y180373D01*
X2493974Y181543D01*
X2495627Y183196D01*
X2496797Y185222D01*
X2497179Y186650D01*
D02*
G37*
G36*
X2486520D02*
X2479861D01*
X2480243Y185222D01*
X2481413Y183196D01*
X2483066Y181543D01*
X2485092Y180373D01*
X2486520Y179991D01*
Y186650D01*
D02*
G37*
G36*
X474440Y185593D02*
Y179400D01*
X480634D01*
X480297Y180655D01*
X479187Y182577D01*
X477617Y184147D01*
X475695Y185257D01*
X474440Y185593D01*
D02*
G37*
G36*
X470440D02*
X469185Y185257D01*
X467263Y184147D01*
X465693Y182577D01*
X464583Y180655D01*
X464246Y179400D01*
X470440D01*
Y185593D01*
D02*
G37*
G36*
X2067294Y191782D02*
X2065025D01*
X2062832Y191195D01*
X2060867Y190060D01*
X2059262Y188455D01*
X2058127Y186490D01*
X2057540Y184297D01*
Y182027D01*
X2058127Y179835D01*
X2059262Y177869D01*
X2060867Y176265D01*
X2062832Y175130D01*
X2065025Y174542D01*
X2067294D01*
X2069487Y175130D01*
X2071452Y176265D01*
X2073057Y177869D01*
X2074192Y179835D01*
X2074780Y182027D01*
Y184297D01*
X2074192Y186490D01*
X2073057Y188455D01*
X2071452Y190060D01*
X2069487Y191195D01*
X2067294Y191782D01*
D02*
G37*
G36*
X1971836Y202120D02*
X1970244D01*
X1968774Y201511D01*
X1967649Y200386D01*
X1967040Y198916D01*
Y198492D01*
X1939510Y170961D01*
X1580565D01*
X1580266Y171261D01*
X1578796Y171870D01*
X1577204D01*
X1575734Y171261D01*
X1574609Y170136D01*
X1574000Y168666D01*
Y167074D01*
X1574609Y165604D01*
X1575734Y164479D01*
X1577204Y163870D01*
X1578796D01*
X1580266Y164479D01*
X1580565Y164779D01*
X1940790D01*
X1941973Y165014D01*
X1942976Y165684D01*
X1971412Y194120D01*
X1971836D01*
X1973306Y194729D01*
X1974431Y195854D01*
X1975040Y197324D01*
Y198916D01*
X1974431Y200386D01*
X1973306Y201511D01*
X1971836Y202120D01*
D02*
G37*
G36*
X480634Y175400D02*
X474440D01*
Y169207D01*
X475695Y169543D01*
X477617Y170653D01*
X479187Y172223D01*
X480297Y174145D01*
X480634Y175400D01*
D02*
G37*
G36*
X470440D02*
X464246D01*
X464583Y174145D01*
X465693Y172223D01*
X467263Y170653D01*
X469185Y169543D01*
X470440Y169207D01*
Y175400D01*
D02*
G37*
G36*
X68160Y172309D02*
Y165650D01*
X74819D01*
X74437Y167078D01*
X73267Y169104D01*
X71614Y170757D01*
X69588Y171927D01*
X68160Y172309D01*
D02*
G37*
G36*
X64160D02*
X62732Y171927D01*
X60706Y170757D01*
X59053Y169104D01*
X57883Y167078D01*
X57501Y165650D01*
X64160D01*
Y172309D01*
D02*
G37*
G36*
X2490520Y171910D02*
Y165250D01*
X2497179D01*
X2496797Y166678D01*
X2495627Y168704D01*
X2493974Y170357D01*
X2491948Y171527D01*
X2490520Y171910D01*
D02*
G37*
G36*
X2486520D02*
X2485092Y171527D01*
X2483066Y170357D01*
X2481413Y168704D01*
X2480243Y166678D01*
X2479861Y165250D01*
X2486520D01*
Y171910D01*
D02*
G37*
G36*
X658780Y168613D02*
Y162420D01*
X664974D01*
X664637Y163675D01*
X663527Y165597D01*
X661957Y167167D01*
X660035Y168277D01*
X658780Y168613D01*
D02*
G37*
G36*
X654780D02*
X653525Y168277D01*
X651603Y167167D01*
X650033Y165597D01*
X648923Y163675D01*
X648587Y162420D01*
X654780D01*
Y168613D01*
D02*
G37*
G36*
X555790Y305744D02*
X555790D01*
X553375Y305426D01*
X551125Y304494D01*
X549193Y303011D01*
X547710Y301079D01*
X546778Y298829D01*
X546460Y296414D01*
X546778Y293999D01*
X547710Y291749D01*
X549193Y289817D01*
X551125Y288334D01*
X552699Y287682D01*
Y223652D01*
X552934Y222469D01*
X553604Y221466D01*
X612482Y162588D01*
Y162164D01*
X613091Y160694D01*
X614217Y159569D01*
X615687Y158960D01*
X617278D01*
X618748Y159569D01*
X619873Y160694D01*
X620482Y162164D01*
Y163756D01*
X619873Y165226D01*
X618748Y166351D01*
X617278Y166960D01*
X616854D01*
X558881Y224933D01*
Y287682D01*
X560455Y288334D01*
X562387Y289817D01*
X563870Y291749D01*
X564802Y293999D01*
X565120Y296414D01*
X564802Y298829D01*
X563870Y301079D01*
X562387Y303011D01*
X560455Y304494D01*
X558205Y305426D01*
X555790Y305744D01*
D02*
G37*
G36*
X505786Y209755D02*
X504194D01*
X502724Y209146D01*
X501599Y208021D01*
X500990Y206551D01*
Y204959D01*
X501599Y203489D01*
X501899Y203190D01*
Y162585D01*
X501599Y162286D01*
X500990Y160816D01*
Y159224D01*
X501599Y157754D01*
X502724Y156629D01*
X504194Y156020D01*
X505786D01*
X507256Y156629D01*
X508381Y157754D01*
X508990Y159224D01*
Y160816D01*
X508381Y162286D01*
X508081Y162585D01*
Y203190D01*
X508381Y203489D01*
X508990Y204959D01*
Y206551D01*
X508381Y208021D01*
X507256Y209146D01*
X505786Y209755D01*
D02*
G37*
G36*
X2464153Y171100D02*
X2462086D01*
X2460090Y170565D01*
X2458300Y169532D01*
X2456838Y168070D01*
X2455805Y166280D01*
X2455270Y164284D01*
Y162217D01*
X2455805Y160220D01*
X2456838Y158430D01*
X2458300Y156968D01*
X2460090Y155935D01*
X2462086Y155400D01*
X2464153D01*
X2466150Y155935D01*
X2467940Y156968D01*
X2469402Y158430D01*
X2470435Y160220D01*
X2470970Y162217D01*
Y164284D01*
X2470435Y166280D01*
X2469402Y168070D01*
X2467940Y169532D01*
X2466150Y170565D01*
X2464153Y171100D01*
D02*
G37*
G36*
X2497179Y161250D02*
X2490520D01*
Y154591D01*
X2491948Y154973D01*
X2493974Y156143D01*
X2495627Y157796D01*
X2496797Y159822D01*
X2497179Y161250D01*
D02*
G37*
G36*
X2486520D02*
X2479861D01*
X2480243Y159822D01*
X2481413Y157796D01*
X2483066Y156143D01*
X2485092Y154973D01*
X2486520Y154591D01*
Y161250D01*
D02*
G37*
G36*
X664974Y158420D02*
X658780D01*
Y152226D01*
X660035Y152563D01*
X661957Y153673D01*
X663527Y155243D01*
X664637Y157165D01*
X664974Y158420D01*
D02*
G37*
G36*
X654780D02*
X648587D01*
X648923Y157165D01*
X650033Y155243D01*
X651603Y153673D01*
X653525Y152563D01*
X654780Y152226D01*
Y158420D01*
D02*
G37*
G36*
X2067294Y166382D02*
X2065025D01*
X2062832Y165795D01*
X2060867Y164660D01*
X2059262Y163055D01*
X2058127Y161089D01*
X2057540Y158897D01*
Y156627D01*
X2058127Y154435D01*
X2059262Y152470D01*
X2059265Y152467D01*
X2049434Y142636D01*
X2048764Y141633D01*
X2048529Y140450D01*
Y98301D01*
X2035248Y85020D01*
X2034824D01*
X2033354Y84411D01*
X2032229Y83286D01*
X2031620Y81816D01*
Y80224D01*
X2032229Y78754D01*
X2033354Y77629D01*
X2034824Y77020D01*
X2036416D01*
X2037886Y77629D01*
X2039011Y78754D01*
X2039620Y80224D01*
Y80648D01*
X2053806Y94834D01*
X2054476Y95837D01*
X2054711Y97020D01*
Y129944D01*
X2056743Y130212D01*
X2057165Y128637D01*
X2058436Y126436D01*
X2060233Y124639D01*
X2062434Y123368D01*
X2064160Y122906D01*
Y132362D01*
Y141819D01*
X2062434Y141356D01*
X2060233Y140086D01*
X2058436Y138289D01*
X2057165Y136088D01*
X2056743Y134513D01*
X2054711Y134781D01*
Y139170D01*
X2064756Y149214D01*
X2065025Y149142D01*
X2067294D01*
X2069487Y149730D01*
X2071452Y150865D01*
X2073057Y152470D01*
X2074192Y154435D01*
X2074780Y156627D01*
Y158897D01*
X2074192Y161089D01*
X2073057Y163055D01*
X2071452Y164660D01*
X2069487Y165795D01*
X2067294Y166382D01*
D02*
G37*
G36*
X2490520Y146510D02*
Y139850D01*
X2497179D01*
X2496797Y141278D01*
X2495627Y143304D01*
X2493974Y144957D01*
X2491948Y146127D01*
X2490520Y146510D01*
D02*
G37*
G36*
X2486520D02*
X2485092Y146127D01*
X2483066Y144957D01*
X2481413Y143304D01*
X2480243Y141278D01*
X2479861Y139850D01*
X2486520D01*
Y146510D01*
D02*
G37*
G36*
X2068160Y141819D02*
Y134362D01*
X2075616D01*
X2075154Y136088D01*
X2073883Y138289D01*
X2072086Y140086D01*
X2069885Y141356D01*
X2068160Y141819D01*
D02*
G37*
G36*
X41793Y146100D02*
X39727D01*
X37730Y145565D01*
X35940Y144532D01*
X34478Y143070D01*
X33445Y141280D01*
X32910Y139284D01*
Y137217D01*
X33427Y135288D01*
X12814Y114676D01*
X12144Y113673D01*
X11909Y112490D01*
Y87500D01*
X12144Y86317D01*
X12814Y85314D01*
X82814Y15314D01*
X83817Y14644D01*
X85000Y14409D01*
X374476D01*
X375659Y14644D01*
X376662Y15314D01*
X399402Y38054D01*
X400975Y37402D01*
X403390Y37084D01*
X403390D01*
X405805Y37402D01*
X408055Y38334D01*
X409987Y39817D01*
X411470Y41749D01*
X412402Y43999D01*
X412720Y46414D01*
X412402Y48829D01*
X411470Y51079D01*
X409987Y53011D01*
X408055Y54494D01*
X405805Y55426D01*
X403390Y55744D01*
X403390D01*
X400975Y55426D01*
X398725Y54494D01*
X396793Y53011D01*
X395310Y51079D01*
X394378Y48829D01*
X394060Y46414D01*
X394378Y43999D01*
X395030Y42426D01*
X373195Y20591D01*
X86280D01*
X18091Y88780D01*
Y111210D01*
X37799Y130917D01*
X39727Y130400D01*
X41793D01*
X43790Y130935D01*
X45580Y131968D01*
X47042Y133430D01*
X48075Y135220D01*
X48610Y137217D01*
Y139284D01*
X48075Y141280D01*
X47042Y143070D01*
X45580Y144532D01*
X43790Y145565D01*
X41793Y146100D01*
D02*
G37*
G36*
X2464153Y145700D02*
X2462086D01*
X2460090Y145165D01*
X2458300Y144132D01*
X2456838Y142670D01*
X2455805Y140880D01*
X2455270Y138883D01*
Y136817D01*
X2455805Y134820D01*
X2456838Y133030D01*
X2458300Y131568D01*
X2460090Y130535D01*
X2462086Y130000D01*
X2464153D01*
X2466150Y130535D01*
X2467940Y131568D01*
X2469402Y133030D01*
X2470435Y134820D01*
X2470970Y136817D01*
Y138883D01*
X2470435Y140880D01*
X2469402Y142670D01*
X2467940Y144132D01*
X2466150Y145165D01*
X2464153Y145700D01*
D02*
G37*
G36*
X74819Y136250D02*
X68160D01*
Y129591D01*
X69588Y129973D01*
X71614Y131143D01*
X73267Y132796D01*
X74437Y134822D01*
X74819Y136250D01*
D02*
G37*
G36*
X64160D02*
X57501D01*
X57883Y134822D01*
X59053Y132796D01*
X60706Y131143D01*
X62732Y129973D01*
X64160Y129591D01*
Y136250D01*
D02*
G37*
G36*
X2497179Y135850D02*
X2490520D01*
Y129191D01*
X2491948Y129573D01*
X2493974Y130743D01*
X2495627Y132396D01*
X2496797Y134422D01*
X2497179Y135850D01*
D02*
G37*
G36*
X2486520D02*
X2479861D01*
X2480243Y134422D01*
X2481413Y132396D01*
X2483066Y130743D01*
X2485092Y129573D01*
X2486520Y129191D01*
Y135850D01*
D02*
G37*
G36*
X238089Y148700D02*
X235351D01*
X232707Y147991D01*
X230336Y146622D01*
X228400Y144687D01*
X227031Y142316D01*
X226322Y139671D01*
Y136933D01*
X227031Y134289D01*
X228400Y131917D01*
X230336Y129982D01*
X232707Y128613D01*
X235351Y127904D01*
X238089D01*
X240734Y128613D01*
X243104Y129982D01*
X245040Y131917D01*
X246409Y134289D01*
X247118Y136933D01*
Y139671D01*
X246409Y142316D01*
X245040Y144687D01*
X243104Y146622D01*
X240734Y147991D01*
X238089Y148700D01*
D02*
G37*
G36*
X187289D02*
X184551D01*
X181907Y147991D01*
X179536Y146622D01*
X177600Y144687D01*
X176231Y142316D01*
X175522Y139671D01*
Y136933D01*
X176231Y134289D01*
X177600Y131917D01*
X179536Y129982D01*
X181907Y128613D01*
X184551Y127904D01*
X187289D01*
X189933Y128613D01*
X192304Y129982D01*
X194240Y131917D01*
X195609Y134289D01*
X196318Y136933D01*
Y139671D01*
X195609Y142316D01*
X194240Y144687D01*
X192304Y146622D01*
X189933Y147991D01*
X187289Y148700D01*
D02*
G37*
G36*
X161889D02*
X159151D01*
X156507Y147991D01*
X154136Y146622D01*
X152200Y144687D01*
X150831Y142316D01*
X150122Y139671D01*
Y136933D01*
X150831Y134289D01*
X152200Y131917D01*
X154136Y129982D01*
X156507Y128613D01*
X159151Y127904D01*
X161889D01*
X164534Y128613D01*
X166905Y129982D01*
X168841Y131917D01*
X170209Y134289D01*
X170918Y136933D01*
Y139671D01*
X170209Y142316D01*
X168841Y144687D01*
X166905Y146622D01*
X164534Y147991D01*
X161889Y148700D01*
D02*
G37*
G36*
X2075616Y130362D02*
X2068160D01*
Y122906D01*
X2069885Y123368D01*
X2072086Y124639D01*
X2073883Y126436D01*
X2075154Y128637D01*
X2075616Y130362D01*
D02*
G37*
G36*
X479840Y134800D02*
X465040D01*
Y120000D01*
X479840D01*
Y134800D01*
D02*
G37*
G36*
X532056Y124650D02*
X530464D01*
X528994Y124041D01*
X527869Y122916D01*
X527260Y121446D01*
Y119854D01*
X527869Y118384D01*
X528994Y117259D01*
X530464Y116650D01*
X532056D01*
X533526Y117259D01*
X534651Y118384D01*
X535260Y119854D01*
Y121446D01*
X534651Y122916D01*
X533526Y124041D01*
X532056Y124650D01*
D02*
G37*
G36*
X68160Y121510D02*
Y114850D01*
X74819D01*
X74437Y116278D01*
X73267Y118304D01*
X71614Y119957D01*
X69588Y121127D01*
X68160Y121510D01*
D02*
G37*
G36*
X64160D02*
X62732Y121127D01*
X60706Y119957D01*
X59053Y118304D01*
X57883Y116278D01*
X57501Y114850D01*
X64160D01*
Y121510D01*
D02*
G37*
G36*
X2490520Y121110D02*
Y114450D01*
X2497179D01*
X2496797Y115878D01*
X2495627Y117904D01*
X2493974Y119557D01*
X2491948Y120727D01*
X2490520Y121110D01*
D02*
G37*
G36*
X2486520D02*
X2485092Y120727D01*
X2483066Y119557D01*
X2481413Y117904D01*
X2480243Y115878D01*
X2479861Y114450D01*
X2486520D01*
Y121110D01*
D02*
G37*
G36*
X41793Y120700D02*
X39727D01*
X37730Y120165D01*
X35940Y119132D01*
X34478Y117670D01*
X33445Y115880D01*
X32910Y113883D01*
Y111817D01*
X33445Y109820D01*
X34478Y108030D01*
X35940Y106568D01*
X37730Y105535D01*
X39727Y105000D01*
X41793D01*
X43790Y105535D01*
X45580Y106568D01*
X47042Y108030D01*
X48075Y109820D01*
X48610Y111817D01*
Y113883D01*
X48075Y115880D01*
X47042Y117670D01*
X45580Y119132D01*
X43790Y120165D01*
X41793Y120700D01*
D02*
G37*
G36*
X2464153Y120300D02*
X2462086D01*
X2460090Y119765D01*
X2458300Y118732D01*
X2456838Y117270D01*
X2455805Y115480D01*
X2455270Y113483D01*
Y111417D01*
X2455805Y109420D01*
X2456838Y107630D01*
X2458300Y106168D01*
X2460090Y105135D01*
X2462086Y104600D01*
X2464153D01*
X2466150Y105135D01*
X2467940Y106168D01*
X2469402Y107630D01*
X2470435Y109420D01*
X2470970Y111417D01*
Y113483D01*
X2470435Y115480D01*
X2469402Y117270D01*
X2467940Y118732D01*
X2466150Y119765D01*
X2464153Y120300D01*
D02*
G37*
G36*
X74819Y110850D02*
X68160D01*
Y104191D01*
X69588Y104573D01*
X71614Y105743D01*
X73267Y107396D01*
X74437Y109422D01*
X74819Y110850D01*
D02*
G37*
G36*
X64160D02*
X57501D01*
X57883Y109422D01*
X59053Y107396D01*
X60706Y105743D01*
X62732Y104573D01*
X64160Y104191D01*
Y110850D01*
D02*
G37*
G36*
X2497179Y110450D02*
X2490520D01*
Y103791D01*
X2491948Y104173D01*
X2493974Y105343D01*
X2495627Y106996D01*
X2496797Y109022D01*
X2497179Y110450D01*
D02*
G37*
G36*
X2486520D02*
X2479861D01*
X2480243Y109022D01*
X2481413Y106996D01*
X2483066Y105343D01*
X2485092Y104173D01*
X2486520Y103791D01*
Y110450D01*
D02*
G37*
G36*
X1966756Y85020D02*
X1965164D01*
X1963694Y84411D01*
X1963395Y84111D01*
X1597426D01*
X1597126Y84411D01*
X1595656Y85020D01*
X1594064D01*
X1592594Y84411D01*
X1591469Y83286D01*
X1590860Y81816D01*
Y80224D01*
X1591469Y78754D01*
X1592594Y77629D01*
X1594064Y77020D01*
X1595656D01*
X1597126Y77629D01*
X1597426Y77929D01*
X1963395D01*
X1963694Y77629D01*
X1965164Y77020D01*
X1966756D01*
X1968226Y77629D01*
X1969351Y78754D01*
X1969960Y80224D01*
Y81816D01*
X1969351Y83286D01*
X1968226Y84411D01*
X1966756Y85020D01*
D02*
G37*
G36*
X557790Y56522D02*
Y48414D01*
X565897D01*
X565807Y49098D01*
X564771Y51599D01*
X563123Y53747D01*
X560975Y55395D01*
X558474Y56431D01*
X557790Y56522D01*
D02*
G37*
G36*
X553790D02*
X553106Y56431D01*
X550605Y55395D01*
X548457Y53747D01*
X546809Y51599D01*
X545773Y49098D01*
X545682Y48414D01*
X553790D01*
Y56522D01*
D02*
G37*
G36*
X957106Y94406D02*
X955514D01*
X954044Y93797D01*
X952919Y92672D01*
X952310Y91202D01*
Y89610D01*
X952919Y88140D01*
X953219Y87841D01*
Y55177D01*
X946955Y48913D01*
X946531D01*
X945061Y48304D01*
X943935Y47179D01*
X943326Y45708D01*
Y44117D01*
X943935Y42647D01*
X945061Y41522D01*
X946531Y40913D01*
X948122D01*
X949592Y41522D01*
X950718Y42647D01*
X951327Y44117D01*
Y44541D01*
X958496Y51710D01*
X959166Y52713D01*
X959401Y53896D01*
Y87841D01*
X959701Y88140D01*
X960310Y89610D01*
Y91202D01*
X959701Y92672D01*
X958576Y93797D01*
X957106Y94406D01*
D02*
G37*
G36*
X455435Y55989D02*
X455435D01*
X453020Y55671D01*
X450770Y54739D01*
X448838Y53257D01*
X447355Y51325D01*
X446423Y49074D01*
X446105Y46659D01*
X446423Y44245D01*
X447355Y41995D01*
X448838Y40062D01*
X450770Y38580D01*
X453020Y37648D01*
X455435Y37330D01*
X455435D01*
X457850Y37648D01*
X460100Y38580D01*
X462032Y40062D01*
X463515Y41995D01*
X464447Y44245D01*
X464765Y46659D01*
X464447Y49074D01*
X463515Y51325D01*
X462032Y53257D01*
X460100Y54739D01*
X457850Y55671D01*
X455435Y55989D01*
D02*
G37*
G36*
X361840Y55664D02*
X343340D01*
Y37164D01*
X361840D01*
Y55664D01*
D02*
G37*
G36*
X581190Y55744D02*
X581190D01*
X578775Y55426D01*
X576525Y54494D01*
X574593Y53011D01*
X573110Y51079D01*
X572178Y48829D01*
X571860Y46414D01*
X572178Y43999D01*
X573110Y41749D01*
X574593Y39817D01*
X576525Y38334D01*
X578775Y37402D01*
X581190Y37084D01*
X581190D01*
X583605Y37402D01*
X585855Y38334D01*
X587787Y39817D01*
X589270Y41749D01*
X590202Y43999D01*
X590520Y46414D01*
X590202Y48829D01*
X589270Y51079D01*
X587787Y53011D01*
X585855Y54494D01*
X583605Y55426D01*
X581190Y55744D01*
D02*
G37*
G36*
X530390D02*
X530390D01*
X527975Y55426D01*
X525725Y54494D01*
X523793Y53011D01*
X522310Y51079D01*
X521378Y48829D01*
X521060Y46414D01*
X521378Y43999D01*
X522310Y41749D01*
X523793Y39817D01*
X525725Y38334D01*
X527975Y37402D01*
X530390Y37084D01*
X530390D01*
X532805Y37402D01*
X535055Y38334D01*
X536987Y39817D01*
X538470Y41749D01*
X539402Y43999D01*
X539720Y46414D01*
X539402Y48829D01*
X538470Y51079D01*
X536987Y53011D01*
X535055Y54494D01*
X532805Y55426D01*
X530390Y55744D01*
D02*
G37*
G36*
X504990D02*
X504990D01*
X502575Y55426D01*
X500325Y54494D01*
X498393Y53011D01*
X496910Y51079D01*
X495978Y48829D01*
X495660Y46414D01*
X495978Y43999D01*
X496910Y41749D01*
X498393Y39817D01*
X500325Y38334D01*
X502575Y37402D01*
X504990Y37084D01*
X504990D01*
X507405Y37402D01*
X509655Y38334D01*
X511587Y39817D01*
X513070Y41749D01*
X514002Y43999D01*
X514320Y46414D01*
X514002Y48829D01*
X513070Y51079D01*
X511587Y53011D01*
X509655Y54494D01*
X507405Y55426D01*
X504990Y55744D01*
D02*
G37*
G36*
X479590D02*
X479590D01*
X477175Y55426D01*
X474925Y54494D01*
X472993Y53011D01*
X471510Y51079D01*
X470578Y48829D01*
X470260Y46414D01*
X470578Y43999D01*
X471510Y41749D01*
X472993Y39817D01*
X474925Y38334D01*
X477175Y37402D01*
X479590Y37084D01*
X479590D01*
X482005Y37402D01*
X484255Y38334D01*
X486187Y39817D01*
X487670Y41749D01*
X488602Y43999D01*
X488920Y46414D01*
X488602Y48829D01*
X487670Y51079D01*
X486187Y53011D01*
X484255Y54494D01*
X482005Y55426D01*
X479590Y55744D01*
D02*
G37*
G36*
X428790D02*
X428790D01*
X426375Y55426D01*
X424125Y54494D01*
X422193Y53011D01*
X420710Y51079D01*
X419778Y48829D01*
X419460Y46414D01*
X419778Y43999D01*
X420710Y41749D01*
X422193Y39817D01*
X424125Y38334D01*
X426375Y37402D01*
X428790Y37084D01*
X428790D01*
X431205Y37402D01*
X433455Y38334D01*
X435387Y39817D01*
X436870Y41749D01*
X437802Y43999D01*
X438120Y46414D01*
X437802Y48829D01*
X436870Y51079D01*
X435387Y53011D01*
X433455Y54494D01*
X431205Y55426D01*
X428790Y55744D01*
D02*
G37*
G36*
X41793Y171500D02*
X39727D01*
X37730Y170965D01*
X35940Y169932D01*
X34478Y168470D01*
X33445Y166680D01*
X32910Y164683D01*
Y162617D01*
X33445Y160620D01*
X34478Y158830D01*
X35940Y157368D01*
X37730Y156335D01*
X39727Y155800D01*
X41793D01*
X43721Y156317D01*
X52170Y147868D01*
X53173Y147198D01*
X54356Y146963D01*
X59572D01*
X59752Y146708D01*
X60280Y144931D01*
X59053Y143704D01*
X57883Y141678D01*
X57501Y140250D01*
X66160D01*
X74819D01*
X74437Y141678D01*
X73267Y143704D01*
X72040Y144931D01*
X72568Y146708D01*
X72748Y146963D01*
X99467D01*
X178762Y67668D01*
X179765Y66998D01*
X180948Y66763D01*
X356219D01*
X370775Y52207D01*
X369910Y51079D01*
X368978Y48829D01*
X368660Y46414D01*
X368978Y43999D01*
X369910Y41749D01*
X371393Y39817D01*
X373325Y38334D01*
X375575Y37402D01*
X377990Y37084D01*
X377990D01*
X380405Y37402D01*
X382655Y38334D01*
X384587Y39817D01*
X386070Y41749D01*
X387002Y43999D01*
X387320Y46414D01*
X387002Y48829D01*
X386070Y51079D01*
X384587Y53011D01*
X382655Y54494D01*
X380405Y55426D01*
X377990Y55744D01*
X377990D01*
X376216Y55510D01*
X359686Y72040D01*
X358683Y72710D01*
X357500Y72945D01*
X182228D01*
X102934Y152240D01*
X101931Y152910D01*
X100748Y153146D01*
X69125D01*
X68858Y155178D01*
X69588Y155373D01*
X71614Y156543D01*
X73267Y158196D01*
X74437Y160222D01*
X74819Y161650D01*
X66160D01*
X57501D01*
X57883Y160222D01*
X59053Y158196D01*
X60706Y156543D01*
X62732Y155373D01*
X63462Y155178D01*
X63195Y153146D01*
X55636D01*
X48093Y160689D01*
X48610Y162617D01*
Y164683D01*
X48075Y166680D01*
X47042Y168470D01*
X45580Y169932D01*
X43790Y170965D01*
X41793Y171500D01*
D02*
G37*
G36*
X565897Y44414D02*
X557790D01*
Y36307D01*
X558474Y36397D01*
X560975Y37433D01*
X563123Y39081D01*
X564771Y41229D01*
X565807Y43730D01*
X565897Y44414D01*
D02*
G37*
G36*
X553790D02*
X545682D01*
X545773Y43730D01*
X546809Y41229D01*
X548457Y39081D01*
X550605Y37433D01*
X553106Y36397D01*
X553790Y36307D01*
Y44414D01*
D02*
G37*
G36*
X968296Y71500D02*
X966704D01*
X965234Y70891D01*
X964109Y69766D01*
X963500Y68296D01*
Y66704D01*
X964109Y65234D01*
X965234Y64109D01*
X966704Y63500D01*
X967128D01*
X992814Y37814D01*
X993817Y37144D01*
X995000Y36909D01*
X1029935D01*
X1030234Y36609D01*
X1031704Y36000D01*
X1033296D01*
X1034766Y36609D01*
X1035891Y37734D01*
X1036500Y39204D01*
Y40796D01*
X1035891Y42266D01*
X1034766Y43391D01*
X1033296Y44000D01*
X1031704D01*
X1030234Y43391D01*
X1029935Y43091D01*
X996281D01*
X971500Y67872D01*
Y68296D01*
X970891Y69766D01*
X969766Y70891D01*
X968296Y71500D01*
D02*
G37*
%LPD*%
D13*
X1866900Y284480D02*
X1890232Y261148D01*
Y230286D02*
Y261148D01*
D51*
X581190Y296414D02*
Y306560D01*
X555790Y223652D02*
Y296414D01*
X555790Y296414D02*
X555790Y296414D01*
X160000Y264854D02*
X346430D01*
X377990Y296414D02*
X377990D01*
X346430Y264854D02*
X377990Y296414D01*
X377990Y46414D02*
Y49364D01*
X357500Y69854D02*
X377990Y49364D01*
X180948Y69854D02*
X357500D01*
X100748Y150054D02*
X180948Y69854D01*
X40760Y163650D02*
X54356Y150054D01*
X100748D01*
X15000Y87500D02*
Y112490D01*
X40760Y138250D01*
X85000Y17500D02*
X374476D01*
X15000Y87500D02*
X85000Y17500D01*
X403390Y46414D02*
X403390D01*
X374476Y17500D02*
X403390Y46414D01*
X17500Y212310D02*
Y297500D01*
Y212310D02*
X40760Y189050D01*
X17500Y297500D02*
X40000Y320000D01*
X567750D01*
X581190Y306560D01*
X125114Y229968D02*
X160000Y264854D01*
X67703Y229968D02*
X125114D01*
X53706Y215971D02*
X67703Y229968D01*
X42281Y215971D02*
X53706D01*
X40760Y214450D02*
X42281Y215971D01*
X995000Y40000D02*
X1032500D01*
X967500Y67500D02*
X995000Y40000D01*
X504990Y160020D02*
Y205755D01*
X555790Y223652D02*
X616482Y162960D01*
X1468120Y278130D02*
X1510030Y320040D01*
X956310Y53896D02*
Y90406D01*
X947327Y44913D02*
X956310Y53896D01*
X1578000Y167870D02*
X1940790D01*
X1594860Y81020D02*
X1965960D01*
X1940790Y167870D02*
X1971040Y198120D01*
X1510030Y320040D02*
X1536700D01*
X2066280Y155110D02*
Y157572D01*
X2051620Y140450D02*
X2066280Y155110D01*
X2051620Y97020D02*
Y140450D01*
X2035620Y81020D02*
X2051620Y97020D01*
D52*
X352590Y46414D02*
D03*
Y296414D02*
D03*
D53*
X377990Y46414D02*
D03*
X403390D02*
D03*
X428790D02*
D03*
X455435Y46659D02*
D03*
X479590Y46414D02*
D03*
X504990D02*
D03*
X530390D02*
D03*
X555790D02*
D03*
X581190D02*
D03*
X657390Y296414D02*
D03*
X631990D02*
D03*
X606590D02*
D03*
X581190D02*
D03*
X555790D02*
D03*
X530390D02*
D03*
X504990D02*
D03*
X480835D02*
D03*
X454190D02*
D03*
X428790D02*
D03*
X403390D02*
D03*
X377990D02*
D03*
X708190D02*
D03*
X682790D02*
D03*
X733590D02*
D03*
D54*
X472440Y177400D02*
D03*
X656780Y160420D02*
D03*
D55*
X472440Y127400D02*
D03*
X656780Y210420D02*
D03*
D56*
X1468120Y278130D02*
D03*
Y252730D02*
D03*
Y227330D02*
D03*
Y201930D02*
D03*
X1544320D02*
D03*
Y227330D02*
D03*
Y252730D02*
D03*
Y278130D02*
D03*
D57*
X2004060Y198470D02*
D03*
Y223870D02*
D03*
D58*
Y249270D02*
D03*
D59*
X1788632Y230286D02*
D03*
X1814032D02*
D03*
X1839432D02*
D03*
X1864832D02*
D03*
X1890232D02*
D03*
X1915632D02*
D03*
D60*
X1941032D02*
D03*
D61*
X2463120Y264850D02*
D03*
X40760Y265250D02*
D03*
D62*
X2488520Y264850D02*
D03*
X2463120Y239450D02*
D03*
X2488520D02*
D03*
X2463120Y214050D02*
D03*
X2488520D02*
D03*
X2463120Y188650D02*
D03*
X2488520D02*
D03*
X2463120Y163250D02*
D03*
X2488520D02*
D03*
X2463120Y137850D02*
D03*
X2488520D02*
D03*
X2463120Y112450D02*
D03*
X2488520D02*
D03*
X66160Y112850D02*
D03*
X40760D02*
D03*
X66160Y138250D02*
D03*
Y163650D02*
D03*
Y189050D02*
D03*
Y214450D02*
D03*
Y239850D02*
D03*
X40760D02*
D03*
X66160Y265250D02*
D03*
X40760Y138250D02*
D03*
Y189050D02*
D03*
Y214450D02*
D03*
Y163650D02*
D03*
D63*
X185920Y138302D02*
D03*
X236720D02*
D03*
X211320D02*
D03*
X160520D02*
D03*
D64*
X2066160Y132362D02*
D03*
Y157762D02*
D03*
Y183162D02*
D03*
Y208562D02*
D03*
D65*
X2509284Y283470D02*
D03*
Y181870D02*
D03*
Y80270D02*
D03*
X2483884Y29470D02*
D03*
X2458484Y283470D02*
D03*
X2433084Y232670D02*
D03*
Y131070D02*
D03*
X2458484Y80270D02*
D03*
X2433084Y29470D02*
D03*
X2407684Y283470D02*
D03*
X2382284Y232670D02*
D03*
X2407684Y181870D02*
D03*
X2382284Y131070D02*
D03*
X2407684Y80270D02*
D03*
X2382284Y29470D02*
D03*
X2356884Y283470D02*
D03*
X2331484Y232670D02*
D03*
X2356884Y181870D02*
D03*
X2331484Y131070D02*
D03*
X2356884Y80270D02*
D03*
X2331484Y29470D02*
D03*
X2306084Y283470D02*
D03*
X2280684Y232670D02*
D03*
X2306084Y181870D02*
D03*
X2280684Y131070D02*
D03*
X2306084Y80270D02*
D03*
X2280684Y29470D02*
D03*
X2255284Y283470D02*
D03*
X2229884Y232670D02*
D03*
X2255284Y181870D02*
D03*
X2229884Y131070D02*
D03*
X2255284Y80270D02*
D03*
X2229884Y29470D02*
D03*
X2204484Y283470D02*
D03*
X2179084Y232670D02*
D03*
X2204484Y181870D02*
D03*
X2179084Y131070D02*
D03*
X2204484Y80270D02*
D03*
X2179084Y29470D02*
D03*
X2153684Y283470D02*
D03*
X2128284Y232670D02*
D03*
X2153684Y181870D02*
D03*
X2128284Y131070D02*
D03*
X2153684Y80270D02*
D03*
X2128284Y29470D02*
D03*
X2102884Y283470D02*
D03*
X2077484Y232670D02*
D03*
X2102884Y181870D02*
D03*
Y80270D02*
D03*
X2077484Y29470D02*
D03*
X2052084Y283470D02*
D03*
Y181870D02*
D03*
Y80270D02*
D03*
X2026684Y29470D02*
D03*
X2001284Y283470D02*
D03*
X1975884Y232670D02*
D03*
X2001284Y181870D02*
D03*
X1975884Y131070D02*
D03*
Y29470D02*
D03*
X1950484Y283470D02*
D03*
X1925084Y131070D02*
D03*
Y29470D02*
D03*
X1899684Y283470D02*
D03*
Y181870D02*
D03*
X1874284Y131070D02*
D03*
Y29470D02*
D03*
X1848884Y283470D02*
D03*
Y181870D02*
D03*
X1823484Y131070D02*
D03*
Y29470D02*
D03*
X1772684Y232670D02*
D03*
X1798084Y181870D02*
D03*
X1772684Y131070D02*
D03*
Y29470D02*
D03*
X1747284Y283470D02*
D03*
X1721884Y232670D02*
D03*
X1747284Y181870D02*
D03*
X1721884Y131070D02*
D03*
Y29470D02*
D03*
X1696484Y283470D02*
D03*
X1671084Y232670D02*
D03*
X1696484Y181870D02*
D03*
X1671084Y131070D02*
D03*
Y29470D02*
D03*
X1645684Y283470D02*
D03*
X1620284Y232670D02*
D03*
X1645684Y181870D02*
D03*
X1620284Y131070D02*
D03*
Y29470D02*
D03*
X1594884Y283470D02*
D03*
X1569484Y232670D02*
D03*
X1594884Y181870D02*
D03*
X1569484Y29470D02*
D03*
X1518684Y232670D02*
D03*
X1544084Y181870D02*
D03*
Y80270D02*
D03*
X1518684Y29470D02*
D03*
X1493284Y283470D02*
D03*
Y181870D02*
D03*
X1467884Y29470D02*
D03*
X1442484Y283470D02*
D03*
Y181870D02*
D03*
X1417084Y131070D02*
D03*
X1442484Y80270D02*
D03*
X1417084Y29470D02*
D03*
X1391684Y283470D02*
D03*
X1366284Y232670D02*
D03*
X1391684Y181870D02*
D03*
X1366284Y29470D02*
D03*
X1340884Y283470D02*
D03*
X1315484Y232670D02*
D03*
Y131070D02*
D03*
Y29470D02*
D03*
X1290084Y283470D02*
D03*
X1264684Y232670D02*
D03*
Y131070D02*
D03*
Y29470D02*
D03*
X1239284Y283470D02*
D03*
X1213884Y232670D02*
D03*
Y131070D02*
D03*
Y29470D02*
D03*
X1188484Y283470D02*
D03*
X1163084Y232670D02*
D03*
Y131070D02*
D03*
Y29470D02*
D03*
X1137684Y283470D02*
D03*
X1112284Y232670D02*
D03*
Y131070D02*
D03*
Y29470D02*
D03*
X1086884Y283470D02*
D03*
X1061484Y232670D02*
D03*
Y131070D02*
D03*
Y29470D02*
D03*
X1036084Y283470D02*
D03*
X1010684Y232670D02*
D03*
Y131070D02*
D03*
Y29470D02*
D03*
X985284Y283470D02*
D03*
X959884Y232670D02*
D03*
X985284Y181870D02*
D03*
Y80270D02*
D03*
X959884Y29470D02*
D03*
X934484Y283470D02*
D03*
X909084Y232670D02*
D03*
X934484Y181870D02*
D03*
Y80270D02*
D03*
X883684Y283470D02*
D03*
X858284Y232670D02*
D03*
X883684Y181870D02*
D03*
Y80270D02*
D03*
X832884Y283470D02*
D03*
X807484Y232670D02*
D03*
X832884Y181870D02*
D03*
Y80270D02*
D03*
X782084Y283470D02*
D03*
X756684Y232670D02*
D03*
X782084Y181870D02*
D03*
Y80270D02*
D03*
X731284Y283470D02*
D03*
X705884Y232670D02*
D03*
X731284Y181870D02*
D03*
Y80270D02*
D03*
X680484Y181870D02*
D03*
Y80270D02*
D03*
X629684Y283470D02*
D03*
X604284Y232670D02*
D03*
X629684Y181870D02*
D03*
X604284Y131070D02*
D03*
X629684Y80270D02*
D03*
X578884Y283470D02*
D03*
Y181870D02*
D03*
X553484Y131070D02*
D03*
X578884Y80270D02*
D03*
X528084Y181870D02*
D03*
X502684Y131070D02*
D03*
X477284Y283470D02*
D03*
X451884Y232670D02*
D03*
Y131070D02*
D03*
X477284Y80270D02*
D03*
X426484Y283470D02*
D03*
X401084Y232670D02*
D03*
X426484Y181870D02*
D03*
X401084Y131070D02*
D03*
X426484Y80270D02*
D03*
X350284Y232670D02*
D03*
X375684Y181870D02*
D03*
X350284Y131070D02*
D03*
X375684Y80270D02*
D03*
X350284Y29470D02*
D03*
X324884Y283470D02*
D03*
X299484Y232670D02*
D03*
X324884Y181870D02*
D03*
X299484Y131070D02*
D03*
X324884Y80270D02*
D03*
X299484Y29470D02*
D03*
X274084Y283470D02*
D03*
X248684Y232670D02*
D03*
X274084Y181870D02*
D03*
X248684Y131070D02*
D03*
X274084Y80270D02*
D03*
X248684Y29470D02*
D03*
X223284Y283470D02*
D03*
X197884Y232670D02*
D03*
X223284Y181870D02*
D03*
X197884Y131070D02*
D03*
X223284Y80270D02*
D03*
X197884Y29470D02*
D03*
X172484Y283470D02*
D03*
X147084Y232670D02*
D03*
X172484Y181870D02*
D03*
X147084Y131070D02*
D03*
Y29470D02*
D03*
X121684Y283470D02*
D03*
X96284Y131070D02*
D03*
X121684Y80270D02*
D03*
X96284Y29470D02*
D03*
X70884Y283470D02*
D03*
Y80270D02*
D03*
X45484Y29470D02*
D03*
X2035620Y81020D02*
D03*
X1578000Y167870D02*
D03*
X947327Y44913D02*
D03*
X1866900Y284480D02*
D03*
X1971040Y198120D02*
D03*
X956310Y90406D02*
D03*
X2049780Y313690D02*
D03*
X2033790Y116840D02*
D03*
X2006630D02*
D03*
X1965960Y81020D02*
D03*
X1594860D02*
D03*
X1888620Y287020D02*
D03*
X1416620Y213360D02*
D03*
X1385620D02*
D03*
X1433610Y161290D02*
D03*
X1402620D02*
D03*
X933760Y146050D02*
D03*
X531260Y120650D02*
D03*
X160520Y30480D02*
D03*
X236456D02*
D03*
X1963277Y281593D02*
D03*
X1905000Y264160D02*
D03*
X141483Y269806D02*
D03*
X1524265Y144780D02*
D03*
X616482Y162960D02*
D03*
X504990Y160020D02*
D03*
Y205755D02*
D03*
X967500Y67500D02*
D03*
X1032500Y40000D02*
D03*
D66*
X1536700Y320040D02*
D03*
M02*
