G04*
G04 #@! TF.GenerationSoftware,Altium Limited,Altium Designer,25.8.1 (18)*
G04*
G04 Layer_Color=255*
%FSLAX44Y44*%
%MOMM*%
G71*
G04*
G04 #@! TF.SameCoordinates,57F80322-994B-4A8F-A2F4-5028E090627E*
G04*
G04*
G04 #@! TF.FilePolarity,Positive*
G04*
G01*
G75*
%ADD52R,1.6500X1.6500*%
%ADD53O,1.6500X1.6500*%
%ADD54C,1.2800*%
%ADD55R,1.2800X1.2800*%
%ADD56C,1.6002*%
%ADD57C,1.2180*%
%ADD58R,1.2180X1.2180*%
%ADD59C,1.6500*%
%ADD60R,1.6500X1.6500*%
%ADD61R,1.3700X1.3700*%
%ADD62C,1.3700*%
%ADD63C,1.8796*%
%ADD64C,1.5240*%
D52*
X352590Y46414D02*
D03*
Y296414D02*
D03*
D53*
X377990Y46414D02*
D03*
X403390D02*
D03*
X428790D02*
D03*
X455435Y46659D02*
D03*
X479590Y46414D02*
D03*
X504990D02*
D03*
X530390D02*
D03*
X555790D02*
D03*
X581190D02*
D03*
X657390Y296414D02*
D03*
X631990D02*
D03*
X606590D02*
D03*
X581190D02*
D03*
X555790D02*
D03*
X530390D02*
D03*
X504990D02*
D03*
X480835D02*
D03*
X454190D02*
D03*
X428790D02*
D03*
X403390D02*
D03*
X377990D02*
D03*
X708190D02*
D03*
X682790D02*
D03*
X733590D02*
D03*
D54*
X472440Y177400D02*
D03*
X656780Y160420D02*
D03*
D55*
X472440Y127400D02*
D03*
X656780Y210420D02*
D03*
D56*
X1468120Y278130D02*
D03*
Y252730D02*
D03*
Y227330D02*
D03*
Y201930D02*
D03*
X1544320D02*
D03*
Y227330D02*
D03*
Y252730D02*
D03*
Y278130D02*
D03*
D57*
X2004060Y198470D02*
D03*
Y223870D02*
D03*
D58*
Y249270D02*
D03*
D59*
X1788632Y230286D02*
D03*
X1814032D02*
D03*
X1839432D02*
D03*
X1864832D02*
D03*
X1890232D02*
D03*
X1915632D02*
D03*
D60*
X1941032D02*
D03*
D61*
X2463120Y264850D02*
D03*
X40760Y265250D02*
D03*
D62*
X2488520Y264850D02*
D03*
X2463120Y239450D02*
D03*
X2488520D02*
D03*
X2463120Y214050D02*
D03*
X2488520D02*
D03*
X2463120Y188650D02*
D03*
X2488520D02*
D03*
X2463120Y163250D02*
D03*
X2488520D02*
D03*
X2463120Y137850D02*
D03*
X2488520D02*
D03*
X2463120Y112450D02*
D03*
X2488520D02*
D03*
X66160Y112850D02*
D03*
X40760D02*
D03*
X66160Y138250D02*
D03*
Y163650D02*
D03*
Y189050D02*
D03*
Y214450D02*
D03*
Y239850D02*
D03*
X40760D02*
D03*
X66160Y265250D02*
D03*
X40760Y138250D02*
D03*
Y189050D02*
D03*
Y214450D02*
D03*
Y163650D02*
D03*
D63*
X185920Y138302D02*
D03*
X236720D02*
D03*
X211320D02*
D03*
X160520D02*
D03*
D64*
X2066160Y132362D02*
D03*
Y157762D02*
D03*
Y183162D02*
D03*
Y208562D02*
D03*
M02*
