G04*
G04 #@! TF.GenerationSoftware,Altium Limited,Altium Designer,25.8.1 (18)*
G04*
G04 Layer_Color=128*
%FSLAX44Y44*%
%MOMM*%
G71*
G04*
G04 #@! TF.SameCoordinates,57F80322-994B-4A8F-A2F4-5028E090627E*
G04*
G04*
G04 #@! TF.FilePolarity,Positive*
G04*
G01*
G75*
%ADD17C,0.1270*%
D17*
X347090Y46414D02*
X358090D01*
X352590Y40914D02*
Y51914D01*
X372490Y46414D02*
X383490D01*
X377990Y40914D02*
Y51914D01*
X397890Y46414D02*
X408890D01*
X403390Y40914D02*
Y51914D01*
X423290Y46414D02*
X434290D01*
X428790Y40914D02*
Y51914D01*
X449935Y46659D02*
X460935D01*
X455435Y41160D02*
Y52160D01*
X474090Y46414D02*
X485090D01*
X479590Y40914D02*
Y51914D01*
X499490Y46414D02*
X510490D01*
X504990Y40914D02*
Y51914D01*
X524890Y46414D02*
X535890D01*
X530390Y40914D02*
Y51914D01*
X550290Y46414D02*
X561290D01*
X555790Y40914D02*
Y51914D01*
X575690Y46414D02*
X586690D01*
X581190Y40914D02*
Y51914D01*
X651890Y296414D02*
X662890D01*
X657390Y290914D02*
Y301914D01*
X626490Y296414D02*
X637490D01*
X631990Y290914D02*
Y301914D01*
X601090Y296414D02*
X612090D01*
X606590Y290914D02*
Y301914D01*
X575690Y296414D02*
X586690D01*
X581190Y290914D02*
Y301914D01*
X550290Y296414D02*
X561290D01*
X555790Y290914D02*
Y301914D01*
X524890Y296414D02*
X535890D01*
X530390Y290914D02*
Y301914D01*
X499490Y296414D02*
X510490D01*
X504990Y290914D02*
Y301914D01*
X475335Y296414D02*
X486335D01*
X480835Y290914D02*
Y301914D01*
X448690Y296414D02*
X459690D01*
X454190Y290914D02*
Y301914D01*
X423290Y296414D02*
X434290D01*
X428790Y290914D02*
Y301914D01*
X397890Y296414D02*
X408890D01*
X403390Y290914D02*
Y301914D01*
X372490Y296414D02*
X383490D01*
X377990Y290914D02*
Y301914D01*
X347090Y296414D02*
X358090D01*
X352590Y290914D02*
Y301914D01*
X702690Y296414D02*
X713690D01*
X708190Y290914D02*
Y301914D01*
X677290Y296414D02*
X688290D01*
X682790Y290914D02*
Y301914D01*
X728090Y296414D02*
X739090D01*
X733590Y290914D02*
Y301914D01*
X468190Y177400D02*
X476690D01*
X472440Y173150D02*
Y181650D01*
X468190Y127400D02*
X476690D01*
X472440Y123150D02*
Y131650D01*
X652530Y160420D02*
X661030D01*
X656780Y156170D02*
Y164670D01*
X652530Y210420D02*
X661030D01*
X656780Y206170D02*
Y214670D01*
X1464056Y278130D02*
X1472184D01*
X1468120Y274066D02*
Y282194D01*
X1464056Y252730D02*
X1472184D01*
X1468120Y248666D02*
Y256794D01*
X1464056Y227330D02*
X1472184D01*
X1468120Y223266D02*
Y231394D01*
X1464056Y201930D02*
X1472184D01*
X1468120Y197866D02*
Y205994D01*
X1540256Y201930D02*
X1548384D01*
X1544320Y197866D02*
Y205994D01*
X1540256Y227330D02*
X1548384D01*
X1544320Y223266D02*
Y231394D01*
X1540256Y252730D02*
X1548384D01*
X1544320Y248666D02*
Y256794D01*
X1540256Y278130D02*
X1548384D01*
X1544320Y274066D02*
Y282194D01*
X2000510Y198470D02*
X2007610D01*
X2004060Y194920D02*
Y202020D01*
X2000510Y223870D02*
X2007610D01*
X2004060Y220320D02*
Y227420D01*
X2000510Y249270D02*
X2007610D01*
X2004060Y245720D02*
Y252820D01*
X1783132Y230286D02*
X1794132D01*
X1788632Y224786D02*
Y235786D01*
X1808532Y230286D02*
X1819532D01*
X1814032Y224786D02*
Y235786D01*
X1833932Y230286D02*
X1844932D01*
X1839432Y224786D02*
Y235786D01*
X1859332Y230286D02*
X1870332D01*
X1864832Y224786D02*
Y235786D01*
X1884732Y230286D02*
X1895732D01*
X1890232Y224786D02*
Y235786D01*
X1910132Y230286D02*
X1921132D01*
X1915632Y224786D02*
Y235786D01*
X1935532Y230286D02*
X1946532D01*
X1941032Y224786D02*
Y235786D01*
X2458020Y264850D02*
X2468220D01*
X2463120Y259750D02*
Y269950D01*
X2483420Y264850D02*
X2493620D01*
X2488520Y259750D02*
Y269950D01*
X2458020Y239450D02*
X2468220D01*
X2463120Y234350D02*
Y244550D01*
X2483420Y239450D02*
X2493620D01*
X2488520Y234350D02*
Y244550D01*
X2458020Y214050D02*
X2468220D01*
X2463120Y208950D02*
Y219150D01*
X2483420Y214050D02*
X2493620D01*
X2488520Y208950D02*
Y219150D01*
X2458020Y188650D02*
X2468220D01*
X2463120Y183550D02*
Y193750D01*
X2483420Y188650D02*
X2493620D01*
X2488520Y183550D02*
Y193750D01*
X2458020Y163250D02*
X2468220D01*
X2463120Y158150D02*
Y168350D01*
X2483420Y163250D02*
X2493620D01*
X2488520Y158150D02*
Y168350D01*
X2458020Y137850D02*
X2468220D01*
X2463120Y132750D02*
Y142950D01*
X2483420Y137850D02*
X2493620D01*
X2488520Y132750D02*
Y142950D01*
X2458020Y112450D02*
X2468220D01*
X2463120Y107350D02*
Y117550D01*
X2483420Y112450D02*
X2493620D01*
X2488520Y107350D02*
Y117550D01*
X61060Y112850D02*
X71260D01*
X66160Y107750D02*
Y117950D01*
X35660Y112850D02*
X45860D01*
X40760Y107750D02*
Y117950D01*
X61060Y138250D02*
X71260D01*
X66160Y133150D02*
Y143350D01*
X61060Y163650D02*
X71260D01*
X66160Y158550D02*
Y168750D01*
X61060Y189050D02*
X71260D01*
X66160Y183950D02*
Y194150D01*
X61060Y214450D02*
X71260D01*
X66160Y209350D02*
Y219550D01*
X61060Y239850D02*
X71260D01*
X66160Y234750D02*
Y244950D01*
X35660Y239850D02*
X45860D01*
X40760Y234750D02*
Y244950D01*
X61060Y265250D02*
X71260D01*
X66160Y260150D02*
Y270350D01*
X35660Y265250D02*
X45860D01*
X40760Y260150D02*
Y270350D01*
X35660Y138250D02*
X45860D01*
X40760Y133150D02*
Y143350D01*
X35660Y189050D02*
X45860D01*
X40760Y183950D02*
Y194150D01*
X35660Y214450D02*
X45860D01*
X40760Y209350D02*
Y219550D01*
X35660Y163650D02*
X45860D01*
X40760Y158550D02*
Y168750D01*
X180840Y138302D02*
X191000D01*
X185920Y133222D02*
Y143382D01*
X231640Y138302D02*
X241800D01*
X236720Y133222D02*
Y143382D01*
X206240Y138302D02*
X216400D01*
X211320Y133222D02*
Y143382D01*
X155440Y138302D02*
X165600D01*
X160520Y133222D02*
Y143382D01*
X2061588Y132362D02*
X2070732D01*
X2066160Y127790D02*
Y136934D01*
X2061588Y157762D02*
X2070732D01*
X2066160Y153190D02*
Y162334D01*
X2061588Y183162D02*
X2070732D01*
X2066160Y178590D02*
Y187734D01*
X2061588Y208562D02*
X2070732D01*
X2066160Y203990D02*
Y213134D01*
X2507284Y283470D02*
X2511284D01*
X2509284Y281470D02*
Y285470D01*
X2507284Y181870D02*
X2511284D01*
X2509284Y179870D02*
Y183870D01*
X2507284Y80270D02*
X2511284D01*
X2509284Y78270D02*
Y82270D01*
X2481884Y29470D02*
X2485884D01*
X2483884Y27470D02*
Y31470D01*
X2456484Y283470D02*
X2460484D01*
X2458484Y281470D02*
Y285470D01*
X2431084Y232670D02*
X2435084D01*
X2433084Y230670D02*
Y234670D01*
X2431084Y131070D02*
X2435084D01*
X2433084Y129070D02*
Y133070D01*
X2456484Y80270D02*
X2460484D01*
X2458484Y78270D02*
Y82270D01*
X2431084Y29470D02*
X2435084D01*
X2433084Y27470D02*
Y31470D01*
X2405684Y283470D02*
X2409684D01*
X2407684Y281470D02*
Y285470D01*
X2380284Y232670D02*
X2384284D01*
X2382284Y230670D02*
Y234670D01*
X2405684Y181870D02*
X2409684D01*
X2407684Y179870D02*
Y183870D01*
X2380284Y131070D02*
X2384284D01*
X2382284Y129070D02*
Y133070D01*
X2405684Y80270D02*
X2409684D01*
X2407684Y78270D02*
Y82270D01*
X2380284Y29470D02*
X2384284D01*
X2382284Y27470D02*
Y31470D01*
X2354884Y283470D02*
X2358884D01*
X2356884Y281470D02*
Y285470D01*
X2329484Y232670D02*
X2333484D01*
X2331484Y230670D02*
Y234670D01*
X2354884Y181870D02*
X2358884D01*
X2356884Y179870D02*
Y183870D01*
X2329484Y131070D02*
X2333484D01*
X2331484Y129070D02*
Y133070D01*
X2354884Y80270D02*
X2358884D01*
X2356884Y78270D02*
Y82270D01*
X2329484Y29470D02*
X2333484D01*
X2331484Y27470D02*
Y31470D01*
X2304084Y283470D02*
X2308084D01*
X2306084Y281470D02*
Y285470D01*
X2278684Y232670D02*
X2282684D01*
X2280684Y230670D02*
Y234670D01*
X2304084Y181870D02*
X2308084D01*
X2306084Y179870D02*
Y183870D01*
X2278684Y131070D02*
X2282684D01*
X2280684Y129070D02*
Y133070D01*
X2304084Y80270D02*
X2308084D01*
X2306084Y78270D02*
Y82270D01*
X2278684Y29470D02*
X2282684D01*
X2280684Y27470D02*
Y31470D01*
X2253284Y283470D02*
X2257284D01*
X2255284Y281470D02*
Y285470D01*
X2227884Y232670D02*
X2231884D01*
X2229884Y230670D02*
Y234670D01*
X2253284Y181870D02*
X2257284D01*
X2255284Y179870D02*
Y183870D01*
X2227884Y131070D02*
X2231884D01*
X2229884Y129070D02*
Y133070D01*
X2253284Y80270D02*
X2257284D01*
X2255284Y78270D02*
Y82270D01*
X2227884Y29470D02*
X2231884D01*
X2229884Y27470D02*
Y31470D01*
X2202484Y283470D02*
X2206484D01*
X2204484Y281470D02*
Y285470D01*
X2177084Y232670D02*
X2181084D01*
X2179084Y230670D02*
Y234670D01*
X2202484Y181870D02*
X2206484D01*
X2204484Y179870D02*
Y183870D01*
X2177084Y131070D02*
X2181084D01*
X2179084Y129070D02*
Y133070D01*
X2202484Y80270D02*
X2206484D01*
X2204484Y78270D02*
Y82270D01*
X2177084Y29470D02*
X2181084D01*
X2179084Y27470D02*
Y31470D01*
X2151684Y283470D02*
X2155684D01*
X2153684Y281470D02*
Y285470D01*
X2126284Y232670D02*
X2130284D01*
X2128284Y230670D02*
Y234670D01*
X2151684Y181870D02*
X2155684D01*
X2153684Y179870D02*
Y183870D01*
X2126284Y131070D02*
X2130284D01*
X2128284Y129070D02*
Y133070D01*
X2151684Y80270D02*
X2155684D01*
X2153684Y78270D02*
Y82270D01*
X2126284Y29470D02*
X2130284D01*
X2128284Y27470D02*
Y31470D01*
X2100884Y283470D02*
X2104884D01*
X2102884Y281470D02*
Y285470D01*
X2075484Y232670D02*
X2079484D01*
X2077484Y230670D02*
Y234670D01*
X2100884Y181870D02*
X2104884D01*
X2102884Y179870D02*
Y183870D01*
X2100884Y80270D02*
X2104884D01*
X2102884Y78270D02*
Y82270D01*
X2075484Y29470D02*
X2079484D01*
X2077484Y27470D02*
Y31470D01*
X2050084Y283470D02*
X2054084D01*
X2052084Y281470D02*
Y285470D01*
X2050084Y181870D02*
X2054084D01*
X2052084Y179870D02*
Y183870D01*
X2050084Y80270D02*
X2054084D01*
X2052084Y78270D02*
Y82270D01*
X2024684Y29470D02*
X2028684D01*
X2026684Y27470D02*
Y31470D01*
X1999284Y283470D02*
X2003284D01*
X2001284Y281470D02*
Y285470D01*
X1973884Y232670D02*
X1977884D01*
X1975884Y230670D02*
Y234670D01*
X1999284Y181870D02*
X2003284D01*
X2001284Y179870D02*
Y183870D01*
X1973884Y131070D02*
X1977884D01*
X1975884Y129070D02*
Y133070D01*
X1973884Y29470D02*
X1977884D01*
X1975884Y27470D02*
Y31470D01*
X1948484Y283470D02*
X1952484D01*
X1950484Y281470D02*
Y285470D01*
X1923084Y131070D02*
X1927084D01*
X1925084Y129070D02*
Y133070D01*
X1923084Y29470D02*
X1927084D01*
X1925084Y27470D02*
Y31470D01*
X1897684Y283470D02*
X1901684D01*
X1899684Y281470D02*
Y285470D01*
X1897684Y181870D02*
X1901684D01*
X1899684Y179870D02*
Y183870D01*
X1872284Y131070D02*
X1876284D01*
X1874284Y129070D02*
Y133070D01*
X1872284Y29470D02*
X1876284D01*
X1874284Y27470D02*
Y31470D01*
X1846884Y283470D02*
X1850884D01*
X1848884Y281470D02*
Y285470D01*
X1846884Y181870D02*
X1850884D01*
X1848884Y179870D02*
Y183870D01*
X1821484Y131070D02*
X1825484D01*
X1823484Y129070D02*
Y133070D01*
X1821484Y29470D02*
X1825484D01*
X1823484Y27470D02*
Y31470D01*
X1770684Y232670D02*
X1774684D01*
X1772684Y230670D02*
Y234670D01*
X1796084Y181870D02*
X1800084D01*
X1798084Y179870D02*
Y183870D01*
X1770684Y131070D02*
X1774684D01*
X1772684Y129070D02*
Y133070D01*
X1770684Y29470D02*
X1774684D01*
X1772684Y27470D02*
Y31470D01*
X1745284Y283470D02*
X1749284D01*
X1747284Y281470D02*
Y285470D01*
X1719884Y232670D02*
X1723884D01*
X1721884Y230670D02*
Y234670D01*
X1745284Y181870D02*
X1749284D01*
X1747284Y179870D02*
Y183870D01*
X1719884Y131070D02*
X1723884D01*
X1721884Y129070D02*
Y133070D01*
X1719884Y29470D02*
X1723884D01*
X1721884Y27470D02*
Y31470D01*
X1694484Y283470D02*
X1698484D01*
X1696484Y281470D02*
Y285470D01*
X1669084Y232670D02*
X1673084D01*
X1671084Y230670D02*
Y234670D01*
X1694484Y181870D02*
X1698484D01*
X1696484Y179870D02*
Y183870D01*
X1669084Y131070D02*
X1673084D01*
X1671084Y129070D02*
Y133070D01*
X1669084Y29470D02*
X1673084D01*
X1671084Y27470D02*
Y31470D01*
X1643684Y283470D02*
X1647684D01*
X1645684Y281470D02*
Y285470D01*
X1618284Y232670D02*
X1622284D01*
X1620284Y230670D02*
Y234670D01*
X1643684Y181870D02*
X1647684D01*
X1645684Y179870D02*
Y183870D01*
X1618284Y131070D02*
X1622284D01*
X1620284Y129070D02*
Y133070D01*
X1618284Y29470D02*
X1622284D01*
X1620284Y27470D02*
Y31470D01*
X1592884Y283470D02*
X1596884D01*
X1594884Y281470D02*
Y285470D01*
X1567484Y232670D02*
X1571484D01*
X1569484Y230670D02*
Y234670D01*
X1592884Y181870D02*
X1596884D01*
X1594884Y179870D02*
Y183870D01*
X1567484Y29470D02*
X1571484D01*
X1569484Y27470D02*
Y31470D01*
X1516684Y232670D02*
X1520684D01*
X1518684Y230670D02*
Y234670D01*
X1542084Y181870D02*
X1546084D01*
X1544084Y179870D02*
Y183870D01*
X1542084Y80270D02*
X1546084D01*
X1544084Y78270D02*
Y82270D01*
X1516684Y29470D02*
X1520684D01*
X1518684Y27470D02*
Y31470D01*
X1491284Y283470D02*
X1495284D01*
X1493284Y281470D02*
Y285470D01*
X1491284Y181870D02*
X1495284D01*
X1493284Y179870D02*
Y183870D01*
X1465884Y29470D02*
X1469884D01*
X1467884Y27470D02*
Y31470D01*
X1440484Y283470D02*
X1444484D01*
X1442484Y281470D02*
Y285470D01*
X1440484Y181870D02*
X1444484D01*
X1442484Y179870D02*
Y183870D01*
X1415084Y131070D02*
X1419084D01*
X1417084Y129070D02*
Y133070D01*
X1440484Y80270D02*
X1444484D01*
X1442484Y78270D02*
Y82270D01*
X1415084Y29470D02*
X1419084D01*
X1417084Y27470D02*
Y31470D01*
X1389684Y283470D02*
X1393684D01*
X1391684Y281470D02*
Y285470D01*
X1364284Y232670D02*
X1368284D01*
X1366284Y230670D02*
Y234670D01*
X1389684Y181870D02*
X1393684D01*
X1391684Y179870D02*
Y183870D01*
X1364284Y29470D02*
X1368284D01*
X1366284Y27470D02*
Y31470D01*
X1338884Y283470D02*
X1342884D01*
X1340884Y281470D02*
Y285470D01*
X1313484Y232670D02*
X1317484D01*
X1315484Y230670D02*
Y234670D01*
X1313484Y131070D02*
X1317484D01*
X1315484Y129070D02*
Y133070D01*
X1313484Y29470D02*
X1317484D01*
X1315484Y27470D02*
Y31470D01*
X1288084Y283470D02*
X1292084D01*
X1290084Y281470D02*
Y285470D01*
X1262684Y232670D02*
X1266684D01*
X1264684Y230670D02*
Y234670D01*
X1262684Y131070D02*
X1266684D01*
X1264684Y129070D02*
Y133070D01*
X1262684Y29470D02*
X1266684D01*
X1264684Y27470D02*
Y31470D01*
X1237284Y283470D02*
X1241284D01*
X1239284Y281470D02*
Y285470D01*
X1211884Y232670D02*
X1215884D01*
X1213884Y230670D02*
Y234670D01*
X1211884Y131070D02*
X1215884D01*
X1213884Y129070D02*
Y133070D01*
X1211884Y29470D02*
X1215884D01*
X1213884Y27470D02*
Y31470D01*
X1186484Y283470D02*
X1190484D01*
X1188484Y281470D02*
Y285470D01*
X1161084Y232670D02*
X1165084D01*
X1163084Y230670D02*
Y234670D01*
X1161084Y131070D02*
X1165084D01*
X1163084Y129070D02*
Y133070D01*
X1161084Y29470D02*
X1165084D01*
X1163084Y27470D02*
Y31470D01*
X1135684Y283470D02*
X1139684D01*
X1137684Y281470D02*
Y285470D01*
X1110284Y232670D02*
X1114284D01*
X1112284Y230670D02*
Y234670D01*
X1110284Y131070D02*
X1114284D01*
X1112284Y129070D02*
Y133070D01*
X1110284Y29470D02*
X1114284D01*
X1112284Y27470D02*
Y31470D01*
X1084884Y283470D02*
X1088884D01*
X1086884Y281470D02*
Y285470D01*
X1059484Y232670D02*
X1063484D01*
X1061484Y230670D02*
Y234670D01*
X1059484Y131070D02*
X1063484D01*
X1061484Y129070D02*
Y133070D01*
X1059484Y29470D02*
X1063484D01*
X1061484Y27470D02*
Y31470D01*
X1034084Y283470D02*
X1038084D01*
X1036084Y281470D02*
Y285470D01*
X1008684Y232670D02*
X1012684D01*
X1010684Y230670D02*
Y234670D01*
X1008684Y131070D02*
X1012684D01*
X1010684Y129070D02*
Y133070D01*
X1008684Y29470D02*
X1012684D01*
X1010684Y27470D02*
Y31470D01*
X983284Y283470D02*
X987284D01*
X985284Y281470D02*
Y285470D01*
X957884Y232670D02*
X961884D01*
X959884Y230670D02*
Y234670D01*
X983284Y181870D02*
X987284D01*
X985284Y179870D02*
Y183870D01*
X983284Y80270D02*
X987284D01*
X985284Y78270D02*
Y82270D01*
X957884Y29470D02*
X961884D01*
X959884Y27470D02*
Y31470D01*
X932484Y283470D02*
X936484D01*
X934484Y281470D02*
Y285470D01*
X907084Y232670D02*
X911084D01*
X909084Y230670D02*
Y234670D01*
X932484Y181870D02*
X936484D01*
X934484Y179870D02*
Y183870D01*
X932484Y80270D02*
X936484D01*
X934484Y78270D02*
Y82270D01*
X881684Y283470D02*
X885684D01*
X883684Y281470D02*
Y285470D01*
X856284Y232670D02*
X860284D01*
X858284Y230670D02*
Y234670D01*
X881684Y181870D02*
X885684D01*
X883684Y179870D02*
Y183870D01*
X881684Y80270D02*
X885684D01*
X883684Y78270D02*
Y82270D01*
X830884Y283470D02*
X834884D01*
X832884Y281470D02*
Y285470D01*
X805484Y232670D02*
X809484D01*
X807484Y230670D02*
Y234670D01*
X830884Y181870D02*
X834884D01*
X832884Y179870D02*
Y183870D01*
X830884Y80270D02*
X834884D01*
X832884Y78270D02*
Y82270D01*
X780084Y283470D02*
X784084D01*
X782084Y281470D02*
Y285470D01*
X754684Y232670D02*
X758684D01*
X756684Y230670D02*
Y234670D01*
X780084Y181870D02*
X784084D01*
X782084Y179870D02*
Y183870D01*
X780084Y80270D02*
X784084D01*
X782084Y78270D02*
Y82270D01*
X729284Y283470D02*
X733284D01*
X731284Y281470D02*
Y285470D01*
X703884Y232670D02*
X707884D01*
X705884Y230670D02*
Y234670D01*
X729284Y181870D02*
X733284D01*
X731284Y179870D02*
Y183870D01*
X729284Y80270D02*
X733284D01*
X731284Y78270D02*
Y82270D01*
X678484Y181870D02*
X682484D01*
X680484Y179870D02*
Y183870D01*
X678484Y80270D02*
X682484D01*
X680484Y78270D02*
Y82270D01*
X627684Y283470D02*
X631684D01*
X629684Y281470D02*
Y285470D01*
X602284Y232670D02*
X606284D01*
X604284Y230670D02*
Y234670D01*
X627684Y181870D02*
X631684D01*
X629684Y179870D02*
Y183870D01*
X602284Y131070D02*
X606284D01*
X604284Y129070D02*
Y133070D01*
X627684Y80270D02*
X631684D01*
X629684Y78270D02*
Y82270D01*
X576884Y283470D02*
X580884D01*
X578884Y281470D02*
Y285470D01*
X576884Y181870D02*
X580884D01*
X578884Y179870D02*
Y183870D01*
X551484Y131070D02*
X555484D01*
X553484Y129070D02*
Y133070D01*
X576884Y80270D02*
X580884D01*
X578884Y78270D02*
Y82270D01*
X526084Y181870D02*
X530084D01*
X528084Y179870D02*
Y183870D01*
X500684Y131070D02*
X504684D01*
X502684Y129070D02*
Y133070D01*
X475284Y283470D02*
X479284D01*
X477284Y281470D02*
Y285470D01*
X449884Y232670D02*
X453884D01*
X451884Y230670D02*
Y234670D01*
X449884Y131070D02*
X453884D01*
X451884Y129070D02*
Y133070D01*
X475284Y80270D02*
X479284D01*
X477284Y78270D02*
Y82270D01*
X424484Y283470D02*
X428484D01*
X426484Y281470D02*
Y285470D01*
X399084Y232670D02*
X403084D01*
X401084Y230670D02*
Y234670D01*
X424484Y181870D02*
X428484D01*
X426484Y179870D02*
Y183870D01*
X399084Y131070D02*
X403084D01*
X401084Y129070D02*
Y133070D01*
X424484Y80270D02*
X428484D01*
X426484Y78270D02*
Y82270D01*
X348284Y232670D02*
X352284D01*
X350284Y230670D02*
Y234670D01*
X373684Y181870D02*
X377684D01*
X375684Y179870D02*
Y183870D01*
X348284Y131070D02*
X352284D01*
X350284Y129070D02*
Y133070D01*
X373684Y80270D02*
X377684D01*
X375684Y78270D02*
Y82270D01*
X348284Y29470D02*
X352284D01*
X350284Y27470D02*
Y31470D01*
X322884Y283470D02*
X326884D01*
X324884Y281470D02*
Y285470D01*
X297484Y232670D02*
X301484D01*
X299484Y230670D02*
Y234670D01*
X322884Y181870D02*
X326884D01*
X324884Y179870D02*
Y183870D01*
X297484Y131070D02*
X301484D01*
X299484Y129070D02*
Y133070D01*
X322884Y80270D02*
X326884D01*
X324884Y78270D02*
Y82270D01*
X297484Y29470D02*
X301484D01*
X299484Y27470D02*
Y31470D01*
X272084Y283470D02*
X276084D01*
X274084Y281470D02*
Y285470D01*
X246684Y232670D02*
X250684D01*
X248684Y230670D02*
Y234670D01*
X272084Y181870D02*
X276084D01*
X274084Y179870D02*
Y183870D01*
X246684Y131070D02*
X250684D01*
X248684Y129070D02*
Y133070D01*
X272084Y80270D02*
X276084D01*
X274084Y78270D02*
Y82270D01*
X246684Y29470D02*
X250684D01*
X248684Y27470D02*
Y31470D01*
X221284Y283470D02*
X225284D01*
X223284Y281470D02*
Y285470D01*
X195884Y232670D02*
X199884D01*
X197884Y230670D02*
Y234670D01*
X221284Y181870D02*
X225284D01*
X223284Y179870D02*
Y183870D01*
X195884Y131070D02*
X199884D01*
X197884Y129070D02*
Y133070D01*
X221284Y80270D02*
X225284D01*
X223284Y78270D02*
Y82270D01*
X195884Y29470D02*
X199884D01*
X197884Y27470D02*
Y31470D01*
X170484Y283470D02*
X174484D01*
X172484Y281470D02*
Y285470D01*
X145084Y232670D02*
X149084D01*
X147084Y230670D02*
Y234670D01*
X170484Y181870D02*
X174484D01*
X172484Y179870D02*
Y183870D01*
X145084Y131070D02*
X149084D01*
X147084Y129070D02*
Y133070D01*
X145084Y29470D02*
X149084D01*
X147084Y27470D02*
Y31470D01*
X119684Y283470D02*
X123684D01*
X121684Y281470D02*
Y285470D01*
X94284Y131070D02*
X98284D01*
X96284Y129070D02*
Y133070D01*
X119684Y80270D02*
X123684D01*
X121684Y78270D02*
Y82270D01*
X94284Y29470D02*
X98284D01*
X96284Y27470D02*
Y31470D01*
X68884Y283470D02*
X72884D01*
X70884Y281470D02*
Y285470D01*
X68884Y80270D02*
X72884D01*
X70884Y78270D02*
Y82270D01*
X43484Y29470D02*
X47484D01*
X45484Y27470D02*
Y31470D01*
X2033620Y81020D02*
X2037620D01*
X2035620Y79020D02*
Y83020D01*
X1576000Y167870D02*
X1580000D01*
X1578000Y165870D02*
Y169870D01*
X945327Y44913D02*
X949326D01*
X947327Y42913D02*
Y46913D01*
X1864900Y284480D02*
X1868900D01*
X1866900Y282480D02*
Y286480D01*
X1534200Y320040D02*
X1539200D01*
X1536700Y317540D02*
Y322540D01*
X1969040Y198120D02*
X1973040D01*
X1971040Y196120D02*
Y200120D01*
X954310Y90406D02*
X958310D01*
X956310Y88406D02*
Y92406D01*
X2047780Y313690D02*
X2051780D01*
X2049780Y311690D02*
Y315690D01*
X2031790Y116840D02*
X2035790D01*
X2033790Y114840D02*
Y118840D01*
X2004630Y116840D02*
X2008630D01*
X2006630Y114840D02*
Y118840D01*
X1963960Y81020D02*
X1967960D01*
X1965960Y79020D02*
Y83020D01*
X1592860Y81020D02*
X1596860D01*
X1594860Y79020D02*
Y83020D01*
X1886620Y287020D02*
X1890620D01*
X1888620Y285020D02*
Y289020D01*
X1414620Y213360D02*
X1418620D01*
X1416620Y211360D02*
Y215360D01*
X1383620Y213360D02*
X1387620D01*
X1385620Y211360D02*
Y215360D01*
X1431610Y161290D02*
X1435610D01*
X1433610Y159290D02*
Y163290D01*
X1400620Y161290D02*
X1404620D01*
X1402620Y159290D02*
Y163290D01*
X931760Y146050D02*
X935760D01*
X933760Y144050D02*
Y148050D01*
X529260Y120650D02*
X533260D01*
X531260Y118650D02*
Y122650D01*
X158520Y30480D02*
X162520D01*
X160520Y28480D02*
Y32480D01*
X234456Y30480D02*
X238456D01*
X236456Y28480D02*
Y32480D01*
X1961277Y281593D02*
X1965277D01*
X1963277Y279593D02*
Y283593D01*
X1903000Y264160D02*
X1907000D01*
X1905000Y262160D02*
Y266160D01*
X139483Y269806D02*
X143483D01*
X141483Y267806D02*
Y271806D01*
X1522265Y144780D02*
X1526265D01*
X1524265Y142780D02*
Y146780D01*
X614482Y162960D02*
X618482D01*
X616482Y160960D02*
Y164960D01*
X502990Y160020D02*
X506990D01*
X504990Y158020D02*
Y162020D01*
X502990Y205755D02*
X506990D01*
X504990Y203755D02*
Y207755D01*
X965500Y67500D02*
X969500D01*
X967500Y65500D02*
Y69500D01*
X1030500Y40000D02*
X1034500D01*
X1032500Y38000D02*
Y42000D01*
M02*
