G04*
G04 #@! TF.GenerationSoftware,Altium Limited,Altium Designer,25.8.1 (18)*
G04*
G04 Layer_Physical_Order=1*
G04 Layer_Color=255*
%FSLAX44Y44*%
%MOMM*%
G71*
G04*
G04 #@! TF.SameCoordinates,57F80322-994B-4A8F-A2F4-5028E090627E*
G04*
G04*
G04 #@! TF.FilePolarity,Positive*
G04*
G01*
G75*
%ADD13C,0.2540*%
G04:AMPARAMS|DCode=20|XSize=2.1mm|YSize=1.38mm|CornerRadius=0.1035mm|HoleSize=0mm|Usage=FLASHONLY|Rotation=270.000|XOffset=0mm|YOffset=0mm|HoleType=Round|Shape=RoundedRectangle|*
%AMROUNDEDRECTD20*
21,1,2.1000,1.1730,0,0,270.0*
21,1,1.8930,1.3800,0,0,270.0*
1,1,0.2070,-0.5865,-0.9465*
1,1,0.2070,-0.5865,0.9465*
1,1,0.2070,0.5865,0.9465*
1,1,0.2070,0.5865,-0.9465*
%
%ADD20ROUNDEDRECTD20*%
G04:AMPARAMS|DCode=21|XSize=1mm|YSize=1.7mm|CornerRadius=0.125mm|HoleSize=0mm|Usage=FLASHONLY|Rotation=180.000|XOffset=0mm|YOffset=0mm|HoleType=Round|Shape=RoundedRectangle|*
%AMROUNDEDRECTD21*
21,1,1.0000,1.4500,0,0,180.0*
21,1,0.7500,1.7000,0,0,180.0*
1,1,0.2500,-0.3750,0.7250*
1,1,0.2500,0.3750,0.7250*
1,1,0.2500,0.3750,-0.7250*
1,1,0.2500,-0.3750,-0.7250*
%
%ADD21ROUNDEDRECTD21*%
G04:AMPARAMS|DCode=22|XSize=1.97mm|YSize=0.6mm|CornerRadius=0.075mm|HoleSize=0mm|Usage=FLASHONLY|Rotation=180.000|XOffset=0mm|YOffset=0mm|HoleType=Round|Shape=RoundedRectangle|*
%AMROUNDEDRECTD22*
21,1,1.9700,0.4500,0,0,180.0*
21,1,1.8200,0.6000,0,0,180.0*
1,1,0.1500,-0.9100,0.2250*
1,1,0.1500,0.9100,0.2250*
1,1,0.1500,0.9100,-0.2250*
1,1,0.1500,-0.9100,-0.2250*
%
%ADD22ROUNDEDRECTD22*%
G04:AMPARAMS|DCode=23|XSize=1.4mm|YSize=1.7mm|CornerRadius=0.175mm|HoleSize=0mm|Usage=FLASHONLY|Rotation=0.000|XOffset=0mm|YOffset=0mm|HoleType=Round|Shape=RoundedRectangle|*
%AMROUNDEDRECTD23*
21,1,1.4000,1.3500,0,0,0.0*
21,1,1.0500,1.7000,0,0,0.0*
1,1,0.3500,0.5250,-0.6750*
1,1,0.3500,-0.5250,-0.6750*
1,1,0.3500,-0.5250,0.6750*
1,1,0.3500,0.5250,0.6750*
%
%ADD23ROUNDEDRECTD23*%
G04:AMPARAMS|DCode=24|XSize=0.6mm|YSize=0.7mm|CornerRadius=0.075mm|HoleSize=0mm|Usage=FLASHONLY|Rotation=270.000|XOffset=0mm|YOffset=0mm|HoleType=Round|Shape=RoundedRectangle|*
%AMROUNDEDRECTD24*
21,1,0.6000,0.5500,0,0,270.0*
21,1,0.4500,0.7000,0,0,270.0*
1,1,0.1500,-0.2750,-0.2250*
1,1,0.1500,-0.2750,0.2250*
1,1,0.1500,0.2750,0.2250*
1,1,0.1500,0.2750,-0.2250*
%
%ADD24ROUNDEDRECTD24*%
%ADD25R,1.8400X1.8000*%
G04:AMPARAMS|DCode=26|XSize=0.8mm|YSize=1mm|CornerRadius=0.1mm|HoleSize=0mm|Usage=FLASHONLY|Rotation=90.000|XOffset=0mm|YOffset=0mm|HoleType=Round|Shape=RoundedRectangle|*
%AMROUNDEDRECTD26*
21,1,0.8000,0.8000,0,0,90.0*
21,1,0.6000,1.0000,0,0,90.0*
1,1,0.2000,0.4000,0.3000*
1,1,0.2000,0.4000,-0.3000*
1,1,0.2000,-0.4000,-0.3000*
1,1,0.2000,-0.4000,0.3000*
%
%ADD26ROUNDEDRECTD26*%
G04:AMPARAMS|DCode=27|XSize=1mm|YSize=1.7mm|CornerRadius=0.125mm|HoleSize=0mm|Usage=FLASHONLY|Rotation=90.000|XOffset=0mm|YOffset=0mm|HoleType=Round|Shape=RoundedRectangle|*
%AMROUNDEDRECTD27*
21,1,1.0000,1.4500,0,0,90.0*
21,1,0.7500,1.7000,0,0,90.0*
1,1,0.2500,0.7250,0.3750*
1,1,0.2500,0.7250,-0.3750*
1,1,0.2500,-0.7250,-0.3750*
1,1,0.2500,-0.7250,0.3750*
%
%ADD27ROUNDEDRECTD27*%
G04:AMPARAMS|DCode=28|XSize=1.4mm|YSize=1.7mm|CornerRadius=0.175mm|HoleSize=0mm|Usage=FLASHONLY|Rotation=270.000|XOffset=0mm|YOffset=0mm|HoleType=Round|Shape=RoundedRectangle|*
%AMROUNDEDRECTD28*
21,1,1.4000,1.3500,0,0,270.0*
21,1,1.0500,1.7000,0,0,270.0*
1,1,0.3500,-0.6750,-0.5250*
1,1,0.3500,-0.6750,0.5250*
1,1,0.3500,0.6750,0.5250*
1,1,0.3500,0.6750,-0.5250*
%
%ADD28ROUNDEDRECTD28*%
%ADD51C,0.4064*%
%ADD52R,1.6500X1.6500*%
%ADD53O,1.6500X1.6500*%
%ADD54C,1.2800*%
%ADD55R,1.2800X1.2800*%
%ADD56C,1.6002*%
%ADD57C,1.2180*%
%ADD58R,1.2180X1.2180*%
%ADD59C,1.6500*%
%ADD60R,1.6500X1.6500*%
%ADD61R,1.3700X1.3700*%
%ADD62C,1.3700*%
%ADD63C,1.8796*%
%ADD64C,1.5240*%
%ADD65C,0.6000*%
%ADD66C,0.9000*%
G36*
X2547831Y2039D02*
X2039D01*
Y328831D01*
X2547831D01*
Y2039D01*
D02*
G37*
%LPC*%
G36*
X2039250Y321396D02*
X2033015D01*
Y315315D01*
X2042596D01*
Y318050D01*
X2042342Y319331D01*
X2041616Y320416D01*
X2040531Y321142D01*
X2039250Y321396D01*
D02*
G37*
G36*
X2030985D02*
X2024750D01*
X2023469Y321142D01*
X2022384Y320416D01*
X2021658Y319331D01*
X2021404Y318050D01*
Y315315D01*
X2030985D01*
Y321396D01*
D02*
G37*
G36*
X1537794Y325540D02*
X1535606D01*
X1533584Y324703D01*
X1532037Y323156D01*
X1531200Y321134D01*
Y318946D01*
X1532037Y316924D01*
X1533584Y315377D01*
X1535606Y314540D01*
X1537794D01*
X1539816Y315377D01*
X1541363Y316924D01*
X1541373Y316949D01*
X1923541D01*
X1927470Y313020D01*
Y286582D01*
X1927705Y285399D01*
X1928375Y284396D01*
X1937025Y275746D01*
X1936254Y273714D01*
X1935412D01*
X1934339Y273500D01*
X1933429Y272893D01*
X1932822Y271983D01*
X1932608Y270910D01*
Y257410D01*
X1932822Y256337D01*
X1933429Y255427D01*
X1934339Y254820D01*
X1935412Y254606D01*
X1937571D01*
Y239536D01*
X1931782D01*
Y221036D01*
X1937941D01*
Y205208D01*
X1938176Y204025D01*
X1938846Y203022D01*
X1989114Y152754D01*
X1990117Y152084D01*
X1991300Y151849D01*
X1997046D01*
Y149690D01*
X1997260Y148617D01*
X1997867Y147707D01*
X1998777Y147100D01*
X1999850Y146886D01*
X2013350D01*
X2014423Y147100D01*
X2015333Y147707D01*
X2015940Y148617D01*
X2016154Y149690D01*
Y151819D01*
X2024266D01*
Y149630D01*
X2024480Y148557D01*
X2025087Y147647D01*
X2025997Y147040D01*
X2027070Y146826D01*
X2040570D01*
X2041643Y147040D01*
X2042553Y147647D01*
X2043160Y148557D01*
X2043374Y149630D01*
Y160130D01*
X2043160Y161203D01*
X2042553Y162113D01*
X2041643Y162721D01*
X2040570Y162934D01*
X2036911D01*
Y174942D01*
X2062621Y200652D01*
X2062832Y200530D01*
X2065025Y199942D01*
X2067294D01*
X2069487Y200530D01*
X2071452Y201665D01*
X2073057Y203270D01*
X2074192Y205235D01*
X2074780Y207427D01*
Y209697D01*
X2074192Y211889D01*
X2073057Y213855D01*
X2071452Y215460D01*
X2069487Y216595D01*
X2067294Y217182D01*
X2065025D01*
X2062832Y216595D01*
X2060867Y215460D01*
X2059262Y213855D01*
X2058127Y211889D01*
X2057540Y209697D01*
Y207427D01*
X2058127Y205235D01*
X2058249Y205024D01*
X2031634Y178409D01*
X2030964Y177406D01*
X2030729Y176223D01*
Y162934D01*
X2027070D01*
X2025997Y162721D01*
X2025087Y162113D01*
X2024480Y161203D01*
X2024266Y160130D01*
Y158001D01*
X2016154D01*
Y160190D01*
X2015940Y161263D01*
X2015333Y162173D01*
X2014423Y162780D01*
X2013350Y162994D01*
X1999850D01*
X1998777Y162780D01*
X1997867Y162173D01*
X1997260Y161263D01*
X1997046Y160190D01*
Y158031D01*
X1992581D01*
X1944123Y206488D01*
Y221036D01*
X1950282D01*
Y239536D01*
X1943753D01*
Y254606D01*
X1945912D01*
X1946985Y254820D01*
X1947895Y255427D01*
X1948503Y256337D01*
X1948716Y257410D01*
Y270910D01*
X1948503Y271983D01*
X1947895Y272893D01*
X1946985Y273500D01*
X1945912Y273714D01*
X1943753D01*
Y276481D01*
X1943518Y277664D01*
X1942848Y278667D01*
X1933652Y287862D01*
Y311209D01*
X1983776D01*
Y310550D01*
X1983951Y309672D01*
X1984448Y308928D01*
X1985192Y308431D01*
X1986070Y308256D01*
X2000570D01*
X2001448Y308431D01*
X2002192Y308928D01*
X2002689Y309672D01*
X2002864Y310550D01*
Y318050D01*
X2002689Y318928D01*
X2002192Y319672D01*
X2001448Y320169D01*
X2000570Y320344D01*
X1986070D01*
X1985192Y320169D01*
X1984448Y319672D01*
X1983951Y318928D01*
X1983776Y318050D01*
Y317391D01*
X1931842D01*
X1927007Y322226D01*
X1926004Y322896D01*
X1924821Y323131D01*
X1541373D01*
X1541363Y323156D01*
X1539816Y324703D01*
X1537794Y325540D01*
D02*
G37*
G36*
X2042596Y313285D02*
X2033015D01*
Y307204D01*
X2039250D01*
X2040531Y307458D01*
X2041616Y308184D01*
X2042342Y309269D01*
X2042596Y310550D01*
Y313285D01*
D02*
G37*
G36*
X2030985D02*
X2021404D01*
Y310550D01*
X2021658Y309269D01*
X2022384Y308184D01*
X2023469Y307458D01*
X2024750Y307204D01*
X2030985D01*
Y313285D01*
D02*
G37*
G36*
X1871010Y312984D02*
X1860510D01*
X1859437Y312771D01*
X1858527Y312163D01*
X1857920Y311253D01*
X1857706Y310180D01*
Y306521D01*
X1841134D01*
Y310680D01*
X1840959Y311558D01*
X1840462Y312302D01*
X1839718Y312799D01*
X1838840Y312974D01*
X1831340D01*
X1830462Y312799D01*
X1829718Y312302D01*
X1829220Y311558D01*
X1829046Y310680D01*
Y296180D01*
X1829220Y295302D01*
X1829718Y294558D01*
X1830462Y294061D01*
X1831340Y293886D01*
X1838840D01*
X1839718Y294061D01*
X1840462Y294558D01*
X1840959Y295302D01*
X1841134Y296180D01*
Y300339D01*
X1857706D01*
Y296680D01*
X1857920Y295607D01*
X1858527Y294697D01*
X1859437Y294090D01*
X1860510Y293876D01*
X1863438D01*
Y286575D01*
X1862900Y285276D01*
Y283684D01*
X1863509Y282214D01*
X1864634Y281089D01*
X1866104Y280480D01*
X1867696D01*
X1869166Y281089D01*
X1870291Y282214D01*
X1870900Y283684D01*
Y285276D01*
X1870291Y286746D01*
X1869621Y287416D01*
Y293876D01*
X1871010D01*
X1872083Y294090D01*
X1872993Y294697D01*
X1873600Y295607D01*
X1873814Y296680D01*
Y310180D01*
X1873600Y311253D01*
X1872993Y312163D01*
X1872083Y312771D01*
X1871010Y312984D01*
D02*
G37*
G36*
X1893870Y314554D02*
X1891120D01*
Y305930D01*
X1898244D01*
Y310180D01*
X1897911Y311854D01*
X1896963Y313273D01*
X1895544Y314221D01*
X1893870Y314554D01*
D02*
G37*
G36*
X1886120D02*
X1883370D01*
X1881696Y314221D01*
X1880277Y313273D01*
X1879329Y311854D01*
X1878996Y310180D01*
Y305930D01*
X1886120D01*
Y314554D01*
D02*
G37*
G36*
X1502749Y319655D02*
X525140D01*
X523957Y319420D01*
X522954Y318750D01*
X508978Y304774D01*
X507405Y305426D01*
X504990Y305744D01*
X504990D01*
X502575Y305426D01*
X500325Y304494D01*
X498393Y303011D01*
X496910Y301079D01*
X495978Y298829D01*
X495660Y296414D01*
X495978Y293999D01*
X496910Y291749D01*
X498393Y289817D01*
X500325Y288334D01*
X501899Y287682D01*
Y249224D01*
X497740D01*
X496862Y249049D01*
X496118Y248552D01*
X495621Y247808D01*
X495446Y246930D01*
Y239430D01*
X495621Y238552D01*
X496118Y237808D01*
X496862Y237311D01*
X497740Y237136D01*
X512240D01*
X513118Y237311D01*
X513862Y237808D01*
X514359Y238552D01*
X514534Y239430D01*
Y246930D01*
X514359Y247808D01*
X513862Y248552D01*
X513118Y249049D01*
X512240Y249224D01*
X508081D01*
Y287682D01*
X509655Y288334D01*
X511587Y289817D01*
X513070Y291749D01*
X514002Y293999D01*
X514320Y296414D01*
X514002Y298829D01*
X513350Y300402D01*
X526420Y313473D01*
X540203D01*
X541045Y311441D01*
X534378Y304774D01*
X532805Y305426D01*
X530390Y305744D01*
X530390D01*
X527975Y305426D01*
X525725Y304494D01*
X523793Y303011D01*
X522310Y301079D01*
X521378Y298829D01*
X521060Y296414D01*
X521378Y293999D01*
X522310Y291749D01*
X523793Y289817D01*
X525725Y288334D01*
X527299Y287682D01*
Y249224D01*
X523140D01*
X522262Y249049D01*
X521518Y248552D01*
X521021Y247808D01*
X520846Y246930D01*
Y239430D01*
X521021Y238552D01*
X521518Y237808D01*
X522262Y237311D01*
X523140Y237136D01*
X537640D01*
X538518Y237311D01*
X539262Y237808D01*
X539759Y238552D01*
X539934Y239430D01*
Y246930D01*
X539759Y247808D01*
X539262Y248552D01*
X538518Y249049D01*
X537640Y249224D01*
X533481D01*
Y287682D01*
X535055Y288334D01*
X536987Y289817D01*
X538470Y291749D01*
X539402Y293999D01*
X539720Y296414D01*
X539402Y298829D01*
X538750Y300402D01*
X545256Y306909D01*
X551645D01*
X552049Y304877D01*
X551125Y304494D01*
X549193Y303011D01*
X547710Y301079D01*
X546778Y298829D01*
X546460Y296414D01*
X546778Y293999D01*
X547710Y291749D01*
X549193Y289817D01*
X551125Y288334D01*
X553375Y287402D01*
X555790Y287084D01*
X555790D01*
X558205Y287402D01*
X560455Y288334D01*
X562387Y289817D01*
X563870Y291749D01*
X564802Y293999D01*
X565120Y296414D01*
X564802Y298829D01*
X563870Y301079D01*
X562387Y303011D01*
X560455Y304494D01*
X559531Y304877D01*
X559935Y306909D01*
X577045D01*
X577449Y304877D01*
X576525Y304494D01*
X574593Y303011D01*
X573110Y301079D01*
X572178Y298829D01*
X571860Y296414D01*
X572178Y293999D01*
X573110Y291749D01*
X574593Y289817D01*
X576525Y288334D01*
X578775Y287402D01*
X581190Y287084D01*
X581190D01*
X583605Y287402D01*
X585855Y288334D01*
X587787Y289817D01*
X589270Y291749D01*
X590202Y293999D01*
X590520Y296414D01*
X590202Y298829D01*
X589270Y301079D01*
X587787Y303011D01*
X585855Y304494D01*
X584931Y304877D01*
X585335Y306909D01*
X602445D01*
X602849Y304877D01*
X601925Y304494D01*
X599993Y303011D01*
X598510Y301079D01*
X597578Y298829D01*
X597260Y296414D01*
X597578Y293999D01*
X598510Y291749D01*
X599993Y289817D01*
X601925Y288334D01*
X604175Y287402D01*
X606590Y287084D01*
X606590D01*
X609005Y287402D01*
X611255Y288334D01*
X613187Y289817D01*
X614670Y291749D01*
X615602Y293999D01*
X615920Y296414D01*
X615602Y298829D01*
X614670Y301079D01*
X613187Y303011D01*
X611255Y304494D01*
X610331Y304877D01*
X610735Y306909D01*
X627845D01*
X628249Y304877D01*
X627325Y304494D01*
X625393Y303011D01*
X623910Y301079D01*
X622978Y298829D01*
X622660Y296414D01*
X622978Y293999D01*
X623910Y291749D01*
X625393Y289817D01*
X627325Y288334D01*
X629575Y287402D01*
X631990Y287084D01*
X631990D01*
X634405Y287402D01*
X636655Y288334D01*
X638587Y289817D01*
X640070Y291749D01*
X641002Y293999D01*
X641320Y296414D01*
X641002Y298829D01*
X640070Y301079D01*
X638587Y303011D01*
X636655Y304494D01*
X635731Y304877D01*
X636135Y306909D01*
X653245D01*
X653649Y304877D01*
X652725Y304494D01*
X650793Y303011D01*
X649310Y301079D01*
X648378Y298829D01*
X648060Y296414D01*
X648378Y293999D01*
X649310Y291749D01*
X650793Y289817D01*
X652725Y288334D01*
X654299Y287682D01*
Y217820D01*
X649380D01*
Y213511D01*
X563021D01*
X550166Y226366D01*
X549163Y227036D01*
X547980Y227271D01*
X539934D01*
Y227930D01*
X539759Y228808D01*
X539262Y229552D01*
X538518Y230049D01*
X537640Y230224D01*
X523140D01*
X522262Y230049D01*
X521518Y229552D01*
X521021Y228808D01*
X520846Y227930D01*
Y227271D01*
X514534D01*
Y227930D01*
X514359Y228808D01*
X513862Y229552D01*
X513118Y230049D01*
X512240Y230224D01*
X497740D01*
X496862Y230049D01*
X496118Y229552D01*
X495621Y228808D01*
X495446Y227930D01*
Y220430D01*
X495621Y219552D01*
X496118Y218808D01*
X496862Y218311D01*
X497740Y218136D01*
X501899D01*
Y208320D01*
X501599Y208021D01*
X500990Y206551D01*
Y204959D01*
X501599Y203489D01*
X502724Y202364D01*
X504194Y201755D01*
X505786D01*
X507256Y202364D01*
X508381Y203489D01*
X508990Y204959D01*
Y206551D01*
X508381Y208021D01*
X508081Y208320D01*
Y218136D01*
X512240D01*
X513118Y218311D01*
X513862Y218808D01*
X514359Y219552D01*
X514534Y220430D01*
Y221089D01*
X520846D01*
Y220430D01*
X521021Y219552D01*
X521518Y218808D01*
X522262Y218311D01*
X523140Y218136D01*
X537640D01*
X538518Y218311D01*
X539262Y218808D01*
X539759Y219552D01*
X539934Y220430D01*
Y221089D01*
X546699D01*
X559554Y208234D01*
X560557Y207564D01*
X561740Y207329D01*
X649380D01*
Y203020D01*
X664180D01*
Y207329D01*
X952920D01*
X954103Y207564D01*
X955106Y208234D01*
X963781Y216909D01*
X971956D01*
Y212750D01*
X972131Y211872D01*
X972628Y211128D01*
X973372Y210631D01*
X974250Y210456D01*
X981750D01*
X982628Y210631D01*
X983372Y211128D01*
X983869Y211872D01*
X984044Y212750D01*
Y227250D01*
X983869Y228128D01*
X983372Y228872D01*
X982628Y229369D01*
X981750Y229544D01*
X981091D01*
Y243694D01*
X985186Y247789D01*
X1355809D01*
Y146660D01*
X1356044Y145477D01*
X1356714Y144474D01*
X1380184Y121004D01*
X1381187Y120334D01*
X1382370Y120099D01*
X1393066D01*
Y117940D01*
X1393280Y116867D01*
X1393887Y115957D01*
X1394797Y115350D01*
X1395870Y115136D01*
X1409370D01*
X1410443Y115350D01*
X1411353Y115957D01*
X1411960Y116867D01*
X1412174Y117940D01*
Y120099D01*
X1424056D01*
Y117940D01*
X1424270Y116867D01*
X1424877Y115957D01*
X1425787Y115350D01*
X1426860Y115136D01*
X1430519D01*
Y108460D01*
X1430754Y107277D01*
X1431424Y106274D01*
X1445904Y91794D01*
X1446907Y91124D01*
X1448090Y90889D01*
X1464223D01*
X1464503Y90468D01*
X1465082Y90082D01*
X1465765Y89946D01*
X1469499D01*
Y81934D01*
X1468840D01*
X1467962Y81759D01*
X1467218Y81262D01*
X1466721Y80518D01*
X1466546Y79640D01*
Y65140D01*
X1466721Y64262D01*
X1467218Y63518D01*
X1467962Y63021D01*
X1468840Y62846D01*
X1476340D01*
X1477218Y63021D01*
X1477962Y63518D01*
X1478459Y64262D01*
X1478634Y65140D01*
Y79640D01*
X1478459Y80518D01*
X1477962Y81262D01*
X1477218Y81759D01*
X1476340Y81934D01*
X1475681D01*
Y89946D01*
X1483965D01*
X1484648Y90082D01*
X1485227Y90468D01*
X1485614Y91047D01*
X1485749Y91730D01*
Y96230D01*
X1485614Y96913D01*
X1485227Y97492D01*
X1484648Y97879D01*
X1483965Y98014D01*
X1465765D01*
X1465082Y97879D01*
X1464503Y97492D01*
X1464223Y97071D01*
X1449371D01*
X1436701Y109740D01*
Y115136D01*
X1440360D01*
X1441433Y115350D01*
X1442343Y115957D01*
X1442950Y116867D01*
X1443164Y117940D01*
Y128440D01*
X1442950Y129513D01*
X1442343Y130423D01*
X1441433Y131030D01*
X1440360Y131244D01*
X1426860D01*
X1425787Y131030D01*
X1424877Y130423D01*
X1424270Y129513D01*
X1424056Y128440D01*
Y126281D01*
X1412174D01*
Y128440D01*
X1411960Y129513D01*
X1411353Y130423D01*
X1410443Y131030D01*
X1409370Y131244D01*
X1395870D01*
X1394797Y131030D01*
X1393887Y130423D01*
X1393280Y129513D01*
X1393066Y128440D01*
Y126281D01*
X1383651D01*
X1361991Y147941D01*
Y247789D01*
X1376066D01*
Y245630D01*
X1376280Y244557D01*
X1376887Y243647D01*
X1377797Y243040D01*
X1378870Y242826D01*
X1392370D01*
X1393443Y243040D01*
X1394353Y243647D01*
X1394960Y244557D01*
X1395174Y245630D01*
Y247789D01*
X1407066D01*
Y245630D01*
X1407280Y244557D01*
X1407887Y243647D01*
X1408797Y243040D01*
X1409870Y242826D01*
X1423370D01*
X1424443Y243040D01*
X1425353Y243647D01*
X1425960Y244557D01*
X1426174Y245630D01*
Y247789D01*
X1440870D01*
X1442053Y248024D01*
X1443056Y248694D01*
X1464303Y269941D01*
X1464646Y269742D01*
X1466935Y269129D01*
X1469305D01*
X1471594Y269742D01*
X1473647Y270927D01*
X1475323Y272603D01*
X1476508Y274656D01*
X1477121Y276945D01*
Y279315D01*
X1476508Y281604D01*
X1475323Y283657D01*
X1473647Y285333D01*
X1471594Y286518D01*
X1469305Y287131D01*
X1466935D01*
X1464646Y286518D01*
X1462593Y285333D01*
X1460917Y283657D01*
X1459732Y281604D01*
X1459119Y279315D01*
Y276945D01*
X1459732Y274656D01*
X1459931Y274312D01*
X1439590Y253972D01*
X1426174D01*
Y256130D01*
X1425960Y257203D01*
X1425353Y258113D01*
X1424443Y258720D01*
X1423370Y258934D01*
X1409870D01*
X1408797Y258720D01*
X1407887Y258113D01*
X1407280Y257203D01*
X1407066Y256130D01*
Y253972D01*
X1395174D01*
Y256130D01*
X1394960Y257203D01*
X1394353Y258113D01*
X1393443Y258720D01*
X1392370Y258934D01*
X1378870D01*
X1377797Y258720D01*
X1376887Y258113D01*
X1376280Y257203D01*
X1376066Y256130D01*
Y253972D01*
X983906D01*
X982723Y253736D01*
X981720Y253066D01*
X975814Y247160D01*
X975144Y246157D01*
X974909Y244974D01*
Y229544D01*
X974250D01*
X973372Y229369D01*
X972628Y228872D01*
X972131Y228128D01*
X971956Y227250D01*
Y223091D01*
X962500D01*
X961317Y222856D01*
X960314Y222186D01*
X951639Y213511D01*
X664180D01*
Y217820D01*
X660481D01*
Y287682D01*
X662055Y288334D01*
X663987Y289817D01*
X665470Y291749D01*
X666402Y293999D01*
X666720Y296414D01*
X666402Y298829D01*
X665470Y301079D01*
X663987Y303011D01*
X662055Y304494D01*
X661131Y304877D01*
X661535Y306909D01*
X676239D01*
X676928Y304877D01*
X675457Y303747D01*
X673809Y301599D01*
X672773Y299098D01*
X672682Y298414D01*
X692897D01*
X692807Y299098D01*
X691771Y301599D01*
X690123Y303747D01*
X688652Y304877D01*
X689341Y306909D01*
X701639D01*
X702328Y304877D01*
X700857Y303747D01*
X699209Y301599D01*
X698173Y299098D01*
X698082Y298414D01*
X718297D01*
X718207Y299098D01*
X717171Y301599D01*
X715523Y303747D01*
X714052Y304877D01*
X714741Y306909D01*
X729445D01*
X729849Y304877D01*
X728925Y304494D01*
X726993Y303011D01*
X725510Y301079D01*
X724578Y298829D01*
X724260Y296414D01*
X724578Y293999D01*
X725510Y291749D01*
X726993Y289817D01*
X728925Y288334D01*
X731175Y287402D01*
X733590Y287084D01*
X733590D01*
X736005Y287402D01*
X738255Y288334D01*
X740187Y289817D01*
X741670Y291749D01*
X742602Y293999D01*
X742920Y296414D01*
X742602Y298829D01*
X741670Y301079D01*
X740187Y303011D01*
X738255Y304494D01*
X737331Y304877D01*
X737735Y306909D01*
X1498750D01*
X1512789Y292869D01*
X1513792Y292199D01*
X1514975Y291964D01*
X1777172D01*
X1806872Y262264D01*
X1807875Y261594D01*
X1809058Y261359D01*
X1810046D01*
Y257200D01*
X1810220Y256322D01*
X1810718Y255578D01*
X1811462Y255081D01*
X1812340Y254906D01*
X1819840D01*
X1820718Y255081D01*
X1821462Y255578D01*
X1821959Y256322D01*
X1822134Y257200D01*
Y271700D01*
X1821959Y272578D01*
X1821462Y273322D01*
X1820718Y273820D01*
X1819840Y273994D01*
X1812340D01*
X1811462Y273820D01*
X1810718Y273322D01*
X1810220Y272578D01*
X1810046Y271700D01*
Y270489D01*
X1808169Y269711D01*
X1780639Y297241D01*
X1779636Y297911D01*
X1778453Y298147D01*
X1518228D01*
X1518121Y298307D01*
X1519208Y300339D01*
X1810046D01*
Y296180D01*
X1810220Y295302D01*
X1810718Y294558D01*
X1811462Y294061D01*
X1812340Y293886D01*
X1819840D01*
X1820718Y294061D01*
X1821462Y294558D01*
X1821959Y295302D01*
X1822134Y296180D01*
Y310680D01*
X1821959Y311558D01*
X1821462Y312302D01*
X1820718Y312799D01*
X1819840Y312974D01*
X1812340D01*
X1811462Y312799D01*
X1810718Y312302D01*
X1810220Y311558D01*
X1810046Y310680D01*
Y306521D01*
X1517163D01*
X1504935Y318750D01*
X1503932Y319420D01*
X1502749Y319655D01*
D02*
G37*
G36*
X1898244Y300930D02*
X1891120D01*
Y292306D01*
X1893870D01*
X1895544Y292639D01*
X1896963Y293587D01*
X1897911Y295006D01*
X1898244Y296680D01*
Y300930D01*
D02*
G37*
G36*
X1886120D02*
X1878996D01*
Y296680D01*
X1879329Y295006D01*
X1880277Y293587D01*
X1881696Y292639D01*
X1883370Y292306D01*
X1886120D01*
Y300930D01*
D02*
G37*
G36*
X480835Y305744D02*
X480835D01*
X478420Y305426D01*
X476170Y304494D01*
X474238Y303011D01*
X472755Y301079D01*
X471823Y298829D01*
X471505Y296414D01*
X471823Y293999D01*
X472755Y291749D01*
X474238Y289817D01*
X476170Y288334D01*
X478420Y287402D01*
X480835Y287084D01*
X480835D01*
X483250Y287402D01*
X485500Y288334D01*
X487432Y289817D01*
X488915Y291749D01*
X489847Y293999D01*
X490165Y296414D01*
X489847Y298829D01*
X488915Y301079D01*
X487432Y303011D01*
X485500Y304494D01*
X483250Y305426D01*
X480835Y305744D01*
D02*
G37*
G36*
X454190D02*
X454190D01*
X451775Y305426D01*
X449525Y304494D01*
X447593Y303011D01*
X446110Y301079D01*
X445178Y298829D01*
X444860Y296414D01*
X445178Y293999D01*
X446110Y291749D01*
X447593Y289817D01*
X449525Y288334D01*
X451775Y287402D01*
X454190Y287084D01*
X454190D01*
X456605Y287402D01*
X458855Y288334D01*
X460787Y289817D01*
X462270Y291749D01*
X463202Y293999D01*
X463520Y296414D01*
X463202Y298829D01*
X462270Y301079D01*
X460787Y303011D01*
X458855Y304494D01*
X456605Y305426D01*
X454190Y305744D01*
D02*
G37*
G36*
X428790D02*
X428790D01*
X426375Y305426D01*
X424125Y304494D01*
X422193Y303011D01*
X420710Y301079D01*
X419778Y298829D01*
X419460Y296414D01*
X419778Y293999D01*
X420710Y291749D01*
X422193Y289817D01*
X424125Y288334D01*
X426375Y287402D01*
X428790Y287084D01*
X428790D01*
X431205Y287402D01*
X433455Y288334D01*
X435387Y289817D01*
X436870Y291749D01*
X437802Y293999D01*
X438120Y296414D01*
X437802Y298829D01*
X436870Y301079D01*
X435387Y303011D01*
X433455Y304494D01*
X431205Y305426D01*
X428790Y305744D01*
D02*
G37*
G36*
X403390D02*
X403390D01*
X400975Y305426D01*
X398725Y304494D01*
X396793Y303011D01*
X395310Y301079D01*
X394378Y298829D01*
X394060Y296414D01*
X394378Y293999D01*
X395310Y291749D01*
X396793Y289817D01*
X398725Y288334D01*
X400975Y287402D01*
X403390Y287084D01*
X403390D01*
X405805Y287402D01*
X408055Y288334D01*
X409987Y289817D01*
X411470Y291749D01*
X412402Y293999D01*
X412720Y296414D01*
X412402Y298829D01*
X411470Y301079D01*
X409987Y303011D01*
X408055Y304494D01*
X405805Y305426D01*
X403390Y305744D01*
D02*
G37*
G36*
X377990D02*
X377990D01*
X375575Y305426D01*
X373325Y304494D01*
X371393Y303011D01*
X369910Y301079D01*
X368978Y298829D01*
X368660Y296414D01*
X368978Y293999D01*
X369910Y291749D01*
X371393Y289817D01*
X373325Y288334D01*
X375575Y287402D01*
X377990Y287084D01*
X377990D01*
X380405Y287402D01*
X382655Y288334D01*
X384587Y289817D01*
X386070Y291749D01*
X387002Y293999D01*
X387320Y296414D01*
X387002Y298829D01*
X386070Y301079D01*
X384587Y303011D01*
X382655Y304494D01*
X380405Y305426D01*
X377990Y305744D01*
D02*
G37*
G36*
X718297Y294414D02*
X710190D01*
Y286307D01*
X710874Y286397D01*
X713375Y287433D01*
X715523Y289081D01*
X717171Y291229D01*
X718207Y293730D01*
X718297Y294414D01*
D02*
G37*
G36*
X706190D02*
X698082D01*
X698173Y293730D01*
X699209Y291229D01*
X700857Y289081D01*
X703005Y287433D01*
X705506Y286397D01*
X706190Y286307D01*
Y294414D01*
D02*
G37*
G36*
X692897D02*
X684790D01*
Y286307D01*
X685474Y286397D01*
X687975Y287433D01*
X690123Y289081D01*
X691771Y291229D01*
X692807Y293730D01*
X692897Y294414D01*
D02*
G37*
G36*
X680790D02*
X672682D01*
X672773Y293730D01*
X673809Y291229D01*
X675457Y289081D01*
X677605Y287433D01*
X680106Y286397D01*
X680790Y286307D01*
Y294414D01*
D02*
G37*
G36*
X1546320Y287981D02*
Y280130D01*
X1554171D01*
X1553669Y282003D01*
X1552348Y284290D01*
X1550480Y286158D01*
X1548193Y287479D01*
X1546320Y287981D01*
D02*
G37*
G36*
X1542320Y287981D02*
X1540447Y287479D01*
X1538160Y286158D01*
X1536292Y284290D01*
X1534971Y282003D01*
X1534469Y280130D01*
X1542320D01*
Y287981D01*
D02*
G37*
G36*
X127796Y274941D02*
X126061D01*
Y270869D01*
X130632D01*
Y272104D01*
X130417Y273190D01*
X129802Y274110D01*
X128882Y274725D01*
X127796Y274941D01*
D02*
G37*
G36*
X124031D02*
X122296D01*
X121210Y274725D01*
X120290Y274110D01*
X119675Y273190D01*
X119459Y272104D01*
Y270869D01*
X124031D01*
Y274941D01*
D02*
G37*
G36*
X67193Y273100D02*
X65127D01*
X63130Y272565D01*
X61340Y271532D01*
X59878Y270070D01*
X58880Y268341D01*
X48610D01*
Y273100D01*
X32910D01*
Y257400D01*
X37669D01*
Y247130D01*
X35940Y246132D01*
X34478Y244670D01*
X33445Y242880D01*
X32910Y240884D01*
Y238817D01*
X33445Y236820D01*
X34478Y235030D01*
X35940Y233568D01*
X37730Y232535D01*
X39727Y232000D01*
X41793D01*
X43790Y232535D01*
X45580Y233568D01*
X47042Y235030D01*
X48040Y236759D01*
X58880D01*
X59878Y235030D01*
X61340Y233568D01*
X63130Y232535D01*
X65127Y232000D01*
X67193D01*
X69190Y232535D01*
X70980Y233568D01*
X72442Y235030D01*
X73440Y236759D01*
X109150D01*
X110844Y235064D01*
X111847Y234394D01*
X113030Y234159D01*
X114260D01*
Y227250D01*
X134660D01*
Y247250D01*
X128137D01*
Y255888D01*
X128479Y255956D01*
X129058Y256342D01*
X129445Y256921D01*
X129580Y257604D01*
Y262104D01*
X129445Y262787D01*
X129299Y263005D01*
X129147Y263724D01*
X129577Y265448D01*
X129802Y265598D01*
X130417Y266519D01*
X130632Y267604D01*
Y268839D01*
X125046D01*
X119459D01*
Y267604D01*
X119675Y266519D01*
X120290Y265598D01*
X120515Y265448D01*
X120945Y263724D01*
X120793Y263005D01*
X120647Y262787D01*
X120512Y262104D01*
Y257604D01*
X120647Y256921D01*
X121034Y256342D01*
X121613Y255956D01*
X121955Y255888D01*
Y247250D01*
X114260D01*
Y242955D01*
X112228Y242295D01*
X111613Y242706D01*
X110430Y242941D01*
X73440D01*
X72442Y244670D01*
X70980Y246132D01*
X69251Y247130D01*
Y257971D01*
X70980Y258969D01*
X72442Y260430D01*
X73475Y262220D01*
X74010Y264217D01*
Y266283D01*
X73475Y268280D01*
X72442Y270070D01*
X70980Y271532D01*
X69190Y272565D01*
X67193Y273100D01*
D02*
G37*
G36*
X1542320Y276130D02*
X1534469D01*
X1534971Y274257D01*
X1536292Y271970D01*
X1538160Y270102D01*
X1540447Y268781D01*
X1542320Y268279D01*
Y276130D01*
D02*
G37*
G36*
X1554171D02*
X1546320D01*
Y268279D01*
X1548193Y268781D01*
X1550480Y270102D01*
X1552348Y271970D01*
X1553669Y274257D01*
X1554171Y276130D01*
D02*
G37*
G36*
X1893870Y275574D02*
X1891120D01*
Y266950D01*
X1898244D01*
Y271200D01*
X1897911Y272874D01*
X1896963Y274293D01*
X1895544Y275241D01*
X1893870Y275574D01*
D02*
G37*
G36*
X1886120D02*
X1883370D01*
X1881696Y275241D01*
X1880277Y274293D01*
X1879329Y272874D01*
X1878996Y271200D01*
Y266950D01*
X1886120D01*
Y275574D01*
D02*
G37*
G36*
X1871010Y274004D02*
X1860510D01*
X1859437Y273790D01*
X1858527Y273183D01*
X1857920Y272273D01*
X1857706Y271200D01*
Y266765D01*
X1841134D01*
Y271700D01*
X1840959Y272578D01*
X1840462Y273322D01*
X1839718Y273820D01*
X1838840Y273994D01*
X1831340D01*
X1830462Y273820D01*
X1829718Y273322D01*
X1829220Y272578D01*
X1829046Y271700D01*
Y257200D01*
X1829220Y256322D01*
X1829718Y255578D01*
X1830462Y255081D01*
X1831340Y254906D01*
X1838840D01*
X1839718Y255081D01*
X1840462Y255578D01*
X1840959Y256322D01*
X1841134Y257200D01*
Y262136D01*
X1857706D01*
Y257700D01*
X1857920Y256627D01*
X1858527Y255717D01*
X1859437Y255110D01*
X1860510Y254896D01*
X1863445D01*
Y248673D01*
X1863195Y248423D01*
X1862694Y247672D01*
X1862518Y246786D01*
Y239242D01*
X1861262Y238906D01*
X1859152Y237688D01*
X1857430Y235966D01*
X1856212Y233856D01*
X1855582Y231504D01*
Y229068D01*
X1856212Y226716D01*
X1857430Y224606D01*
X1859152Y222884D01*
X1861262Y221666D01*
X1863614Y221036D01*
X1866050D01*
X1868402Y221666D01*
X1870512Y222884D01*
X1872234Y224606D01*
X1873452Y226716D01*
X1874082Y229068D01*
Y231504D01*
X1873452Y233856D01*
X1872234Y235966D01*
X1870512Y237688D01*
X1868402Y238906D01*
X1867146Y239242D01*
Y245827D01*
X1867397Y246077D01*
X1867898Y246828D01*
X1868074Y247714D01*
Y254896D01*
X1871010D01*
X1872083Y255110D01*
X1872993Y255717D01*
X1873600Y256627D01*
X1873814Y257700D01*
Y271200D01*
X1873600Y272273D01*
X1872993Y273183D01*
X1872083Y273790D01*
X1871010Y274004D01*
D02*
G37*
G36*
X1968772Y275284D02*
X1966022D01*
Y266660D01*
X1973146D01*
Y270910D01*
X1972813Y272584D01*
X1971865Y274003D01*
X1970446Y274951D01*
X1968772Y275284D01*
D02*
G37*
G36*
X1961022D02*
X1958272D01*
X1956598Y274951D01*
X1955179Y274003D01*
X1954231Y272584D01*
X1953898Y270910D01*
Y266660D01*
X1961022D01*
Y275284D01*
D02*
G37*
G36*
X2489554Y272700D02*
X2487487D01*
X2485490Y272165D01*
X2483700Y271132D01*
X2482238Y269670D01*
X2481205Y267880D01*
X2480670Y265884D01*
Y263817D01*
X2481205Y261820D01*
X2482238Y260030D01*
X2483700Y258568D01*
X2485490Y257535D01*
X2487487Y257000D01*
X2489554D01*
X2491550Y257535D01*
X2493340Y258568D01*
X2494802Y260030D01*
X2495835Y261820D01*
X2496370Y263817D01*
Y265884D01*
X2495835Y267880D01*
X2494802Y269670D01*
X2493340Y271132D01*
X2491550Y272165D01*
X2489554Y272700D01*
D02*
G37*
G36*
X2470970D02*
X2455270D01*
Y257000D01*
X2470970D01*
Y272700D01*
D02*
G37*
G36*
X1898244Y261950D02*
X1891120D01*
Y253326D01*
X1893870D01*
X1895544Y253659D01*
X1896963Y254607D01*
X1897911Y256026D01*
X1898244Y257700D01*
Y261950D01*
D02*
G37*
G36*
X1886120D02*
X1878996D01*
Y257700D01*
X1879329Y256026D01*
X1880277Y254607D01*
X1881696Y253659D01*
X1883370Y253326D01*
X1886120D01*
Y261950D01*
D02*
G37*
G36*
X1973146Y261660D02*
X1966022D01*
Y253036D01*
X1968772D01*
X1970446Y253369D01*
X1971865Y254317D01*
X1972813Y255736D01*
X1973146Y257410D01*
Y261660D01*
D02*
G37*
G36*
X1961022D02*
X1953898D01*
Y257410D01*
X1954231Y255736D01*
X1955179Y254317D01*
X1956598Y253369D01*
X1958272Y253036D01*
X1961022D01*
Y261660D01*
D02*
G37*
G36*
X1545505Y261731D02*
X1543135D01*
X1540846Y261118D01*
X1538793Y259933D01*
X1537117Y258257D01*
X1535932Y256204D01*
X1535319Y253915D01*
Y251545D01*
X1535932Y249256D01*
X1537117Y247203D01*
X1538793Y245527D01*
X1540846Y244342D01*
X1543135Y243729D01*
X1545505D01*
X1547794Y244342D01*
X1549847Y245527D01*
X1551523Y247203D01*
X1552708Y249256D01*
X1553321Y251545D01*
Y253915D01*
X1552708Y256204D01*
X1551523Y258257D01*
X1549847Y259933D01*
X1547794Y261118D01*
X1545505Y261731D01*
D02*
G37*
G36*
X1469305D02*
X1466935D01*
X1464646Y261118D01*
X1462593Y259933D01*
X1460917Y258257D01*
X1459732Y256204D01*
X1459119Y253915D01*
Y251545D01*
X1459732Y249256D01*
X1460917Y247203D01*
X1462593Y245527D01*
X1464646Y244342D01*
X1466935Y243729D01*
X1469305D01*
X1471594Y244342D01*
X1473647Y245527D01*
X1475323Y247203D01*
X1476508Y249256D01*
X1477121Y251545D01*
Y253915D01*
X1476508Y256204D01*
X1475323Y258257D01*
X1473647Y259933D01*
X1471594Y261118D01*
X1469305Y261731D01*
D02*
G37*
G36*
X1917632Y240395D02*
Y232286D01*
X1925741D01*
X1925213Y234255D01*
X1923860Y236599D01*
X1921945Y238514D01*
X1919601Y239867D01*
X1917632Y240395D01*
D02*
G37*
G36*
X1913632Y240395D02*
X1911663Y239867D01*
X1909319Y238514D01*
X1907404Y236599D01*
X1906051Y234255D01*
X1905523Y232286D01*
X1913632D01*
Y240395D01*
D02*
G37*
G36*
X2489554Y247300D02*
X2487487D01*
X2485490Y246765D01*
X2483700Y245732D01*
X2482238Y244270D01*
X2481205Y242480D01*
X2480670Y240483D01*
Y238417D01*
X2481205Y236420D01*
X2482238Y234630D01*
X2483700Y233169D01*
X2485490Y232135D01*
X2487487Y231600D01*
X2489554D01*
X2491550Y232135D01*
X2493340Y233169D01*
X2494802Y234630D01*
X2495835Y236420D01*
X2496370Y238417D01*
Y240483D01*
X2495835Y242480D01*
X2494802Y244270D01*
X2493340Y245732D01*
X2491550Y246765D01*
X2489554Y247300D01*
D02*
G37*
G36*
X2464153D02*
X2462086D01*
X2460090Y246765D01*
X2458300Y245732D01*
X2456838Y244270D01*
X2455805Y242480D01*
X2455270Y240483D01*
Y238417D01*
X2455805Y236420D01*
X2456838Y234630D01*
X2458300Y233169D01*
X2460090Y232135D01*
X2462086Y231600D01*
X2464153D01*
X2466150Y232135D01*
X2467940Y233169D01*
X2469402Y234630D01*
X2470435Y236420D01*
X2470970Y238417D01*
Y240483D01*
X2470435Y242480D01*
X2469402Y244270D01*
X2467940Y245732D01*
X2466150Y246765D01*
X2464153Y247300D01*
D02*
G37*
G36*
X1423370Y237644D02*
X1419120D01*
Y230520D01*
X1427744D01*
Y233270D01*
X1427411Y234944D01*
X1426463Y236363D01*
X1425044Y237311D01*
X1423370Y237644D01*
D02*
G37*
G36*
X1414120D02*
X1409870D01*
X1408196Y237311D01*
X1406777Y236363D01*
X1405829Y234944D01*
X1405496Y233270D01*
Y230520D01*
X1414120D01*
Y237644D01*
D02*
G37*
G36*
X1392370D02*
X1388120D01*
Y230520D01*
X1396744D01*
Y233270D01*
X1396411Y234944D01*
X1395463Y236363D01*
X1394044Y237311D01*
X1392370Y237644D01*
D02*
G37*
G36*
X1383120D02*
X1378870D01*
X1377196Y237311D01*
X1375777Y236363D01*
X1374829Y234944D01*
X1374496Y233270D01*
Y230520D01*
X1383120D01*
Y237644D01*
D02*
G37*
G36*
X1470120Y237181D02*
Y229330D01*
X1477971D01*
X1477469Y231203D01*
X1476148Y233490D01*
X1474280Y235358D01*
X1471993Y236679D01*
X1470120Y237181D01*
D02*
G37*
G36*
X1466120Y237181D02*
X1464247Y236679D01*
X1461960Y235358D01*
X1460092Y233490D01*
X1458771Y231203D01*
X1458269Y229330D01*
X1466120D01*
Y237181D01*
D02*
G37*
G36*
X1281750Y229544D02*
X1274250D01*
X1273372Y229369D01*
X1272628Y228872D01*
X1272131Y228128D01*
X1271956Y227250D01*
Y223091D01*
X1203044D01*
Y227250D01*
X1202869Y228128D01*
X1202372Y228872D01*
X1201628Y229369D01*
X1200750Y229544D01*
X1193250D01*
X1192372Y229369D01*
X1191628Y228872D01*
X1191131Y228128D01*
X1190956Y227250D01*
Y212750D01*
X1191131Y211872D01*
X1191628Y211128D01*
X1192372Y210631D01*
X1193250Y210456D01*
X1194209D01*
Y187040D01*
X1191735D01*
X1190941Y186882D01*
X1190268Y186432D01*
X1189818Y185759D01*
X1189660Y184965D01*
Y166035D01*
X1189818Y165241D01*
X1190268Y164568D01*
X1190941Y164118D01*
X1191735Y163960D01*
X1194509D01*
Y96040D01*
X1191735D01*
X1190941Y95882D01*
X1190268Y95432D01*
X1189818Y94759D01*
X1189660Y93965D01*
Y75035D01*
X1189818Y74241D01*
X1190268Y73568D01*
X1190941Y73118D01*
X1191735Y72960D01*
X1203465D01*
X1204259Y73118D01*
X1204932Y73568D01*
X1205382Y74241D01*
X1205540Y75035D01*
Y93965D01*
X1205382Y94759D01*
X1204932Y95432D01*
X1204259Y95882D01*
X1203465Y96040D01*
X1200691D01*
Y163960D01*
X1203465D01*
X1204259Y164118D01*
X1204932Y164568D01*
X1205382Y165241D01*
X1205540Y166035D01*
Y184965D01*
X1205382Y185759D01*
X1204932Y186432D01*
X1204259Y186882D01*
X1203465Y187040D01*
X1200391D01*
Y210456D01*
X1200750D01*
X1201628Y210631D01*
X1202372Y211128D01*
X1202869Y211872D01*
X1203044Y212750D01*
Y216909D01*
X1271956D01*
Y212750D01*
X1272131Y211872D01*
X1272628Y211128D01*
X1273372Y210631D01*
X1274250Y210456D01*
X1281750D01*
X1282628Y210631D01*
X1283372Y211128D01*
X1283869Y211872D01*
X1284044Y212750D01*
Y227250D01*
X1283869Y228128D01*
X1283372Y228872D01*
X1282628Y229369D01*
X1281750Y229544D01*
D02*
G37*
G36*
X1181750D02*
X1174250D01*
X1173372Y229369D01*
X1172628Y228872D01*
X1172131Y228128D01*
X1171956Y227250D01*
Y223091D01*
X1103044D01*
Y227250D01*
X1102869Y228128D01*
X1102372Y228872D01*
X1101628Y229369D01*
X1100750Y229544D01*
X1093250D01*
X1092372Y229369D01*
X1091628Y228872D01*
X1091131Y228128D01*
X1090956Y227250D01*
Y212750D01*
X1091131Y211872D01*
X1091628Y211128D01*
X1092372Y210631D01*
X1093250Y210456D01*
X1094209D01*
Y187040D01*
X1091735D01*
X1090941Y186882D01*
X1090268Y186432D01*
X1089818Y185759D01*
X1089660Y184965D01*
Y166035D01*
X1089818Y165241D01*
X1090268Y164568D01*
X1090941Y164118D01*
X1091735Y163960D01*
X1094509D01*
Y96040D01*
X1091735D01*
X1090941Y95882D01*
X1090268Y95432D01*
X1089818Y94759D01*
X1089660Y93965D01*
Y75035D01*
X1089818Y74241D01*
X1090268Y73568D01*
X1090941Y73118D01*
X1091735Y72960D01*
X1103465D01*
X1104259Y73118D01*
X1104932Y73568D01*
X1105382Y74241D01*
X1105540Y75035D01*
Y93965D01*
X1105382Y94759D01*
X1104932Y95432D01*
X1104259Y95882D01*
X1103465Y96040D01*
X1100691D01*
Y163960D01*
X1103465D01*
X1104259Y164118D01*
X1104932Y164568D01*
X1105382Y165241D01*
X1105540Y166035D01*
Y184965D01*
X1105382Y185759D01*
X1104932Y186432D01*
X1104259Y186882D01*
X1103465Y187040D01*
X1100391D01*
Y210456D01*
X1100750D01*
X1101628Y210631D01*
X1102372Y211128D01*
X1102869Y211872D01*
X1103044Y212750D01*
Y216909D01*
X1171956D01*
Y212750D01*
X1172131Y211872D01*
X1172628Y211128D01*
X1173372Y210631D01*
X1174250Y210456D01*
X1181750D01*
X1182628Y210631D01*
X1183372Y211128D01*
X1183869Y211872D01*
X1184044Y212750D01*
Y227250D01*
X1183869Y228128D01*
X1183372Y228872D01*
X1182628Y229369D01*
X1181750Y229544D01*
D02*
G37*
G36*
X1081750D02*
X1074250D01*
X1073372Y229369D01*
X1072628Y228872D01*
X1072131Y228128D01*
X1071956Y227250D01*
Y223091D01*
X1003044D01*
Y227250D01*
X1002869Y228128D01*
X1002372Y228872D01*
X1001628Y229369D01*
X1000750Y229544D01*
X993250D01*
X992372Y229369D01*
X991628Y228872D01*
X991131Y228128D01*
X990956Y227250D01*
Y212750D01*
X991131Y211872D01*
X991628Y211128D01*
X992372Y210631D01*
X993250Y210456D01*
X994209D01*
Y187040D01*
X991735D01*
X990941Y186882D01*
X990268Y186432D01*
X989818Y185759D01*
X989660Y184965D01*
Y177591D01*
X966164D01*
Y178250D01*
X965989Y179128D01*
X965492Y179872D01*
X964748Y180369D01*
X963870Y180544D01*
X949370D01*
X948492Y180369D01*
X947748Y179872D01*
X947251Y179128D01*
X947076Y178250D01*
Y170750D01*
X947251Y169872D01*
X947748Y169128D01*
X948492Y168631D01*
X949370Y168456D01*
X963870D01*
X964748Y168631D01*
X965492Y169128D01*
X965989Y169872D01*
X966164Y170750D01*
Y171409D01*
X989660D01*
Y166035D01*
X989818Y165241D01*
X990268Y164568D01*
X990941Y164118D01*
X991735Y163960D01*
X994509D01*
Y96040D01*
X991735D01*
X990941Y95882D01*
X990268Y95432D01*
X989818Y94759D01*
X989660Y93965D01*
Y75035D01*
X989818Y74241D01*
X990268Y73568D01*
X990941Y73118D01*
X991735Y72960D01*
X1003465D01*
X1004259Y73118D01*
X1004932Y73568D01*
X1005382Y74241D01*
X1005540Y75035D01*
Y93965D01*
X1005382Y94759D01*
X1004932Y95432D01*
X1004259Y95882D01*
X1003465Y96040D01*
X1000691D01*
Y163960D01*
X1003465D01*
X1004259Y164118D01*
X1004932Y164568D01*
X1005382Y165241D01*
X1005540Y166035D01*
Y184965D01*
X1005382Y185759D01*
X1004932Y186432D01*
X1004259Y186882D01*
X1003465Y187040D01*
X1000391D01*
Y210456D01*
X1000750D01*
X1001628Y210631D01*
X1002372Y211128D01*
X1002869Y211872D01*
X1003044Y212750D01*
Y216909D01*
X1071956D01*
Y212750D01*
X1072131Y211872D01*
X1072628Y211128D01*
X1073372Y210631D01*
X1074250Y210456D01*
X1081750D01*
X1082628Y210631D01*
X1083372Y211128D01*
X1083869Y211872D01*
X1084044Y212750D01*
Y227250D01*
X1083869Y228128D01*
X1083372Y228872D01*
X1082628Y229369D01*
X1081750Y229544D01*
D02*
G37*
G36*
X1891450Y239536D02*
X1889014D01*
X1886662Y238906D01*
X1884552Y237688D01*
X1882830Y235966D01*
X1881612Y233856D01*
X1880982Y231504D01*
Y229068D01*
X1881612Y226716D01*
X1882830Y224606D01*
X1884552Y222884D01*
X1886662Y221666D01*
X1889014Y221036D01*
X1891450D01*
X1893802Y221666D01*
X1895912Y222884D01*
X1897634Y224606D01*
X1898852Y226716D01*
X1899482Y229068D01*
Y231504D01*
X1898852Y233856D01*
X1897634Y235966D01*
X1895912Y237688D01*
X1893802Y238906D01*
X1891450Y239536D01*
D02*
G37*
G36*
X1840650D02*
X1838214D01*
X1835862Y238906D01*
X1833752Y237688D01*
X1832030Y235966D01*
X1830812Y233856D01*
X1830182Y231504D01*
Y229068D01*
X1830812Y226716D01*
X1832030Y224606D01*
X1833752Y222884D01*
X1835862Y221666D01*
X1838214Y221036D01*
X1840650D01*
X1843002Y221666D01*
X1845112Y222884D01*
X1846834Y224606D01*
X1848052Y226716D01*
X1848682Y229068D01*
Y231504D01*
X1848052Y233856D01*
X1846834Y235966D01*
X1845112Y237688D01*
X1843002Y238906D01*
X1840650Y239536D01*
D02*
G37*
G36*
X1815250D02*
X1812814D01*
X1810462Y238906D01*
X1808352Y237688D01*
X1806630Y235966D01*
X1805412Y233856D01*
X1804782Y231504D01*
Y229068D01*
X1805412Y226716D01*
X1806630Y224606D01*
X1808352Y222884D01*
X1810462Y221666D01*
X1812814Y221036D01*
X1815250D01*
X1817602Y221666D01*
X1819712Y222884D01*
X1821434Y224606D01*
X1822652Y226716D01*
X1823282Y229068D01*
Y231504D01*
X1822652Y233856D01*
X1821434Y235966D01*
X1819712Y237688D01*
X1817602Y238906D01*
X1815250Y239536D01*
D02*
G37*
G36*
X1789850D02*
X1787414D01*
X1785062Y238906D01*
X1782952Y237688D01*
X1781230Y235966D01*
X1780012Y233856D01*
X1779382Y231504D01*
Y229068D01*
X1780012Y226716D01*
X1781230Y224606D01*
X1782952Y222884D01*
X1785062Y221666D01*
X1787414Y221036D01*
X1789850D01*
X1792202Y221666D01*
X1794312Y222884D01*
X1796034Y224606D01*
X1797252Y226716D01*
X1797882Y229068D01*
Y231504D01*
X1797252Y233856D01*
X1796034Y235966D01*
X1794312Y237688D01*
X1792202Y238906D01*
X1789850Y239536D01*
D02*
G37*
G36*
X1913632Y228286D02*
X1905523D01*
X1906051Y226317D01*
X1907404Y223973D01*
X1909319Y222058D01*
X1911663Y220705D01*
X1913632Y220177D01*
Y228286D01*
D02*
G37*
G36*
X1925741D02*
X1917632D01*
Y220177D01*
X1919601Y220705D01*
X1921945Y222058D01*
X1923860Y223973D01*
X1925213Y226317D01*
X1925741Y228286D01*
D02*
G37*
G36*
X1427744Y225520D02*
X1419120D01*
Y218396D01*
X1423370D01*
X1425044Y218729D01*
X1426463Y219677D01*
X1427411Y221096D01*
X1427744Y222770D01*
Y225520D01*
D02*
G37*
G36*
X1414120D02*
X1405496D01*
Y222770D01*
X1405829Y221096D01*
X1406777Y219677D01*
X1408196Y218729D01*
X1409870Y218396D01*
X1414120D01*
Y225520D01*
D02*
G37*
G36*
X1396744Y225520D02*
X1388120D01*
Y218396D01*
X1392370D01*
X1394044Y218729D01*
X1395463Y219677D01*
X1396411Y221096D01*
X1396744Y222770D01*
Y225520D01*
D02*
G37*
G36*
X1383120D02*
X1374496D01*
Y222770D01*
X1374829Y221096D01*
X1375777Y219677D01*
X1377196Y218729D01*
X1378870Y218396D01*
X1383120D01*
Y225520D01*
D02*
G37*
G36*
X1545505Y236331D02*
X1543135D01*
X1540846Y235718D01*
X1538793Y234533D01*
X1537117Y232857D01*
X1535932Y230804D01*
X1535319Y228515D01*
Y226145D01*
X1535932Y223856D01*
X1537117Y221803D01*
X1538793Y220127D01*
X1540846Y218942D01*
X1543135Y218329D01*
X1545505D01*
X1547794Y218942D01*
X1549847Y220127D01*
X1551523Y221803D01*
X1552708Y223856D01*
X1553321Y226145D01*
Y228515D01*
X1552708Y230804D01*
X1551523Y232857D01*
X1549847Y234533D01*
X1547794Y235718D01*
X1545505Y236331D01*
D02*
G37*
G36*
X1477971Y225330D02*
X1470120D01*
Y217479D01*
X1471993Y217981D01*
X1474280Y219302D01*
X1476148Y221170D01*
X1477469Y223457D01*
X1477971Y225330D01*
D02*
G37*
G36*
X1466120D02*
X1458269D01*
X1458771Y223457D01*
X1460092Y221170D01*
X1461960Y219302D01*
X1464247Y217981D01*
X1466120Y217479D01*
Y225330D01*
D02*
G37*
G36*
X2000570Y301344D02*
X1986070D01*
X1985192Y301169D01*
X1984448Y300672D01*
X1983951Y299928D01*
X1983776Y299050D01*
Y291550D01*
X1983951Y290672D01*
X1984448Y289928D01*
X1985192Y289431D01*
X1986070Y289256D01*
X1991006D01*
Y272710D01*
X1991182Y271824D01*
X1991683Y271073D01*
X2001745Y261011D01*
Y256360D01*
X1996970D01*
Y242180D01*
X2001745D01*
Y230590D01*
X2001323Y230477D01*
X1999707Y229543D01*
X1998387Y228223D01*
X1997453Y226607D01*
X1996970Y224804D01*
Y222937D01*
X1997453Y221133D01*
X1998387Y219517D01*
X1999707Y218197D01*
X2001323Y217263D01*
X2003127Y216780D01*
X2004993D01*
X2006797Y217263D01*
X2008413Y218197D01*
X2009733Y219517D01*
X2010667Y221133D01*
X2011150Y222937D01*
Y224804D01*
X2010667Y226607D01*
X2009733Y228223D01*
X2008413Y229543D01*
X2006797Y230477D01*
X2006375Y230590D01*
Y242180D01*
X2011150D01*
Y256360D01*
X2006375D01*
Y261970D01*
X2006198Y262856D01*
X2005697Y263607D01*
X1995634Y273669D01*
Y289256D01*
X2000570D01*
X2001448Y289431D01*
X2002192Y289928D01*
X2002689Y290672D01*
X2002864Y291550D01*
Y299050D01*
X2002689Y299928D01*
X2002192Y300672D01*
X2001448Y301169D01*
X2000570Y301344D01*
D02*
G37*
G36*
X68160Y223109D02*
Y216450D01*
X74819D01*
X74437Y217878D01*
X73267Y219904D01*
X71614Y221557D01*
X69588Y222727D01*
X68160Y223109D01*
D02*
G37*
G36*
X64160D02*
X62732Y222727D01*
X60706Y221557D01*
X59053Y219904D01*
X57883Y217878D01*
X57501Y216450D01*
X64160D01*
Y223109D01*
D02*
G37*
G36*
X2490520Y222710D02*
Y216050D01*
X2497179D01*
X2496797Y217478D01*
X2495627Y219504D01*
X2493974Y221157D01*
X2491948Y222327D01*
X2490520Y222710D01*
D02*
G37*
G36*
X2486520D02*
X2485092Y222327D01*
X2483066Y221157D01*
X2481413Y219504D01*
X2480243Y217478D01*
X2479861Y216050D01*
X2486520D01*
Y222710D01*
D02*
G37*
G36*
X41793Y222300D02*
X39727D01*
X37730Y221765D01*
X35940Y220732D01*
X34478Y219270D01*
X33445Y217480D01*
X32910Y215483D01*
Y213417D01*
X33445Y211420D01*
X34478Y209630D01*
X35940Y208169D01*
X37730Y207135D01*
X39727Y206600D01*
X41793D01*
X43790Y207135D01*
X45580Y208169D01*
X47042Y209630D01*
X48075Y211420D01*
X48610Y213417D01*
Y215483D01*
X48075Y217480D01*
X47042Y219270D01*
X45580Y220732D01*
X43790Y221765D01*
X41793Y222300D01*
D02*
G37*
G36*
X2464153Y221900D02*
X2462086D01*
X2460090Y221365D01*
X2458300Y220332D01*
X2456838Y218870D01*
X2455805Y217080D01*
X2455270Y215084D01*
Y213017D01*
X2455805Y211020D01*
X2456838Y209230D01*
X2458300Y207768D01*
X2460090Y206735D01*
X2462086Y206200D01*
X2464153D01*
X2466150Y206735D01*
X2467940Y207768D01*
X2469402Y209230D01*
X2470435Y211020D01*
X2470970Y213017D01*
Y215084D01*
X2470435Y217080D01*
X2469402Y218870D01*
X2467940Y220332D01*
X2466150Y221365D01*
X2464153Y221900D01*
D02*
G37*
G36*
X74819Y212450D02*
X68160D01*
Y205791D01*
X69588Y206173D01*
X71614Y207343D01*
X73267Y208996D01*
X74437Y211022D01*
X74819Y212450D01*
D02*
G37*
G36*
X64160D02*
X57501D01*
X57883Y211022D01*
X59053Y208996D01*
X60706Y207343D01*
X62732Y206173D01*
X64160Y205791D01*
Y212450D01*
D02*
G37*
G36*
X2497179Y212050D02*
X2490520D01*
Y205391D01*
X2491948Y205773D01*
X2493974Y206943D01*
X2495627Y208596D01*
X2496797Y210622D01*
X2497179Y212050D01*
D02*
G37*
G36*
X2486520D02*
X2479861D01*
X2480243Y210622D01*
X2481413Y208596D01*
X2483066Y206943D01*
X2485092Y205773D01*
X2486520Y205391D01*
Y212050D01*
D02*
G37*
G36*
X2039250Y301344D02*
X2024750D01*
X2023872Y301169D01*
X2023128Y300672D01*
X2022631Y299928D01*
X2022456Y299050D01*
Y291550D01*
X2022631Y290672D01*
X2023128Y289928D01*
X2023872Y289431D01*
X2024750Y289256D01*
X2028909D01*
Y227691D01*
X2006401Y205183D01*
X2004993Y205560D01*
X2003127D01*
X2001323Y205077D01*
X1999707Y204144D01*
X1998387Y202823D01*
X1997557Y201386D01*
X1973430D01*
X1973306Y201511D01*
X1971836Y202120D01*
X1970244D01*
X1968774Y201511D01*
X1967649Y200386D01*
X1967040Y198916D01*
Y197324D01*
X1967649Y195854D01*
X1968774Y194729D01*
X1970244Y194120D01*
X1971836D01*
X1973306Y194729D01*
X1973780Y195204D01*
X1997759D01*
X1998387Y194117D01*
X1999707Y192797D01*
X2001323Y191863D01*
X2003127Y191380D01*
X2004993D01*
X2006797Y191863D01*
X2008413Y192797D01*
X2009733Y194117D01*
X2010667Y195733D01*
X2011150Y197537D01*
Y199403D01*
X2010773Y200811D01*
X2034186Y224224D01*
X2034856Y225227D01*
X2035091Y226410D01*
Y289256D01*
X2039250D01*
X2040128Y289431D01*
X2040872Y289928D01*
X2041369Y290672D01*
X2041544Y291550D01*
Y299050D01*
X2041369Y299928D01*
X2040872Y300672D01*
X2040128Y301169D01*
X2039250Y301344D01*
D02*
G37*
G36*
X1545505Y210931D02*
X1543135D01*
X1540846Y210318D01*
X1538793Y209133D01*
X1537117Y207457D01*
X1535932Y205404D01*
X1535830Y205021D01*
X1512570D01*
X1511387Y204786D01*
X1510384Y204116D01*
X1504950Y198682D01*
X1499516Y204116D01*
X1498513Y204786D01*
X1497330Y205021D01*
X1476610D01*
X1476508Y205404D01*
X1475323Y207457D01*
X1473647Y209133D01*
X1471594Y210318D01*
X1469305Y210931D01*
X1466935D01*
X1464646Y210318D01*
X1462593Y209133D01*
X1460917Y207457D01*
X1459732Y205404D01*
X1459119Y203115D01*
Y200745D01*
X1459732Y198456D01*
X1460917Y196403D01*
X1462593Y194727D01*
X1464646Y193542D01*
X1466935Y192929D01*
X1469305D01*
X1471594Y193542D01*
X1473647Y194727D01*
X1475323Y196403D01*
X1476508Y198456D01*
X1476610Y198839D01*
X1496049D01*
X1501859Y193029D01*
Y113030D01*
X1502094Y111847D01*
X1502764Y110844D01*
X1509114Y104494D01*
X1510117Y103824D01*
X1511300Y103589D01*
X1513622D01*
X1513903Y103168D01*
X1514482Y102781D01*
X1515165Y102646D01*
X1533365D01*
X1534048Y102781D01*
X1534627Y103168D01*
X1535013Y103747D01*
X1535149Y104430D01*
Y108930D01*
X1535013Y109613D01*
X1534627Y110192D01*
X1534048Y110578D01*
X1533365Y110714D01*
X1515165D01*
X1514482Y110578D01*
X1513903Y110192D01*
X1511853Y110499D01*
X1508041Y114311D01*
Y193029D01*
X1513851Y198839D01*
X1535830D01*
X1535932Y198456D01*
X1537117Y196403D01*
X1538793Y194727D01*
X1540846Y193542D01*
X1543135Y192929D01*
X1545505D01*
X1547794Y193542D01*
X1549847Y194727D01*
X1551523Y196403D01*
X1552708Y198456D01*
X1553321Y200745D01*
Y203115D01*
X1552708Y205404D01*
X1551523Y207457D01*
X1549847Y209133D01*
X1547794Y210318D01*
X1545505Y210931D01*
D02*
G37*
G36*
X68160Y197710D02*
Y191050D01*
X74819D01*
X74437Y192478D01*
X73267Y194504D01*
X71614Y196157D01*
X69588Y197327D01*
X68160Y197710D01*
D02*
G37*
G36*
X64160D02*
X62732Y197327D01*
X60706Y196157D01*
X59053Y194504D01*
X57883Y192478D01*
X57501Y191050D01*
X64160D01*
Y197710D01*
D02*
G37*
G36*
X2490520Y197309D02*
Y190650D01*
X2497179D01*
X2496797Y192078D01*
X2495627Y194104D01*
X2493974Y195757D01*
X2491948Y196927D01*
X2490520Y197309D01*
D02*
G37*
G36*
X2486520D02*
X2485092Y196927D01*
X2483066Y195757D01*
X2481413Y194104D01*
X2480243Y192078D01*
X2479861Y190650D01*
X2486520D01*
Y197309D01*
D02*
G37*
G36*
X41793Y196900D02*
X39727D01*
X37730Y196365D01*
X35940Y195332D01*
X34478Y193870D01*
X33445Y192080D01*
X32910Y190084D01*
Y188017D01*
X33445Y186020D01*
X34478Y184230D01*
X35940Y182768D01*
X37730Y181735D01*
X39727Y181200D01*
X41793D01*
X43790Y181735D01*
X45580Y182768D01*
X47042Y184230D01*
X48075Y186020D01*
X48610Y188017D01*
Y190084D01*
X48075Y192080D01*
X47042Y193870D01*
X45580Y195332D01*
X43790Y196365D01*
X41793Y196900D01*
D02*
G37*
G36*
X2464153Y196500D02*
X2462086D01*
X2460090Y195965D01*
X2458300Y194932D01*
X2456838Y193470D01*
X2455805Y191680D01*
X2455270Y189683D01*
Y187617D01*
X2455805Y185620D01*
X2456838Y183830D01*
X2458300Y182369D01*
X2460090Y181335D01*
X2462086Y180800D01*
X2464153D01*
X2466150Y181335D01*
X2467940Y182369D01*
X2469402Y183830D01*
X2470435Y185620D01*
X2470970Y187617D01*
Y189683D01*
X2470435Y191680D01*
X2469402Y193470D01*
X2467940Y194932D01*
X2466150Y195965D01*
X2464153Y196500D01*
D02*
G37*
G36*
X74819Y187050D02*
X68160D01*
Y180391D01*
X69588Y180773D01*
X71614Y181943D01*
X73267Y183596D01*
X74437Y185622D01*
X74819Y187050D01*
D02*
G37*
G36*
X64160D02*
X57501D01*
X57883Y185622D01*
X59053Y183596D01*
X60706Y181943D01*
X62732Y180773D01*
X64160Y180391D01*
Y187050D01*
D02*
G37*
G36*
X2497179Y186650D02*
X2490520D01*
Y179991D01*
X2491948Y180373D01*
X2493974Y181543D01*
X2495627Y183196D01*
X2496797Y185222D01*
X2497179Y186650D01*
D02*
G37*
G36*
X2486520D02*
X2479861D01*
X2480243Y185222D01*
X2481413Y183196D01*
X2483066Y181543D01*
X2485092Y180373D01*
X2486520Y179991D01*
Y186650D01*
D02*
G37*
G36*
X474440Y185593D02*
Y179400D01*
X480634D01*
X480297Y180655D01*
X479187Y182577D01*
X477617Y184147D01*
X475695Y185257D01*
X474440Y185593D01*
D02*
G37*
G36*
X470440D02*
X469185Y185257D01*
X467263Y184147D01*
X465693Y182577D01*
X464583Y180655D01*
X464246Y179400D01*
X470440D01*
Y185593D01*
D02*
G37*
G36*
X2067294Y191782D02*
X2065025D01*
X2062832Y191195D01*
X2060867Y190060D01*
X2059262Y188455D01*
X2058127Y186490D01*
X2057540Y184297D01*
Y182027D01*
X2058127Y179835D01*
X2059262Y177869D01*
X2060867Y176265D01*
X2062832Y175130D01*
X2065025Y174542D01*
X2067294D01*
X2069487Y175130D01*
X2071452Y176265D01*
X2073057Y177869D01*
X2074192Y179835D01*
X2074780Y182027D01*
Y184297D01*
X2074192Y186490D01*
X2073057Y188455D01*
X2071452Y190060D01*
X2069487Y191195D01*
X2067294Y191782D01*
D02*
G37*
G36*
X480634Y175400D02*
X474440D01*
Y169207D01*
X475695Y169543D01*
X477617Y170653D01*
X479187Y172223D01*
X480297Y174145D01*
X480634Y175400D01*
D02*
G37*
G36*
X470440D02*
X464246D01*
X464583Y174145D01*
X465693Y172223D01*
X467263Y170653D01*
X469185Y169543D01*
X470440Y169207D01*
Y175400D01*
D02*
G37*
G36*
X68160Y172309D02*
Y165650D01*
X74819D01*
X74437Y167078D01*
X73267Y169104D01*
X71614Y170757D01*
X69588Y171927D01*
X68160Y172309D01*
D02*
G37*
G36*
X64160D02*
X62732Y171927D01*
X60706Y170757D01*
X59053Y169104D01*
X57883Y167078D01*
X57501Y165650D01*
X64160D01*
Y172309D01*
D02*
G37*
G36*
X2490520Y171910D02*
Y165250D01*
X2497179D01*
X2496797Y166678D01*
X2495627Y168704D01*
X2493974Y170357D01*
X2491948Y171527D01*
X2490520Y171910D01*
D02*
G37*
G36*
X2486520D02*
X2485092Y171527D01*
X2483066Y170357D01*
X2481413Y168704D01*
X2480243Y166678D01*
X2479861Y165250D01*
X2486520D01*
Y171910D01*
D02*
G37*
G36*
X658780Y168613D02*
Y162420D01*
X664974D01*
X664637Y163675D01*
X663527Y165597D01*
X661957Y167167D01*
X660035Y168277D01*
X658780Y168613D01*
D02*
G37*
G36*
X654780D02*
X653525Y168277D01*
X651603Y167167D01*
X650033Y165597D01*
X648923Y163675D01*
X648587Y162420D01*
X654780D01*
Y168613D01*
D02*
G37*
G36*
X41793Y171500D02*
X39727D01*
X37730Y170965D01*
X35940Y169932D01*
X34478Y168470D01*
X33445Y166680D01*
X32910Y164683D01*
Y162617D01*
X33445Y160620D01*
X34478Y158830D01*
X35940Y157368D01*
X37730Y156335D01*
X39727Y155800D01*
X41793D01*
X43790Y156335D01*
X45580Y157368D01*
X47042Y158830D01*
X48075Y160620D01*
X48610Y162617D01*
Y164683D01*
X48075Y166680D01*
X47042Y168470D01*
X45580Y169932D01*
X43790Y170965D01*
X41793Y171500D01*
D02*
G37*
G36*
X2464153Y171100D02*
X2462086D01*
X2460090Y170565D01*
X2458300Y169532D01*
X2456838Y168070D01*
X2455805Y166280D01*
X2455270Y164284D01*
Y162217D01*
X2455805Y160220D01*
X2456838Y158430D01*
X2458300Y156968D01*
X2460090Y155935D01*
X2462086Y155400D01*
X2464153D01*
X2466150Y155935D01*
X2467940Y156968D01*
X2469402Y158430D01*
X2470435Y160220D01*
X2470970Y162217D01*
Y164284D01*
X2470435Y166280D01*
X2469402Y168070D01*
X2467940Y169532D01*
X2466150Y170565D01*
X2464153Y171100D01*
D02*
G37*
G36*
X74819Y161650D02*
X68160D01*
Y154991D01*
X69588Y155373D01*
X71614Y156543D01*
X73267Y158196D01*
X74437Y160222D01*
X74819Y161650D01*
D02*
G37*
G36*
X64160D02*
X57501D01*
X57883Y160222D01*
X59053Y158196D01*
X60706Y156543D01*
X62732Y155373D01*
X64160Y154991D01*
Y161650D01*
D02*
G37*
G36*
X2497179Y161250D02*
X2490520D01*
Y154591D01*
X2491948Y154973D01*
X2493974Y156143D01*
X2495627Y157796D01*
X2496797Y159822D01*
X2497179Y161250D01*
D02*
G37*
G36*
X2486520D02*
X2479861D01*
X2480243Y159822D01*
X2481413Y157796D01*
X2483066Y156143D01*
X2485092Y154973D01*
X2486520Y154591D01*
Y161250D01*
D02*
G37*
G36*
X664974Y158420D02*
X658780D01*
Y152226D01*
X660035Y152563D01*
X661957Y153673D01*
X663527Y155243D01*
X664637Y157165D01*
X664974Y158420D01*
D02*
G37*
G36*
X654780D02*
X648587D01*
X648923Y157165D01*
X650033Y155243D01*
X651603Y153673D01*
X653525Y152563D01*
X654780Y152226D01*
Y158420D01*
D02*
G37*
G36*
X2067294Y166382D02*
X2065025D01*
X2062832Y165795D01*
X2060867Y164660D01*
X2059262Y163055D01*
X2058127Y161089D01*
X2057540Y158897D01*
Y156627D01*
X2058127Y154435D01*
X2059262Y152470D01*
X2060867Y150865D01*
X2062832Y149730D01*
X2065025Y149142D01*
X2067294D01*
X2069487Y149730D01*
X2071452Y150865D01*
X2073057Y152470D01*
X2074192Y154435D01*
X2074780Y156627D01*
Y158897D01*
X2074192Y161089D01*
X2073057Y163055D01*
X2071452Y164660D01*
X2069487Y165795D01*
X2067294Y166382D01*
D02*
G37*
G36*
X1440360Y155674D02*
X1436110D01*
Y148550D01*
X1444734D01*
Y151300D01*
X1444401Y152974D01*
X1443453Y154393D01*
X1442034Y155341D01*
X1440360Y155674D01*
D02*
G37*
G36*
X1409370D02*
X1405120D01*
Y148550D01*
X1413744D01*
Y151300D01*
X1413411Y152974D01*
X1412463Y154393D01*
X1411044Y155341D01*
X1409370Y155674D01*
D02*
G37*
G36*
X1431110D02*
X1426860D01*
X1425186Y155341D01*
X1423767Y154393D01*
X1422819Y152974D01*
X1422486Y151300D01*
Y148550D01*
X1431110D01*
Y155674D01*
D02*
G37*
G36*
X1400120D02*
X1395870D01*
X1394196Y155341D01*
X1392777Y154393D01*
X1391829Y152974D01*
X1391496Y151300D01*
Y148550D01*
X1400120D01*
Y155674D01*
D02*
G37*
G36*
X213320Y149599D02*
Y140302D01*
X222617D01*
X221971Y142714D01*
X220466Y145320D01*
X218338Y147448D01*
X215732Y148953D01*
X213320Y149599D01*
D02*
G37*
G36*
X209320D02*
X206908Y148953D01*
X204302Y147448D01*
X202174Y145320D01*
X200669Y142714D01*
X200023Y140302D01*
X209320D01*
Y149599D01*
D02*
G37*
G36*
X68160Y146910D02*
Y140250D01*
X74819D01*
X74437Y141678D01*
X73267Y143704D01*
X71614Y145357D01*
X69588Y146527D01*
X68160Y146910D01*
D02*
G37*
G36*
X64160D02*
X62732Y146527D01*
X60706Y145357D01*
X59053Y143704D01*
X57883Y141678D01*
X57501Y140250D01*
X64160D01*
Y146910D01*
D02*
G37*
G36*
X2490520Y146510D02*
Y139850D01*
X2497179D01*
X2496797Y141278D01*
X2495627Y143304D01*
X2493974Y144957D01*
X2491948Y146127D01*
X2490520Y146510D01*
D02*
G37*
G36*
X2486520D02*
X2485092Y146127D01*
X2483066Y144957D01*
X2481413Y143304D01*
X2480243Y141278D01*
X2479861Y139850D01*
X2486520D01*
Y146510D01*
D02*
G37*
G36*
X1578796Y171870D02*
X1577204D01*
X1575734Y171261D01*
X1574609Y170136D01*
X1574000Y168666D01*
Y168242D01*
X1564994Y159236D01*
X1564324Y158233D01*
X1564089Y157050D01*
Y151434D01*
X1559930D01*
X1559052Y151259D01*
X1558308Y150762D01*
X1557811Y150018D01*
X1557636Y149140D01*
Y148356D01*
X1546735D01*
X1545552Y148121D01*
X1544549Y147451D01*
X1540148Y143049D01*
X1539477Y142047D01*
X1539242Y140864D01*
Y123041D01*
X1538672Y122471D01*
X1534908D01*
X1534627Y122892D01*
X1534048Y123279D01*
X1533365Y123414D01*
X1515165D01*
X1514482Y123279D01*
X1513903Y122892D01*
X1513517Y122313D01*
X1513381Y121630D01*
Y117130D01*
X1513517Y116447D01*
X1513903Y115868D01*
X1514482Y115482D01*
X1515165Y115346D01*
X1533365D01*
X1534048Y115482D01*
X1534627Y115868D01*
X1534908Y116289D01*
X1539953D01*
X1541136Y116524D01*
X1542139Y117194D01*
X1544520Y119575D01*
X1545190Y120578D01*
X1545425Y121761D01*
Y139583D01*
X1548015Y142173D01*
X1557636D01*
Y141640D01*
X1557811Y140762D01*
X1558308Y140018D01*
X1559052Y139521D01*
X1559930Y139346D01*
X1574430D01*
X1575308Y139521D01*
X1576052Y140018D01*
X1576549Y140762D01*
X1576724Y141640D01*
Y149140D01*
X1576549Y150018D01*
X1576052Y150762D01*
X1575308Y151259D01*
X1574430Y151434D01*
X1570271D01*
Y155770D01*
X1578372Y163870D01*
X1578796D01*
X1580266Y164479D01*
X1581391Y165604D01*
X1582000Y167074D01*
Y168666D01*
X1581391Y170136D01*
X1580266Y171261D01*
X1578796Y171870D01*
D02*
G37*
G36*
X1444734Y143550D02*
X1436110D01*
Y136426D01*
X1440360D01*
X1442034Y136759D01*
X1443453Y137707D01*
X1444401Y139126D01*
X1444734Y140800D01*
Y143550D01*
D02*
G37*
G36*
X1431110D02*
X1422486D01*
Y140800D01*
X1422819Y139126D01*
X1423767Y137707D01*
X1425186Y136759D01*
X1426860Y136426D01*
X1431110D01*
Y143550D01*
D02*
G37*
G36*
X1413744D02*
X1405120D01*
Y136426D01*
X1409370D01*
X1411044Y136759D01*
X1412463Y137707D01*
X1413411Y139126D01*
X1413744Y140800D01*
Y143550D01*
D02*
G37*
G36*
X1400120D02*
X1391496D01*
Y140800D01*
X1391829Y139126D01*
X1392777Y137707D01*
X1394196Y136759D01*
X1395870Y136426D01*
X1400120D01*
Y143550D01*
D02*
G37*
G36*
X2013350Y141704D02*
X2009100D01*
Y134580D01*
X2017724D01*
Y137330D01*
X2017391Y139004D01*
X2016443Y140423D01*
X2015024Y141371D01*
X2013350Y141704D01*
D02*
G37*
G36*
X2004100D02*
X1999850D01*
X1998176Y141371D01*
X1996757Y140423D01*
X1995809Y139004D01*
X1995476Y137330D01*
Y134580D01*
X2004100D01*
Y141704D01*
D02*
G37*
G36*
X2040570Y141644D02*
X2036320D01*
Y134520D01*
X2044944D01*
Y137270D01*
X2044611Y138944D01*
X2043663Y140363D01*
X2042244Y141311D01*
X2040570Y141644D01*
D02*
G37*
G36*
X2031320D02*
X2027070D01*
X2025396Y141311D01*
X2023977Y140363D01*
X2023029Y138944D01*
X2022696Y137270D01*
Y134520D01*
X2031320D01*
Y141644D01*
D02*
G37*
G36*
X2068160Y141819D02*
Y134362D01*
X2075616D01*
X2075154Y136088D01*
X2073883Y138289D01*
X2072086Y140086D01*
X2069885Y141356D01*
X2068160Y141819D01*
D02*
G37*
G36*
X2064160D02*
X2062434Y141356D01*
X2060233Y140086D01*
X2058436Y138289D01*
X2057165Y136088D01*
X2056703Y134362D01*
X2064160D01*
Y141819D01*
D02*
G37*
G36*
X939010Y141934D02*
X936260D01*
Y133310D01*
X943384D01*
Y137560D01*
X943051Y139234D01*
X942103Y140653D01*
X940684Y141601D01*
X939010Y141934D01*
D02*
G37*
G36*
X931260D02*
X928510D01*
X926836Y141601D01*
X925417Y140653D01*
X924469Y139234D01*
X924136Y137560D01*
Y133310D01*
X931260D01*
Y141934D01*
D02*
G37*
G36*
X1533365Y137167D02*
X1525280D01*
Y133095D01*
X1536201D01*
Y134330D01*
X1535986Y135415D01*
X1535371Y136336D01*
X1534451Y136951D01*
X1533365Y137167D01*
D02*
G37*
G36*
X1523250D02*
X1515165D01*
X1514079Y136951D01*
X1513159Y136336D01*
X1512544Y135415D01*
X1512328Y134330D01*
Y133095D01*
X1523250D01*
Y137167D01*
D02*
G37*
G36*
X41793Y146100D02*
X39727D01*
X37730Y145565D01*
X35940Y144532D01*
X34478Y143070D01*
X33445Y141280D01*
X32910Y139284D01*
Y137217D01*
X33445Y135220D01*
X34478Y133430D01*
X35940Y131968D01*
X37730Y130935D01*
X39727Y130400D01*
X41793D01*
X43790Y130935D01*
X45580Y131968D01*
X47042Y133430D01*
X48075Y135220D01*
X48610Y137217D01*
Y139284D01*
X48075Y141280D01*
X47042Y143070D01*
X45580Y144532D01*
X43790Y145565D01*
X41793Y146100D01*
D02*
G37*
G36*
X2464153Y145700D02*
X2462086D01*
X2460090Y145165D01*
X2458300Y144132D01*
X2456838Y142670D01*
X2455805Y140880D01*
X2455270Y138883D01*
Y136817D01*
X2455805Y134820D01*
X2456838Y133030D01*
X2458300Y131568D01*
X2460090Y130535D01*
X2462086Y130000D01*
X2464153D01*
X2466150Y130535D01*
X2467940Y131568D01*
X2469402Y133030D01*
X2470435Y134820D01*
X2470970Y136817D01*
Y138883D01*
X2470435Y140880D01*
X2469402Y142670D01*
X2467940Y144132D01*
X2466150Y145165D01*
X2464153Y145700D01*
D02*
G37*
G36*
X74819Y136250D02*
X68160D01*
Y129591D01*
X69588Y129973D01*
X71614Y131143D01*
X73267Y132796D01*
X74437Y134822D01*
X74819Y136250D01*
D02*
G37*
G36*
X64160D02*
X57501D01*
X57883Y134822D01*
X59053Y132796D01*
X60706Y131143D01*
X62732Y129973D01*
X64160Y129591D01*
Y136250D01*
D02*
G37*
G36*
X2497179Y135850D02*
X2490520D01*
Y129191D01*
X2491948Y129573D01*
X2493974Y130743D01*
X2495627Y132396D01*
X2496797Y134422D01*
X2497179Y135850D01*
D02*
G37*
G36*
X2486520D02*
X2479861D01*
X2480243Y134422D01*
X2481413Y132396D01*
X2483066Y130743D01*
X2485092Y129573D01*
X2486520Y129191D01*
Y135850D01*
D02*
G37*
G36*
X1483965Y136114D02*
X1465765D01*
X1465082Y135978D01*
X1464503Y135592D01*
X1464117Y135013D01*
X1463981Y134330D01*
Y129830D01*
X1464117Y129147D01*
X1464503Y128568D01*
X1465082Y128181D01*
X1465765Y128046D01*
X1483965D01*
X1484648Y128181D01*
X1485227Y128568D01*
X1485614Y129147D01*
X1485749Y129830D01*
Y134330D01*
X1485614Y135013D01*
X1485227Y135592D01*
X1484648Y135978D01*
X1483965Y136114D01*
D02*
G37*
G36*
X134660Y217250D02*
X114260D01*
Y197250D01*
X121369D01*
Y171450D01*
X121604Y170267D01*
X122274Y169264D01*
X150491Y141047D01*
X150122Y139671D01*
Y136933D01*
X150831Y134289D01*
X152200Y131917D01*
X154136Y129982D01*
X156507Y128613D01*
X157429Y128366D01*
Y111599D01*
X156520D01*
X155740Y111444D01*
X155078Y111002D01*
X154636Y110340D01*
X154481Y109560D01*
Y103560D01*
X154636Y102780D01*
X155078Y102118D01*
X155740Y101676D01*
X156520Y101521D01*
X164520D01*
X165300Y101676D01*
X165962Y102118D01*
X166404Y102780D01*
X166559Y103560D01*
Y109560D01*
X166404Y110340D01*
X165962Y111002D01*
X165300Y111444D01*
X164520Y111599D01*
X163611D01*
Y128366D01*
X164534Y128613D01*
X166905Y129982D01*
X168841Y131917D01*
X170209Y134289D01*
X170457Y135211D01*
X175984D01*
X176231Y134289D01*
X177600Y131917D01*
X179536Y129982D01*
X181907Y128613D01*
X184551Y127904D01*
X187289D01*
X189933Y128613D01*
X192304Y129982D01*
X194240Y131917D01*
X195609Y134289D01*
X196318Y136933D01*
Y139671D01*
X195609Y142316D01*
X194240Y144687D01*
X192304Y146622D01*
X189933Y147991D01*
X187289Y148700D01*
X184551D01*
X181907Y147991D01*
X179536Y146622D01*
X177600Y144687D01*
X176231Y142316D01*
X175984Y141393D01*
X170457D01*
X170209Y142316D01*
X168841Y144687D01*
X166905Y146622D01*
X164534Y147991D01*
X161889Y148700D01*
X159151D01*
X156507Y147991D01*
X154136Y146622D01*
X153897Y146384D01*
X127551Y172731D01*
Y197250D01*
X134660D01*
Y217250D01*
D02*
G37*
G36*
X222617Y136302D02*
X213320D01*
Y127005D01*
X215732Y127651D01*
X218338Y129156D01*
X220466Y131284D01*
X221971Y133890D01*
X222617Y136302D01*
D02*
G37*
G36*
X209320D02*
X200023D01*
X200669Y133890D01*
X202174Y131284D01*
X204302Y129156D01*
X206908Y127651D01*
X209320Y127005D01*
Y136302D01*
D02*
G37*
G36*
X1536201Y131065D02*
X1525280D01*
Y126994D01*
X1533365D01*
X1534451Y127209D01*
X1535371Y127824D01*
X1535986Y128744D01*
X1536201Y129830D01*
Y131065D01*
D02*
G37*
G36*
X1523250D02*
X1512328D01*
Y129830D01*
X1512544Y128744D01*
X1513159Y127824D01*
X1514079Y127209D01*
X1515165Y126994D01*
X1523250D01*
Y131065D01*
D02*
G37*
G36*
X2075616Y130362D02*
X2068160D01*
Y122906D01*
X2069885Y123368D01*
X2072086Y124639D01*
X2073883Y126436D01*
X2075154Y128637D01*
X2075616Y130362D01*
D02*
G37*
G36*
X2064160D02*
X2056703D01*
X2057165Y128637D01*
X2058436Y126436D01*
X2060233Y124639D01*
X2062434Y123368D01*
X2064160Y122906D01*
Y130362D01*
D02*
G37*
G36*
X2017724Y129580D02*
X2009100D01*
Y122456D01*
X2013350D01*
X2015024Y122789D01*
X2016443Y123737D01*
X2017391Y125156D01*
X2017724Y126830D01*
Y129580D01*
D02*
G37*
G36*
X2004100D02*
X1995476D01*
Y126830D01*
X1995809Y125156D01*
X1996757Y123737D01*
X1998176Y122789D01*
X1999850Y122456D01*
X2004100D01*
Y129580D01*
D02*
G37*
G36*
X2044944Y129520D02*
X2036320D01*
Y122396D01*
X2040570D01*
X2042244Y122729D01*
X2043663Y123677D01*
X2044611Y125096D01*
X2044944Y126770D01*
Y129520D01*
D02*
G37*
G36*
X2031320D02*
X2022696D01*
Y126770D01*
X2023029Y125096D01*
X2023977Y123677D01*
X2025396Y122729D01*
X2027070Y122396D01*
X2031320D01*
Y129520D01*
D02*
G37*
G36*
X943384Y128310D02*
X936260D01*
Y119686D01*
X939010D01*
X940684Y120019D01*
X942103Y120967D01*
X943051Y122386D01*
X943384Y124060D01*
Y128310D01*
D02*
G37*
G36*
X931260D02*
X924136D01*
Y124060D01*
X924469Y122386D01*
X925417Y120967D01*
X926836Y120019D01*
X928510Y119686D01*
X931260D01*
Y128310D01*
D02*
G37*
G36*
X532056Y124650D02*
X530464D01*
X528994Y124041D01*
X527869Y122916D01*
X527260Y121446D01*
Y119854D01*
X527869Y118384D01*
X528994Y117259D01*
X530464Y116650D01*
X532056D01*
X533526Y117259D01*
X534651Y118384D01*
X535260Y119854D01*
Y121446D01*
X534651Y122916D01*
X533526Y124041D01*
X532056Y124650D01*
D02*
G37*
G36*
X1483965Y123414D02*
X1465765D01*
X1465082Y123279D01*
X1464503Y122892D01*
X1464117Y122313D01*
X1463981Y121630D01*
Y117130D01*
X1464117Y116447D01*
X1464503Y115868D01*
X1465082Y115482D01*
X1465765Y115346D01*
X1483965D01*
X1484648Y115482D01*
X1485227Y115868D01*
X1485614Y116447D01*
X1485749Y117130D01*
Y121630D01*
X1485614Y122313D01*
X1485227Y122892D01*
X1484648Y123279D01*
X1483965Y123414D01*
D02*
G37*
G36*
X68160Y121510D02*
Y114850D01*
X74819D01*
X74437Y116278D01*
X73267Y118304D01*
X71614Y119957D01*
X69588Y121127D01*
X68160Y121510D01*
D02*
G37*
G36*
X64160D02*
X62732Y121127D01*
X60706Y119957D01*
X59053Y118304D01*
X57883Y116278D01*
X57501Y114850D01*
X64160D01*
Y121510D01*
D02*
G37*
G36*
X2490520Y121110D02*
Y114450D01*
X2497179D01*
X2496797Y115878D01*
X2495627Y117904D01*
X2493974Y119557D01*
X2491948Y120727D01*
X2490520Y121110D01*
D02*
G37*
G36*
X2486520D02*
X2485092Y120727D01*
X2483066Y119557D01*
X2481413Y117904D01*
X2480243Y115878D01*
X2479861Y114450D01*
X2486520D01*
Y121110D01*
D02*
G37*
G36*
X505786Y164020D02*
X504194D01*
X502724Y163411D01*
X501599Y162286D01*
X500990Y160816D01*
Y160322D01*
X475468Y134800D01*
X465040D01*
Y124372D01*
X450320Y109651D01*
X242477D01*
X242340Y110340D01*
X241898Y111002D01*
X241236Y111444D01*
X240456Y111599D01*
X239679D01*
Y128330D01*
X240734Y128613D01*
X243104Y129982D01*
X245040Y131917D01*
X246409Y134289D01*
X247118Y136933D01*
Y139671D01*
X246409Y142316D01*
X245040Y144687D01*
X243104Y146622D01*
X240734Y147991D01*
X238089Y148700D01*
X235351D01*
X232707Y147991D01*
X230336Y146622D01*
X228400Y144687D01*
X227031Y142316D01*
X226322Y139671D01*
Y136933D01*
X227031Y134289D01*
X228400Y131917D01*
X230336Y129982D01*
X232707Y128613D01*
X233497Y128401D01*
Y111599D01*
X232456D01*
X231676Y111444D01*
X231014Y111002D01*
X230572Y110340D01*
X230417Y109560D01*
Y103560D01*
X230572Y102780D01*
X231014Y102118D01*
X231676Y101676D01*
X232456Y101521D01*
X240456D01*
X241236Y101676D01*
X241898Y102118D01*
X242340Y102780D01*
X242477Y103469D01*
X451600D01*
X452783Y103704D01*
X453786Y104374D01*
X469412Y120000D01*
X479840D01*
Y122514D01*
X481872Y123356D01*
X527299Y77930D01*
Y55146D01*
X525725Y54494D01*
X523793Y53011D01*
X522310Y51079D01*
X521378Y48829D01*
X521060Y46414D01*
X521378Y43999D01*
X522310Y41749D01*
X523793Y39817D01*
X525725Y38334D01*
X527975Y37402D01*
X530390Y37084D01*
X530390D01*
X532805Y37402D01*
X535055Y38334D01*
X536987Y39817D01*
X538470Y41749D01*
X539402Y43999D01*
X539720Y46414D01*
X539402Y48829D01*
X538470Y51079D01*
X536987Y53011D01*
X535055Y54494D01*
X533481Y55146D01*
Y79210D01*
X533246Y80393D01*
X532576Y81396D01*
X484741Y129231D01*
X483738Y129901D01*
X482555Y130136D01*
X482422D01*
X481580Y132168D01*
X505432Y156020D01*
X505786D01*
X507256Y156629D01*
X508381Y157754D01*
X508990Y159224D01*
Y160816D01*
X508381Y162286D01*
X507256Y163411D01*
X505786Y164020D01*
D02*
G37*
G36*
X41793Y120700D02*
X39727D01*
X37730Y120165D01*
X35940Y119132D01*
X34478Y117670D01*
X33445Y115880D01*
X32910Y113883D01*
Y111817D01*
X33445Y109820D01*
X34478Y108030D01*
X35940Y106568D01*
X37730Y105535D01*
X39727Y105000D01*
X41793D01*
X43790Y105535D01*
X45580Y106568D01*
X47042Y108030D01*
X48075Y109820D01*
X48610Y111817D01*
Y113883D01*
X48075Y115880D01*
X47042Y117670D01*
X45580Y119132D01*
X43790Y120165D01*
X41793Y120700D01*
D02*
G37*
G36*
X2464153Y120300D02*
X2462086D01*
X2460090Y119765D01*
X2458300Y118732D01*
X2456838Y117270D01*
X2455805Y115480D01*
X2455270Y113483D01*
Y111417D01*
X2455805Y109420D01*
X2456838Y107630D01*
X2458300Y106168D01*
X2460090Y105135D01*
X2462086Y104600D01*
X2464153D01*
X2466150Y105135D01*
X2467940Y106168D01*
X2469402Y107630D01*
X2470435Y109420D01*
X2470970Y111417D01*
Y113483D01*
X2470435Y115480D01*
X2469402Y117270D01*
X2467940Y118732D01*
X2466150Y119765D01*
X2464153Y120300D01*
D02*
G37*
G36*
X74819Y110850D02*
X68160D01*
Y104191D01*
X69588Y104573D01*
X71614Y105743D01*
X73267Y107396D01*
X74437Y109422D01*
X74819Y110850D01*
D02*
G37*
G36*
X64160D02*
X57501D01*
X57883Y109422D01*
X59053Y107396D01*
X60706Y105743D01*
X62732Y104573D01*
X64160Y104191D01*
Y110850D01*
D02*
G37*
G36*
X2497179Y110450D02*
X2490520D01*
Y103791D01*
X2491948Y104173D01*
X2493974Y105343D01*
X2495627Y106996D01*
X2496797Y109022D01*
X2497179Y110450D01*
D02*
G37*
G36*
X2486520D02*
X2479861D01*
X2480243Y109022D01*
X2481413Y106996D01*
X2483066Y105343D01*
X2485092Y104173D01*
X2486520Y103791D01*
Y110450D01*
D02*
G37*
G36*
X1483965Y110714D02*
X1465765D01*
X1465082Y110578D01*
X1464503Y110192D01*
X1464117Y109613D01*
X1463981Y108930D01*
Y104430D01*
X1464117Y103747D01*
X1464503Y103168D01*
X1465082Y102781D01*
X1465765Y102646D01*
X1483965D01*
X1484648Y102781D01*
X1485227Y103168D01*
X1485614Y103747D01*
X1485749Y104430D01*
Y108930D01*
X1485614Y109613D01*
X1485227Y110192D01*
X1484648Y110578D01*
X1483965Y110714D01*
D02*
G37*
G36*
X361840Y305664D02*
X343340D01*
Y287164D01*
X349499D01*
Y285174D01*
X349734Y283991D01*
X350404Y282988D01*
X358078Y275314D01*
X359081Y274644D01*
X360264Y274409D01*
X416290D01*
X640384Y50314D01*
X641387Y49644D01*
X642570Y49409D01*
X943292D01*
X944134Y47377D01*
X943935Y47179D01*
X943326Y45708D01*
Y45285D01*
X926323Y28282D01*
X375095D01*
X361840Y41536D01*
Y55664D01*
X343340D01*
Y37164D01*
X357468D01*
X371628Y23004D01*
X372631Y22334D01*
X373814Y22099D01*
X927604D01*
X928787Y22334D01*
X929790Y23004D01*
X947699Y40913D01*
X948122D01*
X949592Y41522D01*
X950718Y42647D01*
X951327Y44117D01*
Y45708D01*
X950718Y47179D01*
X950519Y47377D01*
X951361Y49409D01*
X1481618D01*
X1482801Y49644D01*
X1483804Y50314D01*
X1493776Y60286D01*
X1494446Y61289D01*
X1494681Y62472D01*
Y62846D01*
X1495340D01*
X1496218Y63021D01*
X1496962Y63518D01*
X1497459Y64262D01*
X1497634Y65140D01*
Y79640D01*
X1497459Y80518D01*
X1496962Y81262D01*
X1496218Y81759D01*
X1495340Y81934D01*
X1494681D01*
Y85545D01*
X1500025Y90889D01*
X1513622D01*
X1513903Y90468D01*
X1514482Y90082D01*
X1515165Y89946D01*
X1533365D01*
X1534048Y90082D01*
X1534627Y90468D01*
X1534908Y90889D01*
X1547731D01*
X1548914Y91124D01*
X1549917Y91794D01*
X1569366Y111243D01*
X1570036Y112246D01*
X1570271Y113429D01*
Y120346D01*
X1574430D01*
X1575308Y120521D01*
X1576052Y121018D01*
X1576549Y121762D01*
X1576724Y122640D01*
Y130140D01*
X1576549Y131018D01*
X1576052Y131762D01*
X1575308Y132259D01*
X1574430Y132434D01*
X1559930D01*
X1559052Y132259D01*
X1558308Y131762D01*
X1557811Y131018D01*
X1557636Y130140D01*
Y122640D01*
X1557811Y121762D01*
X1558308Y121018D01*
X1559052Y120521D01*
X1559930Y120346D01*
X1564089D01*
Y114709D01*
X1546451Y97071D01*
X1534908D01*
X1534627Y97492D01*
X1534048Y97879D01*
X1533365Y98014D01*
X1515165D01*
X1514482Y97879D01*
X1513903Y97492D01*
X1513622Y97071D01*
X1498744D01*
X1497561Y96836D01*
X1496558Y96166D01*
X1489404Y89012D01*
X1488734Y88009D01*
X1488499Y86826D01*
Y81934D01*
X1487840D01*
X1486962Y81759D01*
X1486218Y81262D01*
X1485721Y80518D01*
X1485546Y79640D01*
Y65140D01*
X1485721Y64262D01*
X1486218Y63518D01*
X1486037Y61291D01*
X1480337Y55591D01*
X643851D01*
X419756Y279686D01*
X418753Y280356D01*
X417570Y280591D01*
X361544D01*
X357004Y285132D01*
X357846Y287164D01*
X361840D01*
Y305664D01*
D02*
G37*
G36*
X1408250Y95596D02*
X1405515D01*
Y86015D01*
X1411596D01*
Y92250D01*
X1411342Y93531D01*
X1410616Y94616D01*
X1409531Y95342D01*
X1408250Y95596D01*
D02*
G37*
G36*
X1403485D02*
X1400750D01*
X1399469Y95342D01*
X1398384Y94616D01*
X1397658Y93531D01*
X1397404Y92250D01*
Y86015D01*
X1403485D01*
Y95596D01*
D02*
G37*
G36*
X2000870Y90564D02*
X1993370D01*
X1992492Y90389D01*
X1991748Y89892D01*
X1991251Y89148D01*
X1991076Y88270D01*
Y84111D01*
X1968525D01*
X1968226Y84411D01*
X1966756Y85020D01*
X1965164D01*
X1963694Y84411D01*
X1962569Y83286D01*
X1961960Y81816D01*
Y80224D01*
X1962569Y78754D01*
X1963694Y77629D01*
X1965164Y77020D01*
X1966756D01*
X1968226Y77629D01*
X1968525Y77929D01*
X1991076D01*
Y73770D01*
X1991251Y72892D01*
X1991748Y72148D01*
X1992492Y71651D01*
X1993370Y71476D01*
X2000870D01*
X2001748Y71651D01*
X2002492Y72148D01*
X2002989Y72892D01*
X2003164Y73770D01*
Y88270D01*
X2002989Y89148D01*
X2002492Y89892D01*
X2001748Y90389D01*
X2000870Y90564D01*
D02*
G37*
G36*
X2019870D02*
X2012370D01*
X2011492Y90389D01*
X2010748Y89892D01*
X2010251Y89148D01*
X2010076Y88270D01*
Y73770D01*
X2010251Y72892D01*
X2010748Y72148D01*
X2011492Y71651D01*
X2012370Y71476D01*
X2019870D01*
X2020748Y71651D01*
X2021492Y72148D01*
X2021989Y72892D01*
X2022164Y73770D01*
Y77929D01*
X2033055D01*
X2033354Y77629D01*
X2034824Y77020D01*
X2036416D01*
X2037886Y77629D01*
X2039011Y78754D01*
X2039620Y80224D01*
Y81816D01*
X2039011Y83286D01*
X2037886Y84411D01*
X2036416Y85020D01*
X2034824D01*
X2033354Y84411D01*
X2033055Y84111D01*
X2022164D01*
Y88270D01*
X2021989Y89148D01*
X2021492Y89892D01*
X2020748Y90389D01*
X2019870Y90564D01*
D02*
G37*
G36*
X1411596Y83985D02*
X1405515D01*
Y74404D01*
X1408250D01*
X1409531Y74658D01*
X1410616Y75384D01*
X1411342Y76469D01*
X1411596Y77750D01*
Y83985D01*
D02*
G37*
G36*
X1403485D02*
X1397404D01*
Y77750D01*
X1397658Y76469D01*
X1398384Y75384D01*
X1399469Y74658D01*
X1400750Y74404D01*
X1403485D01*
Y83985D01*
D02*
G37*
G36*
X1300750Y229544D02*
X1293250D01*
X1292372Y229369D01*
X1291628Y228872D01*
X1291131Y228128D01*
X1290956Y227250D01*
Y212750D01*
X1291131Y211872D01*
X1291628Y211128D01*
X1292372Y210631D01*
X1293250Y210456D01*
X1294209D01*
Y187040D01*
X1291735D01*
X1290941Y186882D01*
X1290268Y186432D01*
X1289818Y185759D01*
X1289660Y184965D01*
Y166035D01*
X1289818Y165241D01*
X1290268Y164568D01*
X1290941Y164118D01*
X1291735Y163960D01*
X1294509D01*
Y96040D01*
X1291735D01*
X1290941Y95882D01*
X1290268Y95432D01*
X1289818Y94759D01*
X1289660Y93965D01*
Y75035D01*
X1289818Y74241D01*
X1290268Y73568D01*
X1290941Y73118D01*
X1291735Y72960D01*
X1303465D01*
X1304259Y73118D01*
X1304932Y73568D01*
X1305382Y74241D01*
X1305540Y75035D01*
Y93965D01*
X1305382Y94759D01*
X1304932Y95432D01*
X1304259Y95882D01*
X1303465Y96040D01*
X1300691D01*
Y163960D01*
X1303465D01*
X1304259Y164118D01*
X1304932Y164568D01*
X1305382Y165241D01*
X1305540Y166035D01*
Y184965D01*
X1305382Y185759D01*
X1304932Y186432D01*
X1304259Y186882D01*
X1303465Y187040D01*
X1300391D01*
Y210456D01*
X1300750D01*
X1301628Y210631D01*
X1302372Y211128D01*
X1302869Y211872D01*
X1303044Y212750D01*
Y227250D01*
X1302869Y228128D01*
X1302372Y228872D01*
X1301628Y229369D01*
X1300750Y229544D01*
D02*
G37*
G36*
X1348265Y187040D02*
X1336535D01*
X1335741Y186882D01*
X1335068Y186432D01*
X1334618Y185759D01*
X1334460Y184965D01*
Y166035D01*
X1334618Y165241D01*
X1335068Y164568D01*
X1335741Y164118D01*
X1336535Y163960D01*
X1339309D01*
Y96040D01*
X1336535D01*
X1335741Y95882D01*
X1335068Y95432D01*
X1334618Y94759D01*
X1334460Y93965D01*
Y75035D01*
X1334618Y74241D01*
X1335068Y73568D01*
X1335741Y73118D01*
X1336535Y72960D01*
X1339309D01*
Y70591D01*
X1245491D01*
Y72960D01*
X1248265D01*
X1249059Y73118D01*
X1249732Y73568D01*
X1250182Y74241D01*
X1250340Y75035D01*
Y93965D01*
X1250182Y94759D01*
X1249732Y95432D01*
X1249059Y95882D01*
X1248265Y96040D01*
X1245491D01*
Y163960D01*
X1248265D01*
X1249059Y164118D01*
X1249732Y164568D01*
X1250182Y165241D01*
X1250340Y166035D01*
Y184965D01*
X1250182Y185759D01*
X1249732Y186432D01*
X1249059Y186882D01*
X1248265Y187040D01*
X1236535D01*
X1235741Y186882D01*
X1235068Y186432D01*
X1234618Y185759D01*
X1234460Y184965D01*
Y166035D01*
X1234618Y165241D01*
X1235068Y164568D01*
X1235741Y164118D01*
X1236535Y163960D01*
X1239309D01*
Y96040D01*
X1236535D01*
X1235741Y95882D01*
X1235068Y95432D01*
X1234618Y94759D01*
X1234460Y93965D01*
Y75035D01*
X1234618Y74241D01*
X1235068Y73568D01*
X1235741Y73118D01*
X1236535Y72960D01*
X1239309D01*
Y70591D01*
X1145491D01*
Y72960D01*
X1148265D01*
X1149059Y73118D01*
X1149732Y73568D01*
X1150182Y74241D01*
X1150340Y75035D01*
Y93965D01*
X1150182Y94759D01*
X1149732Y95432D01*
X1149059Y95882D01*
X1148265Y96040D01*
X1145491D01*
Y163960D01*
X1148265D01*
X1149059Y164118D01*
X1149732Y164568D01*
X1150182Y165241D01*
X1150340Y166035D01*
Y184965D01*
X1150182Y185759D01*
X1149732Y186432D01*
X1149059Y186882D01*
X1148265Y187040D01*
X1136535D01*
X1135741Y186882D01*
X1135068Y186432D01*
X1134618Y185759D01*
X1134460Y184965D01*
Y166035D01*
X1134618Y165241D01*
X1135068Y164568D01*
X1135741Y164118D01*
X1136535Y163960D01*
X1139309D01*
Y96040D01*
X1136535D01*
X1135741Y95882D01*
X1135068Y95432D01*
X1134618Y94759D01*
X1134460Y93965D01*
Y75035D01*
X1134618Y74241D01*
X1135068Y73568D01*
X1135741Y73118D01*
X1136535Y72960D01*
X1139309D01*
Y70591D01*
X1047723D01*
X1047433Y70928D01*
X1048166Y72719D01*
X1048350Y72977D01*
X1049059Y73118D01*
X1049732Y73568D01*
X1050182Y74241D01*
X1050340Y75035D01*
Y93965D01*
X1050182Y94759D01*
X1049732Y95432D01*
X1049059Y95882D01*
X1048265Y96040D01*
X1045491D01*
Y163960D01*
X1048265D01*
X1049059Y164118D01*
X1049732Y164568D01*
X1050182Y165241D01*
X1050340Y166035D01*
Y184965D01*
X1050182Y185759D01*
X1049732Y186432D01*
X1049059Y186882D01*
X1048265Y187040D01*
X1036535D01*
X1035741Y186882D01*
X1035068Y186432D01*
X1034618Y185759D01*
X1034460Y184965D01*
Y166035D01*
X1034618Y165241D01*
X1035068Y164568D01*
X1035741Y164118D01*
X1036535Y163960D01*
X1039309D01*
Y96040D01*
X1036535D01*
X1035741Y95882D01*
X1035068Y95432D01*
X1034618Y94759D01*
X1034460Y93965D01*
Y75035D01*
X1034618Y74241D01*
X1035068Y73568D01*
X1035741Y73118D01*
X1036535Y72960D01*
X1039309D01*
Y69881D01*
X1039544Y68698D01*
X1040214Y67695D01*
X1042595Y65314D01*
X1043598Y64644D01*
X1044781Y64409D01*
X1379060D01*
X1380243Y64644D01*
X1381246Y65314D01*
X1387316Y71384D01*
X1387986Y72387D01*
X1388221Y73570D01*
Y75456D01*
X1389250D01*
X1390128Y75631D01*
X1390872Y76128D01*
X1391369Y76872D01*
X1391544Y77750D01*
Y92250D01*
X1391369Y93128D01*
X1390872Y93872D01*
X1390128Y94369D01*
X1389250Y94544D01*
X1381750D01*
X1380872Y94369D01*
X1380128Y93872D01*
X1379631Y93128D01*
X1379456Y92250D01*
Y77750D01*
X1379631Y76872D01*
X1380128Y76128D01*
X1380316Y76002D01*
X1380795Y74120D01*
X1380768Y73580D01*
X1377780Y70591D01*
X1345491D01*
Y72960D01*
X1348265D01*
X1349059Y73118D01*
X1349732Y73568D01*
X1350182Y74241D01*
X1350340Y75035D01*
Y93965D01*
X1350182Y94759D01*
X1349732Y95432D01*
X1349059Y95882D01*
X1348265Y96040D01*
X1345491D01*
Y163960D01*
X1348265D01*
X1349059Y164118D01*
X1349732Y164568D01*
X1350182Y165241D01*
X1350340Y166035D01*
Y184965D01*
X1350182Y185759D01*
X1349732Y186432D01*
X1349059Y186882D01*
X1348265Y187040D01*
D02*
G37*
G36*
X617278Y166960D02*
X615687D01*
X614217Y166351D01*
X613091Y165226D01*
X612482Y163756D01*
Y162164D01*
X613091Y160694D01*
X614217Y159569D01*
X615687Y158960D01*
X616110D01*
X642636Y132434D01*
X643639Y131764D01*
X644822Y131529D01*
X899100D01*
X963500Y67128D01*
Y66704D01*
X964109Y65234D01*
X965234Y64109D01*
X966704Y63500D01*
X968296D01*
X969766Y64109D01*
X970891Y65234D01*
X971500Y66704D01*
Y68296D01*
X970891Y69766D01*
X969766Y70891D01*
X968296Y71500D01*
X967872D01*
X954843Y84529D01*
X955197Y85519D01*
X955840Y86406D01*
X957106D01*
X958576Y87015D01*
X959701Y88140D01*
X960310Y89610D01*
Y91202D01*
X959701Y92672D01*
X959556Y92816D01*
Y121256D01*
X961870D01*
X962943Y121470D01*
X963853Y122077D01*
X964460Y122987D01*
X964674Y124060D01*
Y137560D01*
X964460Y138633D01*
X963853Y139543D01*
X962943Y140150D01*
X961870Y140364D01*
X959711D01*
Y149456D01*
X963870D01*
X964748Y149631D01*
X965492Y150128D01*
X965989Y150872D01*
X966164Y151750D01*
Y159250D01*
X965989Y160128D01*
X965492Y160872D01*
X964748Y161369D01*
X963870Y161544D01*
X949370D01*
X948492Y161369D01*
X947748Y160872D01*
X947251Y160128D01*
X947076Y159250D01*
Y151750D01*
X947251Y150872D01*
X947748Y150128D01*
X948492Y149631D01*
X949370Y149456D01*
X953529D01*
Y140364D01*
X951370D01*
X950297Y140150D01*
X949387Y139543D01*
X948780Y138633D01*
X948566Y137560D01*
Y124060D01*
X948780Y122987D01*
X949387Y122077D01*
X950297Y121470D01*
X951370Y121256D01*
X953374D01*
Y93126D01*
X952919Y92672D01*
X952310Y91202D01*
Y89936D01*
X951423Y89293D01*
X950433Y88939D01*
X902566Y136806D01*
X901563Y137476D01*
X900380Y137711D01*
X646103D01*
X620482Y163332D01*
Y163756D01*
X619873Y165226D01*
X618748Y166351D01*
X617278Y166960D01*
D02*
G37*
G36*
X164520Y96599D02*
X156520D01*
X155740Y96444D01*
X155078Y96002D01*
X154636Y95340D01*
X154481Y94560D01*
Y88560D01*
X154636Y87780D01*
X155078Y87118D01*
X155740Y86676D01*
X156520Y86521D01*
X157429D01*
Y71424D01*
X153270D01*
X152392Y71249D01*
X151648Y70752D01*
X151151Y70008D01*
X150976Y69130D01*
Y61630D01*
X151151Y60752D01*
X151648Y60008D01*
X152392Y59511D01*
X153270Y59336D01*
X167770D01*
X168648Y59511D01*
X169392Y60008D01*
X169889Y60752D01*
X170064Y61630D01*
Y69130D01*
X169889Y70008D01*
X169392Y70752D01*
X168648Y71249D01*
X167770Y71424D01*
X163611D01*
Y86521D01*
X164520D01*
X165300Y86676D01*
X165962Y87118D01*
X166404Y87780D01*
X166559Y88560D01*
Y94560D01*
X166404Y95340D01*
X165962Y96002D01*
X165300Y96444D01*
X164520Y96599D01*
D02*
G37*
G36*
X240456D02*
X232456D01*
X231676Y96444D01*
X231014Y96002D01*
X230572Y95340D01*
X230417Y94560D01*
Y88560D01*
X230572Y87780D01*
X231014Y87118D01*
X231676Y86676D01*
X232456Y86521D01*
X233365D01*
Y71214D01*
X229206D01*
X228328Y71040D01*
X227584Y70542D01*
X227087Y69798D01*
X226912Y68920D01*
Y61420D01*
X227087Y60542D01*
X227584Y59798D01*
X228328Y59301D01*
X229206Y59126D01*
X243706D01*
X244584Y59301D01*
X245328Y59798D01*
X245825Y60542D01*
X246000Y61420D01*
Y68920D01*
X245825Y69798D01*
X245328Y70542D01*
X244584Y71040D01*
X243706Y71214D01*
X239547D01*
Y86521D01*
X240456D01*
X241236Y86676D01*
X241898Y87118D01*
X242340Y87780D01*
X242495Y88560D01*
Y94560D01*
X242340Y95340D01*
X241898Y96002D01*
X241236Y96444D01*
X240456Y96599D01*
D02*
G37*
G36*
X557790Y56522D02*
Y48414D01*
X565897D01*
X565807Y49098D01*
X564771Y51599D01*
X563123Y53747D01*
X560975Y55395D01*
X558474Y56431D01*
X557790Y56522D01*
D02*
G37*
G36*
X553790D02*
X553106Y56431D01*
X550605Y55395D01*
X548457Y53747D01*
X546809Y51599D01*
X545773Y49098D01*
X545682Y48414D01*
X553790D01*
Y56522D01*
D02*
G37*
G36*
X167770Y53476D02*
X161535D01*
Y47395D01*
X171116D01*
Y50130D01*
X170862Y51411D01*
X170136Y52496D01*
X169051Y53222D01*
X167770Y53476D01*
D02*
G37*
G36*
X159505D02*
X153270D01*
X151989Y53222D01*
X150904Y52496D01*
X150178Y51411D01*
X149924Y50130D01*
Y47395D01*
X159505D01*
Y53476D01*
D02*
G37*
G36*
X243706Y53266D02*
X237471D01*
Y47185D01*
X247052D01*
Y49920D01*
X246798Y51201D01*
X246072Y52286D01*
X244987Y53012D01*
X243706Y53266D01*
D02*
G37*
G36*
X235441D02*
X229206D01*
X227925Y53012D01*
X226840Y52286D01*
X226115Y51201D01*
X225860Y49920D01*
Y47185D01*
X235441D01*
Y53266D01*
D02*
G37*
G36*
X1595656Y85020D02*
X1594064D01*
X1592594Y84411D01*
X1591469Y83286D01*
X1590860Y81816D01*
Y81392D01*
X1552560Y43091D01*
X1035065D01*
X1034766Y43391D01*
X1033296Y44000D01*
X1031704D01*
X1030234Y43391D01*
X1029109Y42266D01*
X1028500Y40796D01*
Y39204D01*
X1029109Y37734D01*
X1030234Y36609D01*
X1031704Y36000D01*
X1033296D01*
X1034766Y36609D01*
X1035065Y36909D01*
X1553840D01*
X1555023Y37144D01*
X1556026Y37814D01*
X1595232Y77020D01*
X1595656D01*
X1597126Y77629D01*
X1598251Y78754D01*
X1598860Y80224D01*
Y81816D01*
X1598251Y83286D01*
X1597126Y84411D01*
X1595656Y85020D01*
D02*
G37*
G36*
X171116Y45365D02*
X161535D01*
Y39284D01*
X167770D01*
X169051Y39538D01*
X170136Y40264D01*
X170862Y41349D01*
X171116Y42630D01*
Y45365D01*
D02*
G37*
G36*
X159505D02*
X149924D01*
Y42630D01*
X150178Y41349D01*
X150904Y40264D01*
X151989Y39538D01*
X153270Y39284D01*
X159505D01*
Y45365D01*
D02*
G37*
G36*
X247052Y45155D02*
X237471D01*
Y39074D01*
X243706D01*
X244987Y39328D01*
X246072Y40054D01*
X246798Y41139D01*
X247052Y42420D01*
Y45155D01*
D02*
G37*
G36*
X235441D02*
X225860D01*
Y42420D01*
X226115Y41139D01*
X226840Y40054D01*
X227925Y39328D01*
X229206Y39074D01*
X235441D01*
Y45155D01*
D02*
G37*
G36*
X455435Y55989D02*
X455435D01*
X453020Y55671D01*
X450770Y54739D01*
X448838Y53257D01*
X447355Y51325D01*
X446423Y49074D01*
X446105Y46659D01*
X446423Y44245D01*
X447355Y41995D01*
X448838Y40062D01*
X450770Y38580D01*
X453020Y37648D01*
X455435Y37330D01*
X455435D01*
X457850Y37648D01*
X460100Y38580D01*
X462032Y40062D01*
X463515Y41995D01*
X464447Y44245D01*
X464765Y46659D01*
X464447Y49074D01*
X463515Y51325D01*
X462032Y53257D01*
X460100Y54739D01*
X457850Y55671D01*
X455435Y55989D01*
D02*
G37*
G36*
X581190Y55744D02*
X581190D01*
X578775Y55426D01*
X576525Y54494D01*
X574593Y53011D01*
X573110Y51079D01*
X572178Y48829D01*
X571860Y46414D01*
X572178Y43999D01*
X573110Y41749D01*
X574593Y39817D01*
X576525Y38334D01*
X578775Y37402D01*
X581190Y37084D01*
X581190D01*
X583605Y37402D01*
X585855Y38334D01*
X587787Y39817D01*
X589270Y41749D01*
X590202Y43999D01*
X590520Y46414D01*
X590202Y48829D01*
X589270Y51079D01*
X587787Y53011D01*
X585855Y54494D01*
X583605Y55426D01*
X581190Y55744D01*
D02*
G37*
G36*
X504990D02*
X504990D01*
X502575Y55426D01*
X500325Y54494D01*
X498393Y53011D01*
X496910Y51079D01*
X495978Y48829D01*
X495660Y46414D01*
X495978Y43999D01*
X496910Y41749D01*
X498393Y39817D01*
X500325Y38334D01*
X502575Y37402D01*
X504990Y37084D01*
X504990D01*
X507405Y37402D01*
X509655Y38334D01*
X511587Y39817D01*
X513070Y41749D01*
X514002Y43999D01*
X514320Y46414D01*
X514002Y48829D01*
X513070Y51079D01*
X511587Y53011D01*
X509655Y54494D01*
X507405Y55426D01*
X504990Y55744D01*
D02*
G37*
G36*
X479590D02*
X479590D01*
X477175Y55426D01*
X474925Y54494D01*
X472993Y53011D01*
X471510Y51079D01*
X470578Y48829D01*
X470260Y46414D01*
X470578Y43999D01*
X471510Y41749D01*
X472993Y39817D01*
X474925Y38334D01*
X477175Y37402D01*
X479590Y37084D01*
X479590D01*
X482005Y37402D01*
X484255Y38334D01*
X486187Y39817D01*
X487670Y41749D01*
X488602Y43999D01*
X488920Y46414D01*
X488602Y48829D01*
X487670Y51079D01*
X486187Y53011D01*
X484255Y54494D01*
X482005Y55426D01*
X479590Y55744D01*
D02*
G37*
G36*
X428790D02*
X428790D01*
X426375Y55426D01*
X424125Y54494D01*
X422193Y53011D01*
X420710Y51079D01*
X419778Y48829D01*
X419460Y46414D01*
X419778Y43999D01*
X420710Y41749D01*
X422193Y39817D01*
X424125Y38334D01*
X426375Y37402D01*
X428790Y37084D01*
X428790D01*
X431205Y37402D01*
X433455Y38334D01*
X435387Y39817D01*
X436870Y41749D01*
X437802Y43999D01*
X438120Y46414D01*
X437802Y48829D01*
X436870Y51079D01*
X435387Y53011D01*
X433455Y54494D01*
X431205Y55426D01*
X428790Y55744D01*
D02*
G37*
G36*
X403390D02*
X403390D01*
X400975Y55426D01*
X398725Y54494D01*
X396793Y53011D01*
X395310Y51079D01*
X394378Y48829D01*
X394060Y46414D01*
X394378Y43999D01*
X395310Y41749D01*
X396793Y39817D01*
X398725Y38334D01*
X400975Y37402D01*
X403390Y37084D01*
X403390D01*
X405805Y37402D01*
X408055Y38334D01*
X409987Y39817D01*
X411470Y41749D01*
X412402Y43999D01*
X412720Y46414D01*
X412402Y48829D01*
X411470Y51079D01*
X409987Y53011D01*
X408055Y54494D01*
X405805Y55426D01*
X403390Y55744D01*
D02*
G37*
G36*
X377990D02*
X377990D01*
X375575Y55426D01*
X373325Y54494D01*
X371393Y53011D01*
X369910Y51079D01*
X368978Y48829D01*
X368660Y46414D01*
X368978Y43999D01*
X369910Y41749D01*
X371393Y39817D01*
X373325Y38334D01*
X375575Y37402D01*
X377990Y37084D01*
X377990D01*
X380405Y37402D01*
X382655Y38334D01*
X384587Y39817D01*
X386070Y41749D01*
X387002Y43999D01*
X387320Y46414D01*
X387002Y48829D01*
X386070Y51079D01*
X384587Y53011D01*
X382655Y54494D01*
X380405Y55426D01*
X377990Y55744D01*
D02*
G37*
G36*
X565897Y44414D02*
X557790D01*
Y36307D01*
X558474Y36397D01*
X560975Y37433D01*
X563123Y39081D01*
X564771Y41229D01*
X565807Y43730D01*
X565897Y44414D01*
D02*
G37*
G36*
X553790D02*
X545682D01*
X545773Y43730D01*
X546809Y41229D01*
X548457Y39081D01*
X550605Y37433D01*
X553106Y36397D01*
X553790Y36307D01*
Y44414D01*
D02*
G37*
%LPD*%
G36*
X59878Y260430D02*
X61340Y258969D01*
X63069Y257971D01*
Y247130D01*
X61340Y246132D01*
X59878Y244670D01*
X58880Y242941D01*
X48040D01*
X47042Y244670D01*
X45580Y246132D01*
X43851Y247130D01*
Y257400D01*
X48610D01*
Y262159D01*
X58880D01*
X59878Y260430D01*
D02*
G37*
D13*
X2004060Y223870D02*
Y249270D01*
Y261970D01*
X1993320Y272710D02*
X2004060Y261970D01*
X1993320Y272710D02*
Y295300D01*
X1864832Y230286D02*
Y246786D01*
X1865760Y247714D01*
Y264450D01*
X1864832Y263522D02*
X1865760Y264450D01*
X1835090D02*
X1865760D01*
D20*
X1042400Y84500D02*
D03*
X997600D02*
D03*
X1042400Y175500D02*
D03*
X997600D02*
D03*
X1242400Y84500D02*
D03*
X1197600D02*
D03*
X1242400Y175500D02*
D03*
X1197600D02*
D03*
X1342400Y84500D02*
D03*
X1297600D02*
D03*
X1342400Y175500D02*
D03*
X1297600D02*
D03*
X1142400Y84500D02*
D03*
X1097600D02*
D03*
X1142400Y175500D02*
D03*
X1097600D02*
D03*
D21*
X1278000Y220000D02*
D03*
X1297000D02*
D03*
X1404500Y85000D02*
D03*
X1385500D02*
D03*
X1472590Y72390D02*
D03*
X1491590D02*
D03*
X1097000Y220000D02*
D03*
X1078000D02*
D03*
X997000D02*
D03*
X978000D02*
D03*
X1197000D02*
D03*
X1178000D02*
D03*
X1816090Y303430D02*
D03*
X1835090D02*
D03*
X2016120Y81020D02*
D03*
X1997120D02*
D03*
X1816090Y264450D02*
D03*
X1835090D02*
D03*
D22*
X1524265Y93980D02*
D03*
Y106680D02*
D03*
Y119380D02*
D03*
Y132080D02*
D03*
X1474865D02*
D03*
Y119380D02*
D03*
Y106680D02*
D03*
Y93980D02*
D03*
D23*
X933760Y130810D02*
D03*
X956620D02*
D03*
X1963522Y264160D02*
D03*
X1940662D02*
D03*
X1865760Y303430D02*
D03*
X1888620D02*
D03*
X1888620Y264450D02*
D03*
X1865760D02*
D03*
D24*
X125046Y269854D02*
D03*
Y259854D02*
D03*
D25*
X124460Y237250D02*
D03*
Y207250D02*
D03*
D26*
X236456Y91560D02*
D03*
Y106560D02*
D03*
X160520D02*
D03*
Y91560D02*
D03*
D27*
Y65380D02*
D03*
Y46380D02*
D03*
X236456Y65170D02*
D03*
Y46170D02*
D03*
X504990Y243180D02*
D03*
Y224180D02*
D03*
X530390Y243180D02*
D03*
Y224180D02*
D03*
X1567180Y145390D02*
D03*
Y126390D02*
D03*
X2032000Y295300D02*
D03*
Y314300D02*
D03*
X1993320D02*
D03*
Y295300D02*
D03*
X956620Y174500D02*
D03*
Y155500D02*
D03*
D28*
X1402620Y146050D02*
D03*
Y123190D02*
D03*
X1433610Y146050D02*
D03*
Y123190D02*
D03*
X2033820Y154880D02*
D03*
Y132020D02*
D03*
X1385620Y228020D02*
D03*
Y250880D02*
D03*
X1416620Y228020D02*
D03*
Y250880D02*
D03*
X2006600Y154940D02*
D03*
Y132080D02*
D03*
D51*
X1504950Y113030D02*
Y194310D01*
X530390Y243180D02*
X530390Y243180D01*
X373814Y25190D02*
X927604D01*
X352590Y46414D02*
X373814Y25190D01*
X352590Y46414D02*
X352590D01*
X373814Y25190D02*
X387002D01*
X1816090Y303430D02*
X1816090Y303430D01*
X1502749Y316564D02*
X1515883Y303430D01*
X1816090D01*
X1809058Y264450D02*
X1816090D01*
X1778453Y295055D02*
X1809058Y264450D01*
X1514975Y295055D02*
X1778453D01*
X1500030Y310000D02*
X1514975Y295055D01*
X543976Y310000D02*
X1500030D01*
X530390Y296414D02*
X543976Y310000D01*
X525140Y316564D02*
X1502749D01*
X504990Y296414D02*
X525140Y316564D01*
X978000Y220000D02*
Y244974D01*
Y218482D02*
Y220000D01*
X962500D02*
X978000D01*
X952920Y210420D02*
X962500Y220000D01*
X656780Y210420D02*
X952920D01*
X657390Y211030D02*
Y296414D01*
X656780Y210420D02*
X657390Y211030D01*
X504990Y243180D02*
X504990Y243180D01*
X504990Y243180D02*
Y296414D01*
X530390Y243180D02*
Y296414D01*
X352590Y285174D02*
Y296414D01*
X360264Y277500D02*
X417570D01*
X352590Y285174D02*
X360264Y277500D01*
X417570D02*
X642570Y52500D01*
X1524265Y93980D02*
X1547731D01*
X1498744D02*
X1524265D01*
X1097600Y84500D02*
Y175500D01*
X1481618Y52500D02*
X1491590Y62472D01*
X642570Y52500D02*
X1481618D01*
X1491590Y62472D02*
Y70718D01*
X1553840Y40000D02*
X1594860Y81020D01*
X1032500Y40000D02*
X1553840D01*
X644822Y134620D02*
X900380D01*
X967500Y67500D01*
X1385130Y73570D02*
Y84630D01*
X1385500Y85000D01*
X1379060Y67500D02*
X1385130Y73570D01*
X1342400Y67500D02*
X1379060D01*
X1242500D02*
X1342400D01*
Y84500D02*
Y175500D01*
Y67500D02*
Y84500D01*
X1297600D02*
Y175500D01*
X997600Y84500D02*
Y175500D01*
X1197600Y84500D02*
Y175500D01*
X1242400Y84500D02*
Y175500D01*
X1142400Y84500D02*
Y175500D01*
X1042400Y84500D02*
Y175500D01*
X1142500Y67500D02*
X1242500D01*
X1242400Y67600D02*
Y84500D01*
Y67600D02*
X1242500Y67500D01*
X1044781D02*
X1142500D01*
X1142400Y67600D02*
X1142500Y67500D01*
X1142400Y67600D02*
Y84500D01*
X1042400Y69881D02*
Y84500D01*
Y69881D02*
X1044781Y67500D01*
X1097300Y175800D02*
X1097600Y175500D01*
X1097000Y220000D02*
X1097300Y219700D01*
Y175800D02*
Y219700D01*
X1197000Y220000D02*
X1197300Y219700D01*
Y175800D02*
Y219700D01*
Y175800D02*
X1197600Y175500D01*
X1297300Y175800D02*
X1297600Y175500D01*
X1297000Y220000D02*
X1297300Y219700D01*
Y175800D02*
Y219700D01*
X1197000Y220000D02*
X1278000D01*
X1097000D02*
X1178000D01*
X997000D02*
X1078000D01*
X956620Y174500D02*
X996600D01*
X997600Y175500D01*
X956620Y130810D02*
Y155500D01*
X997300Y175800D02*
Y219700D01*
X997000Y220000D02*
X997300Y219700D01*
Y175800D02*
X997600Y175500D01*
X978000Y244974D02*
X983906Y250880D01*
X1358900D01*
X561740Y210420D02*
X656780D01*
X547980Y224180D02*
X561740Y210420D01*
X472440Y127400D02*
X504990Y159950D01*
Y160020D01*
Y205755D02*
Y224180D01*
X530390D01*
Y53280D02*
Y79210D01*
X472440Y127400D02*
X472795Y127045D01*
X482555D02*
X530390Y79210D01*
X472795Y127045D02*
X482555D01*
X451600Y106560D02*
X472440Y127400D01*
X236456Y106560D02*
X451600D01*
X236588Y106692D02*
Y138170D01*
X236456Y106560D02*
X236588Y106692D01*
Y138170D02*
X236720Y138302D01*
X1940662Y264160D02*
Y276481D01*
Y230656D02*
Y264160D01*
X530390Y224180D02*
X547980D01*
X616482Y162960D02*
X644822Y134620D01*
X1489919Y70718D02*
X1491590Y72390D01*
Y86826D02*
X1498744Y93980D01*
X1491590Y72390D02*
Y86826D01*
X1567180Y113429D02*
Y126390D01*
X1547731Y93980D02*
X1567180Y113429D01*
X1472590Y93012D02*
X1473558Y93980D01*
X1472590Y72390D02*
Y93012D01*
X1448090Y93980D02*
X1473558D01*
X1474865D01*
X1433610Y108460D02*
X1448090Y93980D01*
X1433610Y108460D02*
Y123190D01*
X1402620D02*
X1433610D01*
X1930561Y286582D02*
Y314300D01*
Y286582D02*
X1940662Y276481D01*
X1930561Y314300D02*
X1993320D01*
X1536700Y320040D02*
X1924821D01*
X1930561Y314300D01*
X1504950Y113030D02*
X1511300Y106680D01*
X1524265D01*
Y131246D02*
Y144780D01*
X1416620Y250880D02*
X1440870D01*
X1468120Y278130D01*
X1567180Y145390D02*
Y157050D01*
X1578000Y167870D01*
X1546735Y145265D02*
X1567055D01*
X1542334Y140864D02*
X1546735Y145265D01*
X1542334Y121761D02*
Y140864D01*
X1524265Y119380D02*
X1539953D01*
X1542334Y121761D01*
X1567055Y145265D02*
X1567180Y145390D01*
X1468120Y201930D02*
X1497330D01*
X1504950Y194310D01*
X1512570Y201930D01*
X1544320D01*
X157608Y138302D02*
X160520D01*
X124460Y171450D02*
Y207250D01*
Y171450D02*
X157608Y138302D01*
X124460Y237250D02*
X125046Y237836D01*
Y259854D01*
X113030Y237250D02*
X124460D01*
X110430Y239850D02*
X113030Y237250D01*
X66160Y239850D02*
X110430D01*
X66160D02*
Y265250D01*
X40760Y239850D02*
X66160D01*
X40760D02*
Y265250D01*
X66160D01*
X141435Y269854D02*
X141483Y269806D01*
X127082Y269854D02*
X141435D01*
X2032000Y314300D02*
X2048646D01*
X2049256Y313690D01*
X2049780D01*
X1888620Y264450D02*
X1888910Y264160D01*
X1905000D01*
X1963277Y264405D02*
X1963522Y264160D01*
X1963277Y264405D02*
Y281593D01*
X1888620Y287020D02*
Y303430D01*
Y287020D02*
X1888620Y287020D01*
X236456Y30480D02*
Y45746D01*
X160520Y30480D02*
Y45140D01*
X933760Y131390D02*
Y146050D01*
X1402620Y146630D02*
Y161290D01*
X1433610Y146630D02*
Y161290D01*
X1385620Y213360D02*
Y228020D01*
X1416620Y213360D02*
Y228020D01*
X2033790Y127052D02*
X2033820Y132020D01*
X2033790Y116840D02*
Y127052D01*
X2006630Y116840D02*
Y127112D01*
X2006600Y132080D02*
X2006630Y127112D01*
X160520Y106560D02*
Y138302D01*
X185920D01*
X956465Y90561D02*
Y130655D01*
X956310Y90406D02*
X956465Y90561D01*
Y130655D02*
X956620Y130810D01*
X1965960Y81020D02*
X1997120D01*
X2032000Y226410D02*
Y295300D01*
X2004060Y198470D02*
X2032000Y226410D01*
X2033820Y154880D02*
Y176223D01*
X2066160Y208562D01*
X2003885Y198295D02*
X2004060Y198470D01*
X1971215Y198295D02*
X2003885D01*
X1971040Y198120D02*
X1971215Y198295D01*
X2006600Y154940D02*
X2006630Y154910D01*
X2033790D01*
X2033820Y154880D01*
X1941032Y205208D02*
X1991300Y154940D01*
X2006600D01*
X1941032Y205208D02*
Y230286D01*
X1940662Y230656D02*
X1941032Y230286D01*
X1866530Y284850D02*
X1866900Y284480D01*
X1866530Y284850D02*
Y302661D01*
X1865760Y303430D02*
X1866530Y302661D01*
X1835090Y303430D02*
X1865760D01*
X1382370Y123190D02*
X1402620D01*
X1358900Y146660D02*
X1382370Y123190D01*
X1358900Y146660D02*
Y250880D01*
X1385620D01*
X1416620D01*
X160520Y66734D02*
Y91560D01*
X158986Y65200D02*
X160520Y66734D01*
X236456Y65170D02*
Y92687D01*
X927604Y25190D02*
X947327Y44913D01*
X2016120Y81020D02*
X2035620D01*
D52*
X352590Y46414D02*
D03*
Y296414D02*
D03*
D53*
X377990Y46414D02*
D03*
X403390D02*
D03*
X428790D02*
D03*
X455435Y46659D02*
D03*
X479590Y46414D02*
D03*
X504990D02*
D03*
X530390D02*
D03*
X555790D02*
D03*
X581190D02*
D03*
X657390Y296414D02*
D03*
X631990D02*
D03*
X606590D02*
D03*
X581190D02*
D03*
X555790D02*
D03*
X530390D02*
D03*
X504990D02*
D03*
X480835D02*
D03*
X454190D02*
D03*
X428790D02*
D03*
X403390D02*
D03*
X377990D02*
D03*
X708190D02*
D03*
X682790D02*
D03*
X733590D02*
D03*
D54*
X472440Y177400D02*
D03*
X656780Y160420D02*
D03*
D55*
X472440Y127400D02*
D03*
X656780Y210420D02*
D03*
D56*
X1468120Y278130D02*
D03*
Y252730D02*
D03*
Y227330D02*
D03*
Y201930D02*
D03*
X1544320D02*
D03*
Y227330D02*
D03*
Y252730D02*
D03*
Y278130D02*
D03*
D57*
X2004060Y198470D02*
D03*
Y223870D02*
D03*
D58*
Y249270D02*
D03*
D59*
X1788632Y230286D02*
D03*
X1814032D02*
D03*
X1839432D02*
D03*
X1864832D02*
D03*
X1890232D02*
D03*
X1915632D02*
D03*
D60*
X1941032D02*
D03*
D61*
X2463120Y264850D02*
D03*
X40760Y265250D02*
D03*
D62*
X2488520Y264850D02*
D03*
X2463120Y239450D02*
D03*
X2488520D02*
D03*
X2463120Y214050D02*
D03*
X2488520D02*
D03*
X2463120Y188650D02*
D03*
X2488520D02*
D03*
X2463120Y163250D02*
D03*
X2488520D02*
D03*
X2463120Y137850D02*
D03*
X2488520D02*
D03*
X2463120Y112450D02*
D03*
X2488520D02*
D03*
X66160Y112850D02*
D03*
X40760D02*
D03*
X66160Y138250D02*
D03*
Y163650D02*
D03*
Y189050D02*
D03*
Y214450D02*
D03*
Y239850D02*
D03*
X40760D02*
D03*
X66160Y265250D02*
D03*
X40760Y138250D02*
D03*
Y189050D02*
D03*
Y214450D02*
D03*
Y163650D02*
D03*
D63*
X185920Y138302D02*
D03*
X236720D02*
D03*
X211320D02*
D03*
X160520D02*
D03*
D64*
X2066160Y132362D02*
D03*
Y157762D02*
D03*
Y183162D02*
D03*
Y208562D02*
D03*
D65*
X2509284Y283470D02*
D03*
Y181870D02*
D03*
Y80270D02*
D03*
X2483884Y29470D02*
D03*
X2458484Y283470D02*
D03*
X2433084Y232670D02*
D03*
Y131070D02*
D03*
X2458484Y80270D02*
D03*
X2433084Y29470D02*
D03*
X2407684Y283470D02*
D03*
X2382284Y232670D02*
D03*
X2407684Y181870D02*
D03*
X2382284Y131070D02*
D03*
X2407684Y80270D02*
D03*
X2382284Y29470D02*
D03*
X2356884Y283470D02*
D03*
X2331484Y232670D02*
D03*
X2356884Y181870D02*
D03*
X2331484Y131070D02*
D03*
X2356884Y80270D02*
D03*
X2331484Y29470D02*
D03*
X2306084Y283470D02*
D03*
X2280684Y232670D02*
D03*
X2306084Y181870D02*
D03*
X2280684Y131070D02*
D03*
X2306084Y80270D02*
D03*
X2280684Y29470D02*
D03*
X2255284Y283470D02*
D03*
X2229884Y232670D02*
D03*
X2255284Y181870D02*
D03*
X2229884Y131070D02*
D03*
X2255284Y80270D02*
D03*
X2229884Y29470D02*
D03*
X2204484Y283470D02*
D03*
X2179084Y232670D02*
D03*
X2204484Y181870D02*
D03*
X2179084Y131070D02*
D03*
X2204484Y80270D02*
D03*
X2179084Y29470D02*
D03*
X2153684Y283470D02*
D03*
X2128284Y232670D02*
D03*
X2153684Y181870D02*
D03*
X2128284Y131070D02*
D03*
X2153684Y80270D02*
D03*
X2128284Y29470D02*
D03*
X2102884Y283470D02*
D03*
X2077484Y232670D02*
D03*
X2102884Y181870D02*
D03*
Y80270D02*
D03*
X2077484Y29470D02*
D03*
X2052084Y283470D02*
D03*
Y181870D02*
D03*
Y80270D02*
D03*
X2026684Y29470D02*
D03*
X2001284Y283470D02*
D03*
X1975884Y232670D02*
D03*
X2001284Y181870D02*
D03*
X1975884Y131070D02*
D03*
Y29470D02*
D03*
X1950484Y283470D02*
D03*
X1925084Y131070D02*
D03*
Y29470D02*
D03*
X1899684Y283470D02*
D03*
Y181870D02*
D03*
X1874284Y131070D02*
D03*
Y29470D02*
D03*
X1848884Y283470D02*
D03*
Y181870D02*
D03*
X1823484Y131070D02*
D03*
Y29470D02*
D03*
X1772684Y232670D02*
D03*
X1798084Y181870D02*
D03*
X1772684Y131070D02*
D03*
Y29470D02*
D03*
X1747284Y283470D02*
D03*
X1721884Y232670D02*
D03*
X1747284Y181870D02*
D03*
X1721884Y131070D02*
D03*
Y29470D02*
D03*
X1696484Y283470D02*
D03*
X1671084Y232670D02*
D03*
X1696484Y181870D02*
D03*
X1671084Y131070D02*
D03*
Y29470D02*
D03*
X1645684Y283470D02*
D03*
X1620284Y232670D02*
D03*
X1645684Y181870D02*
D03*
X1620284Y131070D02*
D03*
Y29470D02*
D03*
X1594884Y283470D02*
D03*
X1569484Y232670D02*
D03*
X1594884Y181870D02*
D03*
X1569484Y29470D02*
D03*
X1518684Y232670D02*
D03*
X1544084Y181870D02*
D03*
Y80270D02*
D03*
X1518684Y29470D02*
D03*
X1493284Y283470D02*
D03*
Y181870D02*
D03*
X1467884Y29470D02*
D03*
X1442484Y283470D02*
D03*
Y181870D02*
D03*
X1417084Y131070D02*
D03*
X1442484Y80270D02*
D03*
X1417084Y29470D02*
D03*
X1391684Y283470D02*
D03*
X1366284Y232670D02*
D03*
X1391684Y181870D02*
D03*
X1366284Y29470D02*
D03*
X1340884Y283470D02*
D03*
X1315484Y232670D02*
D03*
Y131070D02*
D03*
Y29470D02*
D03*
X1290084Y283470D02*
D03*
X1264684Y232670D02*
D03*
Y131070D02*
D03*
Y29470D02*
D03*
X1239284Y283470D02*
D03*
X1213884Y232670D02*
D03*
Y131070D02*
D03*
Y29470D02*
D03*
X1188484Y283470D02*
D03*
X1163084Y232670D02*
D03*
Y131070D02*
D03*
Y29470D02*
D03*
X1137684Y283470D02*
D03*
X1112284Y232670D02*
D03*
Y131070D02*
D03*
Y29470D02*
D03*
X1086884Y283470D02*
D03*
X1061484Y232670D02*
D03*
Y131070D02*
D03*
Y29470D02*
D03*
X1036084Y283470D02*
D03*
X1010684Y232670D02*
D03*
Y131070D02*
D03*
Y29470D02*
D03*
X985284Y283470D02*
D03*
X959884Y232670D02*
D03*
X985284Y181870D02*
D03*
Y80270D02*
D03*
X959884Y29470D02*
D03*
X934484Y283470D02*
D03*
X909084Y232670D02*
D03*
X934484Y181870D02*
D03*
Y80270D02*
D03*
X883684Y283470D02*
D03*
X858284Y232670D02*
D03*
X883684Y181870D02*
D03*
Y80270D02*
D03*
X832884Y283470D02*
D03*
X807484Y232670D02*
D03*
X832884Y181870D02*
D03*
Y80270D02*
D03*
X782084Y283470D02*
D03*
X756684Y232670D02*
D03*
X782084Y181870D02*
D03*
Y80270D02*
D03*
X731284Y283470D02*
D03*
X705884Y232670D02*
D03*
X731284Y181870D02*
D03*
Y80270D02*
D03*
X680484Y181870D02*
D03*
Y80270D02*
D03*
X629684Y283470D02*
D03*
X604284Y232670D02*
D03*
X629684Y181870D02*
D03*
X604284Y131070D02*
D03*
X629684Y80270D02*
D03*
X578884Y283470D02*
D03*
Y181870D02*
D03*
X553484Y131070D02*
D03*
X578884Y80270D02*
D03*
X528084Y181870D02*
D03*
X502684Y131070D02*
D03*
X477284Y283470D02*
D03*
X451884Y232670D02*
D03*
Y131070D02*
D03*
X477284Y80270D02*
D03*
X426484Y283470D02*
D03*
X401084Y232670D02*
D03*
X426484Y181870D02*
D03*
X401084Y131070D02*
D03*
X426484Y80270D02*
D03*
X350284Y232670D02*
D03*
X375684Y181870D02*
D03*
X350284Y131070D02*
D03*
X375684Y80270D02*
D03*
X350284Y29470D02*
D03*
X324884Y283470D02*
D03*
X299484Y232670D02*
D03*
X324884Y181870D02*
D03*
X299484Y131070D02*
D03*
X324884Y80270D02*
D03*
X299484Y29470D02*
D03*
X274084Y283470D02*
D03*
X248684Y232670D02*
D03*
X274084Y181870D02*
D03*
X248684Y131070D02*
D03*
X274084Y80270D02*
D03*
X248684Y29470D02*
D03*
X223284Y283470D02*
D03*
X197884Y232670D02*
D03*
X223284Y181870D02*
D03*
X197884Y131070D02*
D03*
X223284Y80270D02*
D03*
X197884Y29470D02*
D03*
X172484Y283470D02*
D03*
X147084Y232670D02*
D03*
X172484Y181870D02*
D03*
X147084Y131070D02*
D03*
Y29470D02*
D03*
X121684Y283470D02*
D03*
X96284Y131070D02*
D03*
X121684Y80270D02*
D03*
X96284Y29470D02*
D03*
X70884Y283470D02*
D03*
Y80270D02*
D03*
X45484Y29470D02*
D03*
X2035620Y81020D02*
D03*
X1578000Y167870D02*
D03*
X947327Y44913D02*
D03*
X1866900Y284480D02*
D03*
X1971040Y198120D02*
D03*
X956310Y90406D02*
D03*
X2049780Y313690D02*
D03*
X2033790Y116840D02*
D03*
X2006630D02*
D03*
X1965960Y81020D02*
D03*
X1594860D02*
D03*
X1888620Y287020D02*
D03*
X1416620Y213360D02*
D03*
X1385620D02*
D03*
X1433610Y161290D02*
D03*
X1402620D02*
D03*
X933760Y146050D02*
D03*
X531260Y120650D02*
D03*
X160520Y30480D02*
D03*
X236456D02*
D03*
X1963277Y281593D02*
D03*
X1905000Y264160D02*
D03*
X141483Y269806D02*
D03*
X1524265Y144780D02*
D03*
X616482Y162960D02*
D03*
X504990Y160020D02*
D03*
Y205755D02*
D03*
X967500Y67500D02*
D03*
X1032500Y40000D02*
D03*
D66*
X1536700Y320040D02*
D03*
M02*
