G04*
G04 #@! TF.GenerationSoftware,Altium Limited,Altium Designer,25.8.1 (18)*
G04*
G04 Layer_Color=255*
%FSLAX44Y44*%
%MOMM*%
G71*
G04*
G04 #@! TF.SameCoordinates,57F80322-994B-4A8F-A2F4-5028E090627E*
G04*
G04*
G04 #@! TF.FilePolarity,Positive*
G04*
G01*
G75*
G04:AMPARAMS|DCode=20|XSize=2.1mm|YSize=1.38mm|CornerRadius=0.1035mm|HoleSize=0mm|Usage=FLASHONLY|Rotation=270.000|XOffset=0mm|YOffset=0mm|HoleType=Round|Shape=RoundedRectangle|*
%AMROUNDEDRECTD20*
21,1,2.1000,1.1730,0,0,270.0*
21,1,1.8930,1.3800,0,0,270.0*
1,1,0.2070,-0.5865,-0.9465*
1,1,0.2070,-0.5865,0.9465*
1,1,0.2070,0.5865,0.9465*
1,1,0.2070,0.5865,-0.9465*
%
%ADD20ROUNDEDRECTD20*%
G04:AMPARAMS|DCode=21|XSize=1mm|YSize=1.7mm|CornerRadius=0.125mm|HoleSize=0mm|Usage=FLASHONLY|Rotation=180.000|XOffset=0mm|YOffset=0mm|HoleType=Round|Shape=RoundedRectangle|*
%AMROUNDEDRECTD21*
21,1,1.0000,1.4500,0,0,180.0*
21,1,0.7500,1.7000,0,0,180.0*
1,1,0.2500,-0.3750,0.7250*
1,1,0.2500,0.3750,0.7250*
1,1,0.2500,0.3750,-0.7250*
1,1,0.2500,-0.3750,-0.7250*
%
%ADD21ROUNDEDRECTD21*%
G04:AMPARAMS|DCode=22|XSize=1.97mm|YSize=0.6mm|CornerRadius=0.075mm|HoleSize=0mm|Usage=FLASHONLY|Rotation=180.000|XOffset=0mm|YOffset=0mm|HoleType=Round|Shape=RoundedRectangle|*
%AMROUNDEDRECTD22*
21,1,1.9700,0.4500,0,0,180.0*
21,1,1.8200,0.6000,0,0,180.0*
1,1,0.1500,-0.9100,0.2250*
1,1,0.1500,0.9100,0.2250*
1,1,0.1500,0.9100,-0.2250*
1,1,0.1500,-0.9100,-0.2250*
%
%ADD22ROUNDEDRECTD22*%
G04:AMPARAMS|DCode=23|XSize=1.4mm|YSize=1.7mm|CornerRadius=0.175mm|HoleSize=0mm|Usage=FLASHONLY|Rotation=0.000|XOffset=0mm|YOffset=0mm|HoleType=Round|Shape=RoundedRectangle|*
%AMROUNDEDRECTD23*
21,1,1.4000,1.3500,0,0,0.0*
21,1,1.0500,1.7000,0,0,0.0*
1,1,0.3500,0.5250,-0.6750*
1,1,0.3500,-0.5250,-0.6750*
1,1,0.3500,-0.5250,0.6750*
1,1,0.3500,0.5250,0.6750*
%
%ADD23ROUNDEDRECTD23*%
G04:AMPARAMS|DCode=24|XSize=0.6mm|YSize=0.7mm|CornerRadius=0.075mm|HoleSize=0mm|Usage=FLASHONLY|Rotation=270.000|XOffset=0mm|YOffset=0mm|HoleType=Round|Shape=RoundedRectangle|*
%AMROUNDEDRECTD24*
21,1,0.6000,0.5500,0,0,270.0*
21,1,0.4500,0.7000,0,0,270.0*
1,1,0.1500,-0.2750,-0.2250*
1,1,0.1500,-0.2750,0.2250*
1,1,0.1500,0.2750,0.2250*
1,1,0.1500,0.2750,-0.2250*
%
%ADD24ROUNDEDRECTD24*%
%ADD25R,1.8400X1.8000*%
G04:AMPARAMS|DCode=26|XSize=0.8mm|YSize=1mm|CornerRadius=0.1mm|HoleSize=0mm|Usage=FLASHONLY|Rotation=90.000|XOffset=0mm|YOffset=0mm|HoleType=Round|Shape=RoundedRectangle|*
%AMROUNDEDRECTD26*
21,1,0.8000,0.8000,0,0,90.0*
21,1,0.6000,1.0000,0,0,90.0*
1,1,0.2000,0.4000,0.3000*
1,1,0.2000,0.4000,-0.3000*
1,1,0.2000,-0.4000,-0.3000*
1,1,0.2000,-0.4000,0.3000*
%
%ADD26ROUNDEDRECTD26*%
G04:AMPARAMS|DCode=27|XSize=1mm|YSize=1.7mm|CornerRadius=0.125mm|HoleSize=0mm|Usage=FLASHONLY|Rotation=90.000|XOffset=0mm|YOffset=0mm|HoleType=Round|Shape=RoundedRectangle|*
%AMROUNDEDRECTD27*
21,1,1.0000,1.4500,0,0,90.0*
21,1,0.7500,1.7000,0,0,90.0*
1,1,0.2500,0.7250,0.3750*
1,1,0.2500,0.7250,-0.3750*
1,1,0.2500,-0.7250,-0.3750*
1,1,0.2500,-0.7250,0.3750*
%
%ADD27ROUNDEDRECTD27*%
G04:AMPARAMS|DCode=28|XSize=1.4mm|YSize=1.7mm|CornerRadius=0.175mm|HoleSize=0mm|Usage=FLASHONLY|Rotation=270.000|XOffset=0mm|YOffset=0mm|HoleType=Round|Shape=RoundedRectangle|*
%AMROUNDEDRECTD28*
21,1,1.4000,1.3500,0,0,270.0*
21,1,1.0500,1.7000,0,0,270.0*
1,1,0.3500,-0.6750,-0.5250*
1,1,0.3500,-0.6750,0.5250*
1,1,0.3500,0.6750,0.5250*
1,1,0.3500,0.6750,-0.5250*
%
%ADD28ROUNDEDRECTD28*%
%ADD52R,1.6500X1.6500*%
%ADD53O,1.6500X1.6500*%
%ADD54C,1.2800*%
%ADD55R,1.2800X1.2800*%
%ADD56C,1.6002*%
%ADD57C,1.2180*%
%ADD58R,1.2180X1.2180*%
%ADD59C,1.6500*%
%ADD60R,1.6500X1.6500*%
%ADD61R,1.3700X1.3700*%
%ADD62C,1.3700*%
%ADD63C,1.8796*%
%ADD64C,1.5240*%
D20*
X1042400Y84500D02*
D03*
X997600D02*
D03*
X1042400Y175500D02*
D03*
X997600D02*
D03*
X1242400Y84500D02*
D03*
X1197600D02*
D03*
X1242400Y175500D02*
D03*
X1197600D02*
D03*
X1342400Y84500D02*
D03*
X1297600D02*
D03*
X1342400Y175500D02*
D03*
X1297600D02*
D03*
X1142400Y84500D02*
D03*
X1097600D02*
D03*
X1142400Y175500D02*
D03*
X1097600D02*
D03*
D21*
X1278000Y220000D02*
D03*
X1297000D02*
D03*
X1404500Y85000D02*
D03*
X1385500D02*
D03*
X1472590Y72390D02*
D03*
X1491590D02*
D03*
X1097000Y220000D02*
D03*
X1078000D02*
D03*
X997000D02*
D03*
X978000D02*
D03*
X1197000D02*
D03*
X1178000D02*
D03*
X1816090Y303430D02*
D03*
X1835090D02*
D03*
X2016120Y81020D02*
D03*
X1997120D02*
D03*
X1816090Y264450D02*
D03*
X1835090D02*
D03*
D22*
X1524265Y93980D02*
D03*
Y106680D02*
D03*
Y119380D02*
D03*
Y132080D02*
D03*
X1474865D02*
D03*
Y119380D02*
D03*
Y106680D02*
D03*
Y93980D02*
D03*
D23*
X933760Y130810D02*
D03*
X956620D02*
D03*
X1963522Y264160D02*
D03*
X1940662D02*
D03*
X1865760Y303430D02*
D03*
X1888620D02*
D03*
X1888620Y264450D02*
D03*
X1865760D02*
D03*
D24*
X125046Y269854D02*
D03*
Y259854D02*
D03*
D25*
X124460Y237250D02*
D03*
Y207250D02*
D03*
D26*
X236456Y91560D02*
D03*
Y106560D02*
D03*
X160520D02*
D03*
Y91560D02*
D03*
D27*
Y65380D02*
D03*
Y46380D02*
D03*
X236456Y65170D02*
D03*
Y46170D02*
D03*
X504990Y243180D02*
D03*
Y224180D02*
D03*
X530390Y243180D02*
D03*
Y224180D02*
D03*
X1567180Y145390D02*
D03*
Y126390D02*
D03*
X2032000Y295300D02*
D03*
Y314300D02*
D03*
X1993320D02*
D03*
Y295300D02*
D03*
X956620Y174500D02*
D03*
Y155500D02*
D03*
D28*
X1402620Y146050D02*
D03*
Y123190D02*
D03*
X1433610Y146050D02*
D03*
Y123190D02*
D03*
X2033820Y154880D02*
D03*
Y132020D02*
D03*
X1385620Y228020D02*
D03*
Y250880D02*
D03*
X1416620Y228020D02*
D03*
Y250880D02*
D03*
X2006600Y154940D02*
D03*
Y132080D02*
D03*
D52*
X352590Y46414D02*
D03*
Y296414D02*
D03*
D53*
X377990Y46414D02*
D03*
X403390D02*
D03*
X428790D02*
D03*
X455435Y46659D02*
D03*
X479590Y46414D02*
D03*
X504990D02*
D03*
X530390D02*
D03*
X555790D02*
D03*
X581190D02*
D03*
X657390Y296414D02*
D03*
X631990D02*
D03*
X606590D02*
D03*
X581190D02*
D03*
X555790D02*
D03*
X530390D02*
D03*
X504990D02*
D03*
X480835D02*
D03*
X454190D02*
D03*
X428790D02*
D03*
X403390D02*
D03*
X377990D02*
D03*
X708190D02*
D03*
X682790D02*
D03*
X733590D02*
D03*
D54*
X472440Y177400D02*
D03*
X656780Y160420D02*
D03*
D55*
X472440Y127400D02*
D03*
X656780Y210420D02*
D03*
D56*
X1468120Y278130D02*
D03*
Y252730D02*
D03*
Y227330D02*
D03*
Y201930D02*
D03*
X1544320D02*
D03*
Y227330D02*
D03*
Y252730D02*
D03*
Y278130D02*
D03*
D57*
X2004060Y198470D02*
D03*
Y223870D02*
D03*
D58*
Y249270D02*
D03*
D59*
X1788632Y230286D02*
D03*
X1814032D02*
D03*
X1839432D02*
D03*
X1864832D02*
D03*
X1890232D02*
D03*
X1915632D02*
D03*
D60*
X1941032D02*
D03*
D61*
X2463120Y264850D02*
D03*
X40760Y265250D02*
D03*
D62*
X2488520Y264850D02*
D03*
X2463120Y239450D02*
D03*
X2488520D02*
D03*
X2463120Y214050D02*
D03*
X2488520D02*
D03*
X2463120Y188650D02*
D03*
X2488520D02*
D03*
X2463120Y163250D02*
D03*
X2488520D02*
D03*
X2463120Y137850D02*
D03*
X2488520D02*
D03*
X2463120Y112450D02*
D03*
X2488520D02*
D03*
X66160Y112850D02*
D03*
X40760D02*
D03*
X66160Y138250D02*
D03*
Y163650D02*
D03*
Y189050D02*
D03*
Y214450D02*
D03*
Y239850D02*
D03*
X40760D02*
D03*
X66160Y265250D02*
D03*
X40760Y138250D02*
D03*
Y189050D02*
D03*
Y214450D02*
D03*
Y163650D02*
D03*
D63*
X185920Y138302D02*
D03*
X236720D02*
D03*
X211320D02*
D03*
X160520D02*
D03*
D64*
X2066160Y132362D02*
D03*
Y157762D02*
D03*
Y183162D02*
D03*
Y208562D02*
D03*
M02*
