M48
;Layer_Color=9474304
;FILE_FORMAT=4:4
METRIC,LZ
;TYPE=PLATED
T01F00S00C0.4000
T02F00S00C0.4000
T03F00S00C0.5000
T04F00S00C0.7100
T05F00S00C0.8128
T06F00S00C0.8500
T07F00S00C0.9144
T08F00S00C1.0160
T09F00S00C1.0200
T10F00S00C1.1000
%
T01
X009675Y000675
X0095631Y00090406
X010325Y0004
X0159486Y0008102
X0196596
X0203562
X0203379Y0011684
X0200663
X01963277Y00281593
X01905Y0026416
X0188862Y0028702
X018669Y0028448
T02
X00045484Y0002947
X00096284
X00147084
X0016052Y0003048
X00121684Y0008027
X00070884
X00096284Y0013107
X00147084
X00172484Y0018187
X00147084Y0023267
X00141483Y00269806
X00121684Y0028347
X00172484
X00070884
X00223284
X00274084
X00324884
X00350284Y0023267
X00401084
X00451884
X00477284Y0028347
X00426484
Y0018187
X00375684
X00324884
X00274084
X00223284
X00248684Y0023267
X00299484
Y0013107
X00350284
X00401084
X00451884
X00502684
X0050499Y0016002
X00528084Y0018187
X0050499Y00205755
X00578884Y0018187
X00553484Y0013107
X0053126Y0012065
X00578884Y0008027
X00477284
X00426484
X00375684
X00324884
X00274084
X00223284
X00236456Y0003048
X00248684Y0002947
X00299484
X00350284
X00197884
Y0013107
X00248684
X00197884Y0023267
X00578884Y0028347
X00629684
X00604284Y0023267
X00629684Y0018187
X00616482Y0016296
X00604284Y0013107
X00629684Y0008027
X00680484
X00731284
X00782084
X00832884
X00883684
X00934484
X00947327Y00044913
X00959884Y0002947
X0093376Y0014605
X00934484Y0018187
X00883684
X00832884
X00782084
X00731284
X00680484
X00705884Y0023267
X00756684
X00807484
X00858284
X00909084
X00959884
X00934484Y0028347
X00883684
X00832884
X00782084
X00731284
X00985284
X01036084
X01086884
X01137684
X01188484
X01239284
X01290084
X01340884
X01366284Y0023267
X01315484
X01264684
X01213884
X01163084
X01112284
X01061484
X01010684
X00985284Y0018187
X01010684Y0013107
X01061484
X01112284
X01163084
X01213884
X01264684
X01315484
Y0002947
X01366284
X01264684
X01213884
X01163084
X01112284
X01061484
X01010684
X00985284Y0008027
X01442484
X01467884Y0002947
X01518684
X01569484
X01620284
X01671084
X01721884
X01772684
Y0013107
X01721884
X01671084
X01620284
X01645684Y0018187
X01696484
X01747284
X01772684Y0023267
X01721884
X01671084
X01620284
X01569484
X01518684
X01544084Y0018187
X01578Y0016787
X01594884Y0018187
Y0028347
X01645684
X01696484
X01747284
X01493284
X01442484
X01391684
X0138562Y0021336
X0141662
X01391684Y0018187
X0140262Y0016129
X0143361
X01442484Y0018187
X01493284
X01524265Y0014478
X01544084Y0008027
X01417084Y0013107
Y0002947
X01823484
X01874284
X01925084
X01975884
X02026684
X02077484
X02128284
X02153684Y0008027
X02102884
X02052084
Y0018187
X02102884
X02153684
X02128284Y0023267
X02077484
X02102884Y0028347
X02153684
X02052084
X0204978Y0031369
X02001284Y0028347
X01950484
X01899684
X01848884
Y0018187
X01899684
X01925084Y0013107
X01975884
X0197104Y0019812
X01975884Y0023267
X02001284Y0018187
X02128284Y0013107
X01874284
X01823484
X01798084Y0018187
X02204484
X02255284
X02306084
X02356884
X02407684
X02433084Y0023267
X02382284
X02331484
X02280684
X02229884
X02179084
X02204484Y0028347
X02255284
X02306084
X02356884
X02407684
X02458484
X02509284
Y0018187
Y0008027
X02458484
X02407684
X02356884
X02306084
X02255284
X02204484
X02229884Y0013107
X02280684
X02331484
X02382284
X02433084
Y0002947
X02483884
X02382284
X02331484
X02280684
X02229884
X02179084
Y0013107
T03
X015367Y0032004
T04
X0200406Y0019847
Y0022387
Y0024927
T05
X0146812Y0020193
Y0022733
Y0025273
Y0027813
X0154432
Y0025273
Y0022733
Y0020193
T06
X0047244Y001274
Y001774
X0065678Y0016042
Y0021042
T07
X0206616Y00132362
Y00157762
Y00183162
Y00208562
T08
X0016052Y00138302
X0018592
X0021132
X0023672
T09
X0004076Y0011285
X0006616
Y0013825
Y0016365
Y0018905
Y0021445
Y0023985
X0004076
Y0026525
X0006616
X0004076Y0021445
Y0018905
Y0016365
Y0013825
X0246312Y0013785
Y0016325
Y0018865
Y0021405
Y0023945
Y0026485
X0248852
Y0023945
Y0021405
Y0018865
Y0016325
Y0013785
Y0011245
X0246312
T10
X0035259Y00046414
X0037799
X0040339
X0042879
X00455435Y00046659
X0047959Y00046414
X0050499
X0053039
X0055579
X0058119
Y00296414
X0055579
X0053039
X0050499
X00480835
X0045419
X0042879
X0040339
X0037799
X0035259
X0060659
X0063199
X0065739
X0068279
X0070819
X0073359
X01788632Y00230286
X01814032
X01839432
X01864832
X01890232
X01915632
X01941032
M30
