G04*
G04 #@! TF.GenerationSoftware,Altium Limited,Altium Designer,25.8.1 (18)*
G04*
G04 Layer_Color=65535*
%FSLAX44Y44*%
%MOMM*%
G71*
G04*
G04 #@! TF.SameCoordinates,57F80322-994B-4A8F-A2F4-5028E090627E*
G04*
G04*
G04 #@! TF.FilePolarity,Positive*
G04*
G01*
G75*
%ADD10C,0.2000*%
%ADD11C,0.0635*%
%ADD12C,0.1524*%
%ADD13C,0.2540*%
%ADD14C,1.7500*%
%ADD15C,0.2600*%
%ADD16C,0.1000*%
%ADD17C,0.1270*%
%ADD18C,0.2032*%
%ADD19C,0.1009*%
G36*
X2183762Y235582D02*
X2168762D01*
Y245582D01*
X2183762D01*
Y235582D01*
D02*
G37*
G36*
X2349910Y235462D02*
X2334910D01*
Y245462D01*
X2349910D01*
Y235462D01*
D02*
G37*
G36*
X2124910Y230462D02*
X2114910D01*
Y240462D01*
X2124910D01*
Y230462D01*
D02*
G37*
G36*
X2183762Y220582D02*
X2168762D01*
Y230582D01*
X2183762D01*
Y220582D01*
D02*
G37*
G36*
X2349910Y220462D02*
X2334910D01*
Y230462D01*
X2349910D01*
Y220462D01*
D02*
G37*
G36*
X2183762Y205582D02*
X2168762D01*
Y215582D01*
X2183762D01*
Y205582D01*
D02*
G37*
G36*
X2349910Y205462D02*
X2334910D01*
Y215462D01*
X2349910D01*
Y205462D01*
D02*
G37*
G36*
X2129910Y200462D02*
X2124910D01*
Y210462D01*
X2129910D01*
Y200462D01*
D02*
G37*
G36*
X2114910D02*
X2109910D01*
Y210462D01*
X2114910D01*
Y200462D01*
D02*
G37*
G36*
X2183762Y190582D02*
X2168762D01*
Y200582D01*
X2183762D01*
Y190582D01*
D02*
G37*
G36*
X2349910Y190462D02*
X2334910D01*
Y200462D01*
X2349910D01*
Y190462D01*
D02*
G37*
G36*
X2183762Y175582D02*
X2168762D01*
Y185582D01*
X2183762D01*
Y175582D01*
D02*
G37*
G36*
X2349910Y175462D02*
X2334910D01*
Y185462D01*
X2349910D01*
Y175462D01*
D02*
G37*
G36*
X2139910Y165462D02*
X2129910D01*
Y185462D01*
X2139910D01*
Y165462D01*
D02*
G37*
G36*
X2109910D02*
X2099910D01*
Y185462D01*
X2109910D01*
Y165462D01*
D02*
G37*
G36*
X2183762Y160582D02*
X2168762D01*
Y170582D01*
X2183762D01*
Y160582D01*
D02*
G37*
G36*
X2349910Y160462D02*
X2334910D01*
Y170462D01*
X2349910D01*
Y160462D01*
D02*
G37*
G36*
X2139910Y125462D02*
X2129910D01*
Y145462D01*
X2139910D01*
Y125462D01*
D02*
G37*
G36*
X2124910D02*
X2114910D01*
Y145462D01*
X2124910D01*
Y125462D01*
D02*
G37*
G36*
X2109910D02*
X2099910D01*
Y145462D01*
X2109910D01*
Y125462D01*
D02*
G37*
G36*
X2183762Y115582D02*
X2168762D01*
Y125582D01*
X2183762D01*
Y115582D01*
D02*
G37*
G36*
X2349910Y115462D02*
X2334910D01*
Y125462D01*
X2349910D01*
Y115462D01*
D02*
G37*
G36*
X2364910Y105462D02*
X2354910D01*
Y115462D01*
X2364910D01*
Y105462D01*
D02*
G37*
G36*
X2183762Y100582D02*
X2168762D01*
Y110582D01*
X2183762D01*
Y100582D01*
D02*
G37*
G36*
X2349910Y100462D02*
X2334910D01*
Y110462D01*
X2349910D01*
Y100462D01*
D02*
G37*
G36*
X2183762Y85582D02*
X2168762D01*
Y95582D01*
X2183762D01*
Y85582D01*
D02*
G37*
G36*
X2349910Y85462D02*
X2334910D01*
Y95462D01*
X2349910D01*
Y85462D01*
D02*
G37*
G36*
X24117Y63840D02*
X24392D01*
Y63794D01*
X24621D01*
Y63748D01*
X24850D01*
Y63702D01*
X25033D01*
Y63656D01*
X25171D01*
Y63610D01*
X25354D01*
Y63565D01*
X25492D01*
Y63519D01*
X25629D01*
Y63473D01*
X25767D01*
Y63427D01*
X25858D01*
Y63381D01*
X25996D01*
Y63335D01*
X26088D01*
Y63290D01*
X26179D01*
Y63244D01*
X26271D01*
Y63198D01*
X26363D01*
Y63152D01*
X26454D01*
Y63106D01*
X26546D01*
Y63060D01*
X26637D01*
Y63015D01*
X26729D01*
Y62969D01*
X26775D01*
Y62923D01*
X26867D01*
Y62877D01*
X26913D01*
Y62831D01*
X27004D01*
Y62785D01*
X27050D01*
Y62740D01*
X27142D01*
Y62694D01*
X27188D01*
Y62648D01*
X27233D01*
Y62602D01*
X27325D01*
Y62556D01*
X27371D01*
Y62510D01*
X27417D01*
Y62465D01*
X27462D01*
Y62419D01*
X27508D01*
Y62373D01*
X27554D01*
Y62327D01*
X27646D01*
Y62281D01*
X27692D01*
Y62235D01*
X27738D01*
Y62190D01*
X27783D01*
Y62144D01*
X27829D01*
Y62052D01*
X27875D01*
Y62006D01*
X27921D01*
Y61960D01*
X27967D01*
Y61915D01*
X28012D01*
Y61869D01*
X28058D01*
Y61823D01*
X28104D01*
Y61731D01*
X28150D01*
Y61685D01*
X28196D01*
Y61640D01*
X28242D01*
Y61548D01*
X28287D01*
Y61502D01*
X28333D01*
Y61410D01*
X28379D01*
Y61365D01*
X28425D01*
Y61273D01*
X28471D01*
Y61181D01*
X28517D01*
Y61090D01*
X28563D01*
Y61044D01*
X28608D01*
Y60952D01*
X28654D01*
Y60860D01*
X28700D01*
Y60723D01*
X28746D01*
Y60631D01*
X28792D01*
Y60540D01*
X28837D01*
Y60402D01*
X28883D01*
Y60265D01*
X28929D01*
Y60127D01*
X28975D01*
Y59990D01*
X29021D01*
Y59806D01*
X29067D01*
Y59623D01*
X29113D01*
Y59394D01*
X29158D01*
Y59119D01*
X29204D01*
Y58706D01*
X29250D01*
Y34735D01*
X27783D01*
Y58340D01*
X27738D01*
Y58935D01*
X27692D01*
Y59256D01*
X27646D01*
Y59531D01*
X27600D01*
Y59760D01*
X27554D01*
Y59944D01*
X27508D01*
Y60127D01*
X27462D01*
Y60265D01*
X27417D01*
Y60402D01*
X27371D01*
Y60540D01*
X27325D01*
Y60677D01*
X27279D01*
Y60769D01*
X27233D01*
Y60860D01*
X27188D01*
Y60998D01*
X27142D01*
Y61090D01*
X27096D01*
Y61181D01*
X27050D01*
Y61273D01*
X27004D01*
Y61319D01*
X26958D01*
Y61365D01*
Y61410D01*
X26913D01*
Y61502D01*
X26867D01*
Y61548D01*
X26821D01*
Y61640D01*
X26775D01*
Y61685D01*
X26729D01*
Y61777D01*
X26683D01*
Y61823D01*
X26637D01*
Y61915D01*
X26592D01*
Y61960D01*
X26546D01*
Y62006D01*
X26500D01*
Y62052D01*
X26454D01*
Y62144D01*
X26408D01*
Y62190D01*
X26363D01*
Y62235D01*
X26317D01*
Y62281D01*
X26271D01*
Y62327D01*
X26225D01*
Y62373D01*
X26179D01*
Y62419D01*
X26133D01*
Y62465D01*
X26088D01*
Y62510D01*
X26042D01*
Y62556D01*
X25996D01*
Y62602D01*
X25950D01*
Y62648D01*
X25904D01*
Y62694D01*
X25858D01*
Y62740D01*
X25812D01*
Y62785D01*
X25767D01*
Y62831D01*
X25675D01*
Y62877D01*
X25629D01*
Y62923D01*
X25583D01*
Y62969D01*
X25492D01*
Y63015D01*
X25446D01*
Y63060D01*
X25400D01*
Y63106D01*
X25308D01*
Y63152D01*
X25262D01*
Y63198D01*
X25171D01*
Y63244D01*
X25125D01*
Y63290D01*
X25033D01*
Y63335D01*
X24942D01*
Y63381D01*
X24896D01*
Y63427D01*
X24804D01*
Y63473D01*
X24713D01*
Y63519D01*
X24621D01*
Y63565D01*
X24529D01*
Y63610D01*
X24437D01*
Y63656D01*
X24346D01*
Y63702D01*
X24254D01*
Y63748D01*
X24162D01*
Y63794D01*
X24071D01*
Y63840D01*
X24025D01*
Y63885D01*
X24117D01*
Y63840D01*
D02*
G37*
G36*
X22925Y63794D02*
X23063D01*
Y63748D01*
X23200D01*
Y63702D01*
X23338D01*
Y63656D01*
X23429D01*
Y63610D01*
X23567D01*
Y63565D01*
X23658D01*
Y63519D01*
X23750D01*
Y63473D01*
X23888D01*
Y63427D01*
X23979D01*
Y63381D01*
X24071D01*
Y63335D01*
X24162D01*
Y63290D01*
X24254D01*
Y63244D01*
X24300D01*
Y63198D01*
X24392D01*
Y63152D01*
X24483D01*
Y63106D01*
X24529D01*
Y63060D01*
X24621D01*
Y63015D01*
X24667D01*
Y62969D01*
X24758D01*
Y62923D01*
X24804D01*
Y62877D01*
X24896D01*
Y62831D01*
X24942D01*
Y62785D01*
X25033D01*
Y62740D01*
X25079D01*
Y62694D01*
X25125D01*
Y62648D01*
X25171D01*
Y62602D01*
X25217D01*
Y62556D01*
X25308D01*
Y62510D01*
X25354D01*
Y62465D01*
X25400D01*
Y62419D01*
X25446D01*
Y62373D01*
X25492D01*
Y62327D01*
X25538D01*
Y62281D01*
X25583D01*
Y62235D01*
X25629D01*
Y62190D01*
X25675D01*
Y62098D01*
X25721D01*
Y62052D01*
X25767D01*
Y62006D01*
X25812D01*
Y61960D01*
X25858D01*
Y61915D01*
X25904D01*
Y61823D01*
X25950D01*
Y61777D01*
X25996D01*
Y61685D01*
X26042D01*
Y61640D01*
X26088D01*
Y61548D01*
X26133D01*
Y61502D01*
X26179D01*
Y61410D01*
X26225D01*
Y61319D01*
X26271D01*
Y61273D01*
X26317D01*
Y61181D01*
X26363D01*
Y61090D01*
X26408D01*
Y60998D01*
X26454D01*
Y60860D01*
X26500D01*
Y60769D01*
X26546D01*
Y60677D01*
X26592D01*
Y60540D01*
X26637D01*
Y60402D01*
X26683D01*
Y60265D01*
X26729D01*
Y60081D01*
X26775D01*
Y59944D01*
X26821D01*
Y59715D01*
X26867D01*
Y59485D01*
X26913D01*
Y59210D01*
X26958D01*
Y58798D01*
X27004D01*
Y47110D01*
Y47065D01*
Y34735D01*
X25538D01*
Y58431D01*
X25492D01*
Y59073D01*
X25446D01*
Y59440D01*
X25400D01*
Y59715D01*
X25354D01*
Y59944D01*
X25308D01*
Y60173D01*
X25262D01*
Y60356D01*
X25217D01*
Y60494D01*
X25171D01*
Y60677D01*
X25125D01*
Y60815D01*
X25079D01*
Y60952D01*
X25033D01*
Y61044D01*
X24987D01*
Y61181D01*
X24942D01*
Y61273D01*
X24896D01*
Y61410D01*
X24850D01*
Y61502D01*
X24804D01*
Y61594D01*
X24758D01*
Y61685D01*
X24713D01*
Y61777D01*
X24667D01*
Y61823D01*
X24621D01*
Y61915D01*
X24575D01*
Y62006D01*
X24529D01*
Y62098D01*
X24483D01*
Y62144D01*
X24437D01*
Y62235D01*
X24392D01*
Y62281D01*
X24346D01*
Y62327D01*
X24300D01*
Y62419D01*
X24254D01*
Y62465D01*
X24208D01*
Y62510D01*
X24162D01*
Y62602D01*
X24117D01*
Y62648D01*
X24071D01*
Y62694D01*
X24025D01*
Y62740D01*
X23979D01*
Y62785D01*
X23933D01*
Y62877D01*
X23888D01*
Y62923D01*
X23842D01*
Y62969D01*
X23796D01*
Y63015D01*
X23750D01*
Y63060D01*
X23704D01*
Y63106D01*
X23658D01*
Y63152D01*
X23612D01*
Y63198D01*
X23567D01*
Y63244D01*
X23521D01*
Y63290D01*
X23475D01*
Y63335D01*
X23383D01*
Y63381D01*
X23338D01*
Y63427D01*
X23292D01*
Y63473D01*
X23246D01*
Y63519D01*
X23200D01*
Y63565D01*
X23108D01*
Y63610D01*
X23063D01*
Y63656D01*
X23017D01*
Y63702D01*
X22925D01*
Y63748D01*
X22879D01*
Y63794D01*
X22833D01*
Y63840D01*
X22925D01*
Y63794D01*
D02*
G37*
G36*
X21917D02*
X22008D01*
Y63748D01*
X22100D01*
Y63702D01*
X22146D01*
Y63656D01*
X22238D01*
Y63610D01*
X22329D01*
Y63565D01*
X22375D01*
Y63519D01*
X22467D01*
Y63473D01*
X22513D01*
Y63427D01*
X22604D01*
Y63381D01*
X22650D01*
Y63335D01*
X22696D01*
Y63290D01*
X22787D01*
Y63244D01*
X22833D01*
Y63198D01*
X22879D01*
Y63152D01*
X22925D01*
Y63106D01*
X22971D01*
Y63060D01*
X23017D01*
Y63015D01*
X23063D01*
Y62969D01*
X23108D01*
Y62923D01*
X23154D01*
Y62877D01*
X23200D01*
Y62831D01*
X23246D01*
Y62785D01*
X23292D01*
Y62740D01*
X23338D01*
Y62694D01*
X23383D01*
Y62648D01*
X23429D01*
Y62602D01*
X23475D01*
Y62556D01*
X23521D01*
Y62465D01*
X23567D01*
Y62419D01*
X23612D01*
Y62373D01*
X23658D01*
Y62281D01*
X23704D01*
Y62235D01*
X23750D01*
Y62144D01*
X23796D01*
Y62098D01*
X23842D01*
Y62006D01*
X23888D01*
Y61915D01*
X23933D01*
Y61869D01*
X23979D01*
Y61777D01*
X24025D01*
Y61685D01*
X24071D01*
Y61594D01*
X24117D01*
Y61502D01*
X24162D01*
Y61365D01*
X24208D01*
Y61273D01*
X24254D01*
Y61135D01*
X24300D01*
Y61044D01*
X24346D01*
Y60906D01*
X24392D01*
Y60769D01*
X24437D01*
Y60585D01*
X24483D01*
Y60402D01*
X24529D01*
Y60219D01*
X24575D01*
Y59990D01*
X24621D01*
Y59760D01*
X24667D01*
Y59440D01*
X24713D01*
Y58981D01*
X24758D01*
Y34735D01*
X23292D01*
Y58431D01*
X23246D01*
Y59394D01*
X23200D01*
Y59806D01*
Y59852D01*
Y59944D01*
X23154D01*
Y60356D01*
X23108D01*
Y60677D01*
X23063D01*
Y60952D01*
X23017D01*
Y61227D01*
X22971D01*
Y61410D01*
X22925D01*
Y61640D01*
X22879D01*
Y61823D01*
X22833D01*
Y61960D01*
X22787D01*
Y62144D01*
X22742D01*
Y62281D01*
X22696D01*
Y62373D01*
X22650D01*
Y62510D01*
X22604D01*
Y62648D01*
X22558D01*
Y62740D01*
X22513D01*
Y62831D01*
X22467D01*
Y62923D01*
X22421D01*
Y63015D01*
X22375D01*
Y63106D01*
X22329D01*
Y63198D01*
X22283D01*
Y63290D01*
X22238D01*
Y63335D01*
X22192D01*
Y63427D01*
X22146D01*
Y63473D01*
X22100D01*
Y63565D01*
X22054D01*
Y63610D01*
X22008D01*
Y63656D01*
X21962D01*
Y63702D01*
X21917D01*
Y63794D01*
X21871D01*
Y63840D01*
X21917D01*
Y63794D01*
D02*
G37*
G36*
X35254Y39456D02*
Y39410D01*
Y36477D01*
X35208D01*
Y35881D01*
X35162D01*
Y35560D01*
X35117D01*
Y35285D01*
X35071D01*
Y35056D01*
X35025D01*
Y34873D01*
X34979D01*
Y34690D01*
X34933D01*
Y34552D01*
X34887D01*
Y34415D01*
X34842D01*
Y34277D01*
X34796D01*
Y34185D01*
X34750D01*
Y34048D01*
X34704D01*
Y33956D01*
X34658D01*
Y33865D01*
X34613D01*
Y33773D01*
X34567D01*
Y33681D01*
X34521D01*
Y33590D01*
X34475D01*
Y33498D01*
X34429D01*
Y33406D01*
X34383D01*
Y33360D01*
X34337D01*
Y33269D01*
X34292D01*
Y33223D01*
X34246D01*
Y33131D01*
X34200D01*
Y33085D01*
X34154D01*
Y32994D01*
X34108D01*
Y32948D01*
X34062D01*
Y32902D01*
X34017D01*
Y32856D01*
X33971D01*
Y32765D01*
X33925D01*
Y32719D01*
X33879D01*
Y32673D01*
X33833D01*
Y32627D01*
X33788D01*
Y32581D01*
X33742D01*
Y32535D01*
X33696D01*
Y32490D01*
X33650D01*
Y32444D01*
X33604D01*
Y32398D01*
X33558D01*
Y32352D01*
X33512D01*
Y32306D01*
X33467D01*
Y32260D01*
X33375D01*
Y32215D01*
X33329D01*
Y32169D01*
X33283D01*
Y32123D01*
X33238D01*
Y32077D01*
X33146D01*
Y32031D01*
X33100D01*
Y31985D01*
X33054D01*
Y31940D01*
X32963D01*
Y31894D01*
X32917D01*
Y31848D01*
X32825D01*
Y31802D01*
X32733D01*
Y31756D01*
X32687D01*
Y31710D01*
X32596D01*
Y31665D01*
X32504D01*
Y31619D01*
X32458D01*
Y31573D01*
X32367D01*
Y31527D01*
X32275D01*
Y31481D01*
X32183D01*
Y31435D01*
X32092D01*
Y31390D01*
X31954D01*
Y31344D01*
X31862D01*
Y31298D01*
X31771D01*
Y31252D01*
X31633D01*
Y31206D01*
X31496D01*
Y31160D01*
X31404D01*
Y31115D01*
X31267D01*
Y31069D01*
X31129D01*
Y31115D01*
X31175D01*
Y31160D01*
X31221D01*
Y31206D01*
X31312D01*
Y31252D01*
X31358D01*
Y31298D01*
X31404D01*
Y31344D01*
X31450D01*
Y31390D01*
X31542D01*
Y31435D01*
X31588D01*
Y31481D01*
X31633D01*
Y31527D01*
X31679D01*
Y31573D01*
X31725D01*
Y31619D01*
X31771D01*
Y31665D01*
X31817D01*
Y31710D01*
X31862D01*
Y31756D01*
X31908D01*
Y31802D01*
X31954D01*
Y31848D01*
X32000D01*
Y31894D01*
X32046D01*
Y31940D01*
X32092D01*
Y31985D01*
X32137D01*
Y32031D01*
X32183D01*
Y32077D01*
X32229D01*
Y32123D01*
X32275D01*
Y32169D01*
X32321D01*
Y32260D01*
X32367D01*
Y32306D01*
X32413D01*
Y32352D01*
X32458D01*
Y32444D01*
X32504D01*
Y32490D01*
X32550D01*
Y32535D01*
X32596D01*
Y32627D01*
X32642D01*
Y32673D01*
X32687D01*
Y32765D01*
X32733D01*
Y32810D01*
X32779D01*
Y32902D01*
X32825D01*
Y32994D01*
X32871D01*
Y33040D01*
X32917D01*
Y33131D01*
X32963D01*
Y33223D01*
X33008D01*
Y33315D01*
X33054D01*
Y33406D01*
X33100D01*
Y33544D01*
X33146D01*
Y33635D01*
X33192D01*
Y33727D01*
X33238D01*
Y33865D01*
X33283D01*
Y34002D01*
X33329D01*
Y34140D01*
X33375D01*
Y34277D01*
X33421D01*
Y34415D01*
X33467D01*
Y34598D01*
X33512D01*
Y34781D01*
X33558D01*
Y35010D01*
X33604D01*
Y35285D01*
X33650D01*
Y35606D01*
X33696D01*
Y36019D01*
X33742D01*
Y57148D01*
X35254D01*
Y39456D01*
D02*
G37*
G36*
X33008Y38540D02*
Y38494D01*
Y36340D01*
X32963D01*
Y35698D01*
X32917D01*
Y35331D01*
X32871D01*
Y35010D01*
X32825D01*
Y34781D01*
X32779D01*
Y34552D01*
X32733D01*
Y34369D01*
X32687D01*
Y34231D01*
X32642D01*
Y34048D01*
X32596D01*
Y33910D01*
X32550D01*
Y33773D01*
X32504D01*
Y33681D01*
X32458D01*
Y33544D01*
X32413D01*
Y33452D01*
X32367D01*
Y33360D01*
X32321D01*
Y33269D01*
X32275D01*
Y33177D01*
X32229D01*
Y33085D01*
X32183D01*
Y32994D01*
X32137D01*
Y32902D01*
X32092D01*
Y32810D01*
X32046D01*
Y32765D01*
X32000D01*
Y32673D01*
X31954D01*
Y32627D01*
X31908D01*
Y32535D01*
X31862D01*
Y32490D01*
X31817D01*
Y32444D01*
X31771D01*
Y32352D01*
X31725D01*
Y32306D01*
X31679D01*
Y32260D01*
X31633D01*
Y32215D01*
X31588D01*
Y32169D01*
X31542D01*
Y32077D01*
X31496D01*
Y32031D01*
X31450D01*
Y31985D01*
X31404D01*
Y31940D01*
X31358D01*
Y31894D01*
X31312D01*
Y31848D01*
X31267D01*
Y31802D01*
X31175D01*
Y31756D01*
X31129D01*
Y31710D01*
X31083D01*
Y31665D01*
X31037D01*
Y31619D01*
X30992D01*
Y31573D01*
X30900D01*
Y31527D01*
X30854D01*
Y31481D01*
X30808D01*
Y31435D01*
X30717D01*
Y31390D01*
X30671D01*
Y31344D01*
X30579D01*
Y31298D01*
X30533D01*
Y31252D01*
X30442D01*
Y31206D01*
X30350D01*
Y31160D01*
X30304D01*
Y31115D01*
X30213D01*
Y31069D01*
X30121D01*
Y31115D01*
X30167D01*
Y31160D01*
X30213D01*
Y31252D01*
X30258D01*
Y31298D01*
X30304D01*
Y31344D01*
X30350D01*
Y31435D01*
X30396D01*
Y31481D01*
X30442D01*
Y31573D01*
X30487D01*
Y31619D01*
X30533D01*
Y31710D01*
X30579D01*
Y31802D01*
X30625D01*
Y31894D01*
X30671D01*
Y31985D01*
X30717D01*
Y32077D01*
X30763D01*
Y32169D01*
X30808D01*
Y32306D01*
X30854D01*
Y32398D01*
X30900D01*
Y32535D01*
X30946D01*
Y32673D01*
X30992D01*
Y32810D01*
X31037D01*
Y32994D01*
X31083D01*
Y33131D01*
X31129D01*
Y33315D01*
X31175D01*
Y33544D01*
X31221D01*
Y33773D01*
X31267D01*
Y34048D01*
X31312D01*
Y34323D01*
X31358D01*
Y34690D01*
X31404D01*
Y35148D01*
X31450D01*
Y35790D01*
X31496D01*
Y57148D01*
X33008D01*
Y38540D01*
D02*
G37*
G36*
X37500Y36569D02*
X37454D01*
Y35973D01*
X37408D01*
Y35652D01*
X37362D01*
Y35377D01*
X37317D01*
Y35194D01*
X37271D01*
Y35010D01*
X37225D01*
Y34827D01*
X37179D01*
Y34690D01*
X37133D01*
Y34552D01*
X37088D01*
Y34415D01*
X37042D01*
Y34323D01*
X36996D01*
Y34185D01*
X36950D01*
Y34094D01*
X36904D01*
Y34002D01*
X36858D01*
Y33910D01*
X36813D01*
Y33819D01*
X36767D01*
Y33727D01*
X36721D01*
Y33635D01*
X36675D01*
Y33590D01*
X36629D01*
Y33498D01*
X36583D01*
Y33406D01*
X36537D01*
Y33360D01*
X36492D01*
Y33269D01*
X36446D01*
Y33223D01*
X36400D01*
Y33177D01*
X36354D01*
Y33085D01*
X36308D01*
Y33040D01*
X36263D01*
Y32994D01*
X36217D01*
Y32948D01*
X36171D01*
Y32856D01*
X36125D01*
Y32810D01*
X36079D01*
Y32765D01*
X36033D01*
Y32719D01*
X35988D01*
Y32673D01*
X35942D01*
Y32627D01*
X35896D01*
Y32581D01*
X35850D01*
Y32535D01*
X35804D01*
Y32490D01*
X35758D01*
Y32444D01*
X35667D01*
Y32398D01*
X35621D01*
Y32352D01*
X35575D01*
Y32306D01*
X35529D01*
Y32260D01*
X35483D01*
Y32215D01*
X35392D01*
Y32169D01*
X35346D01*
Y32123D01*
X35254D01*
Y32077D01*
X35208D01*
Y32031D01*
X35117D01*
Y31985D01*
X35071D01*
Y31940D01*
X34979D01*
Y31894D01*
X34933D01*
Y31848D01*
X34842D01*
Y31802D01*
X34750D01*
Y31756D01*
X34658D01*
Y31710D01*
X34567D01*
Y31665D01*
X34475D01*
Y31619D01*
X34383D01*
Y31573D01*
X34292D01*
Y31527D01*
X34200D01*
Y31481D01*
X34062D01*
Y31435D01*
X33925D01*
Y31390D01*
X33833D01*
Y31344D01*
X33696D01*
Y31298D01*
X33512D01*
Y31252D01*
X33375D01*
Y31206D01*
X33192D01*
Y31160D01*
X33008D01*
Y31115D01*
X32779D01*
Y31069D01*
X32550D01*
Y31023D01*
X32321D01*
Y31069D01*
X32413D01*
Y31115D01*
X32504D01*
Y31160D01*
X32596D01*
Y31206D01*
X32687D01*
Y31252D01*
X32779D01*
Y31298D01*
X32871D01*
Y31344D01*
X32917D01*
Y31390D01*
X33008D01*
Y31435D01*
X33100D01*
Y31481D01*
X33192D01*
Y31527D01*
X33238D01*
Y31573D01*
X33329D01*
Y31619D01*
X33421D01*
Y31665D01*
X33467D01*
Y31710D01*
X33512D01*
Y31756D01*
X33604D01*
Y31802D01*
X33650D01*
Y31848D01*
X33742D01*
Y31894D01*
X33788D01*
Y31940D01*
X33833D01*
Y31985D01*
X33925D01*
Y32031D01*
X33971D01*
Y32077D01*
X34017D01*
Y32123D01*
X34062D01*
Y32169D01*
X34108D01*
Y32215D01*
X34200D01*
Y32260D01*
X34246D01*
Y32306D01*
X34292D01*
Y32352D01*
X34337D01*
Y32398D01*
X34383D01*
Y32444D01*
X34429D01*
Y32490D01*
X34475D01*
Y32535D01*
X34521D01*
Y32581D01*
X34567D01*
Y32673D01*
X34613D01*
Y32719D01*
X34658D01*
Y32765D01*
X34704D01*
Y32810D01*
X34750D01*
Y32856D01*
X34796D01*
Y32948D01*
X34842D01*
Y32994D01*
X34887D01*
Y33040D01*
X34933D01*
Y33131D01*
X34979D01*
Y33177D01*
X35025D01*
Y33269D01*
X35071D01*
Y33315D01*
X35117D01*
Y33406D01*
X35162D01*
Y33498D01*
X35208D01*
Y33590D01*
X35254D01*
Y33635D01*
X35300D01*
Y33727D01*
X35346D01*
Y33819D01*
X35392D01*
Y33956D01*
X35438D01*
Y34048D01*
X35483D01*
Y34140D01*
X35529D01*
Y34277D01*
X35575D01*
Y34369D01*
X35621D01*
Y34506D01*
X35667D01*
Y34690D01*
X35712D01*
Y34827D01*
X35758D01*
Y35010D01*
X35804D01*
Y35194D01*
X35850D01*
Y35469D01*
X35896D01*
Y35744D01*
X35942D01*
Y36156D01*
X35988D01*
Y37944D01*
Y37990D01*
Y57148D01*
X37500D01*
Y36569D01*
D02*
G37*
G36*
X31129Y31023D02*
X31037D01*
Y31069D01*
X31129D01*
Y31023D01*
D02*
G37*
G36*
X30121D02*
X30075D01*
Y31069D01*
X30121D01*
Y31023D01*
D02*
G37*
G36*
X21046Y35927D02*
X21092D01*
Y35240D01*
X21137D01*
Y34735D01*
X21183D01*
Y34369D01*
X21229D01*
Y34094D01*
X21275D01*
Y33819D01*
X21321D01*
Y33590D01*
X21367D01*
Y33360D01*
X21412D01*
Y33177D01*
X21458D01*
Y32994D01*
X21504D01*
Y32856D01*
X21550D01*
Y32673D01*
X21596D01*
Y32535D01*
X21642D01*
Y32444D01*
X21688D01*
Y32306D01*
X21733D01*
Y32215D01*
X21779D01*
Y32077D01*
X21825D01*
Y31985D01*
X21871D01*
Y31894D01*
X21917D01*
Y31802D01*
X21962D01*
Y31710D01*
X22008D01*
Y31665D01*
X22054D01*
Y31573D01*
X22100D01*
Y31481D01*
X22146D01*
Y31435D01*
X22192D01*
Y31344D01*
X22238D01*
Y31298D01*
X22283D01*
Y31252D01*
X22329D01*
Y31160D01*
X22375D01*
Y31115D01*
X22421D01*
Y31069D01*
X22467D01*
Y31023D01*
X22421D01*
Y31069D01*
X22329D01*
Y31115D01*
X22238D01*
Y31160D01*
X22192D01*
Y31206D01*
X22100D01*
Y31252D01*
X22054D01*
Y31298D01*
X21962D01*
Y31344D01*
X21871D01*
Y31390D01*
X21825D01*
Y31435D01*
X21733D01*
Y31481D01*
X21688D01*
Y31527D01*
X21642D01*
Y31573D01*
X21550D01*
Y31619D01*
X21504D01*
Y31665D01*
X21458D01*
Y31710D01*
X21412D01*
Y31756D01*
X21367D01*
Y31802D01*
X21321D01*
Y31848D01*
X21275D01*
Y31894D01*
X21229D01*
Y31940D01*
X21137D01*
Y31985D01*
X21092D01*
Y32077D01*
X21046D01*
Y32123D01*
X21000D01*
Y32169D01*
X20954D01*
Y32215D01*
X20908D01*
Y32260D01*
X20863D01*
Y32306D01*
X20817D01*
Y32398D01*
X20771D01*
Y32444D01*
X20725D01*
Y32490D01*
X20679D01*
Y32581D01*
X20633D01*
Y32627D01*
X20587D01*
Y32673D01*
X20542D01*
Y32765D01*
X20496D01*
Y32856D01*
X20450D01*
Y32902D01*
X20404D01*
Y32994D01*
X20358D01*
Y33085D01*
X20312D01*
Y33131D01*
Y33177D01*
X20267D01*
Y33269D01*
X20221D01*
Y33360D01*
X20175D01*
Y33452D01*
X20129D01*
Y33590D01*
X20083D01*
Y33681D01*
X20038D01*
Y33819D01*
X19992D01*
Y33956D01*
X19946D01*
Y34094D01*
X19900D01*
Y34231D01*
X19854D01*
Y34415D01*
X19808D01*
Y34598D01*
X19763D01*
Y34827D01*
X19717D01*
Y35056D01*
X19671D01*
Y35377D01*
X19625D01*
Y35790D01*
X19579D01*
Y36615D01*
X19533D01*
Y57148D01*
X21046D01*
Y35927D01*
D02*
G37*
G36*
X18800Y36110D02*
X18846D01*
Y35652D01*
X18892D01*
Y35285D01*
X18937D01*
Y35056D01*
X18983D01*
Y34827D01*
X19029D01*
Y34644D01*
X19075D01*
Y34460D01*
X19121D01*
Y34277D01*
X19167D01*
Y34140D01*
X19212D01*
Y34002D01*
X19258D01*
Y33865D01*
X19304D01*
Y33773D01*
X19350D01*
Y33635D01*
X19396D01*
Y33544D01*
X19442D01*
Y33452D01*
X19488D01*
Y33360D01*
X19533D01*
Y33269D01*
X19579D01*
Y33177D01*
X19625D01*
Y33085D01*
X19671D01*
Y32994D01*
X19717D01*
Y32902D01*
X19763D01*
Y32856D01*
X19808D01*
Y32765D01*
X19854D01*
Y32673D01*
X19900D01*
Y32627D01*
X19946D01*
Y32581D01*
X19992D01*
Y32490D01*
X20038D01*
Y32444D01*
X20083D01*
Y32352D01*
X20129D01*
Y32306D01*
X20175D01*
Y32260D01*
X20221D01*
Y32215D01*
X20267D01*
Y32123D01*
X20312D01*
Y32077D01*
X20358D01*
Y32031D01*
X20404D01*
Y31985D01*
X20450D01*
Y31940D01*
X20496D01*
Y31894D01*
X20542D01*
Y31848D01*
X20587D01*
Y31802D01*
X20633D01*
Y31756D01*
X20679D01*
Y31710D01*
X20725D01*
Y31665D01*
X20771D01*
Y31619D01*
X20817D01*
Y31573D01*
X20863D01*
Y31527D01*
X20908D01*
Y31481D01*
X21000D01*
Y31435D01*
X21046D01*
Y31390D01*
X21092D01*
Y31344D01*
X21137D01*
Y31298D01*
X21183D01*
Y31252D01*
X21275D01*
Y31206D01*
X21321D01*
Y31160D01*
X21367D01*
Y31115D01*
X21458D01*
Y31069D01*
X21504D01*
Y31023D01*
X21412D01*
Y31069D01*
X21275D01*
Y31115D01*
X21137D01*
Y31160D01*
X21046D01*
Y31206D01*
X20908D01*
Y31252D01*
X20817D01*
Y31298D01*
X20679D01*
Y31344D01*
X20587D01*
Y31390D01*
X20496D01*
Y31435D01*
X20404D01*
Y31481D01*
X20267D01*
Y31527D01*
X20221D01*
Y31573D01*
X20129D01*
Y31619D01*
X20038D01*
Y31665D01*
X19946D01*
Y31710D01*
X19854D01*
Y31756D01*
X19808D01*
Y31802D01*
X19717D01*
Y31848D01*
X19671D01*
Y31894D01*
X19579D01*
Y31940D01*
X19533D01*
Y31985D01*
X19442D01*
Y32031D01*
X19396D01*
Y32077D01*
X19350D01*
Y32123D01*
X19258D01*
Y32169D01*
X19212D01*
Y32215D01*
X19167D01*
Y32260D01*
X19121D01*
Y32306D01*
X19075D01*
Y32352D01*
X18983D01*
Y32398D01*
X18937D01*
Y32444D01*
X18892D01*
Y32490D01*
X18846D01*
Y32535D01*
X18800D01*
Y32581D01*
X18754D01*
Y32627D01*
X18708D01*
Y32673D01*
X18663D01*
Y32765D01*
X18617D01*
Y32810D01*
X18571D01*
Y32856D01*
X18525D01*
Y32902D01*
X18479D01*
Y32948D01*
X18433D01*
Y33040D01*
X18388D01*
Y33085D01*
X18342D01*
Y33131D01*
X18296D01*
Y33223D01*
X18250D01*
Y33269D01*
X18204D01*
Y33360D01*
X18158D01*
Y33452D01*
X18112D01*
Y33498D01*
X18067D01*
Y33590D01*
X18021D01*
Y33681D01*
X17975D01*
Y33773D01*
X17929D01*
Y33865D01*
X17883D01*
Y33956D01*
X17838D01*
Y34048D01*
X17792D01*
Y34185D01*
X17746D01*
Y34323D01*
X17700D01*
Y34415D01*
X17654D01*
Y34552D01*
X17608D01*
Y34735D01*
X17563D01*
Y34919D01*
X17517D01*
Y35102D01*
X17471D01*
Y35331D01*
X17425D01*
Y35606D01*
X17379D01*
Y35973D01*
X17333D01*
Y36660D01*
X17287D01*
Y57148D01*
X18800D01*
Y36110D01*
D02*
G37*
G36*
X16554Y36202D02*
X16600D01*
Y35790D01*
X16646D01*
Y35469D01*
X16692D01*
Y35240D01*
X16738D01*
Y35056D01*
X16783D01*
Y34873D01*
X16829D01*
Y34690D01*
X16875D01*
Y34552D01*
X16921D01*
Y34415D01*
X16967D01*
Y34277D01*
X17012D01*
Y34185D01*
X17058D01*
Y34094D01*
Y34048D01*
X17104D01*
Y33956D01*
X17150D01*
Y33865D01*
X17196D01*
Y33773D01*
X17242D01*
Y33681D01*
X17287D01*
Y33590D01*
X17333D01*
Y33498D01*
X17379D01*
Y33406D01*
X17425D01*
Y33360D01*
X17471D01*
Y33269D01*
X17517D01*
Y33223D01*
X17563D01*
Y33131D01*
X17608D01*
Y33085D01*
X17654D01*
Y32994D01*
X17700D01*
Y32948D01*
X17746D01*
Y32902D01*
X17792D01*
Y32810D01*
X17838D01*
Y32765D01*
X17883D01*
Y32719D01*
X17929D01*
Y32673D01*
X17975D01*
Y32627D01*
X18021D01*
Y32581D01*
X18067D01*
Y32490D01*
X18112D01*
Y32444D01*
X18158D01*
Y32398D01*
X18204D01*
Y32352D01*
X18250D01*
Y32306D01*
X18342D01*
Y32260D01*
X18388D01*
Y32215D01*
X18433D01*
Y32169D01*
X18479D01*
Y32123D01*
X18525D01*
Y32077D01*
X18571D01*
Y32031D01*
X18617D01*
Y31985D01*
X18708D01*
Y31940D01*
X18754D01*
Y31894D01*
X18800D01*
Y31848D01*
X18892D01*
Y31802D01*
X18937D01*
Y31756D01*
X19029D01*
Y31710D01*
X19075D01*
Y31665D01*
X19167D01*
Y31619D01*
X19212D01*
Y31573D01*
X19304D01*
Y31527D01*
X19396D01*
Y31481D01*
X19442D01*
Y31435D01*
X19533D01*
Y31390D01*
X19625D01*
Y31344D01*
X19717D01*
Y31298D01*
X19763D01*
Y31252D01*
X19854D01*
Y31206D01*
X19946D01*
Y31160D01*
X20038D01*
Y31115D01*
X20129D01*
Y31069D01*
X20267D01*
Y31023D01*
X19992D01*
Y31069D01*
X19763D01*
Y31115D01*
X19533D01*
Y31160D01*
X19350D01*
Y31206D01*
X19167D01*
Y31252D01*
X19029D01*
Y31298D01*
X18892D01*
Y31344D01*
X18754D01*
Y31390D01*
X18617D01*
Y31435D01*
X18479D01*
Y31481D01*
X18388D01*
Y31527D01*
X18250D01*
Y31573D01*
X18158D01*
Y31619D01*
X18067D01*
Y31665D01*
X17975D01*
Y31710D01*
X17883D01*
Y31756D01*
X17792D01*
Y31802D01*
X17700D01*
Y31848D01*
X17654D01*
Y31894D01*
X17563D01*
Y31940D01*
X17471D01*
Y31985D01*
X17425D01*
Y32031D01*
X17333D01*
Y32077D01*
X17287D01*
Y32123D01*
X17196D01*
Y32169D01*
X17150D01*
Y32215D01*
X17104D01*
Y32260D01*
X17012D01*
Y32306D01*
X16967D01*
Y32352D01*
X16921D01*
Y32398D01*
X16875D01*
Y32444D01*
X16829D01*
Y32490D01*
X16738D01*
Y32535D01*
X16692D01*
Y32581D01*
X16646D01*
Y32627D01*
X16600D01*
Y32673D01*
X16554D01*
Y32719D01*
X16508D01*
Y32765D01*
X16463D01*
Y32856D01*
X16417D01*
Y32902D01*
X16371D01*
Y32948D01*
X16325D01*
Y32994D01*
X16279D01*
Y33040D01*
X16233D01*
Y33131D01*
X16187D01*
Y33177D01*
X16142D01*
Y33223D01*
X16096D01*
Y33315D01*
X16050D01*
Y33360D01*
X16004D01*
Y33452D01*
X15958D01*
Y33498D01*
X15912D01*
Y33590D01*
X15867D01*
Y33635D01*
X15821D01*
Y33727D01*
X15775D01*
Y33819D01*
X15729D01*
Y33910D01*
X15683D01*
Y34002D01*
X15638D01*
Y34094D01*
X15592D01*
Y34185D01*
X15546D01*
Y34323D01*
X15500D01*
Y34460D01*
X15454D01*
Y34552D01*
X15408D01*
Y34690D01*
X15362D01*
Y34873D01*
X15317D01*
Y35010D01*
X15271D01*
Y35194D01*
X15225D01*
Y35423D01*
X15179D01*
Y35698D01*
X15133D01*
Y36019D01*
X15087D01*
Y36844D01*
X15042D01*
Y57148D01*
X16554D01*
Y36202D01*
D02*
G37*
G36*
X2518579Y54756D02*
X2518854D01*
Y54710D01*
X2519083D01*
Y54665D01*
X2519312D01*
Y54619D01*
X2519496D01*
Y54573D01*
X2519633D01*
Y54527D01*
X2519817D01*
Y54481D01*
X2519954D01*
Y54435D01*
X2520092D01*
Y54390D01*
X2520229D01*
Y54344D01*
X2520321D01*
Y54298D01*
X2520458D01*
Y54252D01*
X2520550D01*
Y54206D01*
X2520642D01*
Y54160D01*
X2520733D01*
Y54115D01*
X2520825D01*
Y54069D01*
X2520917D01*
Y54023D01*
X2521008D01*
Y53977D01*
X2521100D01*
Y53931D01*
X2521192D01*
Y53885D01*
X2521237D01*
Y53840D01*
X2521329D01*
Y53794D01*
X2521375D01*
Y53748D01*
X2521467D01*
Y53702D01*
X2521512D01*
Y53656D01*
X2521604D01*
Y53610D01*
X2521650D01*
Y53565D01*
X2521696D01*
Y53519D01*
X2521788D01*
Y53473D01*
X2521833D01*
Y53427D01*
X2521879D01*
Y53381D01*
X2521925D01*
Y53335D01*
X2521971D01*
Y53290D01*
X2522017D01*
Y53244D01*
X2522108D01*
Y53198D01*
X2522154D01*
Y53152D01*
X2522200D01*
Y53106D01*
X2522246D01*
Y53060D01*
X2522292D01*
Y52969D01*
X2522337D01*
Y52923D01*
X2522383D01*
Y52877D01*
X2522429D01*
Y52831D01*
X2522475D01*
Y52785D01*
X2522521D01*
Y52740D01*
X2522567D01*
Y52648D01*
X2522612D01*
Y52602D01*
X2522658D01*
Y52556D01*
X2522704D01*
Y52465D01*
X2522750D01*
Y52419D01*
X2522796D01*
Y52327D01*
X2522842D01*
Y52281D01*
X2522888D01*
Y52190D01*
X2522933D01*
Y52098D01*
X2522979D01*
Y52006D01*
X2523025D01*
Y51960D01*
X2523071D01*
Y51869D01*
X2523117D01*
Y51777D01*
X2523163D01*
Y51640D01*
X2523208D01*
Y51548D01*
X2523254D01*
Y51456D01*
X2523300D01*
Y51319D01*
X2523346D01*
Y51181D01*
X2523392D01*
Y51044D01*
X2523438D01*
Y50906D01*
X2523483D01*
Y50723D01*
X2523529D01*
Y50540D01*
X2523575D01*
Y50310D01*
X2523621D01*
Y50035D01*
X2523667D01*
Y49623D01*
X2523712D01*
Y25652D01*
X2522246D01*
Y49256D01*
X2522200D01*
Y49852D01*
X2522154D01*
Y50173D01*
X2522108D01*
Y50448D01*
X2522063D01*
Y50677D01*
X2522017D01*
Y50860D01*
X2521971D01*
Y51044D01*
X2521925D01*
Y51181D01*
X2521879D01*
Y51319D01*
X2521833D01*
Y51456D01*
X2521788D01*
Y51594D01*
X2521742D01*
Y51685D01*
X2521696D01*
Y51777D01*
X2521650D01*
Y51915D01*
X2521604D01*
Y52006D01*
X2521558D01*
Y52098D01*
X2521512D01*
Y52190D01*
X2521467D01*
Y52235D01*
X2521421D01*
Y52281D01*
Y52327D01*
X2521375D01*
Y52419D01*
X2521329D01*
Y52465D01*
X2521283D01*
Y52556D01*
X2521237D01*
Y52602D01*
X2521192D01*
Y52694D01*
X2521146D01*
Y52740D01*
X2521100D01*
Y52831D01*
X2521054D01*
Y52877D01*
X2521008D01*
Y52923D01*
X2520963D01*
Y52969D01*
X2520917D01*
Y53060D01*
X2520871D01*
Y53106D01*
X2520825D01*
Y53152D01*
X2520779D01*
Y53198D01*
X2520733D01*
Y53244D01*
X2520688D01*
Y53290D01*
X2520642D01*
Y53335D01*
X2520596D01*
Y53381D01*
X2520550D01*
Y53427D01*
X2520504D01*
Y53473D01*
X2520458D01*
Y53519D01*
X2520412D01*
Y53565D01*
X2520367D01*
Y53610D01*
X2520321D01*
Y53656D01*
X2520275D01*
Y53702D01*
X2520229D01*
Y53748D01*
X2520137D01*
Y53794D01*
X2520092D01*
Y53840D01*
X2520046D01*
Y53885D01*
X2519954D01*
Y53931D01*
X2519908D01*
Y53977D01*
X2519863D01*
Y54023D01*
X2519771D01*
Y54069D01*
X2519725D01*
Y54115D01*
X2519633D01*
Y54160D01*
X2519588D01*
Y54206D01*
X2519496D01*
Y54252D01*
X2519404D01*
Y54298D01*
X2519358D01*
Y54344D01*
X2519267D01*
Y54390D01*
X2519175D01*
Y54435D01*
X2519083D01*
Y54481D01*
X2518992D01*
Y54527D01*
X2518900D01*
Y54573D01*
X2518808D01*
Y54619D01*
X2518717D01*
Y54665D01*
X2518625D01*
Y54710D01*
X2518533D01*
Y54756D01*
X2518488D01*
Y54802D01*
X2518579D01*
Y54756D01*
D02*
G37*
G36*
X2517388Y54710D02*
X2517525D01*
Y54665D01*
X2517663D01*
Y54619D01*
X2517800D01*
Y54573D01*
X2517892D01*
Y54527D01*
X2518029D01*
Y54481D01*
X2518121D01*
Y54435D01*
X2518212D01*
Y54390D01*
X2518350D01*
Y54344D01*
X2518442D01*
Y54298D01*
X2518533D01*
Y54252D01*
X2518625D01*
Y54206D01*
X2518717D01*
Y54160D01*
X2518763D01*
Y54115D01*
X2518854D01*
Y54069D01*
X2518946D01*
Y54023D01*
X2518992D01*
Y53977D01*
X2519083D01*
Y53931D01*
X2519129D01*
Y53885D01*
X2519221D01*
Y53840D01*
X2519267D01*
Y53794D01*
X2519358D01*
Y53748D01*
X2519404D01*
Y53702D01*
X2519496D01*
Y53656D01*
X2519542D01*
Y53610D01*
X2519588D01*
Y53565D01*
X2519633D01*
Y53519D01*
X2519679D01*
Y53473D01*
X2519771D01*
Y53427D01*
X2519817D01*
Y53381D01*
X2519863D01*
Y53335D01*
X2519908D01*
Y53290D01*
X2519954D01*
Y53244D01*
X2520000D01*
Y53198D01*
X2520046D01*
Y53152D01*
X2520092D01*
Y53106D01*
X2520137D01*
Y53015D01*
X2520183D01*
Y52969D01*
X2520229D01*
Y52923D01*
X2520275D01*
Y52877D01*
X2520321D01*
Y52831D01*
X2520367D01*
Y52740D01*
X2520412D01*
Y52694D01*
X2520458D01*
Y52602D01*
X2520504D01*
Y52556D01*
X2520550D01*
Y52465D01*
X2520596D01*
Y52419D01*
X2520642D01*
Y52327D01*
X2520688D01*
Y52235D01*
X2520733D01*
Y52190D01*
X2520779D01*
Y52098D01*
X2520825D01*
Y52006D01*
X2520871D01*
Y51915D01*
X2520917D01*
Y51777D01*
X2520963D01*
Y51685D01*
X2521008D01*
Y51594D01*
X2521054D01*
Y51456D01*
X2521100D01*
Y51319D01*
X2521146D01*
Y51181D01*
X2521192D01*
Y50998D01*
X2521237D01*
Y50860D01*
X2521283D01*
Y50631D01*
X2521329D01*
Y50402D01*
X2521375D01*
Y50127D01*
X2521421D01*
Y49715D01*
X2521467D01*
Y38027D01*
Y37981D01*
Y25652D01*
X2520000D01*
Y49348D01*
X2519954D01*
Y49990D01*
X2519908D01*
Y50356D01*
X2519863D01*
Y50631D01*
X2519817D01*
Y50860D01*
X2519771D01*
Y51090D01*
X2519725D01*
Y51273D01*
X2519679D01*
Y51410D01*
X2519633D01*
Y51594D01*
X2519588D01*
Y51731D01*
X2519542D01*
Y51869D01*
X2519496D01*
Y51960D01*
X2519450D01*
Y52098D01*
X2519404D01*
Y52190D01*
X2519358D01*
Y52327D01*
X2519312D01*
Y52419D01*
X2519267D01*
Y52510D01*
X2519221D01*
Y52602D01*
X2519175D01*
Y52694D01*
X2519129D01*
Y52740D01*
X2519083D01*
Y52831D01*
X2519037D01*
Y52923D01*
X2518992D01*
Y53015D01*
X2518946D01*
Y53060D01*
X2518900D01*
Y53152D01*
X2518854D01*
Y53198D01*
X2518808D01*
Y53244D01*
X2518763D01*
Y53335D01*
X2518717D01*
Y53381D01*
X2518671D01*
Y53427D01*
X2518625D01*
Y53519D01*
X2518579D01*
Y53565D01*
X2518533D01*
Y53610D01*
X2518488D01*
Y53656D01*
X2518442D01*
Y53702D01*
X2518396D01*
Y53794D01*
X2518350D01*
Y53840D01*
X2518304D01*
Y53885D01*
X2518258D01*
Y53931D01*
X2518212D01*
Y53977D01*
X2518167D01*
Y54023D01*
X2518121D01*
Y54069D01*
X2518075D01*
Y54115D01*
X2518029D01*
Y54160D01*
X2517983D01*
Y54206D01*
X2517937D01*
Y54252D01*
X2517846D01*
Y54298D01*
X2517800D01*
Y54344D01*
X2517754D01*
Y54390D01*
X2517708D01*
Y54435D01*
X2517663D01*
Y54481D01*
X2517571D01*
Y54527D01*
X2517525D01*
Y54573D01*
X2517479D01*
Y54619D01*
X2517388D01*
Y54665D01*
X2517342D01*
Y54710D01*
X2517296D01*
Y54756D01*
X2517388D01*
Y54710D01*
D02*
G37*
G36*
X2516471Y54665D02*
X2516562D01*
Y54619D01*
X2516608D01*
Y54573D01*
X2516700D01*
Y54527D01*
X2516792D01*
Y54481D01*
X2516837D01*
Y54435D01*
X2516929D01*
Y54390D01*
X2516975D01*
Y54344D01*
X2517067D01*
Y54298D01*
X2517112D01*
Y54252D01*
X2517158D01*
Y54206D01*
X2517250D01*
Y54160D01*
X2517296D01*
Y54115D01*
X2517342D01*
Y54069D01*
X2517388D01*
Y54023D01*
X2517433D01*
Y53977D01*
X2517479D01*
Y53931D01*
X2517525D01*
Y53885D01*
X2517571D01*
Y53840D01*
X2517617D01*
Y53794D01*
X2517663D01*
Y53748D01*
X2517708D01*
Y53702D01*
X2517754D01*
Y53656D01*
X2517800D01*
Y53610D01*
X2517846D01*
Y53565D01*
X2517892D01*
Y53519D01*
X2517937D01*
Y53473D01*
X2517983D01*
Y53381D01*
X2518029D01*
Y53335D01*
X2518075D01*
Y53290D01*
X2518121D01*
Y53198D01*
X2518167D01*
Y53152D01*
X2518212D01*
Y53060D01*
X2518258D01*
Y53015D01*
X2518304D01*
Y52923D01*
X2518350D01*
Y52831D01*
X2518396D01*
Y52785D01*
X2518442D01*
Y52694D01*
X2518488D01*
Y52602D01*
X2518533D01*
Y52510D01*
X2518579D01*
Y52419D01*
X2518625D01*
Y52281D01*
X2518671D01*
Y52190D01*
X2518717D01*
Y52052D01*
X2518763D01*
Y51960D01*
X2518808D01*
Y51823D01*
X2518854D01*
Y51685D01*
X2518900D01*
Y51502D01*
X2518946D01*
Y51319D01*
X2518992D01*
Y51135D01*
X2519037D01*
Y50906D01*
X2519083D01*
Y50677D01*
X2519129D01*
Y50356D01*
X2519175D01*
Y49898D01*
X2519221D01*
Y25652D01*
X2517754D01*
Y49348D01*
X2517708D01*
Y50310D01*
X2517663D01*
Y50723D01*
Y50769D01*
Y50860D01*
X2517617D01*
Y51273D01*
X2517571D01*
Y51594D01*
X2517525D01*
Y51869D01*
X2517479D01*
Y52144D01*
X2517433D01*
Y52327D01*
X2517388D01*
Y52556D01*
X2517342D01*
Y52740D01*
X2517296D01*
Y52877D01*
X2517250D01*
Y53060D01*
X2517204D01*
Y53198D01*
X2517158D01*
Y53290D01*
X2517112D01*
Y53427D01*
X2517067D01*
Y53565D01*
X2517021D01*
Y53656D01*
X2516975D01*
Y53748D01*
X2516929D01*
Y53840D01*
X2516883D01*
Y53931D01*
X2516837D01*
Y54023D01*
X2516792D01*
Y54115D01*
X2516746D01*
Y54206D01*
X2516700D01*
Y54252D01*
X2516654D01*
Y54344D01*
X2516608D01*
Y54390D01*
X2516562D01*
Y54481D01*
X2516517D01*
Y54527D01*
X2516471D01*
Y54573D01*
X2516425D01*
Y54619D01*
X2516379D01*
Y54710D01*
X2516471D01*
Y54665D01*
D02*
G37*
G36*
X27188Y26623D02*
X27600D01*
Y26577D01*
X27875D01*
Y26531D01*
X28058D01*
Y26485D01*
X28196D01*
Y26440D01*
X28379D01*
Y26394D01*
X28425D01*
Y25065D01*
X28379D01*
Y25110D01*
X28287D01*
Y25156D01*
X28196D01*
Y25202D01*
X28104D01*
Y25248D01*
X28012D01*
Y25294D01*
X27875D01*
Y25340D01*
X27738D01*
Y25385D01*
X27554D01*
Y25431D01*
X27325D01*
Y25477D01*
X26500D01*
Y25431D01*
X26271D01*
Y25385D01*
X26133D01*
Y25340D01*
X26042D01*
Y25294D01*
X25904D01*
Y25248D01*
X25858D01*
Y25202D01*
X25767D01*
Y25156D01*
X25675D01*
Y25110D01*
X25629D01*
Y25065D01*
X25583D01*
Y25019D01*
X25538D01*
Y24973D01*
X25446D01*
Y24927D01*
X25400D01*
Y24835D01*
X25354D01*
Y24790D01*
X25308D01*
Y24744D01*
X25262D01*
Y24698D01*
X25217D01*
Y24606D01*
X25171D01*
Y24560D01*
X25125D01*
Y24469D01*
X25079D01*
Y24377D01*
X25033D01*
Y24285D01*
X24987D01*
Y24148D01*
X24942D01*
Y24010D01*
X24896D01*
Y23827D01*
X24850D01*
Y23506D01*
X24804D01*
Y22865D01*
X24850D01*
Y22498D01*
X24896D01*
Y22269D01*
X24942D01*
Y22085D01*
X24987D01*
Y21948D01*
X25033D01*
Y21810D01*
X25079D01*
Y21719D01*
X25125D01*
Y21627D01*
X25171D01*
Y21535D01*
X25217D01*
Y21444D01*
X25262D01*
Y21398D01*
X25308D01*
Y21306D01*
X25354D01*
Y21260D01*
X25400D01*
Y21215D01*
X25446D01*
Y21169D01*
X25492D01*
Y21123D01*
X25538D01*
Y21077D01*
X25583D01*
Y21031D01*
X25629D01*
Y20985D01*
X25675D01*
Y20940D01*
X25767D01*
Y20894D01*
X25858D01*
Y20848D01*
X25950D01*
Y20802D01*
X26042D01*
Y20756D01*
X26179D01*
Y20710D01*
X26500D01*
Y20665D01*
X26775D01*
Y20710D01*
X27050D01*
Y23140D01*
X27004D01*
Y23323D01*
X26958D01*
Y23415D01*
X26913D01*
Y23506D01*
X26867D01*
Y23552D01*
X26821D01*
Y23598D01*
X26775D01*
Y23690D01*
X26683D01*
Y23735D01*
X28287D01*
Y23690D01*
X28379D01*
Y23644D01*
X28471D01*
Y23598D01*
X28563D01*
Y23552D01*
X28608D01*
Y23506D01*
X28654D01*
Y23460D01*
X28700D01*
Y23369D01*
X28746D01*
Y23277D01*
X28792D01*
Y23185D01*
X28837D01*
Y19931D01*
X28792D01*
Y19885D01*
X28654D01*
Y19840D01*
X28471D01*
Y19794D01*
X28242D01*
Y19748D01*
X28012D01*
Y19702D01*
X27738D01*
Y19656D01*
X27371D01*
Y19610D01*
X26363D01*
Y19656D01*
X25996D01*
Y19702D01*
X25721D01*
Y19748D01*
X25538D01*
Y19794D01*
X25400D01*
Y19840D01*
X25217D01*
Y19885D01*
X25125D01*
Y19931D01*
X24987D01*
Y19977D01*
X24896D01*
Y20023D01*
X24804D01*
Y20069D01*
X24713D01*
Y20115D01*
X24621D01*
Y20160D01*
X24529D01*
Y20206D01*
X24437D01*
Y20252D01*
X24392D01*
Y20298D01*
X24300D01*
Y20344D01*
X24254D01*
Y20390D01*
X24208D01*
Y20435D01*
X24117D01*
Y20481D01*
X24071D01*
Y20527D01*
X24025D01*
Y20573D01*
X23979D01*
Y20619D01*
X23933D01*
Y20665D01*
X23888D01*
Y20710D01*
X23842D01*
Y20756D01*
X23796D01*
Y20802D01*
X23750D01*
Y20848D01*
X23704D01*
Y20894D01*
X23658D01*
Y20985D01*
X23612D01*
Y21031D01*
X23567D01*
Y21077D01*
X23521D01*
Y21169D01*
X23475D01*
Y21215D01*
X23429D01*
Y21306D01*
X23383D01*
Y21398D01*
X23338D01*
Y21444D01*
X23292D01*
Y21581D01*
X23246D01*
Y21673D01*
X23200D01*
Y21765D01*
X23154D01*
Y21902D01*
X23108D01*
Y22040D01*
X23063D01*
Y22223D01*
X23017D01*
Y22498D01*
X22971D01*
Y23644D01*
X23017D01*
Y23919D01*
X23063D01*
Y24056D01*
X23108D01*
Y24240D01*
X23154D01*
Y24377D01*
X23200D01*
Y24469D01*
X23246D01*
Y24560D01*
X23292D01*
Y24698D01*
X23338D01*
Y24744D01*
X23383D01*
Y24835D01*
X23429D01*
Y24927D01*
X23475D01*
Y25019D01*
X23521D01*
Y25065D01*
X23567D01*
Y25156D01*
X23612D01*
Y25202D01*
X23658D01*
Y25248D01*
X23704D01*
Y25294D01*
X23750D01*
Y25385D01*
X23796D01*
Y25431D01*
X23842D01*
Y25477D01*
X23888D01*
Y25523D01*
X23933D01*
Y25569D01*
X23979D01*
Y25615D01*
X24025D01*
Y25660D01*
X24071D01*
Y25706D01*
X24117D01*
Y25752D01*
X24208D01*
Y25798D01*
X24254D01*
Y25844D01*
X24300D01*
Y25890D01*
X24392D01*
Y25935D01*
X24437D01*
Y25981D01*
X24483D01*
Y26027D01*
X24575D01*
Y26073D01*
X24667D01*
Y26119D01*
X24713D01*
Y26165D01*
X24804D01*
Y26210D01*
X24896D01*
Y26256D01*
X25033D01*
Y26302D01*
X25125D01*
Y26348D01*
X25217D01*
Y26394D01*
X25354D01*
Y26440D01*
X25492D01*
Y26485D01*
X25675D01*
Y26531D01*
X25858D01*
Y26577D01*
X26133D01*
Y26623D01*
X26592D01*
Y26669D01*
X27188D01*
Y26623D01*
D02*
G37*
G36*
X37500Y19794D02*
X37454D01*
Y19748D01*
X35712D01*
Y22590D01*
X33650D01*
Y19794D01*
X33604D01*
Y19748D01*
X31862D01*
Y19794D01*
X31817D01*
Y25981D01*
X31771D01*
Y26119D01*
X31725D01*
Y26210D01*
X31679D01*
Y26256D01*
X31633D01*
Y26348D01*
X31588D01*
Y26394D01*
X31542D01*
Y26440D01*
X31496D01*
Y26485D01*
X33008D01*
Y26440D01*
X33146D01*
Y26394D01*
X33238D01*
Y26348D01*
X33283D01*
Y26302D01*
X33329D01*
Y26256D01*
X33375D01*
Y26210D01*
X33421D01*
Y26165D01*
X33467D01*
Y26119D01*
X33512D01*
Y26027D01*
X33558D01*
Y25935D01*
X33604D01*
Y25752D01*
X33650D01*
Y23735D01*
X35667D01*
Y23781D01*
X35712D01*
Y26485D01*
X37500D01*
Y19794D01*
D02*
G37*
G36*
X2529717Y30373D02*
Y30327D01*
Y27394D01*
X2529671D01*
Y26798D01*
X2529625D01*
Y26477D01*
X2529579D01*
Y26202D01*
X2529533D01*
Y25973D01*
X2529487D01*
Y25790D01*
X2529442D01*
Y25606D01*
X2529396D01*
Y25469D01*
X2529350D01*
Y25331D01*
X2529304D01*
Y25194D01*
X2529258D01*
Y25102D01*
X2529212D01*
Y24965D01*
X2529167D01*
Y24873D01*
X2529121D01*
Y24781D01*
X2529075D01*
Y24690D01*
X2529029D01*
Y24598D01*
X2528983D01*
Y24506D01*
X2528938D01*
Y24415D01*
X2528892D01*
Y24323D01*
X2528846D01*
Y24277D01*
X2528800D01*
Y24185D01*
X2528754D01*
Y24140D01*
X2528708D01*
Y24048D01*
X2528663D01*
Y24002D01*
X2528617D01*
Y23910D01*
X2528571D01*
Y23865D01*
X2528525D01*
Y23819D01*
X2528479D01*
Y23773D01*
X2528433D01*
Y23681D01*
X2528387D01*
Y23635D01*
X2528342D01*
Y23590D01*
X2528296D01*
Y23544D01*
X2528250D01*
Y23498D01*
X2528204D01*
Y23452D01*
X2528158D01*
Y23406D01*
X2528112D01*
Y23360D01*
X2528067D01*
Y23315D01*
X2528021D01*
Y23269D01*
X2527975D01*
Y23223D01*
X2527929D01*
Y23177D01*
X2527838D01*
Y23131D01*
X2527792D01*
Y23085D01*
X2527746D01*
Y23040D01*
X2527700D01*
Y22994D01*
X2527608D01*
Y22948D01*
X2527563D01*
Y22902D01*
X2527517D01*
Y22856D01*
X2527425D01*
Y22810D01*
X2527379D01*
Y22765D01*
X2527287D01*
Y22719D01*
X2527196D01*
Y22673D01*
X2527150D01*
Y22627D01*
X2527058D01*
Y22581D01*
X2526967D01*
Y22535D01*
X2526921D01*
Y22490D01*
X2526829D01*
Y22444D01*
X2526738D01*
Y22398D01*
X2526646D01*
Y22352D01*
X2526554D01*
Y22306D01*
X2526417D01*
Y22260D01*
X2526325D01*
Y22215D01*
X2526233D01*
Y22169D01*
X2526096D01*
Y22123D01*
X2525958D01*
Y22077D01*
X2525867D01*
Y22031D01*
X2525729D01*
Y21985D01*
X2525592D01*
Y22031D01*
X2525638D01*
Y22077D01*
X2525683D01*
Y22123D01*
X2525775D01*
Y22169D01*
X2525821D01*
Y22215D01*
X2525867D01*
Y22260D01*
X2525912D01*
Y22306D01*
X2526004D01*
Y22352D01*
X2526050D01*
Y22398D01*
X2526096D01*
Y22444D01*
X2526142D01*
Y22490D01*
X2526187D01*
Y22535D01*
X2526233D01*
Y22581D01*
X2526279D01*
Y22627D01*
X2526325D01*
Y22673D01*
X2526371D01*
Y22719D01*
X2526417D01*
Y22765D01*
X2526463D01*
Y22810D01*
X2526508D01*
Y22856D01*
X2526554D01*
Y22902D01*
X2526600D01*
Y22948D01*
X2526646D01*
Y22994D01*
X2526692D01*
Y23040D01*
X2526738D01*
Y23085D01*
X2526783D01*
Y23177D01*
X2526829D01*
Y23223D01*
X2526875D01*
Y23269D01*
X2526921D01*
Y23360D01*
X2526967D01*
Y23406D01*
X2527012D01*
Y23452D01*
X2527058D01*
Y23544D01*
X2527104D01*
Y23590D01*
X2527150D01*
Y23681D01*
X2527196D01*
Y23727D01*
X2527242D01*
Y23819D01*
X2527287D01*
Y23910D01*
X2527333D01*
Y23956D01*
X2527379D01*
Y24048D01*
X2527425D01*
Y24140D01*
X2527471D01*
Y24231D01*
X2527517D01*
Y24323D01*
X2527563D01*
Y24460D01*
X2527608D01*
Y24552D01*
X2527654D01*
Y24644D01*
X2527700D01*
Y24781D01*
X2527746D01*
Y24919D01*
X2527792D01*
Y25056D01*
X2527838D01*
Y25194D01*
X2527883D01*
Y25331D01*
X2527929D01*
Y25515D01*
X2527975D01*
Y25698D01*
X2528021D01*
Y25927D01*
X2528067D01*
Y26202D01*
X2528112D01*
Y26523D01*
X2528158D01*
Y26935D01*
X2528204D01*
Y48065D01*
X2529717D01*
Y30373D01*
D02*
G37*
G36*
X2527471Y29456D02*
Y29410D01*
Y27256D01*
X2527425D01*
Y26615D01*
X2527379D01*
Y26248D01*
X2527333D01*
Y25927D01*
X2527287D01*
Y25698D01*
X2527242D01*
Y25469D01*
X2527196D01*
Y25285D01*
X2527150D01*
Y25148D01*
X2527104D01*
Y24965D01*
X2527058D01*
Y24827D01*
X2527012D01*
Y24690D01*
X2526967D01*
Y24598D01*
X2526921D01*
Y24460D01*
X2526875D01*
Y24369D01*
X2526829D01*
Y24277D01*
X2526783D01*
Y24185D01*
X2526738D01*
Y24094D01*
X2526692D01*
Y24002D01*
X2526646D01*
Y23910D01*
X2526600D01*
Y23819D01*
X2526554D01*
Y23727D01*
X2526508D01*
Y23681D01*
X2526463D01*
Y23590D01*
X2526417D01*
Y23544D01*
X2526371D01*
Y23452D01*
X2526325D01*
Y23406D01*
X2526279D01*
Y23360D01*
X2526233D01*
Y23269D01*
X2526187D01*
Y23223D01*
X2526142D01*
Y23177D01*
X2526096D01*
Y23131D01*
X2526050D01*
Y23085D01*
X2526004D01*
Y22994D01*
X2525958D01*
Y22948D01*
X2525912D01*
Y22902D01*
X2525867D01*
Y22856D01*
X2525821D01*
Y22810D01*
X2525775D01*
Y22765D01*
X2525729D01*
Y22719D01*
X2525638D01*
Y22673D01*
X2525592D01*
Y22627D01*
X2525546D01*
Y22581D01*
X2525500D01*
Y22535D01*
X2525454D01*
Y22490D01*
X2525363D01*
Y22444D01*
X2525317D01*
Y22398D01*
X2525271D01*
Y22352D01*
X2525179D01*
Y22306D01*
X2525133D01*
Y22260D01*
X2525042D01*
Y22215D01*
X2524996D01*
Y22169D01*
X2524904D01*
Y22123D01*
X2524812D01*
Y22077D01*
X2524767D01*
Y22031D01*
X2524675D01*
Y21985D01*
X2524583D01*
Y22031D01*
X2524629D01*
Y22077D01*
X2524675D01*
Y22169D01*
X2524721D01*
Y22215D01*
X2524767D01*
Y22260D01*
X2524812D01*
Y22352D01*
X2524858D01*
Y22398D01*
X2524904D01*
Y22490D01*
X2524950D01*
Y22535D01*
X2524996D01*
Y22627D01*
X2525042D01*
Y22719D01*
X2525087D01*
Y22810D01*
X2525133D01*
Y22902D01*
X2525179D01*
Y22994D01*
X2525225D01*
Y23085D01*
X2525271D01*
Y23223D01*
X2525317D01*
Y23315D01*
X2525363D01*
Y23452D01*
X2525408D01*
Y23590D01*
X2525454D01*
Y23727D01*
X2525500D01*
Y23910D01*
X2525546D01*
Y24048D01*
X2525592D01*
Y24231D01*
X2525638D01*
Y24460D01*
X2525683D01*
Y24690D01*
X2525729D01*
Y24965D01*
X2525775D01*
Y25240D01*
X2525821D01*
Y25606D01*
X2525867D01*
Y26065D01*
X2525912D01*
Y26706D01*
X2525958D01*
Y48065D01*
X2527471D01*
Y29456D01*
D02*
G37*
G36*
X2515508Y26844D02*
X2515554D01*
Y26156D01*
X2515600D01*
Y25652D01*
X2515646D01*
Y25285D01*
X2515692D01*
Y25010D01*
X2515737D01*
Y24735D01*
X2515783D01*
Y24506D01*
X2515829D01*
Y24277D01*
X2515875D01*
Y24094D01*
X2515921D01*
Y23910D01*
X2515967D01*
Y23773D01*
X2516013D01*
Y23590D01*
X2516058D01*
Y23452D01*
X2516104D01*
Y23360D01*
X2516150D01*
Y23223D01*
X2516196D01*
Y23131D01*
X2516242D01*
Y22994D01*
X2516288D01*
Y22902D01*
X2516333D01*
Y22810D01*
X2516379D01*
Y22719D01*
X2516425D01*
Y22627D01*
X2516471D01*
Y22581D01*
X2516517D01*
Y22490D01*
X2516562D01*
Y22398D01*
X2516608D01*
Y22352D01*
X2516654D01*
Y22260D01*
X2516700D01*
Y22215D01*
X2516746D01*
Y22169D01*
X2516792D01*
Y22077D01*
X2516837D01*
Y22031D01*
X2516883D01*
Y21985D01*
X2516792D01*
Y22031D01*
X2516700D01*
Y22077D01*
X2516654D01*
Y22123D01*
X2516562D01*
Y22169D01*
X2516517D01*
Y22215D01*
X2516425D01*
Y22260D01*
X2516333D01*
Y22306D01*
X2516288D01*
Y22352D01*
X2516196D01*
Y22398D01*
X2516150D01*
Y22444D01*
X2516104D01*
Y22490D01*
X2516013D01*
Y22535D01*
X2515967D01*
Y22581D01*
X2515921D01*
Y22627D01*
X2515875D01*
Y22673D01*
X2515829D01*
Y22719D01*
X2515783D01*
Y22765D01*
X2515737D01*
Y22810D01*
X2515692D01*
Y22856D01*
X2515600D01*
Y22902D01*
X2515554D01*
Y22994D01*
X2515508D01*
Y23040D01*
X2515462D01*
Y23085D01*
X2515417D01*
Y23131D01*
X2515371D01*
Y23177D01*
X2515325D01*
Y23223D01*
X2515279D01*
Y23315D01*
X2515233D01*
Y23360D01*
X2515188D01*
Y23406D01*
X2515142D01*
Y23498D01*
X2515096D01*
Y23544D01*
X2515050D01*
Y23590D01*
X2515004D01*
Y23681D01*
X2514958D01*
Y23773D01*
X2514913D01*
Y23819D01*
X2514867D01*
Y23910D01*
X2514821D01*
Y24002D01*
X2514775D01*
Y24048D01*
Y24094D01*
X2514729D01*
Y24185D01*
X2514683D01*
Y24277D01*
X2514637D01*
Y24369D01*
X2514592D01*
Y24506D01*
X2514546D01*
Y24598D01*
X2514500D01*
Y24735D01*
X2514454D01*
Y24873D01*
X2514408D01*
Y25010D01*
X2514362D01*
Y25148D01*
X2514317D01*
Y25331D01*
X2514271D01*
Y25515D01*
X2514225D01*
Y25744D01*
X2514179D01*
Y25973D01*
X2514133D01*
Y26294D01*
X2514088D01*
Y26706D01*
X2514042D01*
Y27531D01*
X2513996D01*
Y48065D01*
X2515508D01*
Y26844D01*
D02*
G37*
G36*
X2531962Y27485D02*
X2531917D01*
Y26890D01*
X2531871D01*
Y26569D01*
X2531825D01*
Y26294D01*
X2531779D01*
Y26110D01*
X2531733D01*
Y25927D01*
X2531687D01*
Y25744D01*
X2531642D01*
Y25606D01*
X2531596D01*
Y25469D01*
X2531550D01*
Y25331D01*
X2531504D01*
Y25240D01*
X2531458D01*
Y25102D01*
X2531413D01*
Y25010D01*
X2531367D01*
Y24919D01*
X2531321D01*
Y24827D01*
X2531275D01*
Y24735D01*
X2531229D01*
Y24644D01*
X2531183D01*
Y24552D01*
X2531138D01*
Y24506D01*
X2531092D01*
Y24415D01*
X2531046D01*
Y24323D01*
X2531000D01*
Y24277D01*
X2530954D01*
Y24185D01*
X2530908D01*
Y24140D01*
X2530862D01*
Y24094D01*
X2530817D01*
Y24002D01*
X2530771D01*
Y23956D01*
X2530725D01*
Y23910D01*
X2530679D01*
Y23865D01*
X2530633D01*
Y23773D01*
X2530587D01*
Y23727D01*
X2530542D01*
Y23681D01*
X2530496D01*
Y23635D01*
X2530450D01*
Y23590D01*
X2530404D01*
Y23544D01*
X2530358D01*
Y23498D01*
X2530312D01*
Y23452D01*
X2530267D01*
Y23406D01*
X2530221D01*
Y23360D01*
X2530129D01*
Y23315D01*
X2530083D01*
Y23269D01*
X2530038D01*
Y23223D01*
X2529992D01*
Y23177D01*
X2529946D01*
Y23131D01*
X2529854D01*
Y23085D01*
X2529808D01*
Y23040D01*
X2529717D01*
Y22994D01*
X2529671D01*
Y22948D01*
X2529579D01*
Y22902D01*
X2529533D01*
Y22856D01*
X2529442D01*
Y22810D01*
X2529396D01*
Y22765D01*
X2529304D01*
Y22719D01*
X2529212D01*
Y22673D01*
X2529121D01*
Y22627D01*
X2529029D01*
Y22581D01*
X2528938D01*
Y22535D01*
X2528846D01*
Y22490D01*
X2528754D01*
Y22444D01*
X2528663D01*
Y22398D01*
X2528525D01*
Y22352D01*
X2528387D01*
Y22306D01*
X2528296D01*
Y22260D01*
X2528158D01*
Y22215D01*
X2527975D01*
Y22169D01*
X2527838D01*
Y22123D01*
X2527654D01*
Y22077D01*
X2527471D01*
Y22031D01*
X2527242D01*
Y21985D01*
X2527012D01*
Y21940D01*
X2526783D01*
Y21985D01*
X2526875D01*
Y22031D01*
X2526967D01*
Y22077D01*
X2527058D01*
Y22123D01*
X2527150D01*
Y22169D01*
X2527242D01*
Y22215D01*
X2527333D01*
Y22260D01*
X2527379D01*
Y22306D01*
X2527471D01*
Y22352D01*
X2527563D01*
Y22398D01*
X2527654D01*
Y22444D01*
X2527700D01*
Y22490D01*
X2527792D01*
Y22535D01*
X2527883D01*
Y22581D01*
X2527929D01*
Y22627D01*
X2527975D01*
Y22673D01*
X2528067D01*
Y22719D01*
X2528112D01*
Y22765D01*
X2528204D01*
Y22810D01*
X2528250D01*
Y22856D01*
X2528296D01*
Y22902D01*
X2528387D01*
Y22948D01*
X2528433D01*
Y22994D01*
X2528479D01*
Y23040D01*
X2528525D01*
Y23085D01*
X2528571D01*
Y23131D01*
X2528663D01*
Y23177D01*
X2528708D01*
Y23223D01*
X2528754D01*
Y23269D01*
X2528800D01*
Y23315D01*
X2528846D01*
Y23360D01*
X2528892D01*
Y23406D01*
X2528938D01*
Y23452D01*
X2528983D01*
Y23498D01*
X2529029D01*
Y23590D01*
X2529075D01*
Y23635D01*
X2529121D01*
Y23681D01*
X2529167D01*
Y23727D01*
X2529212D01*
Y23773D01*
X2529258D01*
Y23865D01*
X2529304D01*
Y23910D01*
X2529350D01*
Y23956D01*
X2529396D01*
Y24048D01*
X2529442D01*
Y24094D01*
X2529487D01*
Y24185D01*
X2529533D01*
Y24231D01*
X2529579D01*
Y24323D01*
X2529625D01*
Y24415D01*
X2529671D01*
Y24506D01*
X2529717D01*
Y24552D01*
X2529763D01*
Y24644D01*
X2529808D01*
Y24735D01*
X2529854D01*
Y24873D01*
X2529900D01*
Y24965D01*
X2529946D01*
Y25056D01*
X2529992D01*
Y25194D01*
X2530038D01*
Y25285D01*
X2530083D01*
Y25423D01*
X2530129D01*
Y25606D01*
X2530175D01*
Y25744D01*
X2530221D01*
Y25927D01*
X2530267D01*
Y26110D01*
X2530312D01*
Y26385D01*
X2530358D01*
Y26660D01*
X2530404D01*
Y27073D01*
X2530450D01*
Y28860D01*
Y28906D01*
Y48065D01*
X2531962D01*
Y27485D01*
D02*
G37*
G36*
X2513262Y27027D02*
X2513308D01*
Y26569D01*
X2513354D01*
Y26202D01*
X2513400D01*
Y25973D01*
X2513446D01*
Y25744D01*
X2513492D01*
Y25560D01*
X2513537D01*
Y25377D01*
X2513583D01*
Y25194D01*
X2513629D01*
Y25056D01*
X2513675D01*
Y24919D01*
X2513721D01*
Y24781D01*
X2513767D01*
Y24690D01*
X2513813D01*
Y24552D01*
X2513858D01*
Y24460D01*
X2513904D01*
Y24369D01*
X2513950D01*
Y24277D01*
X2513996D01*
Y24185D01*
X2514042D01*
Y24094D01*
X2514088D01*
Y24002D01*
X2514133D01*
Y23910D01*
X2514179D01*
Y23819D01*
X2514225D01*
Y23773D01*
X2514271D01*
Y23681D01*
X2514317D01*
Y23590D01*
X2514362D01*
Y23544D01*
X2514408D01*
Y23498D01*
X2514454D01*
Y23406D01*
X2514500D01*
Y23360D01*
X2514546D01*
Y23269D01*
X2514592D01*
Y23223D01*
X2514637D01*
Y23177D01*
X2514683D01*
Y23131D01*
X2514729D01*
Y23040D01*
X2514775D01*
Y22994D01*
X2514821D01*
Y22948D01*
X2514867D01*
Y22902D01*
X2514913D01*
Y22856D01*
X2514958D01*
Y22810D01*
X2515004D01*
Y22765D01*
X2515050D01*
Y22719D01*
X2515096D01*
Y22673D01*
X2515142D01*
Y22627D01*
X2515188D01*
Y22581D01*
X2515233D01*
Y22535D01*
X2515279D01*
Y22490D01*
X2515325D01*
Y22444D01*
X2515371D01*
Y22398D01*
X2515462D01*
Y22352D01*
X2515508D01*
Y22306D01*
X2515554D01*
Y22260D01*
X2515600D01*
Y22215D01*
X2515646D01*
Y22169D01*
X2515737D01*
Y22123D01*
X2515783D01*
Y22077D01*
X2515829D01*
Y22031D01*
X2515921D01*
Y21985D01*
X2515967D01*
Y21940D01*
X2515875D01*
Y21985D01*
X2515737D01*
Y22031D01*
X2515600D01*
Y22077D01*
X2515508D01*
Y22123D01*
X2515371D01*
Y22169D01*
X2515279D01*
Y22215D01*
X2515142D01*
Y22260D01*
X2515050D01*
Y22306D01*
X2514958D01*
Y22352D01*
X2514867D01*
Y22398D01*
X2514729D01*
Y22444D01*
X2514683D01*
Y22490D01*
X2514592D01*
Y22535D01*
X2514500D01*
Y22581D01*
X2514408D01*
Y22627D01*
X2514317D01*
Y22673D01*
X2514271D01*
Y22719D01*
X2514179D01*
Y22765D01*
X2514133D01*
Y22810D01*
X2514042D01*
Y22856D01*
X2513996D01*
Y22902D01*
X2513904D01*
Y22948D01*
X2513858D01*
Y22994D01*
X2513813D01*
Y23040D01*
X2513721D01*
Y23085D01*
X2513675D01*
Y23131D01*
X2513629D01*
Y23177D01*
X2513583D01*
Y23223D01*
X2513537D01*
Y23269D01*
X2513446D01*
Y23315D01*
X2513400D01*
Y23360D01*
X2513354D01*
Y23406D01*
X2513308D01*
Y23452D01*
X2513262D01*
Y23498D01*
X2513217D01*
Y23544D01*
X2513171D01*
Y23590D01*
X2513125D01*
Y23681D01*
X2513079D01*
Y23727D01*
X2513033D01*
Y23773D01*
X2512988D01*
Y23819D01*
X2512942D01*
Y23865D01*
X2512896D01*
Y23956D01*
X2512850D01*
Y24002D01*
X2512804D01*
Y24048D01*
X2512758D01*
Y24140D01*
X2512713D01*
Y24185D01*
X2512667D01*
Y24277D01*
X2512621D01*
Y24369D01*
X2512575D01*
Y24415D01*
X2512529D01*
Y24506D01*
X2512483D01*
Y24598D01*
X2512437D01*
Y24690D01*
X2512392D01*
Y24781D01*
X2512346D01*
Y24873D01*
X2512300D01*
Y24965D01*
X2512254D01*
Y25102D01*
X2512208D01*
Y25240D01*
X2512162D01*
Y25331D01*
X2512117D01*
Y25469D01*
X2512071D01*
Y25652D01*
X2512025D01*
Y25835D01*
X2511979D01*
Y26019D01*
X2511933D01*
Y26248D01*
X2511888D01*
Y26523D01*
X2511842D01*
Y26890D01*
X2511796D01*
Y27577D01*
X2511750D01*
Y48065D01*
X2513262D01*
Y27027D01*
D02*
G37*
G36*
X2511017Y27119D02*
X2511062D01*
Y26706D01*
X2511108D01*
Y26385D01*
X2511154D01*
Y26156D01*
X2511200D01*
Y25973D01*
X2511246D01*
Y25790D01*
X2511292D01*
Y25606D01*
X2511337D01*
Y25469D01*
X2511383D01*
Y25331D01*
X2511429D01*
Y25194D01*
X2511475D01*
Y25102D01*
X2511521D01*
Y25010D01*
Y24965D01*
X2511567D01*
Y24873D01*
X2511613D01*
Y24781D01*
X2511658D01*
Y24690D01*
X2511704D01*
Y24598D01*
X2511750D01*
Y24506D01*
X2511796D01*
Y24415D01*
X2511842D01*
Y24323D01*
X2511888D01*
Y24277D01*
X2511933D01*
Y24185D01*
X2511979D01*
Y24140D01*
X2512025D01*
Y24048D01*
X2512071D01*
Y24002D01*
X2512117D01*
Y23910D01*
X2512162D01*
Y23865D01*
X2512208D01*
Y23819D01*
X2512254D01*
Y23727D01*
X2512300D01*
Y23681D01*
X2512346D01*
Y23635D01*
X2512392D01*
Y23590D01*
X2512437D01*
Y23544D01*
X2512483D01*
Y23498D01*
X2512529D01*
Y23406D01*
X2512575D01*
Y23360D01*
X2512621D01*
Y23315D01*
X2512667D01*
Y23269D01*
X2512713D01*
Y23223D01*
X2512804D01*
Y23177D01*
X2512850D01*
Y23131D01*
X2512896D01*
Y23085D01*
X2512942D01*
Y23040D01*
X2512988D01*
Y22994D01*
X2513033D01*
Y22948D01*
X2513079D01*
Y22902D01*
X2513171D01*
Y22856D01*
X2513217D01*
Y22810D01*
X2513262D01*
Y22765D01*
X2513354D01*
Y22719D01*
X2513400D01*
Y22673D01*
X2513492D01*
Y22627D01*
X2513537D01*
Y22581D01*
X2513629D01*
Y22535D01*
X2513675D01*
Y22490D01*
X2513767D01*
Y22444D01*
X2513858D01*
Y22398D01*
X2513904D01*
Y22352D01*
X2513996D01*
Y22306D01*
X2514088D01*
Y22260D01*
X2514179D01*
Y22215D01*
X2514225D01*
Y22169D01*
X2514317D01*
Y22123D01*
X2514408D01*
Y22077D01*
X2514500D01*
Y22031D01*
X2514592D01*
Y21985D01*
X2514729D01*
Y21940D01*
X2514454D01*
Y21985D01*
X2514225D01*
Y22031D01*
X2513996D01*
Y22077D01*
X2513813D01*
Y22123D01*
X2513629D01*
Y22169D01*
X2513492D01*
Y22215D01*
X2513354D01*
Y22260D01*
X2513217D01*
Y22306D01*
X2513079D01*
Y22352D01*
X2512942D01*
Y22398D01*
X2512850D01*
Y22444D01*
X2512713D01*
Y22490D01*
X2512621D01*
Y22535D01*
X2512529D01*
Y22581D01*
X2512437D01*
Y22627D01*
X2512346D01*
Y22673D01*
X2512254D01*
Y22719D01*
X2512162D01*
Y22765D01*
X2512117D01*
Y22810D01*
X2512025D01*
Y22856D01*
X2511933D01*
Y22902D01*
X2511888D01*
Y22948D01*
X2511796D01*
Y22994D01*
X2511750D01*
Y23040D01*
X2511658D01*
Y23085D01*
X2511613D01*
Y23131D01*
X2511567D01*
Y23177D01*
X2511475D01*
Y23223D01*
X2511429D01*
Y23269D01*
X2511383D01*
Y23315D01*
X2511337D01*
Y23360D01*
X2511292D01*
Y23406D01*
X2511200D01*
Y23452D01*
X2511154D01*
Y23498D01*
X2511108D01*
Y23544D01*
X2511062D01*
Y23590D01*
X2511017D01*
Y23635D01*
X2510971D01*
Y23681D01*
X2510925D01*
Y23773D01*
X2510879D01*
Y23819D01*
X2510833D01*
Y23865D01*
X2510788D01*
Y23910D01*
X2510742D01*
Y23956D01*
X2510696D01*
Y24048D01*
X2510650D01*
Y24094D01*
X2510604D01*
Y24140D01*
X2510558D01*
Y24231D01*
X2510513D01*
Y24277D01*
X2510467D01*
Y24369D01*
X2510421D01*
Y24415D01*
X2510375D01*
Y24506D01*
X2510329D01*
Y24552D01*
X2510283D01*
Y24644D01*
X2510237D01*
Y24735D01*
X2510192D01*
Y24827D01*
X2510146D01*
Y24919D01*
X2510100D01*
Y25010D01*
X2510054D01*
Y25102D01*
X2510008D01*
Y25240D01*
X2509962D01*
Y25377D01*
X2509917D01*
Y25469D01*
X2509871D01*
Y25606D01*
X2509825D01*
Y25790D01*
X2509779D01*
Y25927D01*
X2509733D01*
Y26110D01*
X2509688D01*
Y26340D01*
X2509642D01*
Y26615D01*
X2509596D01*
Y26935D01*
X2509550D01*
Y27760D01*
X2509504D01*
Y48065D01*
X2511017D01*
Y27119D01*
D02*
G37*
G36*
X18388Y26440D02*
X18479D01*
Y26394D01*
X18571D01*
Y26348D01*
X18663D01*
Y26302D01*
X18708D01*
Y26256D01*
X18754D01*
Y26210D01*
X18800D01*
Y26165D01*
X18846D01*
Y26119D01*
X18892D01*
Y26073D01*
X18937D01*
Y25981D01*
X18983D01*
Y25890D01*
X19029D01*
Y25798D01*
X19075D01*
Y25660D01*
X19121D01*
Y25569D01*
X19167D01*
Y25431D01*
X19212D01*
Y25294D01*
X19258D01*
Y25156D01*
X19304D01*
Y25019D01*
X19350D01*
Y24927D01*
X19396D01*
Y24790D01*
X19442D01*
Y24652D01*
X19488D01*
Y24515D01*
X19533D01*
Y24377D01*
X19579D01*
Y24285D01*
X19625D01*
Y24148D01*
X19671D01*
Y24010D01*
X19717D01*
Y23873D01*
X19763D01*
Y23735D01*
X19808D01*
Y23598D01*
X19854D01*
Y23506D01*
X19900D01*
Y23369D01*
X19946D01*
Y23231D01*
X19992D01*
Y23094D01*
X20038D01*
Y22956D01*
X20083D01*
Y22865D01*
X20129D01*
Y22727D01*
X20175D01*
Y22590D01*
X20221D01*
Y22452D01*
X20267D01*
Y22315D01*
X20312D01*
Y22223D01*
X20358D01*
Y22085D01*
X20404D01*
Y21948D01*
X20450D01*
Y21810D01*
X20496D01*
Y21673D01*
X20542D01*
Y21535D01*
X20587D01*
Y21444D01*
X20633D01*
Y21306D01*
X20679D01*
Y21169D01*
X20725D01*
Y21031D01*
X20771D01*
Y20894D01*
X20817D01*
Y20802D01*
X20863D01*
Y20665D01*
X20908D01*
Y20527D01*
X20954D01*
Y20390D01*
X21000D01*
Y20252D01*
X21046D01*
Y20160D01*
X21092D01*
Y20023D01*
X21137D01*
Y19885D01*
X21183D01*
Y19748D01*
X19304D01*
Y19794D01*
X19258D01*
Y19931D01*
X19212D01*
Y20069D01*
X19167D01*
Y20206D01*
X19121D01*
Y20344D01*
X19075D01*
Y20481D01*
X19029D01*
Y20619D01*
X18983D01*
Y20756D01*
X18937D01*
Y20848D01*
X18892D01*
Y20985D01*
X18846D01*
Y21123D01*
X18800D01*
Y21260D01*
X18754D01*
Y21398D01*
X18708D01*
Y21444D01*
X16463D01*
Y21306D01*
X16417D01*
Y21169D01*
X16371D01*
Y21031D01*
X16325D01*
Y20894D01*
X16279D01*
Y20756D01*
X16233D01*
Y20619D01*
X16187D01*
Y20481D01*
X16142D01*
Y20344D01*
X16096D01*
Y20206D01*
X16050D01*
Y20069D01*
X16004D01*
Y19931D01*
X15958D01*
Y19794D01*
X15912D01*
Y19748D01*
X14721D01*
Y19931D01*
X14767D01*
Y20069D01*
X14813D01*
Y20206D01*
X14858D01*
Y20344D01*
X14904D01*
Y20481D01*
X14950D01*
Y20619D01*
X14996D01*
Y20756D01*
X15042D01*
Y20894D01*
X15087D01*
Y21031D01*
X15133D01*
Y21169D01*
X15179D01*
Y21306D01*
X15225D01*
Y21444D01*
X15271D01*
Y21581D01*
X15317D01*
Y21719D01*
X15362D01*
Y21856D01*
X15408D01*
Y21994D01*
X15454D01*
Y22131D01*
X15500D01*
Y22269D01*
X15546D01*
Y22360D01*
X15592D01*
Y22452D01*
Y22498D01*
X15638D01*
Y22635D01*
X15683D01*
Y22773D01*
X15729D01*
Y22910D01*
X15775D01*
Y23048D01*
X15821D01*
Y23185D01*
X15867D01*
Y23323D01*
X15912D01*
Y23460D01*
X15958D01*
Y23598D01*
X16004D01*
Y23735D01*
X16050D01*
Y23873D01*
X16096D01*
Y24010D01*
X16142D01*
Y24148D01*
X16187D01*
Y24285D01*
X16233D01*
Y24423D01*
X16279D01*
Y24560D01*
X16325D01*
Y24698D01*
X16371D01*
Y24835D01*
X16417D01*
Y24973D01*
X16463D01*
Y25110D01*
X16508D01*
Y25248D01*
X16554D01*
Y25385D01*
X16600D01*
Y25523D01*
X16646D01*
Y25660D01*
X16692D01*
Y26073D01*
X16646D01*
Y26165D01*
X16600D01*
Y26256D01*
X16554D01*
Y26302D01*
X16508D01*
Y26348D01*
X16463D01*
Y26394D01*
X16417D01*
Y26440D01*
X16371D01*
Y26485D01*
X18388D01*
Y26440D01*
D02*
G37*
G36*
X2521650Y17540D02*
X2522063D01*
Y17494D01*
X2522337D01*
Y17448D01*
X2522521D01*
Y17402D01*
X2522658D01*
Y17356D01*
X2522842D01*
Y17310D01*
X2522888D01*
Y15981D01*
X2522842D01*
Y16027D01*
X2522750D01*
Y16073D01*
X2522658D01*
Y16119D01*
X2522567D01*
Y16165D01*
X2522475D01*
Y16210D01*
X2522337D01*
Y16256D01*
X2522200D01*
Y16302D01*
X2522017D01*
Y16348D01*
X2521788D01*
Y16394D01*
X2520963D01*
Y16348D01*
X2520733D01*
Y16302D01*
X2520596D01*
Y16256D01*
X2520504D01*
Y16210D01*
X2520367D01*
Y16165D01*
X2520321D01*
Y16119D01*
X2520229D01*
Y16073D01*
X2520137D01*
Y16027D01*
X2520092D01*
Y15981D01*
X2520046D01*
Y15935D01*
X2520000D01*
Y15890D01*
X2519908D01*
Y15844D01*
X2519863D01*
Y15752D01*
X2519817D01*
Y15706D01*
X2519771D01*
Y15660D01*
X2519725D01*
Y15615D01*
X2519679D01*
Y15523D01*
X2519633D01*
Y15477D01*
X2519588D01*
Y15385D01*
X2519542D01*
Y15294D01*
X2519496D01*
Y15202D01*
X2519450D01*
Y15065D01*
X2519404D01*
Y14927D01*
X2519358D01*
Y14744D01*
X2519312D01*
Y14423D01*
X2519267D01*
Y13781D01*
X2519312D01*
Y13415D01*
X2519358D01*
Y13185D01*
X2519404D01*
Y13002D01*
X2519450D01*
Y12865D01*
X2519496D01*
Y12727D01*
X2519542D01*
Y12635D01*
X2519588D01*
Y12544D01*
X2519633D01*
Y12452D01*
X2519679D01*
Y12360D01*
X2519725D01*
Y12315D01*
X2519771D01*
Y12223D01*
X2519817D01*
Y12177D01*
X2519863D01*
Y12131D01*
X2519908D01*
Y12085D01*
X2519954D01*
Y12040D01*
X2520000D01*
Y11994D01*
X2520046D01*
Y11948D01*
X2520092D01*
Y11902D01*
X2520137D01*
Y11856D01*
X2520229D01*
Y11810D01*
X2520321D01*
Y11765D01*
X2520412D01*
Y11719D01*
X2520504D01*
Y11673D01*
X2520642D01*
Y11627D01*
X2520963D01*
Y11581D01*
X2521237D01*
Y11627D01*
X2521512D01*
Y14056D01*
X2521467D01*
Y14240D01*
X2521421D01*
Y14331D01*
X2521375D01*
Y14423D01*
X2521329D01*
Y14469D01*
X2521283D01*
Y14515D01*
X2521237D01*
Y14606D01*
X2521146D01*
Y14652D01*
X2522750D01*
Y14606D01*
X2522842D01*
Y14560D01*
X2522933D01*
Y14515D01*
X2523025D01*
Y14469D01*
X2523071D01*
Y14423D01*
X2523117D01*
Y14377D01*
X2523163D01*
Y14285D01*
X2523208D01*
Y14194D01*
X2523254D01*
Y14102D01*
X2523300D01*
Y10848D01*
X2523254D01*
Y10802D01*
X2523117D01*
Y10756D01*
X2522933D01*
Y10710D01*
X2522704D01*
Y10665D01*
X2522475D01*
Y10619D01*
X2522200D01*
Y10573D01*
X2521833D01*
Y10527D01*
X2520825D01*
Y10573D01*
X2520458D01*
Y10619D01*
X2520183D01*
Y10665D01*
X2520000D01*
Y10710D01*
X2519863D01*
Y10756D01*
X2519679D01*
Y10802D01*
X2519588D01*
Y10848D01*
X2519450D01*
Y10894D01*
X2519358D01*
Y10940D01*
X2519267D01*
Y10985D01*
X2519175D01*
Y11031D01*
X2519083D01*
Y11077D01*
X2518992D01*
Y11123D01*
X2518900D01*
Y11169D01*
X2518854D01*
Y11215D01*
X2518763D01*
Y11260D01*
X2518717D01*
Y11306D01*
X2518671D01*
Y11352D01*
X2518579D01*
Y11398D01*
X2518533D01*
Y11444D01*
X2518488D01*
Y11490D01*
X2518442D01*
Y11535D01*
X2518396D01*
Y11581D01*
X2518350D01*
Y11627D01*
X2518304D01*
Y11673D01*
X2518258D01*
Y11719D01*
X2518212D01*
Y11765D01*
X2518167D01*
Y11810D01*
X2518121D01*
Y11902D01*
X2518075D01*
Y11948D01*
X2518029D01*
Y11994D01*
X2517983D01*
Y12085D01*
X2517937D01*
Y12131D01*
X2517892D01*
Y12223D01*
X2517846D01*
Y12315D01*
X2517800D01*
Y12360D01*
X2517754D01*
Y12498D01*
X2517708D01*
Y12590D01*
X2517663D01*
Y12681D01*
X2517617D01*
Y12819D01*
X2517571D01*
Y12956D01*
X2517525D01*
Y13139D01*
X2517479D01*
Y13415D01*
X2517433D01*
Y14560D01*
X2517479D01*
Y14835D01*
X2517525D01*
Y14973D01*
X2517571D01*
Y15156D01*
X2517617D01*
Y15294D01*
X2517663D01*
Y15385D01*
X2517708D01*
Y15477D01*
X2517754D01*
Y15615D01*
X2517800D01*
Y15660D01*
X2517846D01*
Y15752D01*
X2517892D01*
Y15844D01*
X2517937D01*
Y15935D01*
X2517983D01*
Y15981D01*
X2518029D01*
Y16073D01*
X2518075D01*
Y16119D01*
X2518121D01*
Y16165D01*
X2518167D01*
Y16210D01*
X2518212D01*
Y16302D01*
X2518258D01*
Y16348D01*
X2518304D01*
Y16394D01*
X2518350D01*
Y16440D01*
X2518396D01*
Y16485D01*
X2518442D01*
Y16531D01*
X2518488D01*
Y16577D01*
X2518533D01*
Y16623D01*
X2518579D01*
Y16669D01*
X2518671D01*
Y16715D01*
X2518717D01*
Y16760D01*
X2518763D01*
Y16806D01*
X2518854D01*
Y16852D01*
X2518900D01*
Y16898D01*
X2518946D01*
Y16944D01*
X2519037D01*
Y16990D01*
X2519129D01*
Y17035D01*
X2519175D01*
Y17081D01*
X2519267D01*
Y17127D01*
X2519358D01*
Y17173D01*
X2519496D01*
Y17219D01*
X2519588D01*
Y17265D01*
X2519679D01*
Y17310D01*
X2519817D01*
Y17356D01*
X2519954D01*
Y17402D01*
X2520137D01*
Y17448D01*
X2520321D01*
Y17494D01*
X2520596D01*
Y17540D01*
X2521054D01*
Y17585D01*
X2521650D01*
Y17540D01*
D02*
G37*
G36*
X2531962Y10710D02*
X2531917D01*
Y10665D01*
X2530175D01*
Y13506D01*
X2528112D01*
Y10710D01*
X2528067D01*
Y10665D01*
X2526325D01*
Y10710D01*
X2526279D01*
Y16898D01*
X2526233D01*
Y17035D01*
X2526187D01*
Y17127D01*
X2526142D01*
Y17173D01*
X2526096D01*
Y17265D01*
X2526050D01*
Y17310D01*
X2526004D01*
Y17356D01*
X2525958D01*
Y17402D01*
X2527471D01*
Y17356D01*
X2527608D01*
Y17310D01*
X2527700D01*
Y17265D01*
X2527746D01*
Y17219D01*
X2527792D01*
Y17173D01*
X2527838D01*
Y17127D01*
X2527883D01*
Y17081D01*
X2527929D01*
Y17035D01*
X2527975D01*
Y16944D01*
X2528021D01*
Y16852D01*
X2528067D01*
Y16669D01*
X2528112D01*
Y14652D01*
X2530129D01*
Y14698D01*
X2530175D01*
Y17402D01*
X2531962D01*
Y10710D01*
D02*
G37*
G36*
X2512850Y17356D02*
X2512942D01*
Y17310D01*
X2513033D01*
Y17265D01*
X2513125D01*
Y17219D01*
X2513171D01*
Y17173D01*
X2513217D01*
Y17127D01*
X2513262D01*
Y17081D01*
X2513308D01*
Y17035D01*
X2513354D01*
Y16990D01*
X2513400D01*
Y16898D01*
X2513446D01*
Y16806D01*
X2513492D01*
Y16715D01*
X2513537D01*
Y16577D01*
X2513583D01*
Y16485D01*
X2513629D01*
Y16348D01*
X2513675D01*
Y16210D01*
X2513721D01*
Y16073D01*
X2513767D01*
Y15935D01*
X2513813D01*
Y15844D01*
X2513858D01*
Y15706D01*
X2513904D01*
Y15569D01*
X2513950D01*
Y15431D01*
X2513996D01*
Y15294D01*
X2514042D01*
Y15202D01*
X2514088D01*
Y15065D01*
X2514133D01*
Y14927D01*
X2514179D01*
Y14790D01*
X2514225D01*
Y14652D01*
X2514271D01*
Y14515D01*
X2514317D01*
Y14423D01*
X2514362D01*
Y14285D01*
X2514408D01*
Y14148D01*
X2514454D01*
Y14010D01*
X2514500D01*
Y13873D01*
X2514546D01*
Y13781D01*
X2514592D01*
Y13644D01*
X2514637D01*
Y13506D01*
X2514683D01*
Y13369D01*
X2514729D01*
Y13231D01*
X2514775D01*
Y13139D01*
X2514821D01*
Y13002D01*
X2514867D01*
Y12865D01*
X2514913D01*
Y12727D01*
X2514958D01*
Y12590D01*
X2515004D01*
Y12452D01*
X2515050D01*
Y12360D01*
X2515096D01*
Y12223D01*
X2515142D01*
Y12085D01*
X2515188D01*
Y11948D01*
X2515233D01*
Y11810D01*
X2515279D01*
Y11719D01*
X2515325D01*
Y11581D01*
X2515371D01*
Y11444D01*
X2515417D01*
Y11306D01*
X2515462D01*
Y11169D01*
X2515508D01*
Y11077D01*
X2515554D01*
Y10940D01*
X2515600D01*
Y10802D01*
X2515646D01*
Y10665D01*
X2513767D01*
Y10710D01*
X2513721D01*
Y10848D01*
X2513675D01*
Y10985D01*
X2513629D01*
Y11123D01*
X2513583D01*
Y11260D01*
X2513537D01*
Y11398D01*
X2513492D01*
Y11535D01*
X2513446D01*
Y11673D01*
X2513400D01*
Y11765D01*
X2513354D01*
Y11902D01*
X2513308D01*
Y12040D01*
X2513262D01*
Y12177D01*
X2513217D01*
Y12315D01*
X2513171D01*
Y12360D01*
X2510925D01*
Y12223D01*
X2510879D01*
Y12085D01*
X2510833D01*
Y11948D01*
X2510788D01*
Y11810D01*
X2510742D01*
Y11673D01*
X2510696D01*
Y11535D01*
X2510650D01*
Y11398D01*
X2510604D01*
Y11260D01*
X2510558D01*
Y11123D01*
X2510513D01*
Y10985D01*
X2510467D01*
Y10848D01*
X2510421D01*
Y10710D01*
X2510375D01*
Y10665D01*
X2509183D01*
Y10848D01*
X2509229D01*
Y10985D01*
X2509275D01*
Y11123D01*
X2509321D01*
Y11260D01*
X2509367D01*
Y11398D01*
X2509413D01*
Y11535D01*
X2509458D01*
Y11673D01*
X2509504D01*
Y11810D01*
X2509550D01*
Y11948D01*
X2509596D01*
Y12085D01*
X2509642D01*
Y12223D01*
X2509688D01*
Y12360D01*
X2509733D01*
Y12498D01*
X2509779D01*
Y12635D01*
X2509825D01*
Y12773D01*
X2509871D01*
Y12910D01*
X2509917D01*
Y13048D01*
X2509962D01*
Y13185D01*
X2510008D01*
Y13277D01*
X2510054D01*
Y13369D01*
Y13415D01*
X2510100D01*
Y13552D01*
X2510146D01*
Y13690D01*
X2510192D01*
Y13827D01*
X2510237D01*
Y13965D01*
X2510283D01*
Y14102D01*
X2510329D01*
Y14240D01*
X2510375D01*
Y14377D01*
X2510421D01*
Y14515D01*
X2510467D01*
Y14652D01*
X2510513D01*
Y14790D01*
X2510558D01*
Y14927D01*
X2510604D01*
Y15065D01*
X2510650D01*
Y15202D01*
X2510696D01*
Y15340D01*
X2510742D01*
Y15477D01*
X2510788D01*
Y15615D01*
X2510833D01*
Y15752D01*
X2510879D01*
Y15890D01*
X2510925D01*
Y16027D01*
X2510971D01*
Y16165D01*
X2511017D01*
Y16302D01*
X2511062D01*
Y16440D01*
X2511108D01*
Y16577D01*
X2511154D01*
Y16990D01*
X2511108D01*
Y17081D01*
X2511062D01*
Y17173D01*
X2511017D01*
Y17219D01*
X2510971D01*
Y17265D01*
X2510925D01*
Y17310D01*
X2510879D01*
Y17356D01*
X2510833D01*
Y17402D01*
X2512850D01*
Y17356D01*
D02*
G37*
%LPC*%
G36*
X17608Y24744D02*
X17563D01*
Y24652D01*
X17517D01*
Y24515D01*
X17471D01*
Y24377D01*
X17425D01*
Y24240D01*
X17379D01*
Y24102D01*
X17333D01*
Y23919D01*
X17287D01*
Y23781D01*
X17242D01*
Y23644D01*
X17196D01*
Y23506D01*
X17150D01*
Y23369D01*
X17104D01*
Y23231D01*
X17058D01*
Y23094D01*
X17012D01*
Y22956D01*
X16967D01*
Y22819D01*
X16921D01*
Y22681D01*
X16875D01*
Y22544D01*
X16829D01*
Y22498D01*
X18342D01*
Y22635D01*
X18296D01*
Y22773D01*
X18250D01*
Y22910D01*
X18204D01*
Y23048D01*
X18158D01*
Y23094D01*
Y23140D01*
Y23185D01*
X18112D01*
Y23323D01*
X18067D01*
Y23460D01*
X18021D01*
Y23552D01*
X17975D01*
Y23690D01*
X17929D01*
Y23827D01*
X17883D01*
Y23965D01*
X17838D01*
Y24102D01*
X17792D01*
Y24240D01*
X17746D01*
Y24377D01*
X17700D01*
Y24515D01*
X17654D01*
Y24652D01*
X17608D01*
Y24744D01*
D02*
G37*
G36*
X2512071Y15660D02*
X2512025D01*
Y15569D01*
X2511979D01*
Y15431D01*
X2511933D01*
Y15294D01*
X2511888D01*
Y15156D01*
X2511842D01*
Y15019D01*
X2511796D01*
Y14835D01*
X2511750D01*
Y14698D01*
X2511704D01*
Y14560D01*
X2511658D01*
Y14423D01*
X2511613D01*
Y14285D01*
X2511567D01*
Y14148D01*
X2511521D01*
Y14010D01*
X2511475D01*
Y13873D01*
X2511429D01*
Y13735D01*
X2511383D01*
Y13598D01*
X2511337D01*
Y13460D01*
X2511292D01*
Y13415D01*
X2512804D01*
Y13552D01*
X2512758D01*
Y13690D01*
X2512713D01*
Y13827D01*
X2512667D01*
Y13965D01*
X2512621D01*
Y14010D01*
Y14056D01*
Y14102D01*
X2512575D01*
Y14240D01*
X2512529D01*
Y14377D01*
X2512483D01*
Y14469D01*
X2512437D01*
Y14606D01*
X2512392D01*
Y14744D01*
X2512346D01*
Y14881D01*
X2512300D01*
Y15019D01*
X2512254D01*
Y15156D01*
X2512208D01*
Y15294D01*
X2512162D01*
Y15431D01*
X2512117D01*
Y15569D01*
X2512071D01*
Y15660D01*
D02*
G37*
%LPD*%
D10*
X1043490Y191510D02*
G03*
X1043490Y191510I-1000J0D01*
G01*
X1243490D02*
G03*
X1243490Y191510I-1000J0D01*
G01*
X1343490D02*
G03*
X1343490Y191510I-1000J0D01*
G01*
X1143490D02*
G03*
X1143490Y191510I-1000J0D01*
G01*
X1540965Y89980D02*
G03*
X1540965Y89980I-1000J0D01*
G01*
X2005060Y276370D02*
G03*
X2005060Y276370I-1000J0D01*
G01*
X1964032Y230286D02*
G03*
X1964032Y230286I-1000J0D01*
G01*
X2464120Y303100D02*
G03*
X2464120Y303100I-1000J0D01*
G01*
X132046Y252854D02*
Y264854D01*
X118046Y252854D02*
X132046D01*
X118046D02*
Y264854D01*
X228456Y84060D02*
X244456D01*
Y91060D01*
X228456Y84060D02*
Y91060D01*
X152520Y84060D02*
X168520D01*
Y91060D01*
X152520Y84060D02*
Y91060D01*
X2429470Y296600D02*
X2522170D01*
X2429470Y80700D02*
X2522170D01*
Y296600D01*
X2429470Y80700D02*
Y296600D01*
D11*
X534940Y152400D02*
G03*
X534940Y152400I-62500J0D01*
G01*
X719280Y185420D02*
G03*
X719280Y185420I-62500J0D01*
G01*
D12*
X1496060Y290830D02*
G03*
X1516380Y290830I10160J0D01*
G01*
X1557020Y189230D02*
Y290830D01*
X1455420Y189230D02*
Y290830D01*
X1531620Y189230D02*
X1557020D01*
X1531620Y290830D02*
X1557020D01*
X1455420D02*
X1480820D01*
X1531620Y189230D02*
Y290830D01*
X1480820Y189230D02*
X1531620D01*
X1480820D02*
Y290830D01*
X1496060D01*
X1455420Y189230D02*
X1480820D01*
D13*
X2387025Y110462D02*
G03*
X2387025Y110462I-7114J0D01*
G01*
X2125911Y280462D02*
G03*
X2125911Y280462I-11001J0D01*
G01*
X2127910D02*
G03*
X2127910Y280462I-13000J0D01*
G01*
X2132410D02*
G03*
X2132410Y280462I-17501J0D01*
G01*
X2397411Y195461D02*
G03*
X2397411Y195461I-17501J0D01*
G01*
Y60462D02*
G03*
X2397411Y60462I-17501J0D01*
G01*
Y280462D02*
G03*
X2397411Y280462I-17501J0D01*
G01*
X2087409Y60462D02*
G03*
X2087409Y60462I-17501J0D01*
G01*
Y280462D02*
G03*
X2087409Y280462I-17501J0D01*
G01*
X2354909Y120462D02*
X2364909D01*
Y100462D02*
Y120462D01*
X2354909Y100462D02*
X2364909D01*
X2354909D02*
Y120462D01*
X2184910Y250462D02*
X2334909D01*
Y85461D02*
Y250462D01*
X2184910Y85461D02*
X2334909D01*
X2184910D02*
Y250462D01*
X2169911Y270462D02*
X2187160D01*
Y263962D02*
Y270462D01*
X2169911Y263962D02*
X2187160D01*
X2169911D02*
Y270462D01*
X2224910Y290462D02*
X2304910D01*
Y260462D02*
Y290462D01*
X2224910Y260462D02*
X2304910D01*
X2224910D02*
Y290462D01*
X2164910D02*
X2194910D01*
Y275461D02*
Y290462D01*
X2164910Y275461D02*
X2194910D01*
X2164910D02*
Y290462D01*
X2099911Y165461D02*
X2139911D01*
Y145461D02*
Y165461D01*
X2099911Y145461D02*
X2139911D01*
X2099911D02*
Y165461D01*
X2109911Y230462D02*
X2129911D01*
Y210462D02*
Y230462D01*
X2109911Y210462D02*
X2129911D01*
X2109911D02*
Y230462D01*
X2049909Y300462D02*
X2399908D01*
Y40463D02*
Y300462D01*
X2049909Y40463D02*
X2399908D01*
X2049909D02*
Y300462D01*
X2214910Y285462D02*
X2224910D01*
X2214910Y280462D02*
X2224910D01*
X2214910Y275462D02*
X2224910D01*
X2214910Y270462D02*
X2224910D01*
X2214910Y265462D02*
X2224910D01*
X2304910Y285462D02*
X2314910D01*
X2304910Y280462D02*
X2314910D01*
X2304910Y275462D02*
X2314910D01*
X2304910Y270462D02*
X2314910D01*
X2304910Y265462D02*
X2314910D01*
X2374910Y115462D02*
X2384910Y105462D01*
X2374910Y115462D02*
Y115462D01*
Y105462D02*
X2384910Y115462D01*
X2374910Y105462D02*
Y105462D01*
X1056082Y297125D02*
X1042540D01*
Y286968D01*
X1049311D01*
X1042540D01*
Y276811D01*
X1062853D02*
X1069625D01*
X1066239D01*
Y297125D01*
X1062853D01*
X1079781Y276811D02*
X1086552D01*
X1083167D01*
Y290353D01*
X1079781D01*
X1096709Y270040D02*
Y290353D01*
X1106866D01*
X1110251Y286968D01*
Y280197D01*
X1106866Y276811D01*
X1096709D01*
X1117023Y286968D02*
X1130565D01*
X1150878Y293739D02*
X1147493Y297125D01*
X1140722D01*
X1137336Y293739D01*
Y280197D01*
X1140722Y276811D01*
X1147493D01*
X1150878Y280197D01*
X1157649Y276811D02*
X1164420D01*
X1161035D01*
Y297125D01*
X1157649D01*
X1177963Y276811D02*
X1184734D01*
X1188120Y280197D01*
Y286968D01*
X1184734Y290353D01*
X1177963D01*
X1174577Y286968D01*
Y280197D01*
X1177963Y276811D01*
X1208433Y290353D02*
X1198276D01*
X1194891Y286968D01*
Y280197D01*
X1198276Y276811D01*
X1208433D01*
X1215204D02*
Y297125D01*
Y283582D02*
X1225361Y290353D01*
X1215204Y283582D02*
X1225361Y276811D01*
X1255831D02*
Y297125D01*
X1262602Y290353D01*
X1269373Y297125D01*
Y276811D01*
X1279530Y290353D02*
X1286301D01*
X1289687Y286968D01*
Y276811D01*
X1279530D01*
X1276144Y280197D01*
X1279530Y283582D01*
X1289687D01*
X1299843Y293739D02*
Y290353D01*
X1296458D01*
X1303229D01*
X1299843D01*
Y280197D01*
X1303229Y276811D01*
X1313386Y290353D02*
Y276811D01*
Y283582D01*
X1316771Y286968D01*
X1320157Y290353D01*
X1323542D01*
X1333699Y276811D02*
X1340470D01*
X1337085D01*
Y290353D01*
X1333699D01*
X1350627D02*
X1364169Y276811D01*
X1357398Y283582D01*
X1364169Y290353D01*
X1350627Y276811D01*
X1042540Y258504D02*
Y250040D01*
Y254272D01*
X1044656Y256388D01*
X1046772Y258504D01*
X1048888D01*
X1061584Y250040D02*
X1057352D01*
X1055236Y252156D01*
Y256388D01*
X1057352Y258504D01*
X1061584D01*
X1063700Y256388D01*
Y254272D01*
X1055236D01*
X1067932Y258504D02*
X1072164Y250040D01*
X1076396Y258504D01*
X1080628Y260620D02*
X1082744Y262736D01*
X1086976D01*
X1089092Y260620D01*
Y252156D01*
X1086976Y250040D01*
X1082744D01*
X1080628Y252156D01*
Y260620D01*
X1101787Y250040D02*
X1093324D01*
X1101787Y258504D01*
Y260620D01*
X1099671Y262736D01*
X1095440D01*
X1093324Y260620D01*
X952500Y32168D02*
X960964D01*
X956732D01*
Y19472D01*
X967312D02*
X971544D01*
X973660Y21588D01*
Y25820D01*
X971544Y27936D01*
X967312D01*
X965196Y25820D01*
Y21588D01*
X967312Y19472D01*
X977892D02*
Y27936D01*
X980008D01*
X982124Y25820D01*
Y19472D01*
Y25820D01*
X984240Y27936D01*
X986356Y25820D01*
Y19472D01*
X992704Y27936D02*
X996936D01*
X999052Y25820D01*
Y19472D01*
X992704D01*
X990588Y21588D01*
X992704Y23704D01*
X999052D01*
X1003283Y19472D02*
X1009632D01*
X1011748Y21588D01*
X1009632Y23704D01*
X1005399D01*
X1003283Y25820D01*
X1005399Y27936D01*
X1011748D01*
X1015979D02*
X1024443D01*
X1015979Y19472D01*
X1024443D01*
X1041371D02*
Y32168D01*
X1045603Y27936D01*
X1049835Y32168D01*
Y19472D01*
X1056183Y27936D02*
X1060415D01*
X1062531Y25820D01*
Y19472D01*
X1056183D01*
X1054067Y21588D01*
X1056183Y23704D01*
X1062531D01*
X1075227Y27936D02*
X1068879D01*
X1066763Y25820D01*
Y21588D01*
X1068879Y19472D01*
X1075227D01*
X1079459Y32168D02*
Y19472D01*
Y25820D01*
X1081575Y27936D01*
X1085807D01*
X1087923Y25820D01*
Y19472D01*
X1092155D02*
Y27936D01*
X1098503D01*
X1100619Y25820D01*
Y19472D01*
X1104851D02*
X1109083D01*
X1106967D01*
Y27936D01*
X1104851D01*
X1115431Y19472D02*
Y32168D01*
Y23704D02*
X1121778Y27936D01*
X1115431Y23704D02*
X1121778Y19472D01*
X1130242Y17356D02*
X1132358Y19472D01*
Y21588D01*
X1130242D01*
Y19472D01*
X1132358D01*
X1130242Y17356D01*
X1128126Y15240D01*
X1161982Y30052D02*
X1159866Y32168D01*
X1155634D01*
X1153518Y30052D01*
Y27936D01*
X1155634Y25820D01*
X1159866D01*
X1161982Y23704D01*
Y21588D01*
X1159866Y19472D01*
X1155634D01*
X1153518Y21588D01*
X1168330Y30052D02*
Y27936D01*
X1166214D01*
X1170446D01*
X1168330D01*
Y21588D01*
X1170446Y19472D01*
X1178910Y27936D02*
X1183142D01*
X1185258Y25820D01*
Y19472D01*
X1178910D01*
X1176794Y21588D01*
X1178910Y23704D01*
X1185258D01*
X1189490Y19472D02*
X1195838D01*
X1197954Y21588D01*
X1195838Y23704D01*
X1191606D01*
X1189490Y25820D01*
X1191606Y27936D01*
X1197954D01*
X1202186D02*
X1210650D01*
X1202186Y19472D01*
X1210650D01*
X1221230D02*
X1216998D01*
X1214882Y21588D01*
Y25820D01*
X1216998Y27936D01*
X1221230D01*
X1223346Y25820D01*
Y23704D01*
X1214882D01*
X1227578Y19472D02*
Y32168D01*
Y23704D02*
X1233925Y27936D01*
X1227578Y23704D02*
X1233925Y19472D01*
X1252969Y32168D02*
Y19472D01*
Y23704D01*
X1261433Y32168D01*
X1255085Y25820D01*
X1261433Y19472D01*
X1267781Y27936D02*
X1272013D01*
X1274129Y25820D01*
Y19472D01*
X1267781D01*
X1265665Y21588D01*
X1267781Y23704D01*
X1274129D01*
X1278361Y27936D02*
Y19472D01*
Y23704D01*
X1280477Y25820D01*
X1282593Y27936D01*
X1284709D01*
X1299521D02*
X1293173D01*
X1291057Y25820D01*
Y21588D01*
X1293173Y19472D01*
X1299521D01*
X1303753Y27936D02*
X1312217D01*
X1303753Y19472D01*
X1312217D01*
X1318565Y17356D02*
X1320681Y19472D01*
Y21588D01*
X1318565D01*
Y19472D01*
X1320681D01*
X1318565Y17356D01*
X1316449Y15240D01*
X1350304Y32168D02*
X1346073D01*
X1348188D01*
Y21588D01*
X1346073Y19472D01*
X1343956D01*
X1341841Y21588D01*
X1356652Y27936D02*
X1360884D01*
X1363000Y25820D01*
Y19472D01*
X1356652D01*
X1354536Y21588D01*
X1356652Y23704D01*
X1363000D01*
X1367232Y19472D02*
Y27936D01*
X1373580D01*
X1375696Y25820D01*
Y19472D01*
X1392624D02*
Y32168D01*
X1396856Y27936D01*
X1401088Y32168D01*
Y19472D01*
X1405320Y27936D02*
Y19472D01*
Y23704D01*
X1407436Y25820D01*
X1409552Y27936D01*
X1411668D01*
X1418016D02*
X1426480D01*
X1418016Y19472D01*
X1426480D01*
X1430712Y27936D02*
Y21588D01*
X1432828Y19472D01*
X1439176D01*
Y17356D01*
X1437060Y15240D01*
X1434944D01*
X1439176Y19472D02*
Y27936D01*
X1447639Y15240D02*
X1449756D01*
X1451871Y17356D01*
Y27936D01*
X1445524D01*
X1443408Y25820D01*
Y21588D01*
X1445524Y19472D01*
X1451871D01*
X1456104D02*
X1460335D01*
X1458219D01*
Y32168D01*
X1456104D01*
X1468799Y19472D02*
X1473031D01*
X1475147Y21588D01*
Y25820D01*
X1473031Y27936D01*
X1468799D01*
X1466683Y25820D01*
Y21588D01*
X1468799Y19472D01*
X1487843Y32168D02*
Y19472D01*
X1481495D01*
X1479379Y21588D01*
Y25820D01*
X1481495Y27936D01*
X1487843D01*
X1494191Y17356D02*
X1496307Y19472D01*
Y21588D01*
X1494191D01*
Y19472D01*
X1496307D01*
X1494191Y17356D01*
X1492075Y15240D01*
X1525931Y19472D02*
X1517467D01*
X1525931Y27936D01*
Y30052D01*
X1523815Y32168D01*
X1519583D01*
X1517467Y30052D01*
X1530163D02*
X1532279Y32168D01*
X1536511D01*
X1538627Y30052D01*
Y21588D01*
X1536511Y19472D01*
X1532279D01*
X1530163Y21588D01*
Y30052D01*
X1551323Y19472D02*
X1542859D01*
X1551323Y27936D01*
Y30052D01*
X1549207Y32168D01*
X1544975D01*
X1542859Y30052D01*
X1564019Y32168D02*
X1555555D01*
Y25820D01*
X1559787Y27936D01*
X1561902D01*
X1564019Y25820D01*
Y21588D01*
X1561902Y19472D01*
X1557670D01*
X1555555Y21588D01*
D14*
X2122410Y280462D02*
G03*
X2122410Y280462I-7501J0D01*
G01*
D15*
X2129911D02*
G03*
X2129911Y280462I-15001J0D01*
G01*
D16*
X7110Y81100D02*
X99810D01*
X7110Y297000D02*
X99810D01*
Y81100D02*
Y297000D01*
X7110Y81100D02*
Y297000D01*
X439420Y74930D02*
Y92710D01*
X431800Y83820D02*
X447040D01*
X472440Y152400D02*
X534670D01*
X410210D02*
X472440D01*
X689800Y245110D02*
Y262890D01*
X682180Y254000D02*
X697420D01*
X594550Y185420D02*
X656780D01*
X719010D01*
X1471659Y300718D02*
X1469966D01*
X1469120Y299872D01*
Y296486D01*
X1469966Y295640D01*
X1471659D01*
X1472506Y296486D01*
Y299872D01*
X1471659Y300718D01*
X1474198Y295640D02*
Y300718D01*
X1476738D01*
X1477584Y299872D01*
Y298179D01*
X1476738Y297333D01*
X1474198D01*
X1479277Y295640D02*
X1480970D01*
X1480123D01*
Y300718D01*
X1479277Y299872D01*
X1483509D02*
X1484355Y300718D01*
X1486048D01*
X1486894Y299872D01*
Y296486D01*
X1486048Y295640D01*
X1484355D01*
X1483509Y296486D01*
Y299872D01*
X1488587Y295640D02*
X1490280D01*
X1489433D01*
Y300718D01*
X1488587Y299872D01*
X261886Y306925D02*
X258500D01*
Y301846D01*
X261886D01*
X258500Y304386D02*
X260193D01*
X266964Y306078D02*
X266117Y306925D01*
X264425D01*
X263578Y306078D01*
Y305232D01*
X264425Y304386D01*
X266117D01*
X266964Y303539D01*
Y302693D01*
X266117Y301846D01*
X264425D01*
X263578Y302693D01*
X268657Y301846D02*
Y306925D01*
X271196D01*
X272042Y306078D01*
Y304386D01*
X271196Y303539D01*
X268657D01*
X273735Y306078D02*
X274581Y306925D01*
X276274D01*
X277121Y306078D01*
Y305232D01*
X276274Y304386D01*
X275428D01*
X276274D01*
X277121Y303539D01*
Y302693D01*
X276274Y301846D01*
X274581D01*
X273735Y302693D01*
X282199Y301846D02*
X278813D01*
X282199Y305232D01*
Y306078D01*
X281353Y306925D01*
X279660D01*
X278813Y306078D01*
X288970Y306925D02*
Y301846D01*
X291509D01*
X292356Y302693D01*
Y306078D01*
X291509Y306925D01*
X288970D01*
X296588Y301846D02*
X294895D01*
X294048Y302693D01*
Y304386D01*
X294895Y305232D01*
X296588D01*
X297434Y304386D01*
Y303539D01*
X294048D01*
X299127Y305232D02*
X300820Y301846D01*
X302512Y305232D01*
X304205Y301000D02*
X307591D01*
X309284Y306925D02*
Y301846D01*
X311823D01*
X312669Y302693D01*
Y303539D01*
X311823Y304386D01*
X309284D01*
X311823D01*
X312669Y305232D01*
Y306078D01*
X311823Y306925D01*
X309284D01*
X315208Y301846D02*
X316901D01*
X317747Y302693D01*
Y304386D01*
X316901Y305232D01*
X315208D01*
X314362Y304386D01*
Y302693D01*
X315208Y301846D01*
X320287Y305232D02*
X321979D01*
X322826Y304386D01*
Y301846D01*
X320287D01*
X319440Y302693D01*
X320287Y303539D01*
X322826D01*
X324519Y305232D02*
Y301846D01*
Y303539D01*
X325365Y304386D01*
X326211Y305232D01*
X327058D01*
X332982Y306925D02*
Y301846D01*
X330443D01*
X329597Y302693D01*
Y304386D01*
X330443Y305232D01*
X332982D01*
X2091795Y311302D02*
X2090948Y312148D01*
X2089256D01*
X2088409Y311302D01*
Y307916D01*
X2089256Y307070D01*
X2090948D01*
X2091795Y307916D01*
Y309609D01*
X2090102D01*
X2093488Y307070D02*
Y312148D01*
X2096027D01*
X2096873Y311302D01*
Y309609D01*
X2096027Y308763D01*
X2093488D01*
X2101951Y311302D02*
X2101105Y312148D01*
X2099412D01*
X2098566Y311302D01*
Y310456D01*
X2099412Y309609D01*
X2101105D01*
X2101951Y308763D01*
Y307916D01*
X2101105Y307070D01*
X2099412D01*
X2098566Y307916D01*
X2108723Y307070D02*
Y312148D01*
X2110415Y310456D01*
X2112108Y312148D01*
Y307070D01*
X2114647D02*
X2116340D01*
X2117187Y307916D01*
Y309609D01*
X2116340Y310456D01*
X2114647D01*
X2113801Y309609D01*
Y307916D01*
X2114647Y307070D01*
X2122265Y312148D02*
Y307070D01*
X2119726D01*
X2118879Y307916D01*
Y309609D01*
X2119726Y310456D01*
X2122265D01*
X2123958D02*
Y307916D01*
X2124804Y307070D01*
X2127343D01*
Y310456D01*
X2129036Y307070D02*
X2130729D01*
X2129883D01*
Y312148D01*
X2129036D01*
X2135807Y307070D02*
X2134115D01*
X2133268Y307916D01*
Y309609D01*
X2134115Y310456D01*
X2135807D01*
X2136654Y309609D01*
Y308763D01*
X2133268D01*
X1620866Y256692D02*
X1620020Y257538D01*
X1618327D01*
X1617480Y256692D01*
Y255846D01*
X1618327Y254999D01*
X1620020D01*
X1620866Y254153D01*
Y253306D01*
X1620020Y252460D01*
X1618327D01*
X1617480Y253306D01*
X1622559Y257538D02*
Y252460D01*
X1625098D01*
X1625944Y253306D01*
Y256692D01*
X1625098Y257538D01*
X1622559D01*
X1631023Y256692D02*
X1630176Y257538D01*
X1628483D01*
X1627637Y256692D01*
Y253306D01*
X1628483Y252460D01*
X1630176D01*
X1631023Y253306D01*
X1632715Y256692D02*
X1633562Y257538D01*
X1635255D01*
X1636101Y256692D01*
Y255846D01*
X1635255Y254999D01*
X1634408D01*
X1635255D01*
X1636101Y254153D01*
Y253306D01*
X1635255Y252460D01*
X1633562D01*
X1632715Y253306D01*
X1637794Y256692D02*
X1638640Y257538D01*
X1640333D01*
X1641179Y256692D01*
Y253306D01*
X1640333Y252460D01*
X1638640D01*
X1637794Y253306D01*
Y256692D01*
X250420Y86512D02*
X251266Y87358D01*
X252959D01*
X253806Y86512D01*
Y85666D01*
X252959Y84819D01*
X252113D01*
X252959D01*
X253806Y83973D01*
Y83126D01*
X252959Y82280D01*
X251266D01*
X250420Y83126D01*
X255498Y82280D02*
Y83126D01*
X256345D01*
Y82280D01*
X255498D01*
X259730Y86512D02*
X260577Y87358D01*
X262269D01*
X263116Y86512D01*
Y85666D01*
X262269Y84819D01*
X261423D01*
X262269D01*
X263116Y83973D01*
Y83126D01*
X262269Y82280D01*
X260577D01*
X259730Y83126D01*
X264809Y87358D02*
Y83973D01*
X266502Y82280D01*
X268194Y83973D01*
Y87358D01*
X173720Y82280D02*
X175413D01*
X174566D01*
Y87358D01*
X173720Y86512D01*
X181338Y82280D02*
X177952D01*
X181338Y85666D01*
Y86512D01*
X180491Y87358D01*
X178798D01*
X177952Y86512D01*
X183030Y87358D02*
Y83973D01*
X184723Y82280D01*
X186416Y83973D01*
Y87358D01*
X2089665Y139348D02*
X2088818Y140195D01*
Y141888D01*
X2089665Y142734D01*
X2093050D01*
X2093897Y141888D01*
Y140195D01*
X2093050Y139348D01*
X2091358D01*
Y141041D01*
X2093897Y137656D02*
X2088818D01*
X2093897Y134270D01*
X2088818D01*
Y132577D02*
X2093897D01*
Y130038D01*
X2093050Y129192D01*
X2089665D01*
X2088818Y130038D01*
Y132577D01*
X2088613Y165744D02*
Y162358D01*
Y164051D01*
X2093691D01*
X2088613Y160665D02*
X2093691Y157280D01*
X2088613D02*
X2093691Y160665D01*
X2094191Y189744D02*
X2089113D01*
Y187205D01*
X2089959Y186359D01*
X2091652D01*
X2092499Y187205D01*
Y189744D01*
Y188051D02*
X2094191Y186359D01*
X2089113Y184666D02*
X2094191Y181280D01*
X2089113D02*
X2094191Y184666D01*
X2088567Y220483D02*
X2091952D01*
X2093645Y218790D01*
X2091952Y217098D01*
X2088567D01*
X2089413Y212019D02*
X2088567Y212866D01*
Y214559D01*
X2089413Y215405D01*
X2092799D01*
X2093645Y214559D01*
Y212866D01*
X2092799Y212019D01*
X2089413Y206941D02*
X2088567Y207787D01*
Y209480D01*
X2089413Y210327D01*
X2092799D01*
X2093645Y209480D01*
Y207787D01*
X2092799Y206941D01*
X106854Y220417D02*
X103469D01*
Y217878D01*
X105162D01*
X103469D01*
Y215339D01*
X108547D02*
X110240D01*
X109394D01*
Y220417D01*
X108547Y219571D01*
X104482Y258717D02*
Y253639D01*
X107021D01*
X107867Y254485D01*
Y257871D01*
X107021Y258717D01*
X104482D01*
X109560Y257871D02*
X110406Y258717D01*
X112099D01*
X112946Y257871D01*
Y257025D01*
X112099Y256178D01*
X111253D01*
X112099D01*
X112946Y255332D01*
Y254485D01*
X112099Y253639D01*
X110406D01*
X109560Y254485D01*
X940422Y116099D02*
X939575Y116945D01*
X937883D01*
X937036Y116099D01*
Y112713D01*
X937883Y111867D01*
X939575D01*
X940422Y112713D01*
X942114Y111867D02*
X943807D01*
X942961D01*
Y116945D01*
X942114Y116099D01*
X946346D02*
X947193Y116945D01*
X948886D01*
X949732Y116099D01*
Y115252D01*
X948886Y114406D01*
X949732Y113560D01*
Y112713D01*
X948886Y111867D01*
X947193D01*
X946346Y112713D01*
Y113560D01*
X947193Y114406D01*
X946346Y115252D01*
Y116099D01*
X947193Y114406D02*
X948886D01*
X1451188Y134542D02*
Y130310D01*
X1452034Y129463D01*
X1453727D01*
X1454574Y130310D01*
Y134542D01*
X1456266D02*
X1459652D01*
Y133695D01*
X1456266Y130310D01*
Y129463D01*
X1999135Y280324D02*
Y285402D01*
X2001674D01*
X2002521Y284556D01*
Y282863D01*
X2001674Y282017D01*
X1999135D01*
X2000828D02*
X2002521Y280324D01*
X2004214Y285402D02*
Y280324D01*
X2005906Y282017D01*
X2007599Y280324D01*
Y285402D01*
X2009292Y280324D02*
X2010985D01*
X2010138D01*
Y285402D01*
X2009292Y284556D01*
X1456268Y300989D02*
Y296757D01*
X1457115Y295911D01*
X1458807D01*
X1459654Y296757D01*
Y300989D01*
X1461346Y300143D02*
X1462193Y300989D01*
X1463886D01*
X1464732Y300143D01*
Y299296D01*
X1463886Y298450D01*
X1463039D01*
X1463886D01*
X1464732Y297604D01*
Y296757D01*
X1463886Y295911D01*
X1462193D01*
X1461346Y296757D01*
X150708Y271779D02*
Y267547D01*
X151554Y266701D01*
X153247D01*
X154094Y267547D01*
Y271779D01*
X158326Y266701D02*
Y271779D01*
X155786Y269240D01*
X159172D01*
X2439774Y317989D02*
X2438081D01*
X2438927D01*
Y313757D01*
X2438081Y312911D01*
X2437234D01*
X2436388Y313757D01*
X2444852Y312911D02*
X2441466D01*
X2444852Y316296D01*
Y317143D01*
X2444006Y317989D01*
X2442313D01*
X2441466Y317143D01*
X1603588Y257809D02*
Y253577D01*
X1604435Y252731D01*
X1606127D01*
X1606974Y253577D01*
Y257809D01*
X1612052D02*
X1610359Y256963D01*
X1608666Y255270D01*
Y253577D01*
X1609513Y252731D01*
X1611206D01*
X1612052Y253577D01*
Y254424D01*
X1611206Y255270D01*
X1608666D01*
X479081Y240154D02*
Y245233D01*
X481620D01*
X482466Y244387D01*
Y242694D01*
X481620Y241847D01*
X479081D01*
X480774D02*
X482466Y240154D01*
X484159D02*
X485852D01*
X485005D01*
Y245233D01*
X484159Y244387D01*
X488391D02*
X489238Y245233D01*
X490930D01*
X491777Y244387D01*
Y243540D01*
X490930Y242694D01*
X491777Y241847D01*
Y241001D01*
X490930Y240154D01*
X489238D01*
X488391Y241001D01*
Y241847D01*
X489238Y242694D01*
X488391Y243540D01*
Y244387D01*
X489238Y242694D02*
X490930D01*
X544257Y240641D02*
Y245719D01*
X546796D01*
X547642Y244873D01*
Y243180D01*
X546796Y242334D01*
X544257D01*
X545950D02*
X547642Y240641D01*
X549335D02*
X551028D01*
X550181D01*
Y245719D01*
X549335Y244873D01*
X553567Y245719D02*
X556953D01*
Y244873D01*
X553567Y241487D01*
Y240641D01*
X2074758Y312419D02*
Y308187D01*
X2075605Y307341D01*
X2077297D01*
X2078144Y308187D01*
Y312419D01*
X2083222D02*
X2079836D01*
Y309880D01*
X2081529Y310726D01*
X2082376D01*
X2083222Y309880D01*
Y308187D01*
X2082376Y307341D01*
X2080683D01*
X2079836Y308187D01*
X78740Y314959D02*
X77047D01*
X77894D01*
Y310727D01*
X77047Y309881D01*
X76201D01*
X75354Y310727D01*
X80433Y309881D02*
X82126D01*
X81279D01*
Y314959D01*
X80433Y314113D01*
X1581152Y142851D02*
Y147929D01*
X1583691D01*
X1584538Y147083D01*
Y145390D01*
X1583691Y144544D01*
X1581152D01*
X1582845D02*
X1584538Y142851D01*
X1586230D02*
X1587923D01*
X1587077D01*
Y147929D01*
X1586230Y147083D01*
X1593848Y147929D02*
X1592155Y147083D01*
X1590462Y145390D01*
Y143697D01*
X1591309Y142851D01*
X1593002D01*
X1593848Y143697D01*
Y144544D01*
X1593002Y145390D01*
X1590462D01*
X2007872Y302261D02*
Y307339D01*
X2010411D01*
X2011258Y306493D01*
Y304800D01*
X2010411Y303954D01*
X2007872D01*
X2009565D02*
X2011258Y302261D01*
X2012950D02*
X2014643D01*
X2013797D01*
Y307339D01*
X2012950Y306493D01*
X2017182Y303107D02*
X2018029Y302261D01*
X2019722D01*
X2020568Y303107D01*
Y306493D01*
X2019722Y307339D01*
X2018029D01*
X2017182Y306493D01*
Y305646D01*
X2018029Y304800D01*
X2020568D01*
X1967232Y302261D02*
Y307339D01*
X1969771D01*
X1970618Y306493D01*
Y304800D01*
X1969771Y303954D01*
X1967232D01*
X1968925D02*
X1970618Y302261D01*
X1972310D02*
X1974003D01*
X1973157D01*
Y307339D01*
X1972310Y306493D01*
X1979082Y302261D02*
Y307339D01*
X1976542Y304800D01*
X1979928D01*
X1449072Y69851D02*
Y74929D01*
X1451611D01*
X1452458Y74083D01*
Y72390D01*
X1451611Y71544D01*
X1449072D01*
X1450765D02*
X1452458Y69851D01*
X1454150D02*
X1455843D01*
X1454997D01*
Y74929D01*
X1454150Y74083D01*
X1458382D02*
X1459229Y74929D01*
X1460922D01*
X1461768Y74083D01*
Y73236D01*
X1460922Y72390D01*
X1460075D01*
X1460922D01*
X1461768Y71544D01*
Y70697D01*
X1460922Y69851D01*
X1459229D01*
X1458382Y70697D01*
X174839Y62661D02*
Y67739D01*
X177378D01*
X178224Y66893D01*
Y65200D01*
X177378Y64354D01*
X174839D01*
X176531D02*
X178224Y62661D01*
X179917D02*
X181610D01*
X180763D01*
Y67739D01*
X179917Y66893D01*
X184149Y62661D02*
X185842D01*
X184995D01*
Y67739D01*
X184149Y66893D01*
X250192Y62631D02*
Y67709D01*
X252731D01*
X253578Y66863D01*
Y65170D01*
X252731Y64324D01*
X250192D01*
X251885D02*
X253578Y62631D01*
X255270D02*
X256963D01*
X256117D01*
Y67709D01*
X255270Y66863D01*
X259502D02*
X260349Y67709D01*
X262042D01*
X262888Y66863D01*
Y63477D01*
X262042Y62631D01*
X260349D01*
X259502Y63477D01*
Y66863D01*
X2002368Y58421D02*
Y63499D01*
X2004907D01*
X2005754Y62653D01*
Y60960D01*
X2004907Y60114D01*
X2002368D01*
X2004061D02*
X2005754Y58421D01*
X2007446Y59267D02*
X2008293Y58421D01*
X2009986D01*
X2010832Y59267D01*
Y62653D01*
X2009986Y63499D01*
X2008293D01*
X2007446Y62653D01*
Y61806D01*
X2008293Y60960D01*
X2010832D01*
X1822028Y317501D02*
Y322579D01*
X1824567D01*
X1825414Y321733D01*
Y320040D01*
X1824567Y319194D01*
X1822028D01*
X1823721D02*
X1825414Y317501D01*
X1827106Y321733D02*
X1827953Y322579D01*
X1829646D01*
X1830492Y321733D01*
Y320886D01*
X1829646Y320040D01*
X1830492Y319194D01*
Y318347D01*
X1829646Y317501D01*
X1827953D01*
X1827106Y318347D01*
Y319194D01*
X1827953Y320040D01*
X1827106Y320886D01*
Y321733D01*
X1827953Y320040D02*
X1829646D01*
X1822028Y277675D02*
Y282753D01*
X1824567D01*
X1825414Y281907D01*
Y280214D01*
X1824567Y279368D01*
X1822028D01*
X1823721D02*
X1825414Y277675D01*
X1827106Y282753D02*
X1830492D01*
Y281907D01*
X1827106Y278521D01*
Y277675D01*
X1390768Y98531D02*
Y103609D01*
X1393307D01*
X1394154Y102763D01*
Y101070D01*
X1393307Y100224D01*
X1390768D01*
X1392461D02*
X1394154Y98531D01*
X1399232Y103609D02*
X1397539Y102763D01*
X1395846Y101070D01*
Y99377D01*
X1396693Y98531D01*
X1398386D01*
X1399232Y99377D01*
Y100224D01*
X1398386Y101070D01*
X1395846D01*
X932028Y162771D02*
Y167849D01*
X934567D01*
X935414Y167003D01*
Y165310D01*
X934567Y164464D01*
X932028D01*
X933721D02*
X935414Y162771D01*
X940492Y167849D02*
X937106D01*
Y165310D01*
X938799Y166156D01*
X939646D01*
X940492Y165310D01*
Y163617D01*
X939646Y162771D01*
X937953D01*
X937106Y163617D01*
X1292878Y235881D02*
Y240959D01*
X1295417D01*
X1296264Y240113D01*
Y238420D01*
X1295417Y237574D01*
X1292878D01*
X1294571D02*
X1296264Y235881D01*
X1300495D02*
Y240959D01*
X1297956Y238420D01*
X1301342D01*
X1192768Y235881D02*
Y240959D01*
X1195307D01*
X1196154Y240113D01*
Y238420D01*
X1195307Y237574D01*
X1192768D01*
X1194461D02*
X1196154Y235881D01*
X1197846Y240113D02*
X1198693Y240959D01*
X1200386D01*
X1201232Y240113D01*
Y239266D01*
X1200386Y238420D01*
X1199539D01*
X1200386D01*
X1201232Y237574D01*
Y236727D01*
X1200386Y235881D01*
X1198693D01*
X1197846Y236727D01*
X1092768Y235881D02*
Y240959D01*
X1095307D01*
X1096154Y240113D01*
Y238420D01*
X1095307Y237574D01*
X1092768D01*
X1094461D02*
X1096154Y235881D01*
X1101232D02*
X1097846D01*
X1101232Y239266D01*
Y240113D01*
X1100386Y240959D01*
X1098693D01*
X1097846Y240113D01*
X994274Y237151D02*
Y242229D01*
X996814D01*
X997660Y241383D01*
Y239690D01*
X996814Y238844D01*
X994274D01*
X995967D02*
X997660Y237151D01*
X999353D02*
X1001046D01*
X1000199D01*
Y242229D01*
X999353Y241383D01*
X173568Y97789D02*
Y92711D01*
X176107D01*
X176954Y93557D01*
Y96943D01*
X176107Y97789D01*
X173568D01*
X182032Y92711D02*
X178646D01*
X182032Y96096D01*
Y96943D01*
X181186Y97789D01*
X179493D01*
X178646Y96943D01*
X250614Y97789D02*
Y92711D01*
X253154D01*
X254000Y93557D01*
Y96943D01*
X253154Y97789D01*
X250614D01*
X255693Y92711D02*
X257386D01*
X256539D01*
Y97789D01*
X255693Y96943D01*
X2003638Y108373D02*
X2002791Y109219D01*
X2001098D01*
X2000252Y108373D01*
Y104987D01*
X2001098Y104141D01*
X2002791D01*
X2003638Y104987D01*
X2005330Y104141D02*
X2007023D01*
X2006177D01*
Y109219D01*
X2005330Y108373D01*
X2009562Y109219D02*
X2012948D01*
Y108373D01*
X2009562Y104987D01*
Y104141D01*
X2030858Y108373D02*
X2030011Y109219D01*
X2028318D01*
X2027472Y108373D01*
Y104987D01*
X2028318Y104141D01*
X2030011D01*
X2030858Y104987D01*
X2032550Y104141D02*
X2034243D01*
X2033397D01*
Y109219D01*
X2032550Y108373D01*
X2040168Y109219D02*
X2038475Y108373D01*
X2036782Y106680D01*
Y104987D01*
X2037629Y104141D01*
X2039321D01*
X2040168Y104987D01*
Y105834D01*
X2039321Y106680D01*
X2036782D01*
X1411818Y270933D02*
X1410971Y271779D01*
X1409279D01*
X1408432Y270933D01*
Y267547D01*
X1409279Y266701D01*
X1410971D01*
X1411818Y267547D01*
X1413510Y266701D02*
X1415203D01*
X1414357D01*
Y271779D01*
X1413510Y270933D01*
X1421128Y271779D02*
X1417742D01*
Y269240D01*
X1419435Y270086D01*
X1420282D01*
X1421128Y269240D01*
Y267547D01*
X1420282Y266701D01*
X1418589D01*
X1417742Y267547D01*
X1381338Y270933D02*
X1380491Y271779D01*
X1378799D01*
X1377952Y270933D01*
Y267547D01*
X1378799Y266701D01*
X1380491D01*
X1381338Y267547D01*
X1383030Y266701D02*
X1384723D01*
X1383877D01*
Y271779D01*
X1383030Y270933D01*
X1389802Y266701D02*
Y271779D01*
X1387262Y269240D01*
X1390648D01*
X1452458Y152993D02*
X1451611Y153839D01*
X1449919D01*
X1449072Y152993D01*
Y149607D01*
X1449919Y148761D01*
X1451611D01*
X1452458Y149607D01*
X1454150Y148761D02*
X1455843D01*
X1454997D01*
Y153839D01*
X1454150Y152993D01*
X1458382D02*
X1459229Y153839D01*
X1460922D01*
X1461768Y152993D01*
Y152146D01*
X1460922Y151300D01*
X1460075D01*
X1460922D01*
X1461768Y150454D01*
Y149607D01*
X1460922Y148761D01*
X1459229D01*
X1458382Y149607D01*
X1379408Y147743D02*
X1378561Y148589D01*
X1376868D01*
X1376022Y147743D01*
Y144357D01*
X1376868Y143511D01*
X1378561D01*
X1379408Y144357D01*
X1381100Y143511D02*
X1382793D01*
X1381947D01*
Y148589D01*
X1381100Y147743D01*
X1388718Y143511D02*
X1385332D01*
X1388718Y146896D01*
Y147743D01*
X1387872Y148589D01*
X1386179D01*
X1385332Y147743D01*
X1878150Y321733D02*
X1877303Y322579D01*
X1875610D01*
X1874764Y321733D01*
Y318347D01*
X1875610Y317501D01*
X1877303D01*
X1878150Y318347D01*
X1879842Y322579D02*
X1883228D01*
Y321733D01*
X1879842Y318347D01*
Y317501D01*
X1878150Y283242D02*
X1877303Y284089D01*
X1875610D01*
X1874764Y283242D01*
Y279857D01*
X1875610Y279010D01*
X1877303D01*
X1878150Y279857D01*
X1883228Y284089D02*
X1881535Y283242D01*
X1879842Y281550D01*
Y279857D01*
X1880689Y279010D01*
X1882382D01*
X1883228Y279857D01*
Y280703D01*
X1882382Y281550D01*
X1879842D01*
X1950468Y283286D02*
X1949621Y284132D01*
X1947928D01*
X1947082Y283286D01*
Y279900D01*
X1947928Y279054D01*
X1949621D01*
X1950468Y279900D01*
X1955546Y284132D02*
X1952160D01*
Y281593D01*
X1953853Y282439D01*
X1954700D01*
X1955546Y281593D01*
Y279900D01*
X1954700Y279054D01*
X1953007D01*
X1952160Y279900D01*
D17*
X990000Y100000D02*
Y160000D01*
Y100000D02*
X1050000D01*
Y160000D01*
X990000D02*
X1050000D01*
X1190000Y100000D02*
Y160000D01*
Y100000D02*
X1250000D01*
Y160000D01*
X1190000D02*
X1250000D01*
X1290000Y100000D02*
Y160000D01*
Y100000D02*
X1350000D01*
Y160000D01*
X1290000D02*
X1350000D01*
X1090000Y100000D02*
Y160000D01*
Y100000D02*
X1150000D01*
Y160000D01*
X1090000D02*
X1150000D01*
X1480065Y87780D02*
X1519065D01*
X1480065Y138280D02*
X1519065D01*
X1979960Y176220D02*
Y271520D01*
X2028260D01*
X1979960Y176220D02*
X2028260D01*
Y271520D01*
X1605032Y14286D02*
X1955032D01*
Y244286D01*
X1605032Y14286D02*
Y244286D01*
X1955032D01*
D18*
X1516380Y290830D02*
X1531620D01*
D19*
X2463548Y291087D02*
X2461856D01*
X2461009Y290241D01*
Y286856D01*
X2461856Y286009D01*
X2463548D01*
X2464395Y286856D01*
Y290241D01*
X2463548Y291087D01*
X2466087D02*
Y286856D01*
X2466934Y286009D01*
X2468627D01*
X2469473Y286856D01*
Y291087D01*
X2471166D02*
X2474551D01*
X2472859D01*
Y286009D01*
X2476244D02*
Y291087D01*
X2478783D01*
X2479630Y290241D01*
Y288548D01*
X2478783Y287702D01*
X2476244D01*
X2481322Y291087D02*
Y286856D01*
X2482169Y286009D01*
X2483862D01*
X2484708Y286856D01*
Y291087D01*
X2486401D02*
X2489787D01*
X2488094D01*
Y286009D01*
X2432660Y190929D02*
Y185851D01*
X2436045D01*
X2437738Y190929D02*
Y185851D01*
X2440277D01*
X2441124Y186697D01*
Y190083D01*
X2440277Y190929D01*
X2437738D01*
X2436045Y164683D02*
X2435199Y165529D01*
X2433506D01*
X2432660Y164683D01*
Y161297D01*
X2433506Y160451D01*
X2435199D01*
X2436045Y161297D01*
X2437738Y165529D02*
Y160451D01*
X2441124D01*
X2442816Y165529D02*
Y160451D01*
Y162144D01*
X2446202Y165529D01*
X2443663Y162990D01*
X2446202Y160451D01*
X2432660Y140129D02*
Y135051D01*
X2435199D01*
X2436045Y135897D01*
Y139283D01*
X2435199Y140129D01*
X2432660D01*
X2437738Y135051D02*
Y138436D01*
X2439431Y140129D01*
X2441124Y138436D01*
Y135051D01*
Y137590D01*
X2437738D01*
X2442816Y140129D02*
X2446202D01*
X2444509D01*
Y135051D01*
X2436045Y216329D02*
X2432660D01*
Y211251D01*
X2436045D01*
X2432660Y213790D02*
X2434352D01*
X2437738Y211251D02*
Y216329D01*
X2441124Y211251D01*
Y216329D01*
X2432660Y262051D02*
X2434352D01*
X2433506D01*
Y267129D01*
X2432660Y266283D01*
X2440277Y262051D02*
X2436892D01*
X2440277Y265436D01*
Y266283D01*
X2439431Y267129D01*
X2437738D01*
X2436892Y266283D01*
X2441970Y267129D02*
Y263744D01*
X2443663Y262051D01*
X2445356Y263744D01*
Y267129D01*
X2508385Y114663D02*
X2507539Y115509D01*
X2505846D01*
X2505000Y114663D01*
Y111277D01*
X2505846Y110431D01*
X2507539D01*
X2508385Y111277D01*
Y112970D01*
X2506692D01*
X2510078Y110431D02*
Y115509D01*
X2513463Y110431D01*
Y115509D01*
X2515156D02*
Y110431D01*
X2517695D01*
X2518542Y111277D01*
Y114663D01*
X2517695Y115509D01*
X2515156D01*
X2508385Y139663D02*
X2507539Y140509D01*
X2505846D01*
X2505000Y139663D01*
Y136277D01*
X2505846Y135431D01*
X2507539D01*
X2508385Y136277D01*
Y137970D01*
X2506692D01*
X2510078Y135431D02*
Y140509D01*
X2513463Y135431D01*
Y140509D01*
X2515156D02*
Y135431D01*
X2517695D01*
X2518542Y136277D01*
Y139663D01*
X2517695Y140509D01*
X2515156D01*
X2508385Y164663D02*
X2507539Y165509D01*
X2505846D01*
X2505000Y164663D01*
Y161277D01*
X2505846Y160431D01*
X2507539D01*
X2508385Y161277D01*
Y162970D01*
X2506692D01*
X2510078Y160431D02*
Y165509D01*
X2513463Y160431D01*
Y165509D01*
X2515156D02*
Y160431D01*
X2517695D01*
X2518542Y161277D01*
Y164663D01*
X2517695Y165509D01*
X2515156D01*
X2508385Y189663D02*
X2507539Y190509D01*
X2505846D01*
X2505000Y189663D01*
Y186277D01*
X2505846Y185431D01*
X2507539D01*
X2508385Y186277D01*
Y187970D01*
X2506692D01*
X2510078Y185431D02*
Y190509D01*
X2513463Y185431D01*
Y190509D01*
X2515156D02*
Y185431D01*
X2517695D01*
X2518542Y186277D01*
Y189663D01*
X2517695Y190509D01*
X2515156D01*
X2508385Y214663D02*
X2507539Y215509D01*
X2505846D01*
X2505000Y214663D01*
Y211277D01*
X2505846Y210431D01*
X2507539D01*
X2508385Y211277D01*
Y212970D01*
X2506692D01*
X2510078Y210431D02*
Y215509D01*
X2513463Y210431D01*
Y215509D01*
X2515156D02*
Y210431D01*
X2517695D01*
X2518542Y211277D01*
Y214663D01*
X2517695Y215509D01*
X2515156D01*
X2432675Y236091D02*
X2434368D01*
X2433522D01*
Y241169D01*
X2432675Y240322D01*
X2440293Y236091D02*
X2436908D01*
X2440293Y239476D01*
Y240322D01*
X2439447Y241169D01*
X2437754D01*
X2436908Y240322D01*
X2441986Y241169D02*
Y237783D01*
X2443679Y236091D01*
X2445371Y237783D01*
Y241169D01*
X2506498Y262409D02*
X2508190D01*
X2507344D01*
Y267488D01*
X2506498Y266641D01*
X2514115Y262409D02*
X2510730D01*
X2514115Y265795D01*
Y266641D01*
X2513269Y267488D01*
X2511576D01*
X2510730Y266641D01*
X2515808Y267488D02*
Y264102D01*
X2517501Y262409D01*
X2519194Y264102D01*
Y267488D01*
X2506498Y239401D02*
X2508190D01*
X2507344D01*
Y244479D01*
X2506498Y243633D01*
X2514115Y239401D02*
X2510730D01*
X2514115Y242786D01*
Y243633D01*
X2513269Y244479D01*
X2511576D01*
X2510730Y243633D01*
X2515808Y244479D02*
Y241094D01*
X2517501Y239401D01*
X2519194Y241094D01*
Y244479D01*
X85007Y239979D02*
X86700D01*
X85854D01*
Y245058D01*
X85007Y244211D01*
X92625Y239979D02*
X89239D01*
X92625Y243365D01*
Y244211D01*
X91778Y245058D01*
X90085D01*
X89239Y244211D01*
X94318Y245058D02*
Y241672D01*
X96010Y239979D01*
X97703Y241672D01*
Y245058D01*
X85007Y262988D02*
X86700D01*
X85854D01*
Y268066D01*
X85007Y267220D01*
X92625Y262988D02*
X89239D01*
X92625Y266373D01*
Y267220D01*
X91778Y268066D01*
X90085D01*
X89239Y267220D01*
X94318Y268066D02*
Y264681D01*
X96010Y262988D01*
X97703Y264681D01*
Y268066D01*
X11185Y236669D02*
X12878D01*
X12031D01*
Y241747D01*
X11185Y240901D01*
X18803Y236669D02*
X15417D01*
X18803Y240054D01*
Y240901D01*
X17956Y241747D01*
X16263D01*
X15417Y240901D01*
X20495Y241747D02*
Y238362D01*
X22188Y236669D01*
X23881Y238362D01*
Y241747D01*
X42769Y291087D02*
X44462D01*
X43615D01*
Y286009D01*
X42769D01*
X44462D01*
X47001D02*
Y291087D01*
X50387Y286009D01*
Y291087D01*
X52079Y286009D02*
Y291087D01*
X54619D01*
X55465Y290241D01*
Y288548D01*
X54619Y287702D01*
X52079D01*
X57158Y291087D02*
Y286856D01*
X58004Y286009D01*
X59697D01*
X60543Y286856D01*
Y291087D01*
X62236D02*
X65622D01*
X63929D01*
Y286009D01*
X86895Y215241D02*
X86048Y216087D01*
X84355D01*
X83509Y215241D01*
Y211856D01*
X84355Y211009D01*
X86048D01*
X86895Y211856D01*
Y213548D01*
X85202D01*
X88588Y211009D02*
Y216087D01*
X91973Y211009D01*
Y216087D01*
X93666D02*
Y211009D01*
X96205D01*
X97051Y211856D01*
Y215241D01*
X96205Y216087D01*
X93666D01*
X86895Y190241D02*
X86048Y191087D01*
X84355D01*
X83509Y190241D01*
Y186856D01*
X84355Y186009D01*
X86048D01*
X86895Y186856D01*
Y188548D01*
X85202D01*
X88588Y186009D02*
Y191087D01*
X91973Y186009D01*
Y191087D01*
X93666D02*
Y186009D01*
X96205D01*
X97051Y186856D01*
Y190241D01*
X96205Y191087D01*
X93666D01*
X86895Y165241D02*
X86048Y166087D01*
X84355D01*
X83509Y165241D01*
Y161856D01*
X84355Y161009D01*
X86048D01*
X86895Y161856D01*
Y163548D01*
X85202D01*
X88588Y161009D02*
Y166087D01*
X91973Y161009D01*
Y166087D01*
X93666D02*
Y161009D01*
X96205D01*
X97051Y161856D01*
Y165241D01*
X96205Y166087D01*
X93666D01*
X86895Y140241D02*
X86048Y141088D01*
X84355D01*
X83509Y140241D01*
Y136856D01*
X84355Y136009D01*
X86048D01*
X86895Y136856D01*
Y138548D01*
X85202D01*
X88588Y136009D02*
Y141088D01*
X91973Y136009D01*
Y141088D01*
X93666D02*
Y136009D01*
X96205D01*
X97051Y136856D01*
Y140241D01*
X96205Y141088D01*
X93666D01*
X86895Y115241D02*
X86048Y116088D01*
X84355D01*
X83509Y115241D01*
Y111856D01*
X84355Y111009D01*
X86048D01*
X86895Y111856D01*
Y113548D01*
X85202D01*
X88588Y111009D02*
Y116088D01*
X91973Y111009D01*
Y116088D01*
X93666D02*
Y111009D01*
X96205D01*
X97051Y111856D01*
Y115241D01*
X96205Y116088D01*
X93666D01*
X11169Y262629D02*
X12862D01*
X12016D01*
Y267708D01*
X11169Y266861D01*
X18787Y262629D02*
X15401D01*
X18787Y266015D01*
Y266861D01*
X17940Y267708D01*
X16248D01*
X15401Y266861D01*
X20480Y267708D02*
Y264322D01*
X22172Y262629D01*
X23865Y264322D01*
Y267708D01*
X14555Y216908D02*
X11169D01*
Y211829D01*
X14555D01*
X11169Y214368D02*
X12862D01*
X16248Y211829D02*
Y216908D01*
X19633Y211829D01*
Y216908D01*
X11169Y140708D02*
Y135629D01*
X13708D01*
X14555Y136475D01*
Y139861D01*
X13708Y140708D01*
X11169D01*
X16248Y135629D02*
Y139015D01*
X17940Y140708D01*
X19633Y139015D01*
Y135629D01*
Y138168D01*
X16248D01*
X21326Y140708D02*
X24711D01*
X23019D01*
Y135629D01*
X14555Y165261D02*
X13708Y166108D01*
X12016D01*
X11169Y165261D01*
Y161875D01*
X12016Y161029D01*
X13708D01*
X14555Y161875D01*
X16248Y166108D02*
Y161029D01*
X19633D01*
X21326Y166108D02*
Y161029D01*
Y162722D01*
X24711Y166108D01*
X22172Y163568D01*
X24711Y161029D01*
X11169Y191507D02*
Y186429D01*
X14555D01*
X16248Y191507D02*
Y186429D01*
X18787D01*
X19633Y187276D01*
Y190661D01*
X18787Y191507D01*
X16248D01*
X1006669Y201732D02*
X1011748D01*
X1009209D01*
Y194114D01*
X1014287Y201732D02*
X1016826D01*
X1015556D01*
Y194114D01*
X1014287D01*
X1016826D01*
X1020635D02*
Y201732D01*
X1023174Y199193D01*
X1025713Y201732D01*
Y194114D01*
X1033331Y201732D02*
X1028252D01*
Y194114D01*
X1033331D01*
X1028252Y197923D02*
X1030791D01*
X1106034Y201309D02*
X1111113D01*
X1108574D01*
Y193691D01*
X1118730Y201309D02*
X1113652D01*
Y193691D01*
X1118730D01*
X1113652Y197500D02*
X1116191D01*
X1121270Y193691D02*
Y201309D01*
X1123809Y198770D01*
X1126348Y201309D01*
Y193691D01*
X1128887D02*
Y201309D01*
X1132696D01*
X1133966Y200039D01*
Y197500D01*
X1132696Y196230D01*
X1128887D01*
X1209209Y193057D02*
Y200674D01*
X1213017D01*
X1214287Y199404D01*
Y196865D01*
X1213017Y195596D01*
X1209209D01*
X1211748D02*
X1214287Y193057D01*
X1216826Y200674D02*
Y193057D01*
Y196865D01*
X1221904D01*
Y200674D01*
Y193057D01*
X1224444Y194326D02*
X1230791Y200674D01*
X1224444D02*
Y201944D01*
X1225713D01*
Y200674D01*
X1224444D01*
X1229522Y193057D02*
Y194326D01*
X1230791D01*
Y193057D01*
X1229522D01*
X1314922Y200462D02*
X1313652Y201732D01*
X1311113D01*
X1309843Y200462D01*
Y195384D01*
X1311113Y194114D01*
X1313652D01*
X1314922Y195384D01*
X1321270Y201732D02*
X1318730D01*
X1317461Y200462D01*
Y195384D01*
X1318730Y194114D01*
X1321270D01*
X1322539Y195384D01*
Y200462D01*
X1321270Y201732D01*
X1330157Y194114D02*
X1325078D01*
X1330157Y199193D01*
Y200462D01*
X1328887Y201732D01*
X1326348D01*
X1325078Y200462D01*
X415636Y217593D02*
X414790Y218439D01*
X413097D01*
X412251Y217593D01*
Y214207D01*
X413097Y213361D01*
X414790D01*
X415636Y214207D01*
X417329D02*
X418176Y213361D01*
X419868D01*
X420715Y214207D01*
Y217593D01*
X419868Y218439D01*
X418176D01*
X417329Y217593D01*
Y216746D01*
X418176Y215900D01*
X420715D01*
X574154Y191693D02*
X573307Y192539D01*
X571614D01*
X570768Y191693D01*
Y188307D01*
X571614Y187461D01*
X573307D01*
X574154Y188307D01*
X575846Y191693D02*
X576693Y192539D01*
X578386D01*
X579232Y191693D01*
Y190846D01*
X578386Y190000D01*
X579232Y189154D01*
Y188307D01*
X578386Y187461D01*
X576693D01*
X575846Y188307D01*
Y189154D01*
X576693Y190000D01*
X575846Y190846D01*
Y191693D01*
X576693Y190000D02*
X578386D01*
M02*
