G04*
G04 #@! TF.GenerationSoftware,Altium Limited,Altium Designer,25.8.1 (18)*
G04*
G04 Layer_Color=8388736*
%FSLAX44Y44*%
%MOMM*%
G71*
G04*
G04 #@! TF.SameCoordinates,57F80322-994B-4A8F-A2F4-5028E090627E*
G04*
G04*
G04 #@! TF.FilePolarity,Negative*
G04*
G01*
G75*
G04:AMPARAMS|DCode=29|XSize=2.25mm|YSize=1.53mm|CornerRadius=0.1785mm|HoleSize=0mm|Usage=FLASHONLY|Rotation=270.000|XOffset=0mm|YOffset=0mm|HoleType=Round|Shape=RoundedRectangle|*
%AMROUNDEDRECTD29*
21,1,2.2500,1.1730,0,0,270.0*
21,1,1.8930,1.5300,0,0,270.0*
1,1,0.3570,-0.5865,-0.9465*
1,1,0.3570,-0.5865,0.9465*
1,1,0.3570,0.5865,0.9465*
1,1,0.3570,0.5865,-0.9465*
%
%ADD29ROUNDEDRECTD29*%
G04:AMPARAMS|DCode=30|XSize=1.15mm|YSize=1.85mm|CornerRadius=0.2mm|HoleSize=0mm|Usage=FLASHONLY|Rotation=180.000|XOffset=0mm|YOffset=0mm|HoleType=Round|Shape=RoundedRectangle|*
%AMROUNDEDRECTD30*
21,1,1.1500,1.4500,0,0,180.0*
21,1,0.7500,1.8500,0,0,180.0*
1,1,0.4000,-0.3750,0.7250*
1,1,0.4000,0.3750,0.7250*
1,1,0.4000,0.3750,-0.7250*
1,1,0.4000,-0.3750,-0.7250*
%
%ADD30ROUNDEDRECTD30*%
G04:AMPARAMS|DCode=31|XSize=2.12mm|YSize=0.75mm|CornerRadius=0.15mm|HoleSize=0mm|Usage=FLASHONLY|Rotation=180.000|XOffset=0mm|YOffset=0mm|HoleType=Round|Shape=RoundedRectangle|*
%AMROUNDEDRECTD31*
21,1,2.1200,0.4500,0,0,180.0*
21,1,1.8200,0.7500,0,0,180.0*
1,1,0.3000,-0.9100,0.2250*
1,1,0.3000,0.9100,0.2250*
1,1,0.3000,0.9100,-0.2250*
1,1,0.3000,-0.9100,-0.2250*
%
%ADD31ROUNDEDRECTD31*%
G04:AMPARAMS|DCode=32|XSize=1.55mm|YSize=1.85mm|CornerRadius=0.25mm|HoleSize=0mm|Usage=FLASHONLY|Rotation=0.000|XOffset=0mm|YOffset=0mm|HoleType=Round|Shape=RoundedRectangle|*
%AMROUNDEDRECTD32*
21,1,1.5500,1.3500,0,0,0.0*
21,1,1.0500,1.8500,0,0,0.0*
1,1,0.5000,0.5250,-0.6750*
1,1,0.5000,-0.5250,-0.6750*
1,1,0.5000,-0.5250,0.6750*
1,1,0.5000,0.5250,0.6750*
%
%ADD32ROUNDEDRECTD32*%
G04:AMPARAMS|DCode=33|XSize=0.75mm|YSize=0.85mm|CornerRadius=0.15mm|HoleSize=0mm|Usage=FLASHONLY|Rotation=270.000|XOffset=0mm|YOffset=0mm|HoleType=Round|Shape=RoundedRectangle|*
%AMROUNDEDRECTD33*
21,1,0.7500,0.5500,0,0,270.0*
21,1,0.4500,0.8500,0,0,270.0*
1,1,0.3000,-0.2750,-0.2250*
1,1,0.3000,-0.2750,0.2250*
1,1,0.3000,0.2750,0.2250*
1,1,0.3000,0.2750,-0.2250*
%
%ADD33ROUNDEDRECTD33*%
%ADD34R,1.9900X1.9500*%
G04:AMPARAMS|DCode=35|XSize=0.95mm|YSize=1.15mm|CornerRadius=0.175mm|HoleSize=0mm|Usage=FLASHONLY|Rotation=90.000|XOffset=0mm|YOffset=0mm|HoleType=Round|Shape=RoundedRectangle|*
%AMROUNDEDRECTD35*
21,1,0.9500,0.8000,0,0,90.0*
21,1,0.6000,1.1500,0,0,90.0*
1,1,0.3500,0.4000,0.3000*
1,1,0.3500,0.4000,-0.3000*
1,1,0.3500,-0.4000,-0.3000*
1,1,0.3500,-0.4000,0.3000*
%
%ADD35ROUNDEDRECTD35*%
G04:AMPARAMS|DCode=36|XSize=1.15mm|YSize=1.85mm|CornerRadius=0.2mm|HoleSize=0mm|Usage=FLASHONLY|Rotation=90.000|XOffset=0mm|YOffset=0mm|HoleType=Round|Shape=RoundedRectangle|*
%AMROUNDEDRECTD36*
21,1,1.1500,1.4500,0,0,90.0*
21,1,0.7500,1.8500,0,0,90.0*
1,1,0.4000,0.7250,0.3750*
1,1,0.4000,0.7250,-0.3750*
1,1,0.4000,-0.7250,-0.3750*
1,1,0.4000,-0.7250,0.3750*
%
%ADD36ROUNDEDRECTD36*%
G04:AMPARAMS|DCode=37|XSize=1.55mm|YSize=1.85mm|CornerRadius=0.25mm|HoleSize=0mm|Usage=FLASHONLY|Rotation=270.000|XOffset=0mm|YOffset=0mm|HoleType=Round|Shape=RoundedRectangle|*
%AMROUNDEDRECTD37*
21,1,1.5500,1.3500,0,0,270.0*
21,1,1.0500,1.8500,0,0,270.0*
1,1,0.5000,-0.6750,-0.5250*
1,1,0.5000,-0.6750,0.5250*
1,1,0.5000,0.6750,0.5250*
1,1,0.5000,0.6750,-0.5250*
%
%ADD37ROUNDEDRECTD37*%
%ADD38R,1.8000X1.8000*%
%ADD39O,1.8000X1.8000*%
%ADD40C,1.4300*%
%ADD41R,1.4300X1.4300*%
%ADD42C,1.7502*%
%ADD43C,1.3680*%
%ADD44R,1.3680X1.3680*%
%ADD45C,1.8000*%
%ADD46R,1.8000X1.8000*%
%ADD47R,1.5200X1.5200*%
%ADD48C,1.5200*%
%ADD49C,2.0296*%
%ADD50C,2.0320*%
D29*
X1042400Y84500D02*
D03*
X997600D02*
D03*
X1042400Y175500D02*
D03*
X997600D02*
D03*
X1242400Y84500D02*
D03*
X1197600D02*
D03*
X1242400Y175500D02*
D03*
X1197600D02*
D03*
X1342400Y84500D02*
D03*
X1297600D02*
D03*
X1342400Y175500D02*
D03*
X1297600D02*
D03*
X1142400Y84500D02*
D03*
X1097600D02*
D03*
X1142400Y175500D02*
D03*
X1097600D02*
D03*
D30*
X1278000Y220000D02*
D03*
X1297000D02*
D03*
X1404500Y85000D02*
D03*
X1385500D02*
D03*
X1472590Y72390D02*
D03*
X1491590D02*
D03*
X1097000Y220000D02*
D03*
X1078000D02*
D03*
X997000D02*
D03*
X978000D02*
D03*
X1197000D02*
D03*
X1178000D02*
D03*
X1816090Y303430D02*
D03*
X1835090D02*
D03*
X2016120Y81020D02*
D03*
X1997120D02*
D03*
X1816090Y264450D02*
D03*
X1835090D02*
D03*
D31*
X1524265Y93980D02*
D03*
Y106680D02*
D03*
Y119380D02*
D03*
Y132080D02*
D03*
X1474865D02*
D03*
Y119380D02*
D03*
Y106680D02*
D03*
Y93980D02*
D03*
D32*
X933760Y130810D02*
D03*
X956620D02*
D03*
X1963522Y264160D02*
D03*
X1940662D02*
D03*
X1865760Y303430D02*
D03*
X1888620D02*
D03*
X1888620Y264450D02*
D03*
X1865760D02*
D03*
D33*
X125046Y269854D02*
D03*
Y259854D02*
D03*
D34*
X124460Y237250D02*
D03*
Y207250D02*
D03*
D35*
X236456Y91560D02*
D03*
Y106560D02*
D03*
X160520D02*
D03*
Y91560D02*
D03*
D36*
Y65380D02*
D03*
Y46380D02*
D03*
X236456Y65170D02*
D03*
Y46170D02*
D03*
X504990Y243180D02*
D03*
Y224180D02*
D03*
X530390Y243180D02*
D03*
Y224180D02*
D03*
X1567180Y145390D02*
D03*
Y126390D02*
D03*
X2032000Y295300D02*
D03*
Y314300D02*
D03*
X1993320D02*
D03*
Y295300D02*
D03*
X956620Y174500D02*
D03*
Y155500D02*
D03*
D37*
X1402620Y146050D02*
D03*
Y123190D02*
D03*
X1433610Y146050D02*
D03*
Y123190D02*
D03*
X2033820Y154880D02*
D03*
Y132020D02*
D03*
X1385620Y228020D02*
D03*
Y250880D02*
D03*
X1416620Y228020D02*
D03*
Y250880D02*
D03*
X2006600Y154940D02*
D03*
Y132080D02*
D03*
D38*
X352590Y46414D02*
D03*
Y296414D02*
D03*
D39*
X377990Y46414D02*
D03*
X403390D02*
D03*
X428790D02*
D03*
X455435Y46659D02*
D03*
X479590Y46414D02*
D03*
X504990D02*
D03*
X530390D02*
D03*
X555790D02*
D03*
X581190D02*
D03*
X657390Y296414D02*
D03*
X631990D02*
D03*
X606590D02*
D03*
X581190D02*
D03*
X555790D02*
D03*
X530390D02*
D03*
X504990D02*
D03*
X480835D02*
D03*
X454190D02*
D03*
X428790D02*
D03*
X403390D02*
D03*
X377990D02*
D03*
X708190D02*
D03*
X682790D02*
D03*
X733590D02*
D03*
D40*
X472440Y177400D02*
D03*
X656780Y160420D02*
D03*
D41*
X472440Y127400D02*
D03*
X656780Y210420D02*
D03*
D42*
X1468120Y278130D02*
D03*
Y252730D02*
D03*
Y227330D02*
D03*
Y201930D02*
D03*
X1544320D02*
D03*
Y227330D02*
D03*
Y252730D02*
D03*
Y278130D02*
D03*
D43*
X2004060Y198470D02*
D03*
Y223870D02*
D03*
D44*
Y249270D02*
D03*
D45*
X1788632Y230286D02*
D03*
X1814032D02*
D03*
X1839432D02*
D03*
X1864832D02*
D03*
X1890232D02*
D03*
X1915632D02*
D03*
D46*
X1941032D02*
D03*
D47*
X2463120Y264850D02*
D03*
X40760Y265250D02*
D03*
D48*
X2488520Y264850D02*
D03*
X2463120Y239450D02*
D03*
X2488520D02*
D03*
X2463120Y214050D02*
D03*
X2488520D02*
D03*
X2463120Y188650D02*
D03*
X2488520D02*
D03*
X2463120Y163250D02*
D03*
X2488520D02*
D03*
X2463120Y137850D02*
D03*
X2488520D02*
D03*
X2463120Y112450D02*
D03*
X2488520D02*
D03*
X66160Y112850D02*
D03*
X40760D02*
D03*
X66160Y138250D02*
D03*
Y163650D02*
D03*
Y189050D02*
D03*
Y214450D02*
D03*
Y239850D02*
D03*
X40760D02*
D03*
X66160Y265250D02*
D03*
X40760Y138250D02*
D03*
Y189050D02*
D03*
Y214450D02*
D03*
Y163650D02*
D03*
D49*
X185920Y138302D02*
D03*
X236720D02*
D03*
X211320D02*
D03*
X160520D02*
D03*
D50*
X2066160Y132362D02*
D03*
Y157762D02*
D03*
Y183162D02*
D03*
Y208562D02*
D03*
M02*
